<svg width="1440" height="128" fill="none" xmlns="http://www.w3.org/2000/svg"><path d="M-8.265 63.322H1456" stroke="#101820" stroke-width="40"/><path opacity=".02" d="M-17 52.403h1450.07" stroke="#fff" stroke-width="10" stroke-linecap="round"/><path opacity=".1" d="M177.487 61.793h2.957v.85h-1.903l1.903 2.266v4.815h-2.957v-.85h2.108v-3.716l-2.108-2.515v-.85Zm5.537 3.966v-3.116h-1.258v6.231h1.122v.85h-1.972v-7.93h2.957v3.965h-.849Zm6.477 3.965v-7.93h.849v7.93h-.849Zm1.994-1.665c0-.121.037-.223.113-.306a.416.416 0 0 1 .306-.125c.121 0 .223.042.306.125a.416.416 0 0 1 .124.306c0 .12-.041.222-.124.306a.438.438 0 0 1-.306.113.438.438 0 0 1-.306-.113.436.436 0 0 1-.113-.306Zm0-4.589c0-.12.037-.223.113-.306a.416.416 0 0 1 .306-.125c.121 0 .223.042.306.125a.415.415 0 0 1 .124.306c0 .12-.041.223-.124.306a.438.438 0 0 1-.306.113.438.438 0 0 1-.306-.113.436.436 0 0 1-.113-.306Zm1.435-1.677h2.957v7.931h-.85v-7.081h-2.107v-.85Zm3.429 7.931V64.91h.849v3.965h1.258V64.91h.85v4.815h-2.957Zm0-7.93h2.957v.849h-2.957v-.85Zm6.386 0v7.93h-.85v-7.081h-1.257v7.081h-.85v-7.93h2.957Zm3.429 0v7.93h-.85V65.76h-1.257v3.965h-.85V64.91h2.107v-2.266h-2.107v-.85h2.957Zm.472 0h2.957v7.93h-.85V65.76h-2.107v-.85h2.107v-2.266h-2.107v-.85Zm3.203 7.93v-7.93h.849l.85 2.061.861-2.062h.85v3.966h-.85v-2.38l-.657 1.383h-.397l-.657-1.383v6.345h-.849Zm3.655-.85h1.054V65.76h.85v3.115h1.053v.85h-2.957v-.85Zm0-7.08h2.957v.849h-2.957v-.85Zm4.71 0 .94 4.746.113-2.764h.737l-.227 5.835-.736.113-1.043-5.302-.442 5.302-.736-.113.657-7.818h.737Zm5.106 7.93h-2.958v-7.93h.85v7.08h2.108v.85Zm-.85-3.965v-3.966h.85v3.966h-.85Zm9.434-.85v4.815h-.85V65.76h-1.258v3.965h-.849V64.91h2.957Zm-.963-2.685c0-.121.037-.223.113-.306a.416.416 0 0 1 .306-.125c.121 0 .223.042.306.125a.415.415 0 0 1 .124.306c0 .12-.041.223-.124.306a.438.438 0 0 1-.306.113.438.438 0 0 1-.306-.113.436.436 0 0 1-.113-.306Zm-1.881 0a.44.44 0 0 1 .113-.306.416.416 0 0 1 .306-.125c.121 0 .223.042.306.125a.416.416 0 0 1 .125.306c0 .12-.042.223-.125.306a.438.438 0 0 1-.306.113.438.438 0 0 1-.306-.113.44.44 0 0 1-.113-.306Zm6.273-.43v7.93h-.85V65.76h-1.258v3.965h-.849V64.91h2.107v-2.266h-2.107v-.85h2.957Zm1.322 0v3.115h2.107v4.815h-.85V65.76h-1.257v3.965h-.85v-7.93h.85Zm1.144.543a.44.44 0 0 1 .113-.306.416.416 0 0 1 .306-.125c.121 0 .223.042.306.125a.416.416 0 0 1 .125.306c0 .12-.042.223-.125.306a.438.438 0 0 1-.306.113.438.438 0 0 1-.306-.113.44.44 0 0 1-.113-.306Zm9.547-.544v7.931h-.85v-7.081h-1.257v7.081h-.85v-7.93h2.957Zm.472 0h2.957v.85h-1.903l1.903 2.266v4.815h-2.957v-.85h2.108v-3.716l-2.108-2.515v-.85Zm6.386 0v7.931h-.849v-7.081h-1.258v7.081h-.85v-7.93h2.957Zm6.477 0v3.116h2.108v4.815h-.85V65.76h-1.258v3.965h-.849v-7.93h.849Zm1.145.544c0-.12.037-.223.113-.306a.416.416 0 0 1 .306-.125c.121 0 .223.042.306.125a.415.415 0 0 1 .124.306c0 .12-.041.223-.124.306a.438.438 0 0 1-.306.113.438.438 0 0 1-.306-.113.436.436 0 0 1-.113-.306Zm1.435 7.387V64.91h.849v3.965h1.258V64.91h.85v4.815h-2.957Zm0-7.93h2.957v.849h-2.957v-.85Zm6.386 0v7.93h-.85v-7.081h-1.258v7.081h-.849v-7.93h2.957ZM1229.44 74.54v-4.816h-.85v3.966h-1.25v-3.966h-.85v4.815h2.95Zm-.96 2.685c0 .12.04.222.11.306.09.083.19.124.31.124s.22-.041.31-.124a.424.424 0 0 0 .12-.306c0-.121-.04-.223-.12-.306a.462.462 0 0 0-.31-.114c-.12 0-.22.038-.31.114a.462.462 0 0 0-.11.306Zm-1.88 0c0 .12.04.222.11.306.09.083.19.124.31.124s.22-.041.31-.124a.424.424 0 0 0 .12-.306c0-.121-.04-.223-.12-.306a.462.462 0 0 0-.31-.114c-.12 0-.22.038-.31.114a.462.462 0 0 0-.11.306Zm8.47.43h2.96v-7.93h-.85v3.965h-2.11v.85h2.11v2.265h-2.11v.85Zm6.39-4.962-2.45-2.969-.51.453 2.11 2.516-1.97 1.994 2.31 2.968.51-.453-1.97-2.515 1.97-1.994Zm3.43 0-2.45-2.969-.51.453 2.11 2.516-1.97 1.994 2.31 2.968.51-.453-1.97-2.515 1.97-1.994Zm6.47 4.962V74.54h2.11v-4.815h-.85v3.966h-1.26v-3.966h-.85v7.931h.85Zm1.15-.544c0 .121.04.223.11.306.08.083.19.125.31.125a.4.4 0 0 0 .3-.125.396.396 0 0 0 .13-.306c0-.12-.04-.223-.13-.306a.42.42 0 0 0-.3-.113c-.12 0-.23.038-.31.113a.462.462 0 0 0-.11.306Zm4.39-2.572v-4.815h-.85v3.966h-1.26v-3.966h-.85v4.815h2.96Zm-.96 2.686c0 .12.03.222.11.306.08.083.19.124.31.124a.4.4 0 0 0 .3-.124.396.396 0 0 0 .13-.306c0-.121-.04-.223-.13-.306a.42.42 0 0 0-.3-.114c-.12 0-.23.038-.31.114a.416.416 0 0 0-.11.306Zm-1.88 0c0 .12.03.222.11.306.08.083.18.124.31.124a.4.4 0 0 0 .3-.124.433.433 0 0 0 .13-.306c0-.121-.05-.223-.13-.306a.42.42 0 0 0-.3-.114c-.13 0-.23.038-.31.114a.416.416 0 0 0-.11.306Zm6.27.43v-7.93h-.85v3.965h-1.26v-3.966h-.85v4.815h2.11v2.266h-2.11v.85h2.96Zm5.63 0h2.95v-.85h-1.9l1.9-2.266v-4.815h-2.95v.85h2.1v3.716l-2.1 2.515v.85Zm6.38-4.962-2.44-2.969-.51.453 2.1 2.516-1.97 1.994 2.31 2.968.51-.453-1.97-2.515 1.97-1.994Zm3.43 4.169-1.09-3.07 1.09-3.728-.73-.34-.82 2.765-.78-2.198-.63.226 1.09 3.07-1.09 3.728.74.34.81-2.776.79 2.21.62-.227Zm3.43.793v-7.93h-.85v7.08h-1.26v-7.08h-.85v7.93h2.96Zm.47-3.965v3.965h2.96v-7.93h-2.96v.849h2.11v6.231h-1.26V73.69h-.85Zm6.39 3.965v-7.93h-.85v7.08h-1.26v-7.08h-.85v7.93h2.96Zm3.43 0v-7.93h-.85v3.965h-1.26v-3.966h-.85v4.815h2.11v2.266h-2.11v.85h2.96Zm.47 0h2.96v-7.93h-.85v3.965h-2.11v.85h2.11v2.265h-2.11v.85Zm3.43-7.081h1.05v3.116h.85v-3.116h1.06v-.85h-2.96v.85Zm0 7.081h2.96v-.85h-2.96v.85Zm4.71 0 .94-4.747.11 2.764h.74l-.23-5.835-.73-.113-1.05 5.303-.44-5.303-.74.113.66 7.818h.74Zm7.3-7.93v7.93h.85v-7.93h-.85Zm2 1.665c0 .12.03.222.11.305.08.084.18.125.31.125a.4.4 0 0 0 .3-.124.433.433 0 0 0 .13-.306c0-.121-.05-.223-.13-.306a.42.42 0 0 0-.3-.114c-.13 0-.23.038-.31.114a.416.416 0 0 0-.11.306Zm0 4.588c0 .121.03.223.11.306.08.083.18.125.31.125a.4.4 0 0 0 .3-.125.433.433 0 0 0 .13-.306c0-.12-.05-.222-.13-.306a.42.42 0 0 0-.3-.113c-.13 0-.23.038-.31.113a.416.416 0 0 0-.11.306Zm1.43-6.254v4.815h.85v-3.965h1.26v3.965h.85v-4.815h-2.96Zm0 7.931h2.96v-.85h-2.96v.85Zm6.39-.793-1.09-3.07 1.09-3.728-.74-.34-.81 2.765-.79-2.198-.62.226 1.09 3.07-1.09 3.728.74.34.8-2.776.79 2.21.63-.227Zm.47.793h2.96v-.85h-1.06V74.54h1.06v-4.815h-2.96v4.815h1.05v2.266h-1.05v.85Zm.85-3.965v-3.116h1.26v3.116h-1.26Zm2.58 3.965h2.96v-7.93h-.85v7.08h-2.11v.85Zm6.39 0v-7.93h-.85v7.08h-1.26v-7.08h-.85v7.93h2.96Zm3.42-3.116v-4.815h-.85v3.966h-1.25v-3.966h-.85v4.815h2.95Zm-.96 2.686c0 .12.04.222.11.306.09.083.19.124.31.124s.22-.041.31-.124a.424.424 0 0 0 .12-.306c0-.121-.04-.223-.12-.306a.462.462 0 0 0-.31-.114c-.12 0-.22.038-.31.114a.462.462 0 0 0-.11.306Zm-1.88 0c0 .12.04.222.11.306.09.083.19.124.31.124s.22-.041.31-.124a.424.424 0 0 0 .12-.306c0-.121-.04-.223-.12-.306a.462.462 0 0 0-.31-.114c-.12 0-.22.038-.31.114a.462.462 0 0 0-.11.306Zm3.09-7.5v7.93h.85l.85-2.062.86 2.062h.85V73.69h-.85v2.379l-.66-1.382h-.39l-.66 1.382v-6.345h-.85Zm12.24 0v7.93h.85v-7.93h-.85Zm1.99 1.665c0 .12.04.222.12.305a.4.4 0 0 0 .3.125c.12 0 .23-.041.31-.124a.424.424 0 0 0 .12-.306c0-.121-.04-.223-.12-.306a.445.445 0 0 0-.31-.114.42.42 0 0 0-.3.114.424.424 0 0 0-.12.306Zm0 4.588c0 .121.04.223.12.306a.4.4 0 0 0 .3.125c.12 0 .23-.042.31-.125a.424.424 0 0 0 .12-.306c0-.12-.04-.222-.12-.306a.444.444 0 0 0-.31-.113.42.42 0 0 0-.3.113.424.424 0 0 0-.12.306Zm4.4-3.285-2.45-2.969-.51.453 2.11 2.516-1.98 1.994 2.32 2.968.51-.453-1.98-2.515 1.98-1.994Zm.47 4.962h2.95v-7.93h-.85v3.965h-2.1v.85h2.1v2.265h-2.1v.85Zm6.38-3.116v-4.815h-.85v3.966h-1.25v-3.966h-.85v4.815h2.95Zm-.96 2.686c0 .12.04.222.11.306.09.083.19.124.31.124s.22-.041.31-.124a.424.424 0 0 0 .12-.306c0-.121-.04-.223-.12-.306a.462.462 0 0 0-.31-.114c-.12 0-.22.038-.31.114a.462.462 0 0 0-.11.306Zm-1.88 0c0 .12.04.222.11.306.09.083.19.124.31.124s.22-.041.31-.124a.424.424 0 0 0 .12-.306c0-.121-.04-.223-.12-.306a.462.462 0 0 0-.31-.114c-.12 0-.22.038-.31.114a.462.462 0 0 0-.11.306Zm3.32.43h2.95v-7.93h-.85v7.08h-2.1v.85Zm6.38-.793-1.09-3.07 1.09-3.728-.73-.34-.82 2.765-.78-2.198-.63.226 1.09 3.07-1.09 3.728.74.34.81-2.776.79 2.21.62-.227Zm.47-7.138v4.815h.85v-3.965h1.26v3.965h.85v-4.815h-2.96Zm0 7.931h2.96v-.85h-2.96v.85Zm5.34-7.081h1.05v-.85h-2.96v.85h1.06v3.116l-1.06 3.965h.85l.63-2.708.63 2.708h.85l-1.05-3.965v-3.116Zm1.3-.85v7.931h.85l.85-2.062.86 2.062h.85V73.69h-.85v2.379l-.66-1.382h-.4l-.65 1.382v-6.345h-.85Zm8.81 7.931h2.95v-7.93h-.85v3.965h-2.1v.85h2.1v2.265h-2.1v.85Zm4.71 0 .94-4.747.11 2.764h.74l-.23-5.835-.74-.113-1.04 5.303-.44-5.303-.74.113.66 7.818h.74Zm2.14 0h2.96v-.85h-1.05V74.54h1.05v-4.815h-2.96v4.815h1.06v2.266h-1.06v.85Zm.85-3.965v-3.116h1.26v3.116h-1.26Zm7.74-3.513 1.74 2.663h-1.74v4.815h.85V73.69h1.26v3.965h.85v-7.93h-.85v2.435l-1.6-2.436-.51.453Zm3.43 7.478h2.96v-7.93h-.85v3.965h-2.11v.85h2.11v2.265h-2.11v.85Zm6.38-4.962-2.44-2.969-.51.453 2.1 2.516-1.97 1.994 2.31 2.968.51-.453-1.97-2.515 1.97-1.994Zm3.43 0-2.44-2.969-.51.453 2.1 2.516-1.97 1.994 2.31 2.968.51-.453-1.97-2.515 1.97-1.994Zm1.32 4.962V74.54h2.11v-4.815h-.85v3.966h-1.26v-3.966h-.84v7.931h.84Zm1.15-.544c0 .121.04.223.11.306.09.083.19.125.31.125a.4.4 0 0 0 .3-.125.396.396 0 0 0 .13-.306c0-.12-.04-.223-.13-.306a.42.42 0 0 0-.3-.113c-.12 0-.22.038-.31.113a.462.462 0 0 0-.11.306Zm4.39-2.572v-4.815h-.85v3.966h-1.26v-3.966h-.85v4.815h2.96Zm-.96 2.686c0 .12.04.222.11.306.08.083.19.124.31.124a.4.4 0 0 0 .3-.124.396.396 0 0 0 .13-.306c0-.121-.04-.223-.13-.306a.42.42 0 0 0-.3-.114c-.12 0-.23.038-.31.114a.462.462 0 0 0-.11.306Zm-1.88 0c0 .12.04.222.11.306.08.083.19.124.31.124a.4.4 0 0 0 .3-.124.396.396 0 0 0 .13-.306c0-.121-.04-.223-.13-.306a.42.42 0 0 0-.3-.114c-.12 0-.23.038-.31.114a.462.462 0 0 0-.11.306Zm3.09-7.5v7.93h.85l.85-2.062.86 2.062h.85V73.69h-.85v2.379l-.66-1.382h-.4l-.65 1.382v-6.345h-.85Z" fill="#fff"/><path d="M-8.265 20.919H1456" stroke="#101820" stroke-width="40"/><path opacity=".02" d="M-17 10h1450.07" stroke="#fff" stroke-width="10" stroke-linecap="round"/><path opacity=".1" d="M14.487 23.793h2.957v.85h-1.903l1.903 2.266v4.815h-2.957v-.85h2.108v-3.716l-2.108-2.515v-.85Zm5.537 3.966v-3.116h-1.258v6.231h1.122v.85h-1.972v-7.93h2.957v3.965h-.85Zm6.476 3.965v-7.93h.85v7.93h-.85Zm1.995-1.665c0-.121.037-.223.113-.306a.416.416 0 0 1 .306-.125c.12 0 .223.042.306.125a.416.416 0 0 1 .124.306c0 .12-.041.222-.124.305a.438.438 0 0 1-.306.114.438.438 0 0 1-.306-.114.438.438 0 0 1-.113-.305Zm0-4.589c0-.12.037-.223.113-.306a.416.416 0 0 1 .306-.125c.12 0 .223.042.306.125a.416.416 0 0 1 .124.306c0 .12-.041.223-.124.306a.438.438 0 0 1-.306.113.438.438 0 0 1-.306-.113.438.438 0 0 1-.113-.306Zm1.435-1.677h2.957v7.931h-.85v-7.081H29.93v-.85Zm3.429 7.931V26.91h.85v3.965h1.257V26.91h.85v4.815h-2.957Zm0-7.93h2.957v.849h-2.957v-.85Zm6.386 0v7.93h-.85v-7.081h-1.257v7.081h-.85v-7.93h2.957Zm3.429 0v7.93h-.85V27.76h-1.257v3.965h-.85V26.91h2.107v-2.266h-2.107v-.85h2.957Zm.472 0h2.957v7.93h-.85V27.76h-2.107v-.85h2.107v-2.266h-2.107v-.85Zm3.203 7.93v-7.93h.85l.849 2.061.861-2.062h.85v3.966h-.85v-2.38l-.657 1.383h-.397l-.657-1.383v6.345h-.85Zm3.655-.85h1.054V27.76h.85v3.115h1.053v.85h-2.957v-.85Zm0-7.08h2.957v.849h-2.957v-.85Zm4.71 0 .94 4.746.113-2.764h.737l-.227 5.835-.736.113-1.043-5.302-.442 5.302-.736-.113.657-7.818h.737Zm5.105 7.93h-2.957v-7.93h.85v7.08h2.107v.85Zm-.85-3.965v-3.966h.85v3.966h-.85Zm9.435-.85v4.815h-.85V27.76h-1.258v3.965h-.85V26.91h2.958Zm-.963-2.685c0-.121.037-.223.113-.306a.416.416 0 0 1 .306-.125c.12 0 .223.042.306.125a.416.416 0 0 1 .124.306c0 .12-.041.223-.124.306a.438.438 0 0 1-.306.113.438.438 0 0 1-.306-.113.438.438 0 0 1-.113-.306Zm-1.881 0c0-.121.038-.223.113-.306a.416.416 0 0 1 .306-.125c.121 0 .223.042.306.125a.416.416 0 0 1 .125.306c0 .12-.042.223-.125.306a.438.438 0 0 1-.306.113.438.438 0 0 1-.306-.113.438.438 0 0 1-.113-.306Zm6.273-.43v7.93h-.85V27.76h-1.258v3.965h-.85V26.91h2.108v-2.266h-2.107v-.85h2.957Zm1.322 0v3.115h2.107v4.815h-.85V27.76h-1.257v3.965h-.85v-7.93h.85Zm1.144.543c0-.12.038-.223.113-.306a.416.416 0 0 1 .306-.125c.121 0 .223.042.306.125a.416.416 0 0 1 .125.306c0 .12-.042.223-.125.306a.438.438 0 0 1-.306.113.438.438 0 0 1-.306-.113.438.438 0 0 1-.113-.306Zm9.547-.544v7.931h-.85v-7.081H82.24v7.081h-.85v-7.93h2.957Zm.472 0h2.957v.85h-1.903l1.903 2.266v4.815h-2.957v-.85h2.108v-3.716l-2.108-2.515v-.85Zm6.386 0v7.931h-.85v-7.081h-1.257v7.081h-.85v-7.93h2.957Zm6.477 0v3.116h2.108v4.815h-.85V27.76H97.68v3.965h-.85v-7.93h.85Zm1.145.544c0-.12.037-.223.113-.306a.416.416 0 0 1 .306-.125c.12 0 .223.042.306.125a.416.416 0 0 1 .124.306c0 .12-.041.223-.124.306a.438.438 0 0 1-.306.113.438.438 0 0 1-.306-.113.438.438 0 0 1-.113-.306Zm1.435 7.387V26.91h.849v3.965h1.258V26.91h.85v4.815h-2.957Zm0-7.93h2.957v.849h-2.957v-.85Zm6.386 0v7.93h-.85v-7.081h-1.258v7.081h-.849v-7.93h2.957Zm9.906 0v3.115h2.107v4.815h-.85V27.76h-1.257v3.965h-.85v-7.93h.85Zm1.144.543a.44.44 0 0 1 .113-.306.416.416 0 0 1 .306-.125c.121 0 .223.042.306.125a.416.416 0 0 1 .125.306c0 .12-.042.223-.125.306a.438.438 0 0 1-.306.113.438.438 0 0 1-.306-.113.44.44 0 0 1-.113-.306Zm4.392 2.572v4.815h-.849V27.76h-1.258v3.965h-.85V26.91h2.957Zm-.963-2.685c0-.121.038-.223.114-.306a.415.415 0 0 1 .305-.125c.121 0 .223.042.306.125a.416.416 0 0 1 .125.306c0 .12-.042.223-.125.306a.438.438 0 0 1-.306.113.437.437 0 0 1-.305-.113.437.437 0 0 1-.114-.306Zm-1.881 0c0-.121.038-.223.114-.306a.416.416 0 0 1 .306-.125c.12 0 .222.042.306.125a.415.415 0 0 1 .124.306c0 .12-.041.223-.124.306a.442.442 0 0 1-.306.113.438.438 0 0 1-.306-.113.437.437 0 0 1-.114-.306Zm6.273-.43v7.93h-.849V27.76h-1.258v3.965h-.85V26.91h2.108v-2.266h-2.108v-.85h2.957Zm5.627 0h2.958v.849h-1.904l1.904 2.266v4.815h-2.958v-.85h2.108v-3.716l-2.108-2.515v-.85Zm6.387 4.962-2.448 2.968-.509-.453 2.107-2.515-1.971-1.994 2.311-2.969.51.453-1.972 2.516 1.972 1.994Zm3.429-4.17-1.088 3.07 1.088 3.728-.737.34-.815-2.764-.782 2.198-.623-.227 1.087-3.07-1.087-3.728.736-.34.805 2.776.793-2.21.623.227Zm3.429-.793v7.931h-.85v-7.081h-1.257v7.081h-.85v-7.93h2.957Zm.472 3.966v-3.966h2.957v7.931h-2.957v-.85h2.107v-6.231h-1.257v3.116h-.85Zm6.386-3.966v7.931h-.85v-7.081h-1.257v7.081h-.85v-7.93h2.957Zm3.429 0v7.931h-.85V27.76h-1.257v3.965h-.85V26.91h2.107v-2.266h-2.107v-.85h2.957Zm.472 0h2.957v7.931h-.849V27.76h-2.108v-.85h2.108v-2.266h-2.108v-.85Zm3.429 7.081h1.054V27.76h.85v3.115h1.053v.85h-2.957v-.85Zm0-7.08h2.957v.849h-2.957v-.85Zm4.71 0 .94 4.746.113-2.764h.737l-.227 5.835-.736.113-1.043-5.302-.442 5.302-.736-.113.657-7.818h.737Zm7.304 7.93v-7.93h.849v7.93h-.849Zm1.994-1.665c0-.121.037-.223.113-.306a.416.416 0 0 1 .306-.125c.121 0 .223.042.306.125a.416.416 0 0 1 .124.306c0 .12-.041.222-.124.305a.438.438 0 0 1-.306.114.438.438 0 0 1-.306-.114.436.436 0 0 1-.113-.305Zm0-4.589c0-.12.037-.223.113-.306a.416.416 0 0 1 .306-.125c.121 0 .223.042.306.125a.415.415 0 0 1 .124.306c0 .12-.041.223-.124.306a.438.438 0 0 1-.306.113.438.438 0 0 1-.306-.113.436.436 0 0 1-.113-.306Zm1.435 6.254V26.91h.849v3.965h1.258V26.91h.85v4.815h-2.957Zm0-7.93h2.957v.849h-2.957v-.85Zm6.386.792-1.088 3.07 1.088 3.728-.737.34-.815-2.764-.782 2.198-.623-.227 1.087-3.07-1.087-3.728.736-.34.805 2.776.793-2.21.623.227Zm.472-.793h2.957v.85h-1.054v2.266h1.054v4.815h-2.957V26.91h1.054v-2.266h-1.054v-.85Zm.85 3.966v3.115h1.257V27.76h-1.257Zm2.579-3.966h2.957v7.931h-.85v-7.081h-2.107v-.85Zm6.386 0v7.931h-.85v-7.081h-1.257v7.081h-.85v-7.93h2.957Zm3.429 3.116v4.815h-.849V27.76h-1.258v3.965h-.85V26.91h2.957Zm-.963-2.685c0-.121.038-.223.114-.306a.415.415 0 0 1 .305-.125c.121 0 .223.042.306.125a.416.416 0 0 1 .125.306c0 .12-.042.223-.125.306a.438.438 0 0 1-.306.113.437.437 0 0 1-.305-.113.437.437 0 0 1-.114-.306Zm-1.881 0c0-.121.038-.223.114-.306a.416.416 0 0 1 .306-.125c.121 0 .222.042.306.125a.415.415 0 0 1 .124.306c0 .12-.041.223-.124.306a.44.44 0 0 1-.306.113.438.438 0 0 1-.306-.113.437.437 0 0 1-.114-.306Zm3.09 7.5v-7.93h.849l.85 2.061.861-2.062h.85v3.966h-.85v-2.38l-.657 1.383h-.396l-.658-1.383v6.345h-.849Zm12.24 0v-7.93h.849v7.93h-.849Zm1.994-1.665c0-.121.037-.223.113-.306a.416.416 0 0 1 .306-.125c.121 0 .223.042.306.125a.416.416 0 0 1 .124.306c0 .12-.041.222-.124.305a.438.438 0 0 1-.306.114.438.438 0 0 1-.306-.114.436.436 0 0 1-.113-.305Zm0-4.589c0-.12.037-.223.113-.306a.416.416 0 0 1 .306-.125c.121 0 .223.042.306.125a.415.415 0 0 1 .124.306c0 .12-.041.223-.124.306a.438.438 0 0 1-.306.113.438.438 0 0 1-.306-.113.436.436 0 0 1-.113-.306Zm4.392 3.286-2.447 2.968-.51-.453 2.107-2.515-1.971-1.994 2.311-2.969.51.453-1.972 2.516 1.972 1.994Zm.472-4.963h2.957v7.931h-.85V27.76h-2.107v-.85h2.107v-2.266h-2.107v-.85Zm6.386 3.116v4.815h-.85V27.76h-1.257v3.965h-.85V26.91h2.957Zm-.963-2.685a.44.44 0 0 1 .113-.306.416.416 0 0 1 .306-.125c.121 0 .223.042.306.125a.416.416 0 0 1 .125.306c0 .12-.042.223-.125.306a.438.438 0 0 1-.306.113.438.438 0 0 1-.306-.113.44.44 0 0 1-.113-.306Zm-1.881 0a.44.44 0 0 1 .113-.306.419.419 0 0 1 .306-.125c.121 0 .223.042.306.125a.416.416 0 0 1 .125.306c0 .12-.042.223-.125.306a.438.438 0 0 1-.306.113.442.442 0 0 1-.306-.113.44.44 0 0 1-.113-.306Zm3.316-.43h2.957v7.93h-.85v-7.081h-2.107v-.85Zm6.386.792-1.087 3.07 1.087 3.728-.736.34-.816-2.764-.782 2.198-.623-.227 1.088-3.07-1.088-3.728.737-.34.804 2.776.793-2.21.623.227Zm.472 7.138V26.91h.85v3.965h1.258V26.91h.849v4.815h-2.957Zm0-7.93h2.957v.849h-2.957v-.85Zm5.333 7.08h1.053v.85h-2.957v-.85h1.054V27.76l-1.054-3.966h.85l.623 2.708.635-2.708h.849l-1.053 3.966v3.115Zm1.299.85v-7.93h.849l.85 2.061.861-2.062h.85v3.966h-.85v-2.38l-.657 1.383h-.396l-.658-1.383v6.345h-.849Zm8.811-7.93h2.957v7.93h-.85V27.76h-2.107v-.85h2.107v-2.266h-2.107v-.85Zm4.709 0 .94 4.746.114-2.764h.736l-.226 5.835-.737.113-1.042-5.302-.442 5.302-.737-.113.658-7.818h.736Zm2.149 0h2.957v.849h-1.054v2.266h1.054v4.815h-2.957V26.91h1.053v-2.266h-1.053v-.85Zm.85 3.965v3.115h1.257V27.76h-1.257Zm7.734 3.512 1.745-2.663h-1.745v-4.815h.85v3.966h1.257v-3.966h.85v7.931h-.85v-2.436l-1.597 2.436-.51-.453Zm3.429-7.478h2.957v7.931h-.849V27.76h-2.108v-.85h2.108v-2.266h-2.108v-.85Zm6.386 4.963-2.447 2.968-.51-.453 2.108-2.515-1.972-1.994 2.311-2.969.51.453-1.971 2.516 1.971 1.994Zm3.429 0-2.447 2.968-.51-.453 2.108-2.515-1.972-1.994 2.312-2.969.509.453-1.971 2.516 1.971 1.994Zm1.322-4.963v3.116h2.108v4.815h-.85V27.76h-1.258v3.965h-.85v-7.93h.85Zm1.144.544c0-.12.038-.223.114-.306a.416.416 0 0 1 .306-.125c.121 0 .223.042.306.125a.415.415 0 0 1 .124.306c0 .12-.041.223-.124.306a.438.438 0 0 1-.306.113.438.438 0 0 1-.306-.113.437.437 0 0 1-.114-.306Zm4.393 2.572v4.815h-.85V27.76h-1.258v3.965h-.849V26.91h2.957Zm-.963-2.685c0-.121.037-.223.113-.306a.416.416 0 0 1 .306-.125c.121 0 .223.042.306.125a.415.415 0 0 1 .124.306c0 .12-.041.223-.124.306a.438.438 0 0 1-.306.113.438.438 0 0 1-.306-.113.436.436 0 0 1-.113-.306Zm-1.881 0a.44.44 0 0 1 .113-.306.416.416 0 0 1 .306-.125c.121 0 .223.042.306.125a.416.416 0 0 1 .125.306c0 .12-.042.223-.125.306a.438.438 0 0 1-.306.113.438.438 0 0 1-.306-.113.44.44 0 0 1-.113-.306Zm3.089 7.5v-7.93h.85l.849 2.061.862-2.062h.849v3.966h-.849v-2.38l-.658 1.383h-.396l-.657-1.383v6.345h-.85ZM1127.44 27.909v4.815h-.85V28.76h-1.25v3.965h-.85V27.91h2.95Zm-.96-2.685c0-.121.04-.223.11-.306a.438.438 0 0 1 .31-.125c.12 0 .22.042.31.125.08.083.12.185.12.306 0 .12-.04.223-.12.306a.462.462 0 0 1-.31.113.462.462 0 0 1-.31-.113.462.462 0 0 1-.11-.306Zm-1.88 0c0-.121.04-.223.11-.306a.438.438 0 0 1 .31-.125c.12 0 .22.042.31.125.08.083.12.185.12.306 0 .12-.04.223-.12.306a.462.462 0 0 1-.31.113.462.462 0 0 1-.31-.113.462.462 0 0 1-.11-.306Zm8.47-.43h2.96v7.93h-.85V28.76h-2.11v-.85h2.11v-2.266h-2.11v-.85Zm6.39 4.962-2.45 2.968-.51-.453 2.11-2.515-1.97-1.994 2.31-2.969.51.453-1.97 2.516 1.97 1.994Zm3.43 0-2.45 2.968-.51-.453 2.11-2.515-1.97-1.994 2.31-2.969.51.453-1.97 2.516 1.97 1.994Zm6.47-4.963v3.116h2.11v4.815h-.85V28.76h-1.26v3.965h-.85v-7.93h.85Zm1.15.544c0-.12.04-.223.11-.306a.422.422 0 0 1 .31-.125.4.4 0 0 1 .3.125c.09.083.13.185.13.306 0 .12-.04.223-.13.306a.42.42 0 0 1-.3.113.445.445 0 0 1-.31-.113.462.462 0 0 1-.11-.306Zm4.39 2.572v4.815h-.85V28.76h-1.26v3.965h-.85V27.91h2.96Zm-.96-2.685c0-.121.03-.223.11-.306a.422.422 0 0 1 .31-.125.4.4 0 0 1 .3.125c.09.083.13.185.13.306 0 .12-.04.223-.13.306a.42.42 0 0 1-.3.113.445.445 0 0 1-.31-.113.416.416 0 0 1-.11-.306Zm-1.88 0c0-.121.03-.223.11-.306a.406.406 0 0 1 .31-.125.4.4 0 0 1 .3.125c.08.083.13.185.13.306 0 .12-.05.223-.13.306a.42.42 0 0 1-.3.113.428.428 0 0 1-.31-.113.416.416 0 0 1-.11-.306Zm6.27-.43v7.93h-.85V28.76h-1.26v3.965h-.85V27.91h2.11v-2.266h-2.11v-.85h2.96Zm5.63 0h2.95v.849h-1.9l1.9 2.266v4.815h-2.95v-.85h2.1v-3.716l-2.1-2.515v-.85Zm6.38 4.962-2.44 2.968-.51-.453 2.1-2.515-1.97-1.994 2.31-2.969.51.453-1.97 2.516 1.97 1.994Zm3.43-4.17-1.09 3.07 1.09 3.728-.73.34-.82-2.764-.78 2.198-.63-.227 1.09-3.07-1.09-3.728.74-.34.81 2.776.79-2.21.62.227Zm3.43-.793v7.931h-.85v-7.081h-1.26v7.081h-.85v-7.93h2.96Zm.47 3.966v-3.966h2.96v7.931h-2.96v-.85h2.11v-6.231h-1.26v3.116h-.85Zm6.39-3.966v7.931h-.85v-7.081h-1.26v7.081h-.85v-7.93h2.96Zm3.43 0v7.931h-.85V28.76h-1.26v3.965h-.85V27.91h2.11v-2.266h-2.11v-.85h2.96Zm.47 0h2.96v7.931h-.85V28.76h-2.11v-.85h2.11v-2.266h-2.11v-.85Zm3.43 7.081h1.05V28.76h.85v3.115h1.06v.85h-2.96v-.85Zm0-7.08h2.96v.849h-2.96v-.85Zm4.71 0 .94 4.746.11-2.764h.74l-.23 5.835-.73.113-1.05-5.302-.44 5.302-.74-.113.66-7.818h.74Z" fill="#F2F4F8"/><path d="M-8.265 107.919H1456" stroke="#101820" stroke-width="40"/><path opacity=".02" d="M-17 97h1450.07" stroke="#fff" stroke-width="10" stroke-linecap="round"/><path opacity=".1" d="M15.152 91.793h2.957v.85h-1.903l1.903 2.266v4.815h-2.957v-.85h2.108v-3.716l-2.108-2.515v-.85Zm5.537 3.966v-3.116H19.43v6.231h1.122v.85H18.58v-7.93h2.957v3.965h-.85Zm6.477 3.965v-7.93h.85v7.93h-.85Zm1.994-1.665c0-.121.037-.223.113-.306a.416.416 0 0 1 .306-.125c.12 0 .223.042.306.125a.416.416 0 0 1 .124.306c0 .12-.041.222-.124.306a.438.438 0 0 1-.306.113.438.438 0 0 1-.306-.113.438.438 0 0 1-.113-.306Zm0-4.589c0-.12.037-.223.113-.306a.416.416 0 0 1 .306-.125c.12 0 .223.042.306.125a.416.416 0 0 1 .124.306c0 .12-.041.223-.124.306a.438.438 0 0 1-.306.113.438.438 0 0 1-.306-.113.438.438 0 0 1-.113-.306Zm1.435-1.677h2.957v7.931h-.85v-7.081h-2.107v-.85Zm3.429 7.931V94.91h.85v3.965h1.257V94.91h.85v4.815h-2.957Zm0-7.93h2.957v.849h-2.957v-.85Zm6.386 0v7.93h-.85v-7.081h-1.257v7.081h-.85v-7.93h2.957Zm3.43 0v7.93h-.85V95.76h-1.258v3.965h-.85V94.91h2.107v-2.266h-2.107v-.85h2.957Zm.471 0h2.957v7.93h-.85V95.76h-2.107v-.85h2.107v-2.266h-2.107v-.85Zm3.203 7.93v-7.93h.85l.849 2.061.861-2.062h.85v3.966h-.85v-2.38l-.657 1.383h-.397l-.657-1.383v6.345h-.85Zm3.655-.85h1.054V95.76h.85v3.115h1.053v.85H51.17v-.85Zm0-7.08h2.957v.849H51.17v-.85Zm4.71 0 .94 4.746.113-2.764h.737l-.227 5.835-.736.113-1.043-5.302-.441 5.302-.737-.113.657-7.818h.737Zm5.106 7.93h-2.958v-7.93h.85v7.08h2.108v.85Zm-.85-3.965v-3.966h.85v3.966h-.85Zm9.434-.85v4.815h-.85V95.76h-1.258v3.965h-.85V94.91h2.958Zm-.963-2.685c0-.121.038-.223.113-.306a.416.416 0 0 1 .306-.125c.12 0 .223.042.306.125a.416.416 0 0 1 .124.306c0 .12-.041.222-.124.306a.438.438 0 0 1-.306.113.438.438 0 0 1-.306-.113.438.438 0 0 1-.113-.306Zm-1.881 0c0-.121.038-.223.113-.306a.416.416 0 0 1 .306-.125c.121 0 .223.042.306.125a.416.416 0 0 1 .125.306c0 .12-.042.222-.125.306a.438.438 0 0 1-.306.113.438.438 0 0 1-.306-.113.438.438 0 0 1-.113-.306Zm6.273-.43v7.93h-.85V95.76h-1.257v3.965h-.85V94.91h2.107v-2.266h-2.107v-.85h2.957Zm1.322 0v3.115h2.107v4.815h-.85V95.76H74.32v3.965h-.85v-7.93h.85Zm1.144.543c0-.12.038-.223.113-.306a.416.416 0 0 1 .306-.125c.121 0 .223.042.306.125a.416.416 0 0 1 .125.306c0 .12-.042.223-.125.306a.438.438 0 0 1-.306.113.438.438 0 0 1-.306-.113.438.438 0 0 1-.113-.306Zm9.547-.544v7.931h-.85v-7.081h-1.257v7.081h-.85v-7.93h2.957Zm.472 0h2.957v.85h-1.903l1.903 2.266v4.815h-2.957v-.85h2.108v-3.716l-2.108-2.515v-.85Zm6.386 0v7.931h-.85v-7.081h-1.257v7.081h-.85v-7.93h2.957Zm6.477 0v3.116h2.108v4.815h-.85V95.76h-1.258v3.965h-.85v-7.93h.85Zm1.145.544c0-.12.037-.223.113-.306a.416.416 0 0 1 .306-.125c.121 0 .223.042.306.125a.415.415 0 0 1 .124.306c0 .12-.041.223-.124.306a.438.438 0 0 1-.306.113.438.438 0 0 1-.306-.113.438.438 0 0 1-.113-.306Zm1.435 7.387V94.91h.849v3.965h1.258V94.91h.85v4.815h-2.957Zm0-7.93h2.957v.849h-2.957v-.85Zm6.386 0v7.93h-.85v-7.081h-1.258v7.081h-.849v-7.93h2.957Zm22.3 3.115v4.815h-.849V95.76h-1.258v3.965h-.85V94.91h2.957Zm-.963-2.685c0-.121.038-.223.114-.306a.416.416 0 0 1 .306-.125c.121 0 .222.042.306.125a.415.415 0 0 1 .124.306c0 .12-.041.222-.124.306a.44.44 0 0 1-.306.113.438.438 0 0 1-.306-.113.437.437 0 0 1-.114-.306Zm-1.88 0c0-.121.037-.223.113-.306a.416.416 0 0 1 .306-.125c.121 0 .223.042.306.125a.415.415 0 0 1 .124.306c0 .12-.041.222-.124.306a.438.438 0 0 1-.306.113.438.438 0 0 1-.306-.113.436.436 0 0 1-.113-.306Zm6.273.362-1.088 3.07 1.088 3.728-.737.34-.816-2.764-.781 2.198-.624-.227 1.088-3.07-1.088-3.728.737-.34.804 2.776.793-2.21.624.227Zm.472 3.173v-3.966h2.957v7.931h-2.957v-.85h2.107v-6.231h-1.258v3.116h-.849Zm4.278-3.966v3.116h2.108v4.815h-.85V95.76h-1.258v3.965h-.849v-7.93h.849Zm1.145.544c0-.12.037-.223.113-.306a.416.416 0 0 1 .306-.125c.121 0 .223.042.306.125a.415.415 0 0 1 .124.306c0 .12-.041.223-.124.306a.438.438 0 0 1-.306.113.438.438 0 0 1-.306-.113.436.436 0 0 1-.113-.306Zm2.715-.544.94 4.747.114-2.764h.736l-.226 5.835-.737.113-1.042-5.302-.442 5.302-.737-.113.658-7.818h.736Zm7.304 0h2.957v7.931h-.85V95.76h-2.107v-.85h2.107v-2.266h-2.107v-.85Zm4.709 0 .941 4.747.113-2.764h.737l-.227 5.835-.737.113-1.042-5.302-.442 5.302-.736-.113.657-7.818h.736Zm2.149 0h2.957v.85h-1.053v2.266h1.053v4.815h-2.957V94.91h1.054v-2.266h-1.054v-.85Zm.85 3.966v3.115h1.258V95.76h-1.258Zm10.692-3.966v7.931h-.85v-7.081h-1.258v7.081h-.85v-7.93h2.958Zm3.429.793-1.088 3.07 1.088 3.728-.737.34-.816-2.764-.781 2.198-.623-.227 1.087-3.07-1.087-3.728.736-.34.804 2.776.794-2.21.623.227Zm.472 7.138V94.91h.849v3.965h1.258V94.91h.85v4.815h-2.957Zm0-7.93h2.957v.849h-2.957v-.85Zm3.429 7.93V94.91h.849v3.965h1.258V94.91h.85v4.815h-2.957Zm0-7.93h2.957v.849h-2.957v-.85Zm6.386.792-1.088 3.07 1.088 3.728-.737.34-.815-2.764-.782 2.198-.623-.227 1.087-3.07-1.087-3.728.736-.34.805 2.776.793-2.21.623.227Zm3.429 4.17-2.447 2.968-.51-.453 2.107-2.515-1.971-1.994 2.311-2.969.51.453-1.971 2.516 1.971 1.994Zm.472-4.963h2.957v7.931h-.85V95.76h-2.107v-.85h2.107v-2.266h-2.107v-.85Zm6.386 3.116v4.815h-.85V95.76h-1.257v3.965h-.85V94.91h2.957Zm-.963-2.685a.44.44 0 0 1 .113-.306.419.419 0 0 1 .306-.125c.121 0 .223.042.306.125a.416.416 0 0 1 .125.306c0 .12-.042.222-.125.306a.438.438 0 0 1-.306.113.442.442 0 0 1-.306-.113.44.44 0 0 1-.113-.306Zm-1.881 0c0-.121.038-.223.114-.306a.416.416 0 0 1 .306-.125c.12 0 .222.042.306.125a.415.415 0 0 1 .124.306c0 .12-.041.222-.124.306a.442.442 0 0 1-.306.113.438.438 0 0 1-.306-.113.437.437 0 0 1-.114-.306Zm3.316 6.65h1.054V95.76h.85v3.115h1.053v.85h-2.957v-.85Zm0-7.08h2.957v.849h-2.957v-.85Zm4.71 0 .94 4.746.113-2.764h.737l-.227 5.835-.736.113-1.043-5.302-.442 5.302-.736-.113.657-7.818h.737Zm5.105 7.93h-2.957v-7.93h.85v7.08h2.107v.85Zm-.849-3.965v-3.966h.849v3.966h-.849Zm6.477 3.965V94.91h.849v3.965h1.258V94.91h.85v4.815h-2.957Zm0-7.93h2.957v.849h-2.957v-.85Zm4.278 0v3.115h2.108v4.815h-.85V95.76h-1.258v3.965h-.849v-7.93h.849Zm1.145.543a.44.44 0 0 1 .113-.306.416.416 0 0 1 .306-.125c.121 0 .223.042.306.125a.416.416 0 0 1 .125.306c0 .12-.042.223-.125.306a.438.438 0 0 1-.306.113.438.438 0 0 1-.306-.113.44.44 0 0 1-.113-.306Zm1.435 7.387v-7.93h.85v7.93h-.85Zm1.994-1.665a.44.44 0 0 1 .113-.306.416.416 0 0 1 .306-.125c.121 0 .223.042.306.125a.417.417 0 0 1 .125.306c0 .12-.042.222-.125.306a.438.438 0 0 1-.306.113.438.438 0 0 1-.306-.113.44.44 0 0 1-.113-.306Zm0-4.589a.44.44 0 0 1 .113-.306.416.416 0 0 1 .306-.125c.121 0 .223.042.306.125a.416.416 0 0 1 .125.306c0 .12-.042.223-.125.306a.438.438 0 0 1-.306.113.438.438 0 0 1-.306-.113.44.44 0 0 1-.113-.306Zm4.392 1.439v4.815h-.85V95.76h-1.257v3.965h-.85V94.91h2.957Zm-.963-2.685a.44.44 0 0 1 .113-.306.416.416 0 0 1 .306-.125c.121 0 .223.042.306.125a.416.416 0 0 1 .125.306c0 .12-.042.222-.125.306a.438.438 0 0 1-.306.113.438.438 0 0 1-.306-.113.44.44 0 0 1-.113-.306Zm-1.881 0c0-.121.038-.223.114-.306a.415.415 0 0 1 .305-.125c.121 0 .223.042.306.125a.416.416 0 0 1 .125.306c0 .12-.042.222-.125.306a.438.438 0 0 1-.306.113.437.437 0 0 1-.305-.113.437.437 0 0 1-.114-.306Zm3.316 6.65h1.054V95.76h.849v3.115h1.054v.85h-2.957v-.85Zm0-7.08h2.957v.849h-2.957v-.85Zm6.386 4.962-2.447 2.968-.51-.453 2.107-2.515-1.971-1.994 2.311-2.969.51.453-1.971 2.516 1.971 1.994Zm1.322-4.963v3.116h2.107v4.815h-.849V95.76h-1.258v3.965h-.85v-7.93h.85Zm1.144.544c0-.12.038-.223.114-.306a.415.415 0 0 1 .305-.125c.121 0 .223.042.306.125a.416.416 0 0 1 .125.306c0 .12-.042.223-.125.306a.438.438 0 0 1-.306.113.437.437 0 0 1-.305-.113.437.437 0 0 1-.114-.306Zm6.59-.544h2.958v7.931h-.85V95.76h-2.108v-.85h2.108v-2.266h-2.108v-.85Zm3.43 7.931V94.91h.849v3.965h1.258V94.91h.85v4.815h-2.957Zm0-7.93h2.957v.849h-2.957v-.85Zm6.386 3.115v4.815h-.85V95.76h-1.258v3.965h-.849V94.91h2.957Zm-.963-2.685c0-.121.037-.223.113-.306a.416.416 0 0 1 .306-.125c.121 0 .223.042.306.125a.415.415 0 0 1 .124.306c0 .12-.041.222-.124.306a.438.438 0 0 1-.306.113.438.438 0 0 1-.306-.113.436.436 0 0 1-.113-.306Zm-1.881 0a.44.44 0 0 1 .113-.306.416.416 0 0 1 .306-.125c.121 0 .223.042.306.125a.416.416 0 0 1 .125.306c0 .12-.042.222-.125.306a.438.438 0 0 1-.306.113.438.438 0 0 1-.306-.113.44.44 0 0 1-.113-.306Zm14.007 3.535v-3.116h-1.257v6.231h1.121v.85h-1.971v-7.93h2.957v3.965h-.85Zm4.279-3.173-1.087 3.07 1.087 3.728-.736.34-.816-2.764-.782 2.198-.623-.227 1.088-3.07-1.088-3.728.737-.34.804 2.776.793-2.21.623.227Zm.472-.793h2.957v7.931h-.849v-7.081h-2.108v-.85Zm11.542 0v7.931h-.85V95.76h-1.258v3.965h-.85V94.91h2.108v-2.266h-2.108v-.85h2.958Zm.472 0h2.957v7.931h-.85V95.76h-2.107v-.85h2.107v-2.266h-2.107v-.85Zm3.429 0h2.957v7.931h-2.957v-.85h2.107v-6.231h-2.107v-.85Zm4.278 0v3.116h2.108v4.815h-.85V95.76h-1.258v3.965h-.849v-7.93h.849Zm1.145.544a.44.44 0 0 1 .113-.306.416.416 0 0 1 .306-.125c.121 0 .223.042.306.125a.416.416 0 0 1 .125.306c0 .12-.042.223-.125.306a.438.438 0 0 1-.306.113.438.438 0 0 1-.306-.113.44.44 0 0 1-.113-.306Zm6.59-.544h2.957v7.931h-.85v-7.081h-2.107v-.85Zm3.429 0h2.957v7.931h-.85v-7.081h-2.107v-.85Zm6.386 4.963-2.447 2.968-.51-.453 2.107-2.515-1.971-1.994 2.311-2.969.51.453-1.971 2.516 1.971 1.994Zm3.429 0-2.447 2.968-.51-.453 2.108-2.515-1.972-1.994 2.311-2.969.51.453-1.971 2.516 1.971 1.994Zm8.585-4.963v7.931h-.85v-7.081h-1.258v7.081h-.85v-7.93h2.958Zm3.429.793-1.088 3.07 1.088 3.728-.737.34-.816-2.764-.781 2.198-.623-.227 1.087-3.07-1.087-3.728.736-.34.804 2.776.794-2.21.623.227Zm2.375 6.288h1.054v.85h-2.957v-.85h1.053V95.76l-1.053-3.966h.849l.624 2.708.634-2.708h.85l-1.054 3.966v3.115Zm3.429 0h1.054v.85h-2.957v-.85h1.053V95.76l-1.053-3.966h.849l.624 2.708.634-2.708h.85l-1.054 3.966v3.115Zm2.376-7.08v3.115h2.107v4.815h-.85V95.76h-1.257v3.965h-.85v-7.93h.85Zm1.144.543a.44.44 0 0 1 .113-.306.416.416 0 0 1 .306-.125c.121 0 .223.042.306.125a.416.416 0 0 1 .125.306c0 .12-.042.223-.125.306a.438.438 0 0 1-.306.113.438.438 0 0 1-.306-.113.44.44 0 0 1-.113-.306Zm1.435 7.387V94.91h.85v3.965h1.257V94.91h.85v4.815h-2.957Zm0-7.93h2.957v.849h-2.957v-.85Zm6.386 0v7.93h-.85v-7.081h-1.257v7.081h-.85v-7.93h2.957Zm.472 7.08h1.054V95.76h.85v3.115h1.053v.85h-2.957v-.85Zm0-7.08h2.957v.849h-2.957v-.85Zm3.429 0h2.957v7.93h-.849V95.76h-2.108v-.85h2.108v-2.266h-2.108v-.85Zm6.386 4.962-2.447 2.968-.51-.453 2.108-2.515-1.972-1.994 2.312-2.969.509.453-1.971 2.516 1.971 1.994Zm5.628 2.968V94.91h.849v3.965h1.258V94.91h.85v4.815h-2.957Zm0-7.93h2.957v.849h-2.957v-.85Zm3.429 7.08h1.053V95.76h.85v3.115h1.054v.85h-2.957v-.85Zm0-7.08h2.957v.849h-2.957v-.85Zm6.386 7.93h-2.957v-7.93h.85v7.08h2.107v.85Zm-.85-3.965v-3.966h.85v3.966h-.85Zm4.279-3.966v7.931h-.85V95.76h-1.257v3.965h-.85V94.91h2.107v-2.266h-2.107v-.85h2.957Zm3.429 3.116v4.815h-.85V95.76h-1.257v3.965h-.85V94.91h2.957Zm-.963-2.685a.44.44 0 0 1 .113-.306.416.416 0 0 1 .306-.125c.121 0 .223.042.306.125a.416.416 0 0 1 .125.306c0 .12-.042.222-.125.306a.438.438 0 0 1-.306.113.438.438 0 0 1-.306-.113.44.44 0 0 1-.113-.306Zm-1.881 0c0-.121.038-.223.114-.306a.415.415 0 0 1 .305-.125c.121 0 .223.042.306.125a.416.416 0 0 1 .125.306c0 .12-.042.222-.125.306a.438.438 0 0 1-.306.113.437.437 0 0 1-.305-.113.437.437 0 0 1-.114-.306Zm3.089 7.5v-7.93h.85l.85 2.061.861-2.062h.85v3.966h-.85v-2.38l-.657 1.383h-.397l-.657-1.383v6.345h-.85Zm8.811-7.93h2.957v7.93h-.849V95.76h-2.108v-.85h2.108v-2.266h-2.108v-.85Zm4.71 0 .94 4.746.113-2.764h.737l-.227 5.835-.736.113-1.043-5.302-.441 5.302-.737-.113.657-7.818h.737Zm2.148 0h2.958v.849h-1.054v2.266h1.054v4.815h-2.958V94.91h1.054v-2.266h-1.054v-.85Zm.85 3.965v3.115h1.258V95.76h-1.258Zm10.692-3.173-1.088 3.07 1.088 3.728-.737.34-.815-2.764-.782 2.198-.623-.227 1.087-3.07-1.087-3.728.736-.34.805 2.776.793-2.21.623.227Zm.472 6.685 1.745-2.663h-1.745v-4.815h.85v3.966h1.257v-3.966h.85v7.931h-.85v-2.436l-1.597 2.436-.51-.453Zm4.709-7.478.941 4.747.113-2.764h.736l-.226 5.835-.737.113-1.042-5.302-.442 5.302-.736-.113.657-7.818h.736Zm2.999 0v3.116h2.107v4.815h-.85V95.76h-1.257v3.965h-.85v-7.93h.85Zm1.144.544a.44.44 0 0 1 .113-.306.416.416 0 0 1 .306-.125c.121 0 .223.042.306.125a.416.416 0 0 1 .125.306c0 .12-.042.223-.125.306a.438.438 0 0 1-.306.113.438.438 0 0 1-.306-.113.44.44 0 0 1-.113-.306Zm1.435 7.387V94.91h.85v3.965h1.257V94.91h.85v4.815h-2.957Zm0-7.93h2.957v.849h-2.957v-.85Zm3.203 7.93v-7.93h.849l.85 2.061.861-2.062h.85v3.966h-.85v-2.38l-.657 1.383h-.396l-.658-1.383v6.345h-.849Zm6.612-7.93v7.93h-.849V95.76h-1.258v3.965h-.85V94.91h2.108v-2.266h-2.108v-.85h2.957Zm.472 7.08h1.054V95.76h.85v3.115h1.054v.85h-2.958v-.85Zm0-7.08h2.958v.849h-2.958v-.85Zm3.429 7.93v-7.93h.85v7.93h-.85Zm1.995-1.665c0-.121.037-.223.113-.306a.416.416 0 0 1 .306-.125c.121 0 .223.042.306.125a.416.416 0 0 1 .124.306c0 .12-.041.222-.124.306a.438.438 0 0 1-.306.113.438.438 0 0 1-.306-.113.436.436 0 0 1-.113-.306Zm0-4.589c0-.12.037-.223.113-.306a.416.416 0 0 1 .306-.125c.121 0 .223.042.306.125a.415.415 0 0 1 .124.306c0 .12-.041.223-.124.306a.438.438 0 0 1-.306.113.438.438 0 0 1-.306-.113.436.436 0 0 1-.113-.306Zm9.547-.884-1.088 3.07 1.088 3.728-.737.34-.815-2.764-.782 2.198-.623-.227 1.087-3.07-1.087-3.728.736-.34.805 2.776.793-2.21.623.227Zm.472-.793h2.957v7.931h-.85v-7.081h-2.107v-.85Zm11.541 3.116v4.815h-.85V95.76h-1.257v3.965h-.85V94.91h2.957Zm-.963-2.685a.44.44 0 0 1 .113-.306.419.419 0 0 1 .306-.125c.121 0 .223.042.306.125a.416.416 0 0 1 .125.306c0 .12-.042.222-.125.306a.438.438 0 0 1-.306.113.442.442 0 0 1-.306-.113.44.44 0 0 1-.113-.306Zm-1.881 0c0-.121.038-.223.114-.306a.416.416 0 0 1 .306-.125c.12 0 .222.042.305.125a.412.412 0 0 1 .125.306c0 .12-.041.222-.125.306a.437.437 0 0 1-.305.113.438.438 0 0 1-.306-.113.437.437 0 0 1-.114-.306Zm6.273-.43v7.93h-.849V95.76h-1.258v3.965h-.85V94.91h2.108v-2.266h-2.108v-.85h2.957Zm1.322 0v3.115h2.107v4.815h-.849V95.76h-1.258v3.965h-.85v-7.93h.85Zm1.144.543c0-.12.038-.223.114-.306a.416.416 0 0 1 .306-.125c.12 0 .222.042.305.125a.412.412 0 0 1 .125.306c0 .12-.041.223-.125.306a.437.437 0 0 1-.305.113.438.438 0 0 1-.306-.113.437.437 0 0 1-.114-.306Zm9.548-.544v7.931h-.85v-7.081h-1.258v7.081h-.849v-7.93h2.957Zm3.429 0v7.931h-.85V95.76h-1.258v3.965h-.849V94.91h2.107v-2.266h-2.107v-.85h2.957Zm.472 0h2.957v7.931h-.85V95.76h-2.107v-.85h2.107v-2.266h-2.107v-.85Zm3.429 7.931V94.91h.85v3.965h1.257V94.91h.85v4.815h-2.957Zm0-7.93h2.957v.849h-2.957v-.85Zm3.429 0h2.957v7.93h-.85V95.76h-2.107v-.85h2.107v-2.266h-2.107v-.85Zm6.386 0v7.93h-.85v-7.081h-1.257v7.081h-.85v-7.93h2.957Zm3.429 3.115v4.815h-.85V95.76h-1.257v3.965h-.85V94.91h2.957Zm-.963-2.685a.44.44 0 0 1 .113-.306.419.419 0 0 1 .306-.125c.121 0 .223.042.306.125a.416.416 0 0 1 .125.306c0 .12-.042.222-.125.306a.438.438 0 0 1-.306.113.442.442 0 0 1-.306-.113.44.44 0 0 1-.113-.306Zm-1.881 0c0-.121.038-.223.114-.306a.416.416 0 0 1 .306-.125c.12 0 .222.042.305.125a.412.412 0 0 1 .125.306c0 .12-.041.222-.125.306a.437.437 0 0 1-.305.113.438.438 0 0 1-.306-.113.437.437 0 0 1-.114-.306Zm4.166-.43v3.115h2.107v4.815h-.849V95.76h-1.258v3.965h-.85v-7.93h.85Zm1.144.543c0-.12.038-.223.114-.306a.415.415 0 0 1 .305-.125c.121 0 .223.042.306.125a.416.416 0 0 1 .125.306c0 .12-.042.223-.125.306a.438.438 0 0 1-.306.113.437.437 0 0 1-.305-.113.437.437 0 0 1-.114-.306Zm1.435 7.387V94.91h.85v3.965h1.258V94.91h.849v4.815h-2.957Zm0-7.93h2.957v.849h-2.957v-.85Zm14.971 3.115v4.815h-.85V95.76h-1.258v3.965h-.849V94.91h2.957Zm-.963-2.685c0-.121.037-.223.113-.306a.416.416 0 0 1 .306-.125c.121 0 .223.042.306.125a.415.415 0 0 1 .124.306c0 .12-.041.222-.124.306a.438.438 0 0 1-.306.113.438.438 0 0 1-.306-.113.436.436 0 0 1-.113-.306Zm-1.881 0a.44.44 0 0 1 .113-.306.416.416 0 0 1 .306-.125c.121 0 .223.042.306.125a.416.416 0 0 1 .125.306c0 .12-.042.222-.125.306a.438.438 0 0 1-.306.113.438.438 0 0 1-.306-.113.44.44 0 0 1-.113-.306Zm6.273-.43v7.93h-.85V95.76h-1.258v3.965h-.849V94.91h2.107v-2.266h-2.107v-.85h2.957Zm1.322 0v3.115h2.107v4.815h-.85V95.76h-1.257v3.965h-.85v-7.93h.85Zm1.144.543a.44.44 0 0 1 .113-.306.416.416 0 0 1 .306-.125c.121 0 .223.042.306.125a.416.416 0 0 1 .125.306c0 .12-.042.223-.125.306a.438.438 0 0 1-.306.113.438.438 0 0 1-.306-.113.44.44 0 0 1-.113-.306Zm9.547-.544v7.931h-.85v-7.081h-1.257v7.081h-.85v-7.93h2.957Zm.472 0h2.957v.85h-1.903l1.903 2.266v4.815h-2.957v-.85h2.108v-3.716l-2.108-2.515v-.85Zm6.386 0v7.931h-.849v-7.081h-1.258v7.081h-.85v-7.93h2.957Zm8.585 3.116v4.815h-.85V95.76h-1.258v3.965h-.85V94.91h2.958Zm-.963-2.685c0-.121.037-.223.113-.306a.416.416 0 0 1 .306-.125c.121 0 .223.042.306.125a.415.415 0 0 1 .124.306c0 .12-.041.222-.124.306a.438.438 0 0 1-.306.113.438.438 0 0 1-.306-.113.436.436 0 0 1-.113-.306Zm-1.881 0a.44.44 0 0 1 .113-.306.416.416 0 0 1 .306-.125c.121 0 .223.042.306.125a.416.416 0 0 1 .125.306c0 .12-.042.222-.125.306a.438.438 0 0 1-.306.113.438.438 0 0 1-.306-.113.44.44 0 0 1-.113-.306Zm6.273.362-1.088 3.07 1.088 3.728-.737.34-.815-2.764-.782 2.198-.623-.227 1.087-3.07-1.087-3.728.736-.34.804 2.776.794-2.21.623.227Zm.472 3.173v-3.966h2.957v7.931h-2.957v-.85h2.107v-6.231h-1.258v3.116h-.849Zm4.279-3.966v3.116h2.107v4.815h-.85V95.76h-1.257v3.965h-.85v-7.93h.85Zm1.144.544a.44.44 0 0 1 .113-.306.416.416 0 0 1 .306-.125c.121 0 .223.042.306.125a.416.416 0 0 1 .125.306c0 .12-.042.223-.125.306a.438.438 0 0 1-.306.113.438.438 0 0 1-.306-.113.44.44 0 0 1-.113-.306Zm2.715-.544.941 4.747.113-2.764h.736l-.226 5.835-.737.113-1.042-5.302-.442 5.302-.736-.113.657-7.818h.736Zm1.922 7.931v-7.93h.85l.85 2.061.861-2.062h.85v3.966h-.85v-2.38l-.657 1.383h-.397l-.657-1.383v6.345h-.85Zm8.811-7.93h2.957v7.93h-.849V95.76h-2.108v-.85h2.108v-2.266h-2.108v-.85Zm3.429 7.93V94.91h.85v3.965h1.258V94.91h.849v4.815h-2.957Zm0-7.93h2.957v.849h-2.957v-.85Zm4.279 0v3.115h2.108v4.815h-.85V95.76h-1.258v3.965h-.85v-7.93h.85Zm1.144.543c0-.12.038-.223.114-.306a.416.416 0 0 1 .306-.125c.121 0 .223.042.306.125a.415.415 0 0 1 .124.306c0 .12-.041.223-.124.306a.438.438 0 0 1-.306.113.438.438 0 0 1-.306-.113.437.437 0 0 1-.114-.306Zm6.591-.544h2.957v7.931h-.85v-7.081h-2.107v-.85Zm3.429 0h2.957v7.931h-.85v-7.081h-2.107v-.85Zm6.386 4.963-2.447 2.968-.51-.453 2.107-2.515-1.971-1.994 2.311-2.969.51.453-1.971 2.516 1.971 1.994Zm3.429 0-2.447 2.968-.51-.453 2.107-2.515-1.971-1.994 2.311-2.969.51.453-1.971 2.516 1.971 1.994Zm2.579-.997v-3.116h-1.257v6.231h1.121v.85H577.8v-7.93h2.957v3.965h-.85Zm6.477 3.115h1.054V95.76h.85v3.115h1.053v.85h-2.957v-.85Zm0-7.08h2.957v.849h-2.957v-.85Zm4.71 0 .94 4.746.113-2.764h.737l-.227 5.835-.736.113-1.043-5.302-.441 5.302-.737-.113.657-7.818h.737Zm5.106 3.115v4.815h-.85V95.76h-1.258v3.965h-.85V94.91h2.958Zm-.963-2.685c0-.121.037-.223.113-.306a.416.416 0 0 1 .306-.125c.121 0 .223.042.306.125a.415.415 0 0 1 .124.306c0 .12-.041.222-.124.306a.438.438 0 0 1-.306.113.438.438 0 0 1-.306-.113.436.436 0 0 1-.113-.306Zm-1.881 0a.44.44 0 0 1 .113-.306.416.416 0 0 1 .306-.125c.121 0 .223.042.306.125a.415.415 0 0 1 .124.306c0 .12-.041.222-.124.306a.438.438 0 0 1-.306.113.438.438 0 0 1-.306-.113.44.44 0 0 1-.113-.306Zm3.316 7.5V94.91h.849v3.965h1.258V94.91h.85v4.815h-2.957Zm0-7.93h2.957v.849h-2.957v-.85Zm6.386.792-1.088 3.07 1.088 3.728-.737.34-.815-2.764-.782 2.198-.623-.227 1.087-3.07-1.087-3.728.736-.34.805 2.776.793-2.21.623.227Zm.472 7.138v-7.93h.849v7.93h-.849Zm1.994-1.665a.44.44 0 0 1 .113-.306.416.416 0 0 1 .306-.125c.121 0 .223.042.306.125a.417.417 0 0 1 .125.306c0 .12-.042.222-.125.306a.438.438 0 0 1-.306.113.438.438 0 0 1-.306-.113.44.44 0 0 1-.113-.306Zm0-4.589a.44.44 0 0 1 .113-.306.416.416 0 0 1 .306-.125c.121 0 .223.042.306.125a.416.416 0 0 1 .125.306c0 .12-.042.223-.125.306a.438.438 0 0 1-.306.113.438.438 0 0 1-.306-.113.44.44 0 0 1-.113-.306Zm1.435-1.677h2.957v7.931h-.85V95.76h-2.107v-.85h2.107v-2.266h-2.107v-.85Zm3.429 0h2.957v.85h-1.903l1.903 2.266v4.815h-2.957v-.85h2.107v-3.716l-2.107-2.515v-.85Zm6.386 4.963-2.447 2.968-.51-.453 2.107-2.515-1.971-1.994 2.311-2.969.51.453-1.971 2.516 1.971 1.994Zm1.322-4.963v3.116h2.107v4.815h-.85V95.76h-1.257v3.965h-.85v-7.93h.85Zm1.144.544a.44.44 0 0 1 .113-.306.419.419 0 0 1 .306-.125c.121 0 .223.042.306.125a.416.416 0 0 1 .125.306c0 .12-.042.223-.125.306a.438.438 0 0 1-.306.113.442.442 0 0 1-.306-.113.44.44 0 0 1-.113-.306Zm6.59-.544h2.958v7.931h-.85V95.76h-2.108v-.85h2.108v-2.266h-2.108v-.85Zm6.387 0v7.931h-.85v-7.081h-1.258v7.081h-.85v-7.93h2.958Zm.472 7.931V94.91h.849v3.965h1.258V94.91h.85v4.815h-2.957Zm0-7.93h2.957v.849h-2.957v-.85Zm6.386.792-1.088 3.07 1.088 3.728-.737.34-.815-2.764-.782 2.198-.623-.227 1.087-3.07-1.087-3.728.736-.34.805 2.776.793-2.21.623.227Zm.245 7.138v-7.93h.85l.85 2.061.861-2.062h.849v3.966h-.849v-2.38l-.657 1.383h-.397l-.657-1.383v6.345h-.85Zm3.429 0v-7.93h.85l.85 2.061.861-2.062h.85v3.966h-.85v-2.38l-.657 1.383h-.397l-.657-1.383v6.345h-.85Zm8.811-7.93h2.957v7.93h-.85V95.76h-2.107v-.85h2.107v-2.266h-2.107v-.85Zm6.386 4.962-2.447 2.968-.51-.453 2.108-2.515-1.972-1.994 2.311-2.969.51.453-1.971 2.516 1.971 1.994Zm3.429 0-2.447 2.968-.51-.453 2.108-2.515-1.972-1.994 2.312-2.969.509.453-1.971 2.516 1.971 1.994Zm6.477-4.963v3.116h2.108v4.815h-.85V95.76h-1.258v3.965h-.849v-7.93h.849Zm1.145.544c0-.12.037-.223.113-.306a.416.416 0 0 1 .306-.125c.121 0 .223.042.306.125a.415.415 0 0 1 .124.306c0 .12-.041.223-.124.306a.438.438 0 0 1-.306.113.438.438 0 0 1-.306-.113.436.436 0 0 1-.113-.306Zm4.392 2.572v4.815h-.85V95.76h-1.258v3.965h-.849V94.91h2.957Zm-.963-2.685c0-.121.037-.223.113-.306a.416.416 0 0 1 .306-.125c.121 0 .223.042.306.125a.415.415 0 0 1 .124.306c0 .12-.041.222-.124.306a.438.438 0 0 1-.306.113.438.438 0 0 1-.306-.113.436.436 0 0 1-.113-.306Zm-1.881 0a.44.44 0 0 1 .113-.306.416.416 0 0 1 .306-.125c.121 0 .223.042.306.125a.416.416 0 0 1 .125.306c0 .12-.042.222-.125.306a.438.438 0 0 1-.306.113.438.438 0 0 1-.306-.113.44.44 0 0 1-.113-.306Zm6.273-.43v7.93h-.85V95.76h-1.258v3.965h-.849V94.91h2.107v-2.266h-2.107v-.85h2.957Zm5.627 0h2.957v.849h-1.903l1.903 2.266v4.815h-2.957v-.85h2.107v-3.716l-2.107-2.515v-.85Zm6.386 4.962-2.447 2.968-.51-.453 2.107-2.515-1.971-1.994 2.311-2.969.51.453-1.971 2.516 1.971 1.994Zm3.429-4.17-1.087 3.07 1.087 3.728-.736.34-.816-2.764-.782 2.198-.623-.227 1.088-3.07-1.088-3.728.737-.34.804 2.776.793-2.21.623.227Zm3.429-.793v7.931h-.849v-7.081h-1.258v7.081h-.85v-7.93h2.957Zm.472 3.966v-3.966h2.957v7.931h-2.957v-.85h2.108v-6.231h-1.258v3.116h-.85Zm6.387-3.966v7.931h-.85v-7.081h-1.258v7.081h-.85v-7.93h2.958Zm3.429 0v7.931h-.85V95.76h-1.258v3.965h-.849V94.91h2.107v-2.266h-2.107v-.85h2.957Zm.472 0h2.957v7.931h-.85V95.76h-2.107v-.85h2.107v-2.266h-2.107v-.85Zm3.429 7.081h1.053V95.76h.85v3.115h1.054v.85h-2.957v-.85Zm0-7.08h2.957v.849h-2.957v-.85Zm4.709 0 .941 4.746.113-2.764h.736l-.226 5.835-.737.113-1.042-5.302-.442 5.302-.736-.113.657-7.818h.736Zm7.304 7.93v-7.93h.85v7.93h-.85Zm1.994-1.665a.44.44 0 0 1 .113-.306.417.417 0 0 1 .306-.125c.121 0 .223.042.306.125a.417.417 0 0 1 .125.306c0 .12-.042.222-.125.306a.438.438 0 0 1-.306.113.44.44 0 0 1-.306-.113.44.44 0 0 1-.113-.306Zm0-4.589a.44.44 0 0 1 .113-.306.417.417 0 0 1 .306-.125c.121 0 .223.042.306.125a.416.416 0 0 1 .125.306c0 .12-.042.223-.125.306a.438.438 0 0 1-.306.113.44.44 0 0 1-.306-.113.44.44 0 0 1-.113-.306Zm1.435 6.254V94.91h.85v3.965h1.258V94.91h.849v4.815h-2.957Zm0-7.93h2.957v.849h-2.957v-.85Zm6.386.792-1.087 3.07 1.087 3.728-.736.34-.816-2.764-.782 2.198-.623-.227 1.088-3.07-1.088-3.728.737-.34.804 2.776.793-2.21.623.227Zm.472-.793h2.957v.85h-1.053v2.266h1.053v4.815h-2.957V94.91h1.054v-2.266h-1.054v-.85Zm.85 3.966v3.115h1.258V95.76h-1.258Zm2.579-3.966h2.958v7.931h-.85v-7.081h-2.108v-.85Zm6.387 0v7.931h-.85v-7.081h-1.258v7.081h-.849v-7.93h2.957Zm3.429 3.116v4.815h-.85V95.76h-1.258v3.965h-.849V94.91h2.957Zm-.963-2.685c0-.121.037-.223.113-.306a.416.416 0 0 1 .306-.125c.121 0 .223.042.306.125a.415.415 0 0 1 .124.306c0 .12-.041.222-.124.306a.438.438 0 0 1-.306.113.438.438 0 0 1-.306-.113.436.436 0 0 1-.113-.306Zm-1.881 0a.44.44 0 0 1 .113-.306.416.416 0 0 1 .306-.125c.121 0 .223.042.306.125a.416.416 0 0 1 .125.306c0 .12-.042.222-.125.306a.438.438 0 0 1-.306.113.438.438 0 0 1-.306-.113.44.44 0 0 1-.113-.306Zm3.089 7.5v-7.93h.85l.85 2.061.861-2.062h.849v3.966h-.849v-2.38l-.657 1.383h-.397l-.657-1.383v6.345h-.85Zm12.24 0v-7.93h.85v7.93h-.85Zm1.994-1.665a.44.44 0 0 1 .113-.306.419.419 0 0 1 .306-.125c.121 0 .223.042.306.125a.417.417 0 0 1 .125.306c0 .12-.042.222-.125.306a.438.438 0 0 1-.306.113.441.441 0 0 1-.306-.113.44.44 0 0 1-.113-.306Zm0-4.589a.44.44 0 0 1 .113-.306.419.419 0 0 1 .306-.125c.121 0 .223.042.306.125a.416.416 0 0 1 .125.306c0 .12-.042.223-.125.306a.438.438 0 0 1-.306.113.442.442 0 0 1-.306-.113.44.44 0 0 1-.113-.306Zm4.392 3.286-2.447 2.968-.51-.453 2.108-2.515-1.972-1.994 2.311-2.969.51.453-1.971 2.516 1.971 1.994Zm.472-4.963h2.957v7.931h-.849V95.76h-2.108v-.85h2.108v-2.266h-2.108v-.85Zm6.387 3.116v4.815h-.85V95.76h-1.258v3.965h-.85V94.91h2.958Zm-.964-2.685c0-.121.038-.223.114-.306a.416.416 0 0 1 .306-.125c.121 0 .222.042.306.125a.415.415 0 0 1 .124.306c0 .12-.041.222-.124.306a.44.44 0 0 1-.306.113.438.438 0 0 1-.306-.113.437.437 0 0 1-.114-.306Zm-1.88 0c0-.121.037-.223.113-.306a.416.416 0 0 1 .306-.125c.121 0 .223.042.306.125a.415.415 0 0 1 .124.306c0 .12-.041.222-.124.306a.438.438 0 0 1-.306.113.438.438 0 0 1-.306-.113.436.436 0 0 1-.113-.306Zm3.315-.43h2.958v7.93h-.85v-7.081h-2.108v-.85Zm6.387.792-1.088 3.07 1.088 3.728-.737.34-.816-2.764-.781 2.198-.623-.227 1.087-3.07-1.087-3.728.736-.34.804 2.776.794-2.21.623.227Zm.472 7.138V94.91h.849v3.965h1.258V94.91h.85v4.815h-2.957Zm0-7.93h2.957v.849h-2.957v-.85Zm5.332 7.08h1.054v.85h-2.957v-.85h1.053V95.76l-1.053-3.966h.85l.623 2.708.634-2.708h.85l-1.054 3.966v3.115Zm1.299.85v-7.93h.85l.85 2.061.861-2.062h.85v3.966h-.85v-2.38l-.657 1.383h-.397l-.657-1.383v6.345h-.85Zm8.811-7.93h2.957v7.93h-.85V95.76h-2.107v-.85h2.107v-2.266h-2.107v-.85Zm4.709 0 .941 4.746.113-2.764h.737l-.227 5.835-.736.113-1.043-5.302-.442 5.302-.736-.113.657-7.818h.736Zm2.149 0h2.957v.849h-1.053v2.266h1.053v4.815h-2.957V94.91h1.054v-2.266h-1.054v-.85Zm.85 3.965v3.115h1.258V95.76h-1.258Zm7.735 3.512 1.744-2.663h-1.744v-4.815h.849v3.966h1.258v-3.966h.85v7.931h-.85v-2.436l-1.598 2.436-.509-.453Zm3.429-7.478h2.957v7.931h-.85V95.76h-2.107v-.85h2.107v-2.266h-2.107v-.85Zm6.386 4.963-2.447 2.968-.51-.453 2.107-2.515-1.971-1.994 2.311-2.969.51.453-1.972 2.516 1.972 1.994Zm3.429 0-2.447 2.968-.51-.453 2.107-2.515-1.971-1.994 2.311-2.969.51.453-1.971 2.516 1.971 1.994Zm1.322-4.963v3.116h2.107v4.815h-.85V95.76h-1.257v3.965h-.85v-7.93h.85Zm1.144.544a.44.44 0 0 1 .113-.306.416.416 0 0 1 .306-.125c.121 0 .223.042.306.125a.416.416 0 0 1 .125.306c0 .12-.042.223-.125.306a.438.438 0 0 1-.306.113.438.438 0 0 1-.306-.113.44.44 0 0 1-.113-.306Zm4.392 2.572v4.815h-.85V95.76h-1.257v3.965h-.85V94.91h2.957Zm-.963-2.685a.44.44 0 0 1 .113-.306.416.416 0 0 1 .306-.125c.121 0 .223.042.306.125a.416.416 0 0 1 .125.306c0 .12-.042.222-.125.306a.438.438 0 0 1-.306.113.438.438 0 0 1-.306-.113.44.44 0 0 1-.113-.306Zm-1.881 0c0-.121.038-.223.114-.306a.416.416 0 0 1 .306-.125c.12 0 .222.042.305.125a.412.412 0 0 1 .125.306c0 .12-.041.222-.125.306a.437.437 0 0 1-.305.113.438.438 0 0 1-.306-.113.437.437 0 0 1-.114-.306Zm3.089 7.5v-7.93h.85l.85 2.061.861-2.062h.85v3.966h-.85v-2.38l-.657 1.383h-.397l-.657-1.383v6.345h-.85ZM1154.44 94.909v4.815h-.85V95.76h-1.25v3.965h-.85V94.91h2.95Zm-.96-2.685c0-.121.04-.223.11-.306a.438.438 0 0 1 .31-.125c.12 0 .22.042.31.125.08.083.12.185.12.306 0 .12-.04.222-.12.306a.462.462 0 0 1-.31.113.462.462 0 0 1-.31-.113.462.462 0 0 1-.11-.306Zm-1.88 0c0-.121.04-.223.11-.306a.438.438 0 0 1 .31-.125c.12 0 .22.042.31.125.08.083.12.185.12.306 0 .12-.04.222-.12.306a.462.462 0 0 1-.31.113.462.462 0 0 1-.31-.113.462.462 0 0 1-.11-.306Zm8.47-.43h2.96v7.93h-.85V95.76h-2.11v-.85h2.11v-2.266h-2.11v-.85Zm6.39 4.962-2.45 2.968-.51-.453 2.11-2.515-1.97-1.994 2.31-2.969.51.453-1.97 2.516 1.97 1.994Zm3.43 0-2.45 2.968-.51-.453 2.11-2.515-1.97-1.994 2.31-2.969.51.453-1.97 2.516 1.97 1.994Zm6.47-4.963v3.116h2.11v4.815h-.85V95.76h-1.26v3.965h-.85v-7.93h.85Zm1.15.544c0-.12.04-.223.11-.306a.422.422 0 0 1 .31-.125.4.4 0 0 1 .3.125c.09.083.13.185.13.306 0 .12-.04.223-.13.306a.42.42 0 0 1-.3.113.445.445 0 0 1-.31-.113.462.462 0 0 1-.11-.306Zm4.39 2.572v4.815h-.85V95.76h-1.26v3.965h-.85V94.91h2.96Zm-.96-2.685c0-.121.03-.223.11-.306a.422.422 0 0 1 .31-.125.4.4 0 0 1 .3.125c.09.083.13.185.13.306 0 .12-.04.222-.13.306a.42.42 0 0 1-.3.113.445.445 0 0 1-.31-.113.416.416 0 0 1-.11-.306Zm-1.88 0c0-.121.03-.223.11-.306a.406.406 0 0 1 .31-.125.4.4 0 0 1 .3.125c.08.083.13.185.13.306 0 .12-.05.222-.13.306a.42.42 0 0 1-.3.113.428.428 0 0 1-.31-.113.416.416 0 0 1-.11-.306Zm6.27-.43v7.93h-.85V95.76h-1.26v3.965h-.85V94.91h2.11v-2.266h-2.11v-.85h2.96Zm5.63 0h2.95v.849h-1.9l1.9 2.266v4.815h-2.95v-.85h2.1v-3.716l-2.1-2.515v-.85Zm6.38 4.962-2.44 2.968-.51-.453 2.1-2.515-1.97-1.994 2.31-2.969.51.453-1.97 2.516 1.97 1.994Zm3.43-4.17-1.09 3.07 1.09 3.728-.73.34-.82-2.764-.78 2.198-.63-.227 1.09-3.07-1.09-3.728.74-.34.81 2.776.79-2.21.62.227Zm3.43-.793v7.931h-.85v-7.081h-1.26v7.081h-.85v-7.93h2.96Zm.47 3.966v-3.966h2.96v7.931h-2.96v-.85h2.11v-6.231h-1.26v3.116h-.85Zm6.39-3.966v7.931h-.85v-7.081h-1.26v7.081h-.85v-7.93h2.96Zm3.43 0v7.931h-.85V95.76h-1.26v3.965h-.85V94.91h2.11v-2.266h-2.11v-.85h2.96Zm.47 0h2.96v7.931h-.85V95.76h-2.11v-.85h2.11v-2.266h-2.11v-.85Zm3.43 7.081h1.05V95.76h.85v3.115h1.06v.85h-2.96v-.85Zm0-7.08h2.96v.849h-2.96v-.85Zm4.71 0 .94 4.746.11-2.764h.74l-.23 5.835-.73.113-1.05-5.302-.44 5.302-.74-.113.66-7.818h.74Zm7.3 7.93v-7.93h.85v7.93h-.85Zm2-1.665c0-.121.03-.223.11-.306a.406.406 0 0 1 .31-.125.4.4 0 0 1 .3.125c.08.083.13.185.13.306 0 .12-.05.222-.13.306a.42.42 0 0 1-.3.113.428.428 0 0 1-.31-.113.416.416 0 0 1-.11-.306Zm0-4.589c0-.12.03-.223.11-.306a.406.406 0 0 1 .31-.125.4.4 0 0 1 .3.125c.08.083.13.185.13.306 0 .12-.05.223-.13.306a.42.42 0 0 1-.3.113.428.428 0 0 1-.31-.113.416.416 0 0 1-.11-.306Zm1.43 6.254V94.91h.85v3.965h1.26V94.91h.85v4.815h-2.96Zm0-7.93h2.96v.849h-2.96v-.85Zm6.39.792-1.09 3.07 1.09 3.728-.74.34-.81-2.764-.79 2.198-.62-.227 1.09-3.07-1.09-3.728.74-.34.8 2.776.79-2.21.63.227Zm.47-.793h2.96v.85h-1.06v2.266h1.06v4.815h-2.96V94.91h1.05v-2.266h-1.05v-.85Zm.85 3.966v3.115h1.26V95.76h-1.26Zm2.58-3.966h2.96v7.931h-.85v-7.081h-2.11v-.85Zm6.39 0v7.931h-.85v-7.081h-1.26v7.081h-.85v-7.93h2.96Zm3.42 3.116v4.815h-.85V95.76h-1.25v3.965h-.85V94.91h2.95Zm-.96-2.685c0-.121.04-.223.11-.306a.438.438 0 0 1 .31-.125c.12 0 .22.042.31.125.08.083.12.185.12.306 0 .12-.04.222-.12.306a.462.462 0 0 1-.31.113.462.462 0 0 1-.31-.113.462.462 0 0 1-.11-.306Zm-1.88 0c0-.121.04-.223.11-.306a.438.438 0 0 1 .31-.125c.12 0 .22.042.31.125.08.083.12.185.12.306 0 .12-.04.222-.12.306a.462.462 0 0 1-.31.113.462.462 0 0 1-.31-.113.462.462 0 0 1-.11-.306Zm3.09 7.5v-7.93h.85l.85 2.061.86-2.062h.85v3.966h-.85v-2.38l-.66 1.383h-.39l-.66-1.383v6.345h-.85Zm12.24 0v-7.93h.85v7.93h-.85Zm1.99-1.665c0-.121.04-.223.12-.306a.4.4 0 0 1 .3-.125c.12 0 .23.042.31.125.08.083.12.185.12.306 0 .12-.04.222-.12.306a.444.444 0 0 1-.31.113.42.42 0 0 1-.3-.113.424.424 0 0 1-.12-.306Zm0-4.589c0-.12.04-.223.12-.306a.4.4 0 0 1 .3-.125c.12 0 .23.042.31.125.08.083.12.185.12.306 0 .12-.04.223-.12.306a.445.445 0 0 1-.31.113.42.42 0 0 1-.3-.113.424.424 0 0 1-.12-.306Zm4.4 3.286-2.45 2.968-.51-.453 2.11-2.515-1.98-1.994 2.32-2.969.51.453-1.98 2.516 1.98 1.994Zm.47-4.963h2.95v7.931h-.85V95.76h-2.1v-.85h2.1v-2.266h-2.1v-.85Zm6.38 3.116v4.815h-.85V95.76h-1.25v3.965h-.85V94.91h2.95Zm-.96-2.685c0-.121.04-.223.11-.306a.438.438 0 0 1 .31-.125c.12 0 .22.042.31.125.08.083.12.185.12.306 0 .12-.04.222-.12.306a.462.462 0 0 1-.31.113.462.462 0 0 1-.31-.113.462.462 0 0 1-.11-.306Zm-1.88 0c0-.121.04-.223.11-.306a.438.438 0 0 1 .31-.125c.12 0 .22.042.31.125.08.083.12.185.12.306 0 .12-.04.222-.12.306a.462.462 0 0 1-.31.113.462.462 0 0 1-.31-.113.462.462 0 0 1-.11-.306Zm3.32-.43h2.95v7.93h-.85v-7.081h-2.1v-.85Zm6.38.792-1.09 3.07 1.09 3.728-.73.34-.82-2.764-.78 2.198-.63-.227 1.09-3.07-1.09-3.728.74-.34.81 2.776.79-2.21.62.227Zm.47 7.138V94.91h.85v3.965h1.26V94.91h.85v4.815h-2.96Zm0-7.93h2.96v.849h-2.96v-.85Zm5.34 7.08h1.05v.85h-2.96v-.85h1.06V95.76l-1.06-3.966h.85l.63 2.708.63-2.708h.85l-1.05 3.966v3.115Zm1.3.85v-7.93h.85l.85 2.061.86-2.062h.85v3.966h-.85v-2.38l-.66 1.383h-.4l-.65-1.383v6.345h-.85Zm8.81-7.93h2.95v7.93h-.85V95.76h-2.1v-.85h2.1v-2.266h-2.1v-.85Zm4.71 0 .94 4.746.11-2.764h.74l-.23 5.835-.74.113-1.04-5.302-.44 5.302-.74-.113.66-7.818h.74Zm2.14 0h2.96v.849h-1.05v2.266h1.05v4.815h-2.96V94.91h1.06v-2.266h-1.06v-.85Zm.85 3.965v3.115h1.26V95.76h-1.26Zm7.74 3.512 1.74-2.663h-1.74v-4.815h.85v3.966h1.26v-3.966h.85v7.931h-.85v-2.436l-1.6 2.436-.51-.453Zm3.43-7.478h2.96v7.931h-.85V95.76h-2.11v-.85h2.11v-2.266h-2.11v-.85Zm6.38 4.963-2.44 2.968-.51-.453 2.1-2.515-1.97-1.994 2.31-2.969.51.453-1.97 2.516 1.97 1.994Zm3.43 0-2.44 2.968-.51-.453 2.1-2.515-1.97-1.994 2.31-2.969.51.453-1.97 2.516 1.97 1.994Zm1.32-4.963v3.116h2.11v4.815h-.85V95.76h-1.26v3.965h-.84v-7.93h.84Zm1.15.544c0-.12.04-.223.11-.306a.438.438 0 0 1 .31-.125.4.4 0 0 1 .3.125c.09.083.13.185.13.306 0 .12-.04.223-.13.306a.42.42 0 0 1-.3.113.462.462 0 0 1-.31-.113.462.462 0 0 1-.11-.306Zm4.39 2.572v4.815h-.85V95.76h-1.26v3.965h-.85V94.91h2.96Zm-.96-2.685c0-.121.04-.223.11-.306a.422.422 0 0 1 .31-.125.4.4 0 0 1 .3.125c.09.083.13.185.13.306 0 .12-.04.222-.13.306a.42.42 0 0 1-.3.113.445.445 0 0 1-.31-.113.462.462 0 0 1-.11-.306Zm-1.88 0c0-.121.04-.223.11-.306a.422.422 0 0 1 .31-.125.4.4 0 0 1 .3.125c.09.083.13.185.13.306 0 .12-.04.222-.13.306a.42.42 0 0 1-.3.113.445.445 0 0 1-.31-.113.462.462 0 0 1-.11-.306Zm3.09 7.5v-7.93h.85l.85 2.061.86-2.062h.85v3.966h-.85v-2.38l-.66 1.383h-.4l-.65-1.383v6.345h-.85Z" fill="#F2F4F8"/></svg>