<svg width="574" height="259" viewBox="0 0 574 259" fill="none" xmlns="http://www.w3.org/2000/svg">
<mask id="mask0_230:9" style="mask-type:alpha" maskUnits="userSpaceOnUse" x="0" y="0" width="574" height="259">
<rect x="1.125" y="1.125" width="571.75" height="256.75" rx="14.875" fill="#01B3FF" stroke="#101820" stroke-width="1.75"/>
</mask>
<g mask="url(#mask0_230:9)">
<rect x="1.125" y="1.125" width="571.75" height="256.75" rx="14.875" fill="#01B3FF" stroke="#101820" stroke-width="1.75"/>
<rect x="1.125" y="1.125" width="571.75" height="256.75" rx="14.875" fill="#01B3FF" stroke="#101820" stroke-width="1.75"/>
<path opacity="0.18" d="M212.54 -180.699C163.346 -191.002 113.046 -198.594 62.6866 -198.781C60.0966 -194.908 57.7271 -191.845 52.7334 -188.96C42.9498 -183.308 33.5974 -176.597 23.4661 -171.276C13.231 -165.9 3.23409 -160.563 -7.50166 -156.226C-19.9598 -151.194 -30.7053 -141.741 -39.275 -131.576C-59.4746 -107.615 -77.7687 -75.947 -81.9676 -44.4496C-91.4454 26.648 -67.8425 100.674 -9.73922 146.415C53.3369 196.07 148.717 235.34 230.127 239.748C295.953 243.313 367.506 246.685 432.626 233.988C497.364 221.364 544.105 151.561 551.351 89.7004C567.177 -45.4196 466.826 -123.518 348.494 -157.7C325.658 -164.297 301.272 -167.954 277.832 -171.633C256.069 -175.049 234.119 -176.179 212.54 -180.699Z" fill="white"/>
</g>
</svg>
