<svg width="1015" height="443" fill="none" xmlns="http://www.w3.org/2000/svg"><mask id="a" style="mask-type:alpha" maskUnits="userSpaceOnUse" x="0" y="0" width="1015" height="443"><rect width="1015" height="443" rx="221.5" fill="#C4C4C4"/></mask><g mask="url(#a)"><rect x="17" y="18" width="981" height="407" rx="203.5" fill="#0F2320"/><path d="M530.005 130.002c.416.741.134 1.068-.867 2.12-1.001 1.053-2.706 2.632-4.634 4.271a35.393 35.393 0 0 1-5.397 3.974c-7.807 4.122-11.558 4.344-16.474 4.055a29.771 29.771 0 0 1-4.255-.623c-6.369-1.483-13.19-6.754-17.72-11.551-.741-.741-1.09-1.201-1.09-1.631a.889.889 0 0 1 .112-.415c.283-.446.628-.85 1.023-1.201a52.245 52.245 0 0 1 9.2-7.748 34.414 34.414 0 0 1 12.738-4.641c3.588-.63 11.12.705 16.407 4.3 3.981 2.699 7.095 4.449 10.172 8.082.289.314.551.651.785 1.008Z" fill="#0B302B"/><path d="M480.688 129.002c-.395.351-.74.755-1.023 1.201l-.119-.067c.956-1.772 1.942-3.522 3.032-5.234 3.959-6.161 7.31-12.797 11.351-18.906 2.966-4.522 5.19-9.364 8.051-13.953.468-.741 1.854-3.663 2.966-3.67 1.483 0 3.247 4.493 3.826 5.568 2.224 4.196 4.73 8.289 7.162 12.389 1.749 2.965 3.884 5.664 5.553 8.652 2.802 5.026 5.827 9.934 8.652 14.946l-.134.074a7.814 7.814 0 0 0-.786-1.008c-3.076-3.596-6.19-5.382-10.172-8.081-5.293-3.596-12.818-4.93-16.407-4.3a34.416 34.416 0 0 0-12.737 4.641 52.138 52.138 0 0 0-9.215 7.748Z" fill="#425855"/><path d="M577.729 115.389a67.46 67.46 0 0 1 1.267 13.486 49.404 49.404 0 0 1-1 9.275c-1.061 5.19-1.669 10.424-3.203 15.466-4.782 15.792-16.734 28.781-30.123 37.981-6.443 4.449-13.464 7.192-20.989 9.172-3.929 1.03-7.896 2.135-11.966 2.431a59.408 59.408 0 0 1-12.559-.741c-17.66-2.536-31.443-6.999-44.573-19.462-1.861-1.772-3.9-3.366-5.724-5.189-1.823-1.824-3.188-4.086-4.656-6.169-4.137-5.857-8.348-12.07-10.379-19.009a115.297 115.297 0 0 1-1.483-5.553 50.19 50.19 0 0 1-1.535-12.686c0-4.211-.059-8.444.245-12.648a52.71 52.71 0 0 1 2.439-11.958c3.559-11.655 7.674-20.203 15.57-29.545a76.093 76.093 0 0 1 12.655-12.248c12.878-9.475 30.034-13.345 45.841-12.967 13.678.297 26.46 5.53 37.885 12.782 2.343 1.483 4.945 2.84 7.117 4.574 2.832 2.261 5.42 4.923 8.096 7.37 9.876 9.022 14.702 22.805 17.075 35.638Zm-6.369 20.448c.274-3.781.237-7.592.222-11.38a45.524 45.524 0 0 0-1.379-11.41c-.437-1.668-.867-3.351-1.364-5.005-1.861-6.242-5.649-11.862-9.378-17.104a40.408 40.408 0 0 0-4.189-5.553c-1.639-1.623-3.477-3.062-5.19-4.656-11.781-11.247-24.184-15.265-40.095-17.548a53.376 53.376 0 0 0-11.298-.668c-3.663.267-7.236 1.26-10.773 2.224-6.769 1.78-13.093 4.27-18.883 8.252-12.041 8.252-22.806 19.936-27.106 34.149-1.371 4.544-1.92 9.289-2.876 13.923a44.355 44.355 0 0 0-.905 8.348 61.718 61.718 0 0 0 1.142 12.137c2.135 11.543 6.48 23.947 15.399 32.102 2.417 2.224 4.737 4.597 7.295 6.628a70.133 70.133 0 0 0 6.406 4.115c10.275 6.524 21.775 11.24 34.104 11.507 14.227.311 29.656-3.144 41.259-11.67a68.752 68.752 0 0 0 11.387-11.025c7.133-8.407 10.84-16.103 14.042-26.586a47.662 47.662 0 0 0 2.18-10.78Z" fill="#425855"/><path d="M479.591 130.647c0 .431.363.868 1.09 1.632 4.53 4.796 11.351 10.038 17.719 11.551 1.402.31 2.824.518 4.256.622 4.915.289 8.667.067 16.474-4.055a35.443 35.443 0 0 0 5.397-3.974c1.928-1.639 3.707-3.329 4.634-4.27.927-.942 1.282-1.417.867-2.121l.134-.074c.563.989 1.114 1.977 1.653 2.966 1.483 2.691 2.788 5.441 4.27 8.103 1.298 2.335 2.766 4.574 4.167 6.843.593.964 3.522 5.776 3.158 6.406-.563.971-4.848.786-5.775.741-3.121-.2-6.08 0-9.186.045-2.928.044-5.887-.304-8.815-.379-8.615-.215-17.304.164-25.949.156-4.055 0-8.155.304-12.188.208-.742 0-1.483-.052-2.277-.097a53.833 53.833 0 0 0-7.725.06c-.986.074-4.448.422-5.078-.668-.631-1.089 2.72-5.983 3.099-6.553 2.713-4.449 5.241-8.897 7.769-13.435.742-1.401 1.528-2.802 2.284-4.196l.119.067a.887.887 0 0 0-.097.422Z" fill="#425855"/><path d="M477.195 141.62s1.001.586 1.135.682c1.898 1.335 5.115-.445 5.115-.445M484.364 145.728c.117.126.246.24.386.341a5.264 5.264 0 0 0 1.631.526 5.475 5.475 0 0 0 1.905.104c.378-.067 1.743-.586 1.743-.586M475.238 148.337s1.06 1.483 2.336 1.483c.675.021 1.352-.006 2.024-.082a9.746 9.746 0 0 0 1.312-.415M491.794 149.687c.758.356 1.541.656 2.343.897a6.312 6.312 0 0 0 1.831 0l1.661-.193M532.534 141.62s-.994.586-1.127.682c-1.898 1.335-5.116-.445-5.116-.445M525.364 145.728a2.315 2.315 0 0 1-.385.341 5.153 5.153 0 0 1-1.631.526 5.435 5.435 0 0 1-1.898.104c-.378-.067-1.75-.586-1.75-.586M534.497 148.337s-1.067 1.483-2.335 1.483a14.204 14.204 0 0 1-2.031-.082 9.715 9.715 0 0 1-1.313-.415M517.935 149.687a17 17 0 0 1-2.342.897 6.318 6.318 0 0 1-1.832 0l-1.66-.193M502.573 150.435a7.869 7.869 0 0 0 4.604 0M493.083 113.091c.831.407 1.722.68 2.639.808.421.027.844.01 1.261-.052.281-.059 1.483-.556 1.483-.556M496.643 106.863s1.208 1.023 4.011.215h-.067M500.03 101.251s.69.222.897.267a7.76 7.76 0 0 0 1.668-.089M502.573 110.474a7.869 7.869 0 0 0 4.604 0M503.715 96.743c.749.23 1.549.23 2.298 0M516.66 113.091a8.758 8.758 0 0 1-2.64.808 5.97 5.97 0 0 1-1.26-.052c-.282-.059-1.483-.556-1.483-.556M513.094 106.863s-1.209 1.023-4.019.215h.074M509.698 101.251s-.682.222-.889.267a7.696 7.696 0 0 1-1.668-.089" stroke="#101820" stroke-width="1.75" stroke-linecap="round" stroke-linejoin="round"/><path d="M578.996 128.875a49.238 49.238 0 0 1-1 9.275c-1.061 5.19-1.669 10.424-3.203 15.466-4.782 15.792-16.734 28.781-30.123 37.982-6.443 4.448-13.464 7.191-20.989 9.171-3.929 1.03-7.896 2.135-11.966 2.431a58.883 58.883 0 0 1-12.559-.741c-17.66-2.536-31.443-6.999-44.573-19.462-1.861-1.772-3.9-3.366-5.724-5.189-1.823-1.824-3.188-4.086-4.656-6.169-4.137-5.857-8.348-12.07-10.379-19.009-.549-1.831-1.031-3.707-1.483-5.553a50.19 50.19 0 0 1-1.535-12.686c0-4.211-.059-8.444.245-12.648a52.71 52.71 0 0 1 2.439-11.958c3.559-11.655 7.674-20.203 15.57-29.538a75.844 75.844 0 0 1 12.655-12.255c12.878-9.475 30.041-13.345 45.848-12.967 13.671.297 26.453 5.53 37.878 12.782 2.343 1.483 4.945 2.84 7.117 4.574 2.832 2.261 5.42 4.93 8.096 7.37 9.913 9.008 14.739 22.79 17.112 35.587a67.424 67.424 0 0 1 1.23 13.537v0Z" stroke="#101820" stroke-width="1.75" stroke-linecap="round" stroke-linejoin="round"/><path d="M481.473 155.024c-.741 0-1.483-.051-2.276-.096a53.688 53.688 0 0 0-7.725.059c-.986.075-4.449.423-5.079-.659-.63-1.083 2.721-5.991 3.099-6.562 2.714-4.448 5.242-8.897 7.77-13.434 1.764-3.18 3.358-6.376 5.316-9.43 3.959-6.161 7.31-12.797 11.351-18.906 2.965-4.522 5.234-9.364 8.051-13.953.467-.741 1.861-3.663 2.966-3.67 1.482 0 3.247 4.493 3.825 5.575 2.224 4.19 4.738 8.282 7.162 12.382 1.75 2.965 3.885 5.664 5.553 8.652 3.366 6.02 7.036 11.862 10.306 17.934 1.482 2.691 2.787 5.442 4.27 8.103 1.297 2.336 2.765 4.575 4.167 6.844.593.963 3.521 5.775 3.158 6.405-.563.971-4.849.786-5.768.742-3.129-.201-6.087 0-9.193.044-2.929.045-5.887-.304-8.816-.378-8.615-.215-17.304.163-25.948.156-4.056-.015-8.141.281-12.189.192Z" stroke="#101820" stroke-width="1.75" stroke-linecap="round" stroke-linejoin="round"/><path d="M529.205 128.994c1.312 1.527 1.305 1.675-.081 3.128-1.817 1.891-7.207 6.754-10.032 8.245-7.806 4.122-11.558 4.344-16.473 4.055a29.806 29.806 0 0 1-4.256-.623c-6.369-1.483-13.189-6.754-17.719-11.551-1.483-1.542-1.483-1.757.044-3.247 6.05-6.027 11.166-10.506 21.938-12.389 3.588-.63 11.121.705 16.407 4.3 3.981 2.699 7.095 4.449 10.172 8.082Z" fill="#425855" stroke="#101820" stroke-width="1.75" stroke-linecap="round" stroke-linejoin="round"/><path d="M504.798 121.32s.141 3.085.104 4.33c-.06 1.594-.104 3.181-.104 4.789 0 3.055.104 9.216.104 9.216" stroke="#101820" stroke-width="1.75" stroke-linecap="round" stroke-linejoin="round"/><path d="m496.109 130.588-5.376.207M496.413 126.437l-4.241-.453M497.524 122.789a8.608 8.608 0 0 0-2.328-.408M496.642 134.436c-.691.295-1.402.543-2.127.741M497.828 137.779c-.555.309-1.129.582-1.72.816M513.62 130.588l5.368.207M513.316 126.437l4.241-.453M512.212 122.789a8.615 8.615 0 0 1 2.328-.408M513.116 134.436a17.17 17.17 0 0 0 2.128.741M511.9 137.779c.555.309 1.13.582 1.72.816" stroke="#0B302B" stroke-width="1.75" stroke-linecap="round" stroke-linejoin="round"/><path fill="#0B302B" stroke="#000" stroke-width="1.75" d="M0 262h205v205H0z"/><path d="M786 329h245v130H786V329Z" fill="#0B302B" stroke="#101820" stroke-width="1.75"/><path fill="#0B302B" stroke="#000" stroke-width="1.75" d="M-20 149H93v113H-20z"/><path fill="#0B302B" stroke="#101820" stroke-width="1.75" d="M877 219h222v110H877z"/><path opacity=".3" fill="#101820" d="M899 230h200v99H899z"/><path fill="#0B302B" stroke="#101820" stroke-width="1.75" d="M920 141h78v78h-78z"/><rect x="66" y="51" width="1046" height="455" rx="227.5" fill="#fff" style="mix-blend-mode:lighten" opacity=".21"/><rect x="10" y="10" width="995" height="423" rx="211.5" stroke="#000" stroke-width="20"/></g></svg>