<svg width="21" height="22" viewBox="0 0 21 22" fill="none" xmlns="http://www.w3.org/2000/svg">
<path opacity="0.56" d="M20.5 10.6296C20.5 13.5259 20.1009 15.5458 18.2222 17.463C16.2929 19.4318 13.6039 21.2593 10.6296 21.2593C4.75905 21.2593 0 16.5002 0 10.6296C0 7.73335 1.9176 5.71348 3.7963 3.7963C5.7256 1.82746 7.65533 0 10.6296 0C16.5002 0 20.5 4.75905 20.5 10.6296Z" fill="white"/>
<path opacity="0.56" d="M15 6C15 6.81742 14.8053 7.38748 13.8889 7.92857C12.9478 8.48424 11.6361 9 10.1852 9C7.32149 9 5 7.65685 5 6C5 5.18258 5.93542 4.61252 6.85185 4.07143C7.79298 3.51576 8.7343 3 10.1852 3C13.0489 3 15 4.34315 15 6Z" fill="white"/>
</svg>
