<svg width="574" height="258" viewBox="0 0 574 258" fill="none" xmlns="http://www.w3.org/2000/svg">
<rect width="570.604" height="255" transform="translate(1 2)" fill="#0F2320"/>
<rect x="24" y="23" width="527" height="212" fill="#0B302B"/>
<rect x="261" y="235" width="51" height="22" rx="3" fill="#0F2320" stroke="#101820" stroke-width="1.75"/>
<rect x="312" y="235" width="52" height="22" rx="3" fill="#0F2320" stroke="#101820" stroke-width="1.75"/>
<rect x="1" y="235" width="52" height="22" rx="3" fill="#0F2320" stroke="#101820" stroke-width="1.75"/>
<rect x="364" y="235" width="52" height="22" rx="3" fill="#0F2320" stroke="#101820" stroke-width="1.75"/>
<rect x="416" y="235" width="52" height="22" rx="3" fill="#0F2320" stroke="#101820" stroke-width="1.75"/>
<rect x="53" y="235" width="52" height="22" rx="3" fill="#0F2320" stroke="#101820" stroke-width="1.75"/>
<rect x="105" y="235" width="52" height="22" rx="3" fill="#0F2320" stroke="#101820" stroke-width="1.75"/>
<rect x="468" y="235" width="52" height="22" rx="3" fill="#0F2320" stroke="#101820" stroke-width="1.75"/>
<rect x="520" y="235" width="52" height="22" rx="3" fill="#0F2320" stroke="#101820" stroke-width="1.75"/>
<rect x="157" y="235" width="52" height="22" rx="3" fill="#0F2320" stroke="#101820" stroke-width="1.75"/>
<rect x="209" y="235" width="52" height="22" rx="3" fill="#0F2320" stroke="#101820" stroke-width="1.75"/>
<rect x="261" y="1" width="51" height="22" rx="3" fill="#0F2320" stroke="#101820" stroke-width="1.75"/>
<rect x="312" y="1" width="52" height="22" rx="3" fill="#0F2320" stroke="#101820" stroke-width="1.75"/>
<rect x="1" y="1" width="52" height="22" rx="3" fill="#0F2320" stroke="#101820" stroke-width="1.75"/>
<rect x="364" y="1" width="52" height="22" rx="3" fill="#0F2320" stroke="#101820" stroke-width="1.75"/>
<rect x="416" y="1" width="52" height="22" rx="3" fill="#0F2320" stroke="#101820" stroke-width="1.75"/>
<rect x="53" y="1" width="52" height="22" rx="3" fill="#0F2320" stroke="#101820" stroke-width="1.75"/>
<rect x="105" y="1" width="52" height="22" rx="3" fill="#0F2320" stroke="#101820" stroke-width="1.75"/>
<rect x="468" y="1" width="52" height="22" rx="3" fill="#0F2320" stroke="#101820" stroke-width="1.75"/>
<rect x="520" y="1" width="52" height="22" rx="3" fill="#0F2320" stroke="#101820" stroke-width="1.75"/>
<rect x="157" y="1" width="52" height="22" rx="3" fill="#0F2320" stroke="#101820" stroke-width="1.75"/>
<rect x="209" y="1" width="52" height="22" rx="3" fill="#0F2320" stroke="#101820" stroke-width="1.75"/>
<rect x="573" y="130" width="52" height="22" rx="3" transform="rotate(90 573 130)" fill="#0F2320" stroke="#101820" stroke-width="1.75"/>
<rect x="573" y="77" width="52" height="22" rx="3" transform="rotate(90 573 77)" fill="#0F2320" stroke="#101820" stroke-width="1.75"/>
<rect x="573" y="24" width="53" height="22" rx="3" transform="rotate(90 573 24)" fill="#0F2320" stroke="#101820" stroke-width="1.75"/>
<rect x="573" y="182" width="53" height="22" rx="3" transform="rotate(90 573 182)" fill="#0F2320" stroke="#101820" stroke-width="1.75"/>
<rect x="23" y="130" width="52" height="22" rx="3" transform="rotate(90 23 130)" fill="#0F2320" stroke="#101820" stroke-width="1.75"/>
<rect x="23" y="77" width="52" height="22" rx="3" transform="rotate(90 23 77)" fill="#0F2320" stroke="#101820" stroke-width="1.75"/>
<rect x="23" y="24" width="53" height="22" rx="3" transform="rotate(90 23 24)" fill="#0F2320" stroke="#101820" stroke-width="1.75"/>
<rect x="23" y="182" width="53" height="22" rx="3" transform="rotate(90 23 182)" fill="#0F2320" stroke="#101820" stroke-width="1.75"/>
<rect x="535.875" y="23.875" width="13.25" height="210.25" fill="#0F2320" stroke="#101820" stroke-width="1.75"/>
<path d="M540.252 30.1606C540.541 29.7566 540.915 29.4502 541.318 29.163C542.265 28.486 545.036 30.0799 545.398 30.9782C545.701 31.7291 545.904 32.7429 545.406 33.4724C544.89 34.227 544.032 34.4814 543.178 34.6238C542.657 34.7105 541.984 34.5937 541.468 34.5188C541.041 34.4569 540.63 34.2564 540.312 33.9637C539.735 33.4305 539.604 32.7189 539.69 31.9609C539.765 31.2917 539.849 30.7259 540.252 30.1606Z" fill="#425855" stroke="#101820" stroke-width="1.75" stroke-linecap="round"/>
<path d="M540.252 39.8149C540.541 39.4109 540.915 39.1045 541.318 38.8173C542.265 38.1403 545.036 39.7342 545.398 40.6325C545.701 41.3834 545.904 42.3972 545.406 43.1267C544.89 43.8812 544.032 44.1357 543.178 44.2781C542.657 44.3648 541.984 44.248 541.468 44.1731C541.041 44.1112 540.63 43.9107 540.312 43.618C539.735 43.0848 539.604 42.3732 539.69 41.6152C539.765 40.946 539.849 40.3802 540.252 39.8149Z" fill="#425855" stroke="#101820" stroke-width="1.75" stroke-linecap="round"/>
<path d="M540.252 49.4697C540.541 49.0657 540.915 48.7593 541.318 48.4721C542.265 47.7951 545.036 49.389 545.398 50.2873C545.701 51.0381 545.904 52.052 545.406 52.7814C544.89 53.536 544.032 53.7904 543.178 53.9329C542.657 54.0196 541.984 53.9028 541.468 53.8278C541.041 53.766 540.63 53.5655 540.312 53.2728C539.735 52.7396 539.604 52.028 539.69 51.27C539.765 50.6007 539.849 50.035 540.252 49.4697Z" fill="#425855" stroke="#101820" stroke-width="1.75" stroke-linecap="round"/>
<path d="M540.252 59.124C540.541 58.72 540.915 58.4136 541.318 58.1264C542.265 57.4494 545.036 59.0433 545.398 59.9416C545.701 60.6924 545.904 61.7063 545.406 62.4357C544.89 63.1903 544.032 63.4447 543.178 63.5871C542.657 63.6739 541.984 63.5571 541.468 63.4821C541.041 63.4203 540.63 63.2198 540.312 62.9271C539.735 62.3939 539.604 61.6823 539.69 60.9243C539.765 60.255 539.849 59.6893 540.252 59.124Z" fill="#425855" stroke="#101820" stroke-width="1.75" stroke-linecap="round"/>
<path d="M540.252 68.7788C540.541 68.3748 540.915 68.0684 541.318 67.7812C542.265 67.1042 545.036 68.698 545.398 69.5964C545.701 70.3472 545.904 71.361 545.406 72.0905C544.89 72.8451 544.032 73.0995 543.178 73.2419C542.657 73.3287 541.984 73.2118 541.468 73.1369C541.041 73.0751 540.63 72.8746 540.312 72.5818C539.735 72.0487 539.604 71.337 539.69 70.5791C539.765 69.9098 539.849 69.3441 540.252 68.7788Z" fill="#425855" stroke="#101820" stroke-width="1.75" stroke-linecap="round"/>
<path d="M540.252 78.4331C540.541 78.0291 540.915 77.7227 541.318 77.4355C542.265 76.7585 545.036 78.3523 545.398 79.2507C545.701 80.0015 545.904 81.0153 545.406 81.7448C544.89 82.4994 544.032 82.7538 543.178 82.8962C542.657 82.983 541.984 82.8661 541.468 82.7912C541.041 82.7294 540.63 82.5289 540.312 82.2361C539.735 81.703 539.604 80.9913 539.69 80.2333C539.765 79.5641 539.849 78.9984 540.252 78.4331Z" fill="#425855" stroke="#101820" stroke-width="1.75" stroke-linecap="round"/>
<path d="M540.252 88.0874C540.541 87.6834 540.915 87.377 541.318 87.0897C542.265 86.4128 545.036 88.0066 545.398 88.905C545.701 89.6558 545.904 90.6696 545.406 91.3991C544.89 92.1537 544.032 92.4081 543.178 92.5505C542.657 92.6373 541.984 92.5204 541.468 92.4455C541.041 92.3837 540.63 92.1832 540.312 91.8904C539.735 91.3573 539.604 90.6456 539.69 89.8876C539.765 89.2184 539.849 88.6527 540.252 88.0874Z" fill="#425855" stroke="#101820" stroke-width="1.75" stroke-linecap="round"/>
<path d="M540.252 97.7422C540.541 97.3381 540.915 97.0318 541.318 96.7445C542.265 96.0675 545.036 97.6614 545.398 98.5598C545.701 99.3106 545.904 100.324 545.406 101.054C544.89 101.808 544.032 102.063 543.178 102.205C542.657 102.292 541.984 102.175 541.468 102.1C541.041 102.038 540.63 101.838 540.312 101.545C539.735 101.012 539.604 100.3 539.69 99.5424C539.765 98.8732 539.849 98.3075 540.252 97.7422Z" fill="#425855" stroke="#101820" stroke-width="1.75" stroke-linecap="round"/>
<path d="M540.252 107.396C540.541 106.992 540.915 106.686 541.318 106.399C542.265 105.722 545.036 107.316 545.398 108.214C545.701 108.965 545.904 109.979 545.406 110.708C544.89 111.463 544.032 111.717 543.178 111.86C542.657 111.946 541.984 111.83 541.468 111.755C541.041 111.693 540.63 111.492 540.312 111.2C539.735 110.666 539.604 109.955 539.69 109.197C539.765 108.528 539.849 107.962 540.252 107.396Z" fill="#425855" stroke="#101820" stroke-width="1.75" stroke-linecap="round"/>
<path d="M540.252 117.051C540.541 116.647 540.915 116.341 541.318 116.054C542.265 115.377 545.036 116.971 545.398 117.869C545.701 118.62 545.904 119.634 545.406 120.363C544.89 121.118 544.032 121.372 543.178 121.514C542.657 121.601 541.984 121.484 541.468 121.409C541.041 121.348 540.63 121.147 540.312 120.854C539.735 120.321 539.604 119.61 539.69 118.852C539.765 118.182 539.849 117.617 540.252 117.051Z" fill="#425855" stroke="#101820" stroke-width="1.75" stroke-linecap="round"/>
<path d="M540.252 126.706C540.541 126.302 540.915 125.995 541.318 125.708C542.265 125.031 545.036 126.625 545.398 127.523C545.701 128.274 545.904 129.288 545.406 130.017C544.89 130.772 544.032 131.026 543.178 131.169C542.657 131.255 541.984 131.139 541.468 131.064C541.041 131.002 540.63 130.801 540.312 130.509C539.735 129.975 539.604 129.264 539.69 128.506C539.765 127.837 539.849 127.271 540.252 126.706Z" fill="#425855" stroke="#101820" stroke-width="1.75" stroke-linecap="round"/>
<path d="M540.252 136.36C540.541 135.956 540.915 135.649 541.318 135.362C542.265 134.685 545.036 136.279 545.398 137.177C545.701 137.928 545.904 138.942 545.406 139.672C544.89 140.426 544.032 140.681 543.178 140.823C542.657 140.91 541.984 140.793 541.468 140.718C541.041 140.656 540.63 140.456 540.312 140.163C539.735 139.63 539.604 138.918 539.69 138.16C539.765 137.491 539.849 136.925 540.252 136.36Z" fill="#425855" stroke="#101820" stroke-width="1.75" stroke-linecap="round"/>
<path d="M540.252 146.015C540.541 145.611 540.915 145.304 541.318 145.017C542.265 144.34 545.036 145.934 545.398 146.832C545.701 147.583 545.904 148.597 545.406 149.326C544.89 150.081 544.032 150.335 543.178 150.478C542.657 150.565 541.984 150.448 541.468 150.373C541.041 150.311 540.63 150.11 540.312 149.818C539.735 149.285 539.604 148.573 539.69 147.815C539.765 147.146 539.849 146.58 540.252 146.015Z" fill="#425855" stroke="#101820" stroke-width="1.75" stroke-linecap="round"/>
<path d="M540.252 155.669C540.541 155.265 540.915 154.959 541.318 154.671C542.265 153.994 545.036 155.588 545.398 156.487C545.701 157.237 545.904 158.251 545.406 158.981C544.89 159.735 544.032 159.99 543.178 160.132C542.657 160.219 541.984 160.102 541.468 160.027C541.041 159.965 540.63 159.765 540.312 159.472C539.735 158.939 539.604 158.227 539.69 157.469C539.765 156.8 539.849 156.234 540.252 155.669Z" fill="#425855" stroke="#101820" stroke-width="1.75" stroke-linecap="round"/>
<path d="M540.252 165.324C540.541 164.92 540.915 164.613 541.318 164.326C542.265 163.649 545.036 165.243 545.398 166.141C545.701 166.892 545.904 167.906 545.406 168.635C544.89 169.39 544.032 169.644 543.178 169.787C542.657 169.874 541.984 169.757 541.468 169.682C541.041 169.62 540.63 169.419 540.312 169.127C539.735 168.594 539.604 167.882 539.69 167.124C539.765 166.455 539.849 165.889 540.252 165.324Z" fill="#425855" stroke="#101820" stroke-width="1.75" stroke-linecap="round"/>
<path d="M540.252 174.978C540.541 174.574 540.915 174.268 541.318 173.98C542.265 173.303 545.036 174.897 545.398 175.796C545.701 176.546 545.904 177.56 545.406 178.29C544.89 179.044 544.032 179.299 543.178 179.441C542.657 179.528 541.984 179.411 541.468 179.336C541.041 179.274 540.63 179.074 540.312 178.781C539.735 178.248 539.604 177.536 539.69 176.778C539.765 176.109 539.849 175.543 540.252 174.978Z" fill="#425855" stroke="#101820" stroke-width="1.75" stroke-linecap="round"/>
<path d="M540.252 184.632C540.541 184.228 540.915 183.922 541.318 183.635C542.265 182.958 545.036 184.552 545.398 185.45C545.701 186.201 545.904 187.215 545.406 187.944C544.89 188.699 544.032 188.953 543.178 189.095C542.657 189.182 541.984 189.065 541.468 188.99C541.041 188.929 540.63 188.728 540.312 188.435C539.735 187.902 539.604 187.191 539.69 186.433C539.765 185.763 539.849 185.198 540.252 184.632Z" fill="#425855" stroke="#101820" stroke-width="1.75" stroke-linecap="round"/>
<path d="M540.252 194.287C540.541 193.883 540.915 193.577 541.318 193.289C542.265 192.612 545.036 194.206 545.398 195.105C545.701 195.856 545.904 196.869 545.406 197.599C544.89 198.353 544.032 198.608 543.178 198.75C542.657 198.837 541.984 198.72 541.468 198.645C541.041 198.583 540.63 198.383 540.312 198.09C539.735 197.557 539.604 196.845 539.69 196.087C539.765 195.418 539.849 194.852 540.252 194.287Z" fill="#425855" stroke="#101820" stroke-width="1.75" stroke-linecap="round"/>
<path d="M540.252 203.941C540.541 203.537 540.915 203.231 541.318 202.944C542.265 202.267 545.036 203.861 545.398 204.759C545.701 205.51 545.904 206.524 545.406 207.253C544.89 208.008 544.032 208.262 543.178 208.405C542.657 208.491 541.984 208.374 541.468 208.3C541.041 208.238 540.63 208.037 540.312 207.744C539.735 207.211 539.604 206.5 539.69 205.742C539.765 205.072 539.849 204.507 540.252 203.941Z" fill="#425855" stroke="#101820" stroke-width="1.75" stroke-linecap="round"/>
<path d="M540.252 213.596C540.541 213.192 540.915 212.886 541.318 212.599C542.265 211.922 545.036 213.515 545.398 214.414C545.701 215.165 545.904 216.178 545.406 216.908C544.89 217.662 544.032 217.917 543.178 218.059C542.657 218.146 541.984 218.029 541.468 217.954C541.041 217.892 540.63 217.692 540.312 217.399C539.735 216.866 539.604 216.154 539.69 215.396C539.765 214.727 539.849 214.161 540.252 213.596Z" fill="#425855" stroke="#101820" stroke-width="1.75" stroke-linecap="round"/>
<path d="M540.252 223.25C540.541 222.846 540.915 222.54 541.318 222.253C542.265 221.576 545.036 223.17 545.398 224.068C545.701 224.819 545.904 225.833 545.406 226.562C544.89 227.317 544.032 227.571 543.178 227.714C542.657 227.8 541.984 227.684 541.468 227.609C541.041 227.547 540.63 227.346 540.312 227.054C539.735 226.52 539.604 225.809 539.69 225.051C539.765 224.382 539.849 223.816 540.252 223.25Z" fill="#425855" stroke="#101820" stroke-width="1.75" stroke-linecap="round"/>
<rect x="23.875" y="23.875" width="13.25" height="210.25" fill="#0F2320" stroke="#101820" stroke-width="1.75"/>
<path d="M28.2524 30.1606C28.541 29.7566 28.9154 29.4502 29.3175 29.163C30.2653 28.486 33.0363 30.0799 33.3981 30.9782C33.7005 31.7291 33.9038 32.7429 33.4056 33.4724C32.8903 34.227 32.0323 34.4814 31.1778 34.6238C30.6573 34.7105 29.9841 34.5937 29.4676 34.5188C29.0411 34.4569 28.6295 34.2564 28.3124 33.9637C27.7348 33.4305 27.6044 32.7189 27.6898 31.9609C27.7652 31.2917 27.8486 30.7259 28.2524 30.1606Z" fill="#425855" stroke="#101820" stroke-width="1.75" stroke-linecap="round"/>
<path d="M28.2524 39.8149C28.541 39.4109 28.9154 39.1045 29.3175 38.8173C30.2653 38.1403 33.0363 39.7342 33.3981 40.6325C33.7005 41.3834 33.9038 42.3972 33.4056 43.1267C32.8903 43.8812 32.0323 44.1357 31.1778 44.2781C30.6573 44.3648 29.9841 44.248 29.4676 44.1731C29.0411 44.1112 28.6295 43.9107 28.3124 43.618C27.7348 43.0848 27.6044 42.3732 27.6898 41.6152C27.7652 40.946 27.8486 40.3802 28.2524 39.8149Z" fill="#425855" stroke="#101820" stroke-width="1.75" stroke-linecap="round"/>
<path d="M28.2524 49.4697C28.541 49.0657 28.9154 48.7593 29.3175 48.4721C30.2653 47.7951 33.0363 49.389 33.3981 50.2873C33.7005 51.0381 33.9038 52.052 33.4056 52.7814C32.8903 53.536 32.0323 53.7904 31.1778 53.9329C30.6573 54.0196 29.9841 53.9028 29.4676 53.8278C29.0411 53.766 28.6295 53.5655 28.3124 53.2728C27.7348 52.7396 27.6044 52.028 27.6898 51.27C27.7652 50.6007 27.8486 50.035 28.2524 49.4697Z" fill="#425855" stroke="#101820" stroke-width="1.75" stroke-linecap="round"/>
<path d="M28.2524 59.124C28.541 58.72 28.9154 58.4136 29.3175 58.1264C30.2653 57.4494 33.0363 59.0433 33.3981 59.9416C33.7005 60.6924 33.9038 61.7063 33.4056 62.4357C32.8903 63.1903 32.0323 63.4447 31.1778 63.5871C30.6573 63.6739 29.9841 63.5571 29.4676 63.4821C29.0411 63.4203 28.6295 63.2198 28.3124 62.9271C27.7348 62.3939 27.6044 61.6823 27.6898 60.9243C27.7652 60.255 27.8486 59.6893 28.2524 59.124Z" fill="#425855" stroke="#101820" stroke-width="1.75" stroke-linecap="round"/>
<path d="M28.2524 68.7788C28.541 68.3748 28.9154 68.0684 29.3175 67.7812C30.2653 67.1042 33.0363 68.698 33.3981 69.5964C33.7005 70.3472 33.9038 71.361 33.4056 72.0905C32.8903 72.8451 32.0323 73.0995 31.1778 73.2419C30.6573 73.3287 29.9841 73.2118 29.4676 73.1369C29.0411 73.0751 28.6295 72.8746 28.3124 72.5818C27.7348 72.0487 27.6044 71.337 27.6898 70.5791C27.7652 69.9098 27.8486 69.3441 28.2524 68.7788Z" fill="#425855" stroke="#101820" stroke-width="1.75" stroke-linecap="round"/>
<path d="M28.2524 78.4331C28.541 78.0291 28.9154 77.7227 29.3175 77.4355C30.2653 76.7585 33.0363 78.3523 33.3981 79.2507C33.7005 80.0015 33.9038 81.0153 33.4056 81.7448C32.8903 82.4994 32.0323 82.7538 31.1778 82.8962C30.6573 82.983 29.9841 82.8661 29.4676 82.7912C29.0411 82.7294 28.6295 82.5289 28.3124 82.2361C27.7348 81.703 27.6044 80.9913 27.6898 80.2333C27.7652 79.5641 27.8486 78.9984 28.2524 78.4331Z" fill="#425855" stroke="#101820" stroke-width="1.75" stroke-linecap="round"/>
<path d="M28.2524 88.0874C28.541 87.6834 28.9154 87.377 29.3175 87.0897C30.2653 86.4128 33.0363 88.0066 33.3981 88.905C33.7005 89.6558 33.9038 90.6696 33.4056 91.3991C32.8903 92.1537 32.0323 92.4081 31.1778 92.5505C30.6573 92.6373 29.9841 92.5204 29.4676 92.4455C29.0411 92.3837 28.6295 92.1832 28.3124 91.8904C27.7348 91.3573 27.6044 90.6456 27.6898 89.8876C27.7652 89.2184 27.8486 88.6527 28.2524 88.0874Z" fill="#425855" stroke="#101820" stroke-width="1.75" stroke-linecap="round"/>
<path d="M28.2524 97.7422C28.541 97.3381 28.9154 97.0318 29.3175 96.7445C30.2653 96.0675 33.0363 97.6614 33.3981 98.5598C33.7005 99.3106 33.9038 100.324 33.4056 101.054C32.8903 101.808 32.0323 102.063 31.1778 102.205C30.6573 102.292 29.9841 102.175 29.4676 102.1C29.0411 102.038 28.6295 101.838 28.3124 101.545C27.7348 101.012 27.6044 100.3 27.6898 99.5424C27.7652 98.8732 27.8486 98.3075 28.2524 97.7422Z" fill="#425855" stroke="#101820" stroke-width="1.75" stroke-linecap="round"/>
<path d="M28.2524 107.396C28.541 106.992 28.9154 106.686 29.3175 106.399C30.2653 105.722 33.0363 107.316 33.3981 108.214C33.7005 108.965 33.9038 109.979 33.4056 110.708C32.8903 111.463 32.0323 111.717 31.1778 111.86C30.6573 111.946 29.9841 111.83 29.4676 111.755C29.0411 111.693 28.6295 111.492 28.3124 111.2C27.7348 110.666 27.6044 109.955 27.6898 109.197C27.7652 108.528 27.8486 107.962 28.2524 107.396Z" fill="#425855" stroke="#101820" stroke-width="1.75" stroke-linecap="round"/>
<path d="M28.2524 117.051C28.541 116.647 28.9154 116.341 29.3175 116.054C30.2653 115.377 33.0363 116.971 33.3981 117.869C33.7005 118.62 33.9038 119.634 33.4056 120.363C32.8903 121.118 32.0323 121.372 31.1778 121.514C30.6573 121.601 29.9841 121.484 29.4676 121.409C29.0411 121.348 28.6295 121.147 28.3124 120.854C27.7348 120.321 27.6044 119.61 27.6898 118.852C27.7652 118.182 27.8486 117.617 28.2524 117.051Z" fill="#425855" stroke="#101820" stroke-width="1.75" stroke-linecap="round"/>
<path d="M28.2524 126.706C28.541 126.302 28.9154 125.995 29.3175 125.708C30.2653 125.031 33.0363 126.625 33.3981 127.523C33.7005 128.274 33.9038 129.288 33.4056 130.017C32.8903 130.772 32.0323 131.026 31.1778 131.169C30.6573 131.255 29.9841 131.139 29.4676 131.064C29.0411 131.002 28.6295 130.801 28.3124 130.509C27.7348 129.975 27.6044 129.264 27.6898 128.506C27.7652 127.837 27.8486 127.271 28.2524 126.706Z" fill="#425855" stroke="#101820" stroke-width="1.75" stroke-linecap="round"/>
<path d="M28.2524 136.36C28.541 135.956 28.9154 135.649 29.3175 135.362C30.2653 134.685 33.0363 136.279 33.3981 137.177C33.7005 137.928 33.9038 138.942 33.4056 139.672C32.8903 140.426 32.0323 140.681 31.1778 140.823C30.6573 140.91 29.9841 140.793 29.4676 140.718C29.0411 140.656 28.6295 140.456 28.3124 140.163C27.7348 139.63 27.6044 138.918 27.6898 138.16C27.7652 137.491 27.8486 136.925 28.2524 136.36Z" fill="#425855" stroke="#101820" stroke-width="1.75" stroke-linecap="round"/>
<path d="M28.2524 146.015C28.541 145.611 28.9154 145.304 29.3175 145.017C30.2653 144.34 33.0363 145.934 33.3981 146.832C33.7005 147.583 33.9038 148.597 33.4056 149.326C32.8903 150.081 32.0323 150.335 31.1778 150.478C30.6573 150.565 29.9841 150.448 29.4676 150.373C29.0411 150.311 28.6295 150.11 28.3124 149.818C27.7348 149.285 27.6044 148.573 27.6898 147.815C27.7652 147.146 27.8486 146.58 28.2524 146.015Z" fill="#425855" stroke="#101820" stroke-width="1.75" stroke-linecap="round"/>
<path d="M28.2524 155.669C28.541 155.265 28.9154 154.959 29.3175 154.671C30.2653 153.994 33.0363 155.588 33.3981 156.487C33.7005 157.237 33.9038 158.251 33.4056 158.981C32.8903 159.735 32.0323 159.99 31.1778 160.132C30.6573 160.219 29.9841 160.102 29.4676 160.027C29.0411 159.965 28.6295 159.765 28.3124 159.472C27.7348 158.939 27.6044 158.227 27.6898 157.469C27.7652 156.8 27.8486 156.234 28.2524 155.669Z" fill="#425855" stroke="#101820" stroke-width="1.75" stroke-linecap="round"/>
<path d="M28.2524 165.324C28.541 164.92 28.9154 164.613 29.3175 164.326C30.2653 163.649 33.0363 165.243 33.3981 166.141C33.7005 166.892 33.9038 167.906 33.4056 168.635C32.8903 169.39 32.0323 169.644 31.1778 169.787C30.6573 169.874 29.9841 169.757 29.4676 169.682C29.0411 169.62 28.6295 169.419 28.3124 169.127C27.7348 168.594 27.6044 167.882 27.6898 167.124C27.7652 166.455 27.8486 165.889 28.2524 165.324Z" fill="#425855" stroke="#101820" stroke-width="1.75" stroke-linecap="round"/>
<path d="M28.2524 174.978C28.541 174.574 28.9154 174.268 29.3175 173.98C30.2653 173.303 33.0363 174.897 33.3981 175.796C33.7005 176.546 33.9038 177.56 33.4056 178.29C32.8903 179.044 32.0323 179.299 31.1778 179.441C30.6573 179.528 29.9841 179.411 29.4676 179.336C29.0411 179.274 28.6295 179.074 28.3124 178.781C27.7348 178.248 27.6044 177.536 27.6898 176.778C27.7652 176.109 27.8486 175.543 28.2524 174.978Z" fill="#425855" stroke="#101820" stroke-width="1.75" stroke-linecap="round"/>
<path d="M28.2524 184.632C28.541 184.228 28.9154 183.922 29.3175 183.635C30.2653 182.958 33.0363 184.552 33.3981 185.45C33.7005 186.201 33.9038 187.215 33.4056 187.944C32.8903 188.699 32.0323 188.953 31.1778 189.095C30.6573 189.182 29.9841 189.065 29.4676 188.99C29.0411 188.929 28.6295 188.728 28.3124 188.435C27.7348 187.902 27.6044 187.191 27.6898 186.433C27.7652 185.763 27.8486 185.198 28.2524 184.632Z" fill="#425855" stroke="#101820" stroke-width="1.75" stroke-linecap="round"/>
<path d="M28.2524 194.287C28.541 193.883 28.9154 193.577 29.3175 193.289C30.2653 192.612 33.0363 194.206 33.3981 195.105C33.7005 195.856 33.9038 196.869 33.4056 197.599C32.8903 198.353 32.0323 198.608 31.1778 198.75C30.6573 198.837 29.9841 198.72 29.4676 198.645C29.0411 198.583 28.6295 198.383 28.3124 198.09C27.7348 197.557 27.6044 196.845 27.6898 196.087C27.7652 195.418 27.8486 194.852 28.2524 194.287Z" fill="#425855" stroke="#101820" stroke-width="1.75" stroke-linecap="round"/>
<path d="M28.2524 203.941C28.541 203.537 28.9154 203.231 29.3175 202.944C30.2653 202.267 33.0363 203.861 33.3981 204.759C33.7005 205.51 33.9038 206.524 33.4056 207.253C32.8903 208.008 32.0323 208.262 31.1778 208.405C30.6573 208.491 29.9841 208.374 29.4676 208.3C29.0411 208.238 28.6295 208.037 28.3124 207.744C27.7348 207.211 27.6044 206.5 27.6898 205.742C27.7652 205.072 27.8486 204.507 28.2524 203.941Z" fill="#425855" stroke="#101820" stroke-width="1.75" stroke-linecap="round"/>
<path d="M28.2524 213.596C28.541 213.192 28.9154 212.886 29.3175 212.599C30.2653 211.922 33.0363 213.515 33.3981 214.414C33.7005 215.165 33.9038 216.178 33.4056 216.908C32.8903 217.662 32.0323 217.917 31.1778 218.059C30.6573 218.146 29.9841 218.029 29.4676 217.954C29.0411 217.892 28.6295 217.692 28.3124 217.399C27.7348 216.866 27.6044 216.154 27.6898 215.396C27.7652 214.727 27.8486 214.161 28.2524 213.596Z" fill="#425855" stroke="#101820" stroke-width="1.75" stroke-linecap="round"/>
<path d="M28.2524 223.25C28.541 222.846 28.9154 222.54 29.3175 222.253C30.2653 221.576 33.0363 223.17 33.3981 224.068C33.7005 224.819 33.9038 225.833 33.4056 226.562C32.8903 227.317 32.0323 227.571 31.1778 227.714C30.6573 227.8 29.9841 227.684 29.4676 227.609C29.0411 227.547 28.6295 227.346 28.3124 227.054C27.7348 226.52 27.6044 225.809 27.6898 225.051C27.7652 224.382 27.8486 223.816 28.2524 223.25Z" fill="#425855" stroke="#101820" stroke-width="1.75" stroke-linecap="round"/>
<circle cx="30.5" cy="123.5" r="29.625" fill="#718280" stroke="#101820" stroke-width="1.75"/>
<path d="M45.1763 115.701C47.4964 120.387 47.7109 126.403 45.1936 131.051C40.229 140.218 21.7265 142.611 16.6224 129.986C12.2254 119.11 19.2919 108 31 108C36.6625 108 42.4827 110.262 45.1763 115.701Z" fill="#425855" stroke="#101820" stroke-width="1.75" stroke-linecap="round"/>
</svg>
