<svg width="298" height="294" fill="none" xmlns="http://www.w3.org/2000/svg"><path d="m149.726 145.147 110.795-32.095v64.19l-110.795-32.095Z" fill="url(#a)"/><path d="m149.213 145.147 32.428 111.18h-64.856l32.428-111.18Z" fill="url(#b)"/><path d="m149.213 145.147 32.428-111.18h-64.856l32.428 111.18Z" fill="url(#c)"/><path d="M148.7 145.147 37.905 113.052v64.19L148.7 145.147Z" fill="url(#d)"/><g filter="url(#e)"><ellipse cx="149.212" cy="144.855" rx="18.707" ry="18.642" transform="rotate(-90 149.212 144.855)" fill="#8DFF1F"/><path d="M168.729 144.855c0-10.812-8.735-19.582-19.517-19.582s-19.518 8.77-19.518 19.582c0 10.812 8.736 19.583 19.518 19.583s19.517-8.771 19.517-19.583Z" stroke="#101820" stroke-width="1.75"/></g><path d="M159.99 144.856c0-5.969-4.823-10.813-10.779-10.813-5.955 0-10.778 4.844-10.778 10.813s4.823 10.813 10.778 10.813c5.956 0 10.779-4.844 10.779-10.813Z" fill="#fff" fill-opacity=".6" stroke="#000" stroke-width="1.75"/><ellipse cx="149.212" cy="144.856" rx="6.431" ry="6.408" transform="rotate(-90 149.212 144.856)" fill="#fff" fill-opacity=".6"/><path d="M146.415 149.802c-.865-.76-2.215-2.323-2.447-3.485-.168-.847.746-3.687 2.057-3.687.358 0 .426.288.439.626.111 3.025 2.18 4.068 4.508 4.877.22.076.499.135.634.348.091.143.027.463.027.628 0 .428-.445.672-.707.935-.85.853-3.619.542-4.511-.242Z" fill="#fff"/><path opacity=".5" d="M150.521 126.132c-.346.545.015 1.782.207 2.305.463 1.26 3.132 2.612 4.301 3.282 6.461 3.705 4.68 11.978 8.456 15.767 4.369 2.923 4.109-4.708 4.078-5.554-.357-3.345-3.495-14.03-17.042-15.8Z" fill="#fff"/><path d="M168.729 144.855c0-10.812-8.735-19.582-19.517-19.582s-19.518 8.77-19.518 19.582c0 10.812 8.736 19.583 19.518 19.583s19.517-8.771 19.517-19.583Z" stroke="#101820" stroke-width="1.75"/><defs><linearGradient id="a" x1="131.007" y1="145.147" x2="260.015" y2="145.147" gradientUnits="userSpaceOnUse"><stop stop-color="#8DFF1F"/><stop offset="1" stop-color="#36FF1F" stop-opacity="0"/></linearGradient><linearGradient id="b" x1="149.213" y1="126.364" x2="149.213" y2="255.82" gradientUnits="userSpaceOnUse"><stop stop-color="#8DFF1F"/><stop offset="1" stop-color="#36FF1F" stop-opacity="0"/></linearGradient><linearGradient id="c" x1="149.213" y1="163.931" x2="149.213" y2="34.475" gradientUnits="userSpaceOnUse"><stop stop-color="#8DFF1F"/><stop offset="1" stop-color="#36FF1F" stop-opacity="0"/></linearGradient><linearGradient id="d" x1="167.419" y1="145.147" x2="38.411" y2="145.147" gradientUnits="userSpaceOnUse"><stop stop-color="#8DFF1F"/><stop offset="1" stop-color="#36FF1F" stop-opacity="0"/></linearGradient><filter id="e" x="21.561" y="17.14" width="255.303" height="255.432" filterUnits="userSpaceOnUse" color-interpolation-filters="sRGB"><feFlood flood-opacity="0" result="BackgroundImageFix"/><feColorMatrix in="SourceAlpha" values="0 0 0 0 0 0 0 0 0 0 0 0 0 0 0 0 0 0 127 0" result="hardAlpha"/><feMorphology radius="16" operator="dilate" in="SourceAlpha" result="effect1_dropShadow_224:29381"/><feOffset/><feGaussianBlur stdDeviation="45.629"/><feComposite in2="hardAlpha" operator="out"/><feColorMatrix values="0 0 0 0 0.552941 0 0 0 0 1 0 0 0 0 0.121569 0 0 0 1 0"/><feBlend in2="BackgroundImageFix" result="effect1_dropShadow_224:29381"/><feBlend in="SourceGraphic" in2="effect1_dropShadow_224:29381" result="shape"/></filter></defs></svg>