<svg width="571" height="255" viewBox="0 0 571 255" fill="none" xmlns="http://www.w3.org/2000/svg">
<rect width="570.604" height="255" rx="14" fill="#0DC5EE"/>
<mask id="mask0_118:27737" style="mask-type:alpha" maskUnits="userSpaceOnUse" x="0" y="0" width="571" height="255">
<rect width="571" height="255" fill="#C4C4C4"/>
</mask>
<g mask="url(#mask0_118:27737)">
<rect x="90" width="90" height="237" fill="#9C9C5B"/>
<rect x="180" width="90" height="237" fill="#A8A8A8"/>
<rect x="270" width="90" height="237" fill="#797979"/>
<rect x="360" width="90" height="237" fill="#B1B1B1"/>
<rect x="450" width="90" height="237" fill="#7A7A7A"/>
<rect x="540" width="90" height="237" fill="#ADADAD"/>
<rect width="90" height="237" fill="#DBDDE1"/>
<rect width="90" height="19" transform="matrix(-1 0 0 1 540 236)" fill="#101820"/>
<rect width="90" height="19" transform="matrix(-1 0 0 1 450 236)" fill="#A8A8A8"/>
<rect width="90" height="19" transform="matrix(-1 0 0 1 360 236)" fill="#101820"/>
<rect width="90" height="19" transform="matrix(-1 0 0 1 270 236)" fill="#B1B1B1"/>
<rect width="90" height="19" transform="matrix(-1 0 0 1 180 236)" fill="#101820"/>
<rect width="90" height="19" transform="matrix(-1 0 0 1 90 236)" fill="#ADADAD"/>
<rect width="90" height="19" transform="matrix(-1 0 0 1 630 236)" fill="#DBDDE1"/>
</g>
<path d="M68.521 27.7096C68.4731 27.8691 68.3981 28.0192 68.2993 28.1533C68.17 28.3436 68.0235 28.5216 67.8616 28.6852C67.6865 28.8625 67.4963 29.0243 67.2931 29.1687C67.1192 29.2976 66.9278 29.4011 66.7246 29.4759C66.1572 29.7183 65.5452 29.8385 64.9283 29.8286C64.7123 29.8286 64.5247 29.8286 64.3598 29.8115C64.2001 29.8024 64.0423 29.7718 63.8908 29.7205C63.7258 29.6628 63.5706 29.5803 63.4303 29.4759C63.2414 29.3282 63.0663 29.1634 62.9074 28.9838C62.7117 28.7828 62.5418 28.5583 62.4014 28.3154C62.2843 28.1138 62.189 27.9002 62.1172 27.6783C62.0575 27.4855 62.0165 27.2873 61.995 27.0866C61.9824 26.9153 61.9786 26.7435 61.9836 26.5718C61.9894 26.1699 62.0303 25.7692 62.1058 25.3744C62.2384 24.7809 62.4608 24.2111 62.7652 23.6848C62.8988 23.4374 63.0012 23.2439 63.0722 23.1017C63.1234 23.0114 63.1653 22.9161 63.1973 22.8173L64.1466 22.2342C64.4472 22.0546 64.7607 21.8977 65.0846 21.7649C65.3974 21.6446 65.7301 21.5848 66.0652 21.5885H66.5314C66.736 21.5884 66.9401 21.6113 67.1396 21.6568C67.3315 21.7004 67.5118 21.7848 67.6683 21.9043C67.7453 21.9651 67.8065 22.0437 67.8466 22.1334C67.8867 22.223 67.9045 22.3211 67.8985 22.4191C67.8985 22.7974 67.674 23.0164 67.2221 23.079L67.1311 23.0619C67.06 23.0619 66.9634 23.042 66.8469 23.0335L66.4347 23.0022C66.2812 22.9908 66.1277 22.9851 65.9743 22.9851C65.6905 22.9905 65.4128 23.0678 65.167 23.2098C64.8092 23.424 64.4773 23.6789 64.1779 23.9693C63.9732 24.3978 63.8226 24.7334 63.726 24.9761C63.6516 25.1285 63.6017 25.2917 63.5782 25.4597C63.4508 25.7396 63.3914 26.0456 63.4048 26.3528C63.4048 27.0904 63.5374 27.6195 63.8027 27.9399C63.9346 28.1001 64.1018 28.2273 64.2912 28.3117C64.4806 28.3961 64.687 28.4354 64.8942 28.4263C65.3626 28.3973 65.8261 28.3143 66.2755 28.1789C66.6915 27.9134 67.0299 27.5424 67.2562 27.1037C67.3236 27.0262 67.4059 26.9631 67.4982 26.9182C67.5905 26.8732 67.6909 26.8473 67.7934 26.842C67.9905 26.8504 68.1772 26.9325 68.3167 27.0721C68.4562 27.2117 68.5382 27.3986 68.5466 27.5958C68.5496 27.6137 68.5496 27.6319 68.5466 27.6498C68.5339 27.6677 68.5252 27.688 68.521 27.7096Z" fill="#101820"/>
<path d="M76.7318 29.223C76.7291 29.3211 76.706 29.4176 76.6639 29.5063C76.6218 29.5949 76.5617 29.6738 76.4874 29.7379C76.3615 29.8794 76.1847 29.9653 75.9956 29.9768C75.959 29.9783 75.9224 29.9723 75.8882 29.9591C75.8539 29.9459 75.8228 29.9258 75.7967 29.9C75.743 29.8558 75.6961 29.8041 75.6574 29.7464C75.5778 29.644 75.4783 29.516 75.3732 29.3624C75.268 29.2088 75.1372 29.0438 75.0037 28.8703C74.8701 28.6968 74.7478 28.5319 74.637 28.3783C74.5261 28.2247 74.4323 28.0938 74.3528 28.0028C74.3214 27.9612 74.2929 27.9175 74.2675 27.872C74.2263 27.7721 74.1749 27.6768 74.114 27.5875C74.0344 27.4539 73.9435 27.3031 73.8468 27.1637L73.5626 26.7485C73.5115 26.6732 73.4659 26.5943 73.4261 26.5124C73.3688 26.516 73.3119 26.5236 73.2556 26.5351L72.9486 26.5807L72.6047 26.6262C72.5105 26.6391 72.4156 26.6467 72.3205 26.6489H72.2437C72.2153 26.9675 72.1897 27.2292 72.167 27.434C72.1471 27.6387 72.1386 27.7923 72.1386 27.8919V28.3697C72.1339 28.9715 72.0873 29.5721 71.9993 30.1674C71.943 30.2581 71.8635 30.3323 71.7691 30.3823C71.6748 30.4323 71.5688 30.4563 71.4621 30.4518C71.273 30.4565 71.0874 30.3996 70.9334 30.2897C70.8515 30.2211 70.788 30.1332 70.7488 30.0338C70.7096 29.9344 70.6959 29.8268 70.7089 29.7208C70.7089 29.6374 70.7089 29.5378 70.7089 29.4221C70.7089 29.3027 70.7089 29.1832 70.7231 29.0609C70.7373 28.9386 70.7231 28.8277 70.7401 28.731C70.7572 28.6343 70.7401 28.5688 70.7401 28.5376V28.4608L70.8453 26.1426C70.8544 25.9787 70.8544 25.8144 70.8453 25.6506C70.8411 25.4247 70.8487 25.1987 70.868 24.9736L70.9903 24.052C71.0475 23.7845 71.0789 23.5121 71.084 23.2386C71.084 23.1675 71.084 23.0992 71.084 23.0309C71.084 22.9627 71.084 22.8972 71.0613 22.8233L71.1068 22.2886C71.1083 22.0807 71.1558 21.8757 71.2461 21.6884C71.3285 21.5348 71.5303 21.458 71.8145 21.458C72.034 21.4592 72.2518 21.4957 72.4597 21.5661C72.6644 21.5462 72.8463 21.5348 73.0055 21.5348H73.4119C73.5143 21.5348 73.6052 21.5348 73.6962 21.5348C73.7782 21.5387 73.8599 21.5482 73.9406 21.5632L74.2249 21.6258L74.5944 21.7254L75.2708 22.1862C75.5925 22.4166 75.8531 22.7222 76.0297 23.0764C76.1567 23.373 76.2215 23.6924 76.2202 24.0151C76.2223 24.2049 76.2147 24.3948 76.1974 24.5839C76.1803 24.7504 76.1259 24.9108 76.0383 25.0532C75.9213 25.2342 75.7753 25.3947 75.6062 25.5282C75.3411 25.7469 75.0651 25.952 74.7791 26.1426C75.1033 26.5582 75.387 27.004 75.6261 27.4738C75.8109 27.616 76.1946 28.1991 76.7318 29.223ZM74.8445 24.3251C74.8574 24.2692 74.8632 24.2118 74.8615 24.1544C74.8608 24.0494 74.8503 23.9447 74.8303 23.8416C74.8059 23.7253 74.7586 23.615 74.691 23.5173C74.6044 23.3943 74.4989 23.2858 74.3783 23.1959C74.2029 23.0671 74.0119 22.961 73.8099 22.8802C73.6394 22.808 73.4575 22.7666 73.2727 22.7579C73.2173 22.7712 73.1614 22.7816 73.105 22.7892C73.0294 22.8117 72.9525 22.8298 72.8747 22.8432C72.7809 22.8574 72.6786 22.8745 72.5678 22.8972C72.5719 22.956 72.5719 23.0149 72.5678 23.0736C72.5678 23.1276 72.5678 23.2329 72.545 23.3865C72.5223 23.5401 72.5052 23.7619 72.4768 24.0463C72.4484 24.3308 72.4086 24.7347 72.3688 25.2467C72.4094 25.2508 72.4504 25.2508 72.491 25.2467H72.6132C72.8337 25.2435 73.0531 25.2148 73.267 25.1613C73.4995 25.1078 73.7276 25.0365 73.9491 24.948C74.1484 24.8682 74.3389 24.7682 74.5176 24.6494C74.6521 24.5705 74.7645 24.459 74.8445 24.3251Z" fill="#101820"/>
<path d="M83.9461 28.7025C84.0956 28.7632 84.2238 28.867 84.3143 29.0007C84.4049 29.1343 84.4538 29.2919 84.4549 29.4534C84.4638 29.5374 84.4538 29.6223 84.4258 29.702C84.3978 29.7817 84.3524 29.8542 84.2929 29.9141C84.1592 30.0182 84.0003 30.085 83.8324 30.1076C83.5861 30.147 83.3371 30.167 83.0877 30.1673C82.8035 30.1673 82.4595 30.1872 82.09 30.2071C81.6439 30.131 81.1924 30.0901 80.7399 30.0848L80.4159 30.1076C80.3135 30.1076 80.2169 30.1076 80.1316 30.1076C79.5774 30.1076 79.1993 30.0279 78.9947 29.8629C78.9435 29.4534 78.9066 29.0751 78.881 28.7252C78.8554 28.3754 78.8412 28.0625 78.8412 27.7752C78.8379 27.3829 78.8559 26.9908 78.8952 26.6005C78.9296 26.3021 78.9476 26.002 78.9492 25.7017C78.9543 25.4449 78.9391 25.1881 78.9037 24.9337L78.9947 23.321C79.0345 22.9313 79.0856 22.5985 79.1397 22.3226C79.1769 22.103 79.2469 21.8901 79.3471 21.6912C79.4097 21.6115 79.7167 21.5063 80.2681 21.384L81.2515 21.1707C81.3141 21.1707 81.4391 21.1451 81.6352 21.1223L82.2407 21.0626C82.451 21.0427 82.6386 21.0256 82.8091 21.0171L83.0394 21H83.1019C83.1731 21.0093 83.2412 21.0349 83.3008 21.0749C83.3605 21.1149 83.4101 21.1681 83.4458 21.2304C83.565 21.3839 83.6281 21.5736 83.6249 21.768C83.6249 21.8704 83.6249 21.9642 83.6249 22.0524C83.6198 22.1311 83.5841 22.2046 83.5254 22.2572C83.4356 22.3258 83.3301 22.3708 83.2184 22.388C83.0101 22.4257 82.7991 22.4466 82.5874 22.4506C82.2752 22.4479 81.9645 22.4939 81.6665 22.5871H81.567C81.2274 22.6009 80.8914 22.6632 80.5694 22.772C80.5161 22.8579 80.4849 22.9556 80.4784 23.0565C80.4585 23.1844 80.4415 23.3181 80.4329 23.4547C80.4244 23.5912 80.413 23.7106 80.4102 23.8074C80.4073 23.9041 80.4102 23.9382 80.4102 23.9069C80.4102 23.961 80.3931 24.0121 80.3874 24.0605C80.384 24.1278 80.384 24.1952 80.3874 24.2625C80.3874 24.3336 80.3874 24.4132 80.3874 24.4985C80.3874 24.5839 80.3875 24.6806 80.4102 24.783C80.7257 24.7517 80.9787 24.7204 81.1862 24.6834C81.3399 24.6534 81.4958 24.6353 81.6523 24.6294C81.8683 24.6294 82.0787 24.6294 82.2833 24.6151C82.4651 24.603 82.6477 24.6155 82.8262 24.6521C82.9723 24.6813 83.1049 24.7572 83.2042 24.8683C83.3078 25.0189 83.356 25.2009 83.3407 25.3831C83.3553 25.4856 83.3391 25.5902 83.294 25.6834C83.2489 25.7767 83.1771 25.8543 83.0877 25.9065C82.8053 26.0074 82.5063 26.0537 82.2066 26.043C81.9091 26.0485 81.6122 26.0693 81.3169 26.1056H81.1236C81.0582 26.1056 80.9815 26.1056 80.9019 26.1056H80.7257C80.6614 26.0999 80.5967 26.0999 80.5324 26.1056C80.4738 26.1094 80.4175 26.1302 80.3704 26.1653C80.345 26.1902 80.3257 26.2206 80.3139 26.2541C80.3021 26.2876 80.2981 26.3234 80.3022 26.3587C80.3022 26.4185 80.3022 26.4981 80.3022 26.5948C80.3022 26.6915 80.3022 26.7825 80.3022 26.8792C80.3022 26.9759 80.3022 27.1238 80.3022 27.249C80.3022 27.3742 80.3022 27.5021 80.2851 27.6387C80.2681 27.7752 80.2851 27.9231 80.2851 28.108C80.2851 28.2929 80.2851 28.4863 80.2851 28.7224C80.3477 28.7224 80.467 28.7423 80.6461 28.7537L81.2146 28.7821L81.783 28.8219C81.965 28.8361 82.09 28.8504 82.1497 28.8589L82.3657 28.8447L82.9342 28.7992C83.281 28.7679 83.5567 28.7537 83.7642 28.7537L83.9461 28.7025Z" fill="#101820"/>
<path d="M91.5153 28.7025C91.6643 28.7637 91.7919 28.8676 91.8819 29.0013C91.9719 29.1349 92.0204 29.2922 92.0213 29.4534C92.0302 29.5374 92.0202 29.6223 91.9922 29.702C91.9642 29.7817 91.9188 29.8542 91.8593 29.9141C91.7256 30.0182 91.5667 30.085 91.3988 30.1076C91.1525 30.147 90.9035 30.167 90.6541 30.1673C90.3699 30.1673 90.0259 30.1872 89.6564 30.2071C89.2103 30.131 88.7589 30.0901 88.3063 30.0848L87.9823 30.1076C87.88 30.1076 87.7833 30.1076 87.698 30.1076C87.1296 30.1076 86.7658 30.0279 86.5611 29.8629C86.5099 29.4534 86.473 29.0751 86.4474 28.7252C86.4218 28.3754 86.4076 28.0625 86.4076 27.7752C86.4043 27.3829 86.4223 26.9908 86.4616 26.6005C86.496 26.3021 86.5141 26.002 86.5156 25.7017C86.5207 25.4449 86.5055 25.1881 86.4701 24.9337L86.5611 23.321C86.6037 22.9313 86.6521 22.5985 86.7089 22.3226C86.7455 22.1031 86.8144 21.8903 86.9136 21.6912C86.9761 21.6115 87.2831 21.5063 87.8345 21.384L88.8179 21.1707C88.8805 21.1707 89.0084 21.1451 89.2017 21.1223L89.8071 21.0626C90.0174 21.0427 90.205 21.0256 90.3755 21.0171L90.6058 21H90.6683C90.7398 21.0095 90.8082 21.0352 90.8683 21.0751C90.9284 21.1151 90.9786 21.1681 91.0151 21.2304C91.1332 21.3843 91.1954 21.5739 91.1913 21.768C91.1913 21.8704 91.1913 21.9642 91.1913 22.0524C91.1862 22.1311 91.1505 22.2046 91.0918 22.2572C91.002 22.3258 90.8965 22.3708 90.7848 22.388C90.5765 22.4257 90.3655 22.4466 90.1538 22.4506C89.8416 22.4479 89.5309 22.4939 89.2329 22.5871H89.159C88.8184 22.6006 88.4815 22.6629 88.1585 22.772C88.1053 22.8579 88.074 22.9556 88.0675 23.0565C88.0477 23.1844 88.0306 23.3181 88.0221 23.4547C88.0135 23.5912 88.005 23.7106 87.9993 23.8074C87.9936 23.9041 87.9993 23.9382 87.9993 23.9069C87.9993 23.961 87.9823 24.0121 87.9766 24.0605C87.9731 24.1278 87.9731 24.1952 87.9766 24.2625C87.9766 24.3336 87.9766 24.4132 87.9766 24.4985C87.9766 24.5839 87.9766 24.6806 87.9993 24.783C88.3177 24.7517 88.5678 24.7204 88.7753 24.6834C88.9291 24.6534 89.0849 24.6353 89.2414 24.6294C89.4575 24.6294 89.6678 24.6294 89.8724 24.6151C90.0552 24.6031 90.2387 24.6156 90.4182 24.6521C90.5632 24.6821 90.6947 24.7579 90.7934 24.8683C90.897 25.0189 90.9452 25.2009 90.9298 25.3831C90.9445 25.4856 90.9282 25.5902 90.8831 25.6834C90.8381 25.7767 90.7662 25.8543 90.6768 25.9065C90.3944 26.0074 90.0954 26.0537 89.7957 26.043C89.4983 26.0486 89.2013 26.0695 88.906 26.1056H88.7128C88.6483 26.1056 88.5744 26.1056 88.4911 26.1056H88.3148C88.2505 26.0999 88.1859 26.0999 88.1216 26.1056C88.0637 26.1088 88.0081 26.1296 87.9624 26.1653C87.9362 26.1897 87.9161 26.2199 87.9037 26.2535C87.8914 26.2871 87.8871 26.3232 87.8913 26.3587C87.8913 26.4185 87.8913 26.4981 87.8913 26.5948C87.8913 26.6915 87.8913 26.7825 87.8913 26.8792C87.8913 26.9759 87.8913 27.1238 87.8913 27.249C87.8913 27.3742 87.8913 27.5021 87.8913 27.6387C87.8913 27.7752 87.8913 27.9231 87.8743 28.108C87.8572 28.2929 87.8743 28.4863 87.8743 28.7224C87.9368 28.7224 88.0562 28.7423 88.2352 28.7537L88.8037 28.7821L89.3722 28.8219C89.5541 28.8361 89.6792 28.8504 89.7389 28.8589L89.9549 28.8447L90.5234 28.7992C90.8701 28.7679 91.1487 28.7537 91.3533 28.7537L91.5153 28.7025Z" fill="#101820"/>
<path d="M99.1581 24.5555C99.1354 24.7376 99.1126 24.9026 99.087 25.0476C99.0615 25.1903 99.0125 25.3277 98.9421 25.4544C98.8599 25.5957 98.7648 25.729 98.6578 25.8526C98.5165 26.0178 98.3656 26.1745 98.2059 26.3219C97.7721 26.7487 97.2115 27.0232 96.6085 27.1041C96.4749 27.1553 96.3015 27.215 96.0883 27.2804C95.8752 27.3458 95.6165 27.4226 95.3209 27.5023L95.3664 28.5035C95.3863 28.6457 95.4005 28.7879 95.4119 28.933C95.4232 29.078 95.4119 29.2345 95.4119 29.408V29.8062C95.4131 29.9416 95.3959 30.0765 95.3607 30.2072C95.326 30.3277 95.2556 30.4348 95.1589 30.5144C95.0378 30.6042 94.8885 30.6475 94.7382 30.6367C94.5872 30.6486 94.4365 30.6106 94.309 30.5286C94.2168 30.4578 94.1516 30.3574 94.1243 30.2442C94.091 30.0957 94.0729 29.9442 94.0703 29.792C94.0645 29.6014 94.0464 29.4114 94.0163 29.2231V29.2402C94.0163 29.1065 93.9964 28.9557 93.985 28.7623C93.9736 28.5689 93.9651 28.3982 93.9537 28.1565C93.9424 27.9147 93.9281 27.6331 93.9083 27.3032V27.2122C93.9083 27.1496 93.9083 27.0699 93.9083 26.9675C93.9083 26.8651 93.9083 26.7571 93.8827 26.6433C93.8571 26.5295 93.8656 26.43 93.8599 26.3446C93.8542 26.2593 93.8599 26.1967 93.8599 26.1683C93.8599 26.1398 93.8599 25.9948 93.8599 25.8383C93.8599 25.6819 93.8599 25.5084 93.877 25.3235C93.894 25.1386 93.877 24.9623 93.8912 24.7916C93.9054 24.621 93.8912 24.493 93.8912 24.402C93.8915 24.2528 93.8839 24.1037 93.8685 23.9554C93.8514 23.8217 93.8343 23.6994 93.8145 23.5885C93.8145 23.5657 93.8145 23.5003 93.8145 23.3865C93.8145 23.2728 93.8145 23.1504 93.8372 23.0111C93.8599 22.8717 93.8628 22.7266 93.8827 22.5958C93.8979 22.479 93.9235 22.3638 93.9594 22.2516C94.2727 22.1107 94.6138 22.0427 94.9571 22.0525H95.0793C95.4765 21.9255 95.8902 21.8574 96.3072 21.8506C96.715 21.8888 97.1202 21.9506 97.5209 22.0355L98.1945 22.4052C98.3589 22.502 98.5115 22.6175 98.6493 22.7494C98.7696 22.8717 98.866 23.0155 98.9335 23.1732C99.0123 23.3543 99.064 23.5459 99.087 23.7421C99.1296 24.0112 99.1533 24.2831 99.1581 24.5555ZM97.7142 24.7689C97.7431 24.5969 97.7583 24.4228 97.7597 24.2484C97.7575 24.1051 97.7264 23.9637 97.6683 23.8327C97.6102 23.7017 97.5262 23.5838 97.4214 23.4861C97.2698 23.3581 97.0941 23.2617 96.9047 23.2026C96.7153 23.1435 96.516 23.1229 96.3186 23.1419C95.9504 23.1706 95.5885 23.253 95.2442 23.3865C95.2641 23.5828 95.2783 23.816 95.2896 24.0862C95.301 24.3564 95.2896 24.6722 95.2896 25.0306C95.28 25.1327 95.28 25.2356 95.2896 25.3377V25.6677C95.2896 25.7957 95.2896 25.9521 95.2896 26.1057C95.3964 26.0937 95.5019 26.0728 95.6051 26.0431C95.7167 26.0159 95.8268 25.9826 95.9349 25.9436C96.0372 25.9094 96.1594 25.8611 96.3044 25.7985C97.051 25.6241 97.5209 25.2809 97.7142 24.7689Z" fill="#101820"/>
<path d="M106.539 29.2854C106.485 29.2997 106.428 29.3045 106.372 29.2996C106.349 29.2996 106.247 29.2996 106.065 29.2769L105.442 29.2228L104.76 29.1688C104.533 29.1688 104.365 29.146 104.251 29.146H103.967C103.763 29.146 103.444 29.129 103.015 29.092C102.586 29.055 102.162 29.0152 101.742 28.9612C101.611 28.9596 101.481 28.9366 101.358 28.8929C101.223 28.8464 101.094 28.7844 100.974 28.708C100.854 28.6314 100.747 28.5353 100.659 28.4236C100.576 28.3226 100.516 28.2053 100.482 28.0794C100.622 27.7538 100.814 27.4531 101.051 27.1891L102.017 25.9888C102.08 25.9177 102.205 25.767 102.395 25.5366L103.032 24.7601C103.268 24.4757 103.507 24.1912 103.754 23.9068C104.001 23.6224 104.209 23.3834 104.382 23.1985H104.197C104.104 23.1806 104.008 23.1729 103.913 23.1758C103.843 23.1758 103.766 23.1758 103.683 23.1758C103.552 23.1632 103.421 23.1632 103.291 23.1758C103.154 23.19 103.006 23.2042 102.825 23.2128L101.58 23.3066C101.437 23.2386 101.318 23.1287 101.239 22.9916C101.159 22.8545 101.124 22.6965 101.136 22.5387C101.138 22.4382 101.167 22.3401 101.219 22.2542C101.309 22.1384 101.433 22.053 101.574 22.0096C101.824 21.9217 102.083 21.8644 102.347 21.839C102.801 21.7936 103.258 21.7737 103.714 21.7792C104.076 21.7814 104.438 21.8042 104.797 21.8475C105.228 21.9002 105.655 21.98 106.076 22.0864C106.209 22.2915 106.274 22.5335 106.261 22.7776C106.274 22.8914 106.256 23.0065 106.21 23.1113C106.164 23.2162 106.092 23.3071 105.999 23.3749C105.818 23.5911 105.644 23.7873 105.488 23.9665C105.331 24.1457 105.15 24.3533 104.951 24.5894C104.752 24.8255 104.513 25.1099 104.243 25.4427C103.973 25.7755 103.632 26.2164 103.222 26.7483C103.171 26.8421 102.938 27.1379 102.532 27.6414C102.934 27.7425 103.345 27.7988 103.76 27.8092C103.842 27.8092 103.91 27.8092 103.967 27.8092C104.024 27.8092 104.092 27.8092 104.175 27.8092C104.257 27.8092 104.411 27.8092 104.604 27.8092L105.209 27.8405L105.778 27.8689L106.076 27.886C106.185 27.8905 106.294 27.8799 106.4 27.8547C106.56 27.8794 106.704 27.9654 106.801 28.0945C106.898 28.2236 106.941 28.3856 106.92 28.5459C106.937 28.9526 106.807 29.1916 106.539 29.2854Z" fill="#101820"/>
<path d="M81.6244 42.2385C81.6242 42.3396 81.5946 42.4384 81.5392 42.5229C81.482 42.6148 81.4088 42.6958 81.3232 42.7619C81.2354 42.829 81.14 42.8853 81.0389 42.9297C80.9441 42.9724 80.8416 42.9956 80.7376 42.998C80.5339 43.0061 80.3308 42.9722 80.1407 42.8984C80.0049 42.846 79.8853 42.7587 79.794 42.6453C79.7197 42.5476 79.6673 42.4351 79.6405 42.3153C79.6163 42.207 79.6039 42.0964 79.6035 41.9854C79.6046 41.8572 79.6277 41.7302 79.6717 41.6099C79.7162 41.4842 79.7815 41.3668 79.865 41.2629C79.9432 41.1616 80.0396 41.0757 80.1493 41.0098C80.266 40.943 80.3985 40.9086 80.533 40.9102C80.6435 40.9123 80.7537 40.9228 80.8627 40.9415C80.9959 40.9639 81.1206 41.0219 81.2237 41.1093C81.3496 41.2201 81.4471 41.3596 81.5079 41.5161C81.5933 41.747 81.6329 41.9924 81.6244 42.2385Z" fill="#101820"/>
<path d="M69.4936 34.4585C69.3689 34.5134 69.2337 34.5385 69.0982 34.5322C68.9864 34.5379 68.8745 34.5379 68.7627 34.5322L68.2774 34.4708L67.8401 34.4033H67.6244C67.162 34.4192 66.7032 34.4934 66.2585 34.6243L66.5281 36.7054C66.588 37.2824 66.6299 37.7796 66.6599 38.2155C66.6898 38.6514 66.7078 39.0074 66.7078 39.3021V39.5722C66.715 39.6477 66.715 39.7238 66.7078 39.7993C66.7078 39.9712 66.7078 40.137 66.7078 40.2904V40.7386C66.7132 41.0934 66.6952 41.4482 66.6539 41.8006C66.637 42.0129 66.5843 42.2206 66.4981 42.4145C66.4744 42.4699 66.4399 42.5198 66.3966 42.5609C66.3533 42.6021 66.3022 42.6338 66.2465 42.6539C66.1334 42.6856 66.0163 42.7001 65.899 42.6969C65.8252 42.7044 65.7508 42.6926 65.6826 42.6625C65.6145 42.6325 65.555 42.5851 65.5096 42.525C65.4288 42.3974 65.3775 42.2525 65.3599 42.1014C65.3348 41.9349 65.3248 41.7664 65.3299 41.598C65.3299 41.4261 65.3299 41.2849 65.3299 41.1744C65.3277 40.9522 65.3457 40.7303 65.3838 40.5115C65.4184 40.3294 65.4364 40.1444 65.4378 39.9589C65.4378 39.9221 65.4377 39.8055 65.4078 39.6275C65.3778 39.4494 65.3718 39.2039 65.3539 38.9092C65.3359 38.6145 65.3239 38.2953 65.3119 37.884C65.2999 37.4727 65.3119 37.086 65.3119 36.6562C65.2799 36.0434 65.165 35.438 64.9704 34.8576L64.2515 34.9005L63.5686 34.9619C63.3668 34.9796 63.1666 35.0125 62.9695 35.0602C62.8441 35.083 62.7215 35.12 62.604 35.1707C62.1727 35.1707 61.957 34.9804 61.957 34.5997C61.9691 34.4054 62.038 34.2193 62.1547 34.0657L65.1023 33.507L66.0608 33.2799C66.341 33.2435 66.6231 33.225 66.9055 33.2246C67.0133 33.2246 67.0613 33.2246 67.0553 33.2246H67.1991L67.7982 33.2614L69.3618 33.3658C69.4484 33.4217 69.518 33.5014 69.5625 33.5958C69.607 33.6903 69.6246 33.7957 69.6134 33.8999C69.6328 34.0945 69.5908 34.2902 69.4936 34.4585Z" fill="#101820"/>
<path d="M70.1999 35.9134L71.1906 37.763C71.4774 38.2672 71.7324 38.696 71.9614 39.0679C72.1905 39.4398 72.3829 39.7399 72.5542 39.9796L72.7113 40.1992C72.7493 40.2649 72.7935 40.3267 72.8433 40.384C72.9432 40.5238 73.0396 40.6586 73.1288 40.7834L73.3894 41.1479C73.5913 41.4396 73.8123 41.7177 74.0507 41.9803C74.1879 42.1431 74.3515 42.2814 74.5343 42.3889C74.5859 42.4201 74.6429 42.4406 74.7021 42.4489C74.7612 42.4571 74.8212 42.4532 74.8782 42.4371C74.9886 42.397 75.0923 42.3406 75.1858 42.2697C75.2502 42.2329 75.3039 42.1799 75.3418 42.1158C75.3797 42.0517 75.4006 41.9785 75.4025 41.9032C75.3941 41.7523 75.3516 41.6046 75.2781 41.4715C75.2017 41.3215 75.1118 41.1786 75.0098 41.0446C74.9098 40.9048 74.8277 40.79 74.7635 40.7001C74.6361 40.5181 74.4924 40.3481 74.3342 40.1923C74.2002 40.0644 74.078 39.9244 73.9691 39.7743C73.9477 39.7444 73.8799 39.6495 73.8007 39.4873C73.7216 39.325 73.5837 39.1218 73.427 38.8717C73.2703 38.6216 73.0944 38.355 72.865 38.0135C72.6356 37.672 72.401 37.3644 72.1512 37.0149C71.8209 36.4978 71.5625 35.9386 71.3832 35.3532C71.1715 34.0295 69.6823 34.5709 70.1999 35.9134Z" fill="#101820"/>
<path d="M79.2643 35.6463L78.3 37.5748C78.0203 38.1012 77.7711 38.5495 77.5471 38.9387C77.3231 39.3278 77.1347 39.6421 76.9665 39.894L76.8122 40.1248C76.7751 40.1934 76.7316 40.2584 76.6825 40.3189C76.5843 40.4658 76.4897 40.6075 76.402 40.7386L76.1461 41.1216C75.9479 41.4279 75.7303 41.7211 75.4948 41.9992C75.3595 42.1713 75.1971 42.3195 75.0147 42.4372C74.9633 42.4714 74.9062 42.4948 74.8467 42.5059C74.7872 42.5171 74.7266 42.5157 74.6688 42.5019C74.5567 42.466 74.4511 42.4133 74.3554 42.3453C74.2898 42.3107 74.2346 42.2592 74.1952 42.1956C74.1557 42.132 73.6812 41.6113 73.6779 41.5346C73.6835 41.3806 74.1757 41.6754 74.2473 41.5365C74.3215 41.3803 74.4095 41.2307 74.5099 41.0897C74.6081 40.9428 74.6887 40.8221 74.7518 40.7276C74.8769 40.5365 75.0186 40.3568 75.1752 40.191C75.3079 40.0547 75.4286 39.9066 75.5356 39.7488C75.5566 39.7174 75.6232 39.6177 75.6999 39.4489C75.7767 39.2801 75.912 39.0669 76.0653 38.805C76.2187 38.5432 76.391 38.2637 76.6159 37.9056C76.8408 37.5474 77.0717 37.2235 77.3171 36.8563C77.6404 36.3147 77.8906 35.7334 78.0604 35.1291C78.249 33.7714 79.7612 34.2556 79.2643 35.6463Z" fill="#101820"/>
<path d="M16.6045 47.6831C16.6045 47.6831 17.2828 48.0793 17.3812 48.1431C18.6843 49.0542 20.8803 47.8254 20.8803 47.8254" stroke="#101820" stroke-width="1.75" stroke-linecap="round" stroke-linejoin="round"/>
<path d="M21.5225 50.4658C21.603 50.5517 21.6917 50.6295 21.7874 50.6981C22.1381 50.8764 22.5157 50.9958 22.9052 51.0516C23.3317 51.1527 23.7732 51.1747 24.2076 51.1165C24.4679 51.0713 25.3997 50.7115 25.3997 50.7115" stroke="#101820" stroke-width="1.75" stroke-linecap="round" stroke-linejoin="round"/>
<path d="M15.2842 52.2847C15.2842 52.2847 16.0162 53.3169 16.8888 53.3128C17.3508 53.3238 17.8129 53.3023 18.2719 53.2487C18.5776 53.1735 18.8778 53.0771 19.1702 52.9602" stroke="#101820" stroke-width="1.75" stroke-linecap="round" stroke-linejoin="round"/>
<path d="M26.6221 53.1519C27.14 53.3943 27.6758 53.5966 28.2247 53.7569C28.6409 53.8175 29.0639 53.8156 29.4795 53.751L30.6119 53.6136" stroke="#101820" stroke-width="1.75" stroke-linecap="round" stroke-linejoin="round"/>
<path d="M54.4723 47.5028C54.4723 47.5028 53.7978 47.9053 53.7 47.9701C52.4056 48.8934 50.198 47.6854 50.198 47.6854" stroke="#101820" stroke-width="1.75" stroke-linecap="round" stroke-linejoin="round"/>
<path d="M49.581 50.3323C49.5004 50.418 49.4125 50.4966 49.3183 50.5671C48.5642 50.9195 47.732 51.0714 46.9021 51.0083C46.6415 50.9655 45.7063 50.6146 45.7063 50.6146" stroke="#101820" stroke-width="1.75" stroke-linecap="round" stroke-linejoin="round"/>
<path d="M55.8359 52.0935C55.8359 52.0935 55.1102 53.1326 54.241 53.1367C53.778 53.152 53.3146 53.135 52.854 53.0857C52.5488 53.013 52.2489 52.9194 51.9564 52.8056" stroke="#101820" stroke-width="1.75" stroke-linecap="round" stroke-linejoin="round"/>
<path d="M44.5066 53.0681C43.991 53.3154 43.4571 53.5227 42.9097 53.6882C42.4929 53.7528 42.0689 53.7548 41.6515 53.6942L40.5179 53.5675" stroke="#101820" stroke-width="1.75" stroke-linecap="round" stroke-linejoin="round"/>
<path d="M33.9902 53.6318C35.0177 53.9418 36.1145 53.9366 37.139 53.617" stroke="#101820" stroke-width="1.75" stroke-linecap="round" stroke-linejoin="round"/>
<path d="M27.3762 28.0889C27.3592 28.0889 28.5693 28.6349 29.1815 28.6354C29.4707 28.6523 29.7608 28.6384 30.0471 28.5941C30.2363 28.5526 31.06 28.2102 31.06 28.2102" stroke="#101820" stroke-width="1.75" stroke-linecap="round" stroke-linejoin="round"/>
<path d="M29.7949 23.8125C29.7949 23.8125 30.6269 24.5092 32.5453 23.9451L32.498 23.9453" stroke="#101820" stroke-width="1.75" stroke-linecap="round" stroke-linejoin="round"/>
<path d="M32.0996 19.9604C32.0996 19.9604 32.5704 20.1072 32.7126 20.1403C33.0939 20.1579 33.4759 20.1346 33.8521 20.0706" stroke="#101820" stroke-width="1.75" stroke-linecap="round" stroke-linejoin="round"/>
<path d="M33.8613 26.2783C34.8888 26.5883 35.9856 26.5831 37.0101 26.2635" stroke="#101820" stroke-width="1.75" stroke-linecap="round" stroke-linejoin="round"/>
<path d="M34.6055 16.8618C35.1199 17.0159 35.6686 17.0133 36.1816 16.8544" stroke="#101820" stroke-width="1.75" stroke-linecap="round" stroke-linejoin="round"/>
<path d="M43.5064 28.0129C43.5064 28.0129 42.3185 28.5702 41.7063 28.5765C41.4173 28.5961 41.127 28.585 40.8403 28.5433C40.6507 28.5036 39.8239 28.169 39.8239 28.169" stroke="#101820" stroke-width="1.75" stroke-linecap="round" stroke-linejoin="round"/>
<path d="M41.0544 23.76C41.0544 23.76 40.2324 24.4645 38.3054 23.9185L38.3561 23.9182" stroke="#101820" stroke-width="1.75" stroke-linecap="round" stroke-linejoin="round"/>
<path d="M38.7158 19.9292C38.7158 19.9292 38.2464 20.0804 38.1045 20.1149C37.7235 20.1361 37.3413 20.1163 36.9644 20.056" stroke="#101820" stroke-width="1.75" stroke-linecap="round" stroke-linejoin="round"/>
<path d="M19.5739 56.8403C19.0531 56.8428 18.5354 56.8114 18.0144 56.78C16.253 56.676 14.4864 56.6991 12.7283 56.8489C12.0521 56.8995 9.68572 57.151 9.25267 56.4084C8.85715 55.7334 11.0969 52.301 11.3521 51.9105C13.1912 48.8557 14.9119 45.8015 16.6289 42.6863C17.8227 40.501 18.9049 38.3094 20.2343 36.2115C22.9202 31.9782 25.1919 27.4254 27.9523 23.2256C29.9704 20.1226 31.4869 16.8121 33.3965 13.6452C33.712 13.1225 34.6564 11.1347 35.414 11.1243C36.4083 11.1196 37.6506 14.1904 38.0531 14.9263C39.609 17.7925 41.3166 20.5869 42.9939 23.3848C44.2007 25.4098 45.6672 27.2509 46.82 29.2931C49.1393 33.4046 51.6711 37.3933 53.9297 41.5423C54.9293 43.3754 55.8514 45.2563 56.878 47.0757C57.7751 48.6656 58.7834 50.1975 59.7513 51.7464C60.1602 52.4011 62.1814 55.6882 61.9332 56.1361C61.5508 56.8148 58.6179 56.6933 57.9852 56.6556C55.8437 56.5304 53.8218 56.6753 51.6979 56.7158C49.6924 56.7557 47.6687 56.525 45.6629 56.4837C39.7671 56.3693 33.8258 56.6512 27.9205 56.6757C25.1437 56.6719 22.3544 56.8949 19.5739 56.8403Z" stroke="#101820" stroke-width="1.75" stroke-linecap="round" stroke-linejoin="round"/>
<path d="M52.1547 38.8633C53.0526 39.9049 53.0497 40.0065 52.1039 41.0026C50.8688 42.3047 47.198 45.6559 45.2715 46.6837C39.9376 49.5317 37.3747 49.6961 34.0119 49.5122C33.0307 49.4455 32.0556 49.3076 31.0944 49.0996C26.7299 48.0879 22.0422 44.5189 18.932 41.2404C17.9124 40.1892 17.932 40.0436 18.9554 39.0132C23.0723 34.8747 26.5618 31.7918 33.9255 30.4676C36.3789 30.0295 41.5343 30.9156 45.1648 33.3591C47.8792 35.1977 50.0326 36.406 52.1547 38.8633V38.8633Z" stroke="#101820" stroke-width="1.75" stroke-linecap="round" stroke-linejoin="round"/>
<path d="M35.4355 33.6831C35.4355 33.6831 35.5418 35.7981 35.5147 36.6511C35.485 37.741 35.4553 38.831 35.4596 39.9309C35.4676 42.0226 35.5515 46.2428 35.5515 46.2428" stroke="#101820" stroke-width="1.75" stroke-linecap="round" stroke-linejoin="round"/>
<path d="M29.51 40.0603L25.8376 40.2164" stroke="#101820" stroke-width="1.75" stroke-linecap="round" stroke-linejoin="round"/>
<path d="M29.7027 37.2166L26.8027 36.9189" stroke="#101820" stroke-width="1.75" stroke-linecap="round" stroke-linejoin="round"/>
<path d="M30.4512 34.7148C29.9334 34.5525 29.3959 34.4617 28.8535 34.4448" stroke="#101820" stroke-width="1.75" stroke-linecap="round" stroke-linejoin="round"/>
<path d="M29.8674 42.6958C29.3944 42.8913 28.9094 43.0563 28.4154 43.19" stroke="#101820" stroke-width="1.75" stroke-linecap="round" stroke-linejoin="round"/>
<path d="M30.711 44.9827C30.3324 45.196 29.9398 45.3833 29.5358 45.5433" stroke="#101820" stroke-width="1.75" stroke-linecap="round" stroke-linejoin="round"/>
<path d="M41.4961 40.0034L45.1698 40.1248" stroke="#101820" stroke-width="1.75" stroke-linecap="round" stroke-linejoin="round"/>
<path d="M41.273 37.162L44.1734 36.8369" stroke="#101820" stroke-width="1.75" stroke-linecap="round" stroke-linejoin="round"/>
<path d="M40.5003 34.6672C41.0154 34.5 41.551 34.4041 42.092 34.3821" stroke="#101820" stroke-width="1.75" stroke-linecap="round" stroke-linejoin="round"/>
<path d="M41.1602 42.6426C41.6363 42.8331 42.1239 42.9936 42.6202 43.1231" stroke="#101820" stroke-width="1.75" stroke-linecap="round" stroke-linejoin="round"/>
<path d="M40.3389 44.937C40.7209 45.146 41.1164 45.3296 41.5227 45.4865" stroke="#101820" stroke-width="1.75" stroke-linecap="round" stroke-linejoin="round"/>
</svg>
