<svg width="14" height="14" viewBox="0 0 14 14" fill="none" xmlns="http://www.w3.org/2000/svg">
<path opacity="0.56" d="M13.5 7C13.5 8.9073 13.2372 10.2375 12 11.5C10.7295 12.7965 8.95869 14 7 14C3.13401 14 0 10.866 0 7C0 5.09269 1.26281 3.76254 2.5 2.5C3.77052 1.20345 5.04131 0 7 0C10.866 0 13.5 3.13401 13.5 7Z" fill="white"/>
<path opacity="0.56" d="M11 5.5C11 6.45365 10.8443 7.11873 10.1111 7.75C9.35821 8.39827 8.30885 9 7.14815 9C4.85719 9 3 7.433 3 5.5C3 4.54635 3.74833 3.88127 4.48148 3.25C5.23438 2.60172 5.98744 2 7.14815 2C9.43911 2 11 3.567 11 5.5Z" fill="white"/>
</svg>
