<svg width="2753" height="58" viewBox="0 0 2753 58" fill="none" xmlns="http://www.w3.org/2000/svg">
<rect x="1" y="29" width="68.8319" height="28.0001" rx="8" fill="#183136" stroke="#101820" stroke-width="1.75"/>
<rect x="1" y="1" width="68.8319" height="28.0001" rx="8" fill="#183136" stroke="#101820" stroke-width="1.75"/>
<rect x="69.8315" y="29" width="68.8319" height="28.0001" rx="8" fill="#183136" stroke="#101820" stroke-width="1.75"/>
<rect x="69.8315" y="1" width="68.8319" height="28.0001" rx="8" fill="#183136" stroke="#101820" stroke-width="1.75"/>
<rect x="551.086" y="29" width="68.832" height="28.0001" rx="8" fill="#183136" stroke="#101820" stroke-width="1.75"/>
<rect x="551.086" y="1" width="68.832" height="28.0001" rx="8" fill="#183136" stroke="#101820" stroke-width="1.75"/>
<rect x="619.917" y="29" width="68.8319" height="28.0001" rx="8" fill="#183136" stroke="#101820" stroke-width="1.75"/>
<rect x="619.917" y="1" width="68.8319" height="28.0001" rx="8" fill="#183136" stroke="#101820" stroke-width="1.75"/>
<rect x="1101.17" y="29" width="68.832" height="28.0001" rx="8" fill="#183136" stroke="#101820" stroke-width="1.75"/>
<rect x="1101.17" y="1" width="68.832" height="28.0001" rx="8" fill="#183136" stroke="#101820" stroke-width="1.75"/>
<rect x="1170" y="29" width="68.8319" height="28.0001" rx="8" fill="#183136" stroke="#101820" stroke-width="1.75"/>
<rect x="1170" y="1" width="68.8319" height="28.0001" rx="8" fill="#183136" stroke="#101820" stroke-width="1.75"/>
<rect x="1651.26" y="29" width="68.8319" height="28.0001" rx="8" fill="#183136" stroke="#101820" stroke-width="1.75"/>
<rect x="1651.26" y="1" width="68.8319" height="28.0001" rx="8" fill="#183136" stroke="#101820" stroke-width="1.75"/>
<rect x="1720.09" y="29" width="68.832" height="28.0001" rx="8" fill="#183136" stroke="#101820" stroke-width="1.75"/>
<rect x="1720.09" y="1" width="68.832" height="28.0001" rx="8" fill="#183136" stroke="#101820" stroke-width="1.75"/>
<rect x="2201.34" y="29" width="68.8318" height="28.0001" rx="8" fill="#183136" stroke="#101820" stroke-width="1.75"/>
<rect x="2201.34" y="1" width="68.8318" height="28.0001" rx="8" fill="#183136" stroke="#101820" stroke-width="1.75"/>
<rect x="2270.18" y="29" width="68.8318" height="28.0001" rx="8" fill="#183136" stroke="#101820" stroke-width="1.75"/>
<rect x="2270.18" y="1" width="68.8318" height="28.0001" rx="8" fill="#183136" stroke="#101820" stroke-width="1.75"/>
<rect x="138.664" y="29" width="68.8319" height="28.0001" rx="8" fill="#183136" stroke="#101820" stroke-width="1.75"/>
<rect x="138.664" y="1" width="68.8319" height="28.0001" rx="8" fill="#183136" stroke="#101820" stroke-width="1.75"/>
<rect x="207.495" y="29" width="68.8319" height="28.0001" rx="8" fill="#183136" stroke="#101820" stroke-width="1.75"/>
<rect x="207.495" y="1" width="68.8319" height="28.0001" rx="8" fill="#183136" stroke="#101820" stroke-width="1.75"/>
<rect x="688.75" y="29" width="68.8319" height="28.0001" rx="8" fill="#183136" stroke="#101820" stroke-width="1.75"/>
<rect x="688.75" y="1" width="68.8319" height="28.0001" rx="8" fill="#183136" stroke="#101820" stroke-width="1.75"/>
<rect x="757.582" y="29" width="68.8319" height="28.0001" rx="8" fill="#183136" stroke="#101820" stroke-width="1.75"/>
<rect x="757.581" y="1" width="68.8319" height="28.0001" rx="8" fill="#183136" stroke="#101820" stroke-width="1.75"/>
<rect x="1238.84" y="29" width="68.8319" height="28.0001" rx="8" fill="#183136" stroke="#101820" stroke-width="1.75"/>
<rect x="1238.84" y="1" width="68.8319" height="28.0001" rx="8" fill="#183136" stroke="#101820" stroke-width="1.75"/>
<rect x="1307.67" y="29" width="68.8319" height="28.0001" rx="8" fill="#183136" stroke="#101820" stroke-width="1.75"/>
<rect x="1307.67" y="1" width="68.8319" height="28.0001" rx="8" fill="#183136" stroke="#101820" stroke-width="1.75"/>
<rect x="1788.92" y="29" width="68.832" height="28.0001" rx="8" fill="#183136" stroke="#101820" stroke-width="1.75"/>
<rect x="1788.92" y="1" width="68.832" height="28.0001" rx="8" fill="#183136" stroke="#101820" stroke-width="1.75"/>
<rect x="1857.75" y="29" width="68.8319" height="28.0001" rx="8" fill="#183136" stroke="#101820" stroke-width="1.75"/>
<rect x="1857.75" y="1" width="68.8319" height="28.0001" rx="8" fill="#183136" stroke="#101820" stroke-width="1.75"/>
<rect x="2339.01" y="29" width="68.8318" height="28.0001" rx="8" fill="#183136" stroke="#101820" stroke-width="1.75"/>
<rect x="2339.01" y="1" width="68.8318" height="28.0001" rx="8" fill="#183136" stroke="#101820" stroke-width="1.75"/>
<rect x="2407.84" y="29" width="68.8318" height="28.0001" rx="8" fill="#183136" stroke="#101820" stroke-width="1.75"/>
<rect x="2407.84" y="1" width="68.8318" height="28.0001" rx="8" fill="#183136" stroke="#101820" stroke-width="1.75"/>
<rect x="276.328" y="29" width="68.8319" height="28.0001" rx="8" fill="#183136" stroke="#101820" stroke-width="1.75"/>
<rect x="276.328" y="1" width="68.8319" height="28.0001" rx="8" fill="#183136" stroke="#101820" stroke-width="1.75"/>
<rect x="345.16" y="29" width="68.8319" height="28.0001" rx="8" fill="#183136" stroke="#101820" stroke-width="1.75"/>
<rect x="345.159" y="1" width="68.8319" height="28.0001" rx="8" fill="#183136" stroke="#101820" stroke-width="1.75"/>
<rect x="826.414" y="29" width="68.8319" height="28.0001" rx="8" fill="#183136" stroke="#101820" stroke-width="1.75"/>
<rect x="826.414" y="1" width="68.8319" height="28.0001" rx="8" fill="#183136" stroke="#101820" stroke-width="1.75"/>
<rect x="895.246" y="29" width="68.8319" height="28.0001" rx="8" fill="#183136" stroke="#101820" stroke-width="1.75"/>
<rect x="895.246" y="1" width="68.8319" height="28.0001" rx="8" fill="#183136" stroke="#101820" stroke-width="1.75"/>
<rect x="1376.5" y="29" width="68.8319" height="28.0001" rx="8" fill="#183136" stroke="#101820" stroke-width="1.75"/>
<rect x="1376.5" y="1" width="68.8319" height="28.0001" rx="8" fill="#183136" stroke="#101820" stroke-width="1.75"/>
<rect x="1445.33" y="29" width="68.8319" height="28.0001" rx="8" fill="#183136" stroke="#101820" stroke-width="1.75"/>
<rect x="1445.33" y="1" width="68.8319" height="28.0001" rx="8" fill="#183136" stroke="#101820" stroke-width="1.75"/>
<rect x="1926.59" y="29" width="68.8319" height="28.0001" rx="8" fill="#183136" stroke="#101820" stroke-width="1.75"/>
<rect x="1926.59" y="1" width="68.8319" height="28.0001" rx="8" fill="#183136" stroke="#101820" stroke-width="1.75"/>
<rect x="1995.42" y="29" width="68.8318" height="28.0001" rx="8" fill="#183136" stroke="#101820" stroke-width="1.75"/>
<rect x="1995.42" y="1" width="68.8318" height="28.0001" rx="8" fill="#183136" stroke="#101820" stroke-width="1.75"/>
<rect x="2476.67" y="29" width="68.8318" height="28.0001" rx="8" fill="#183136" stroke="#101820" stroke-width="1.75"/>
<rect x="2476.67" y="1" width="68.8318" height="28.0001" rx="8" fill="#183136" stroke="#101820" stroke-width="1.75"/>
<rect x="2545.5" y="29" width="68.8318" height="28.0001" rx="8" fill="#183136" stroke="#101820" stroke-width="1.75"/>
<rect x="2545.5" y="1" width="68.8318" height="28.0001" rx="8" fill="#183136" stroke="#101820" stroke-width="1.75"/>
<rect x="413.992" y="29" width="68.8319" height="28.0001" rx="8" fill="#183136" stroke="#101820" stroke-width="1.75"/>
<rect x="413.991" y="1" width="68.8319" height="28.0001" rx="8" fill="#183136" stroke="#101820" stroke-width="1.75"/>
<rect x="482.823" y="29" width="68.8319" height="28.0001" rx="8" fill="#183136" stroke="#101820" stroke-width="1.75"/>
<rect x="482.823" y="1" width="68.8319" height="28.0001" rx="8" fill="#183136" stroke="#101820" stroke-width="1.75"/>
<rect x="964.078" y="29" width="68.8319" height="28.0001" rx="8" fill="#183136" stroke="#101820" stroke-width="1.75"/>
<rect x="964.077" y="1" width="68.8319" height="28.0001" rx="8" fill="#183136" stroke="#101820" stroke-width="1.75"/>
<rect x="1032.91" y="29" width="68.8319" height="28.0001" rx="8" fill="#183136" stroke="#101820" stroke-width="1.75"/>
<rect x="1032.91" y="1" width="68.8319" height="28.0001" rx="8" fill="#183136" stroke="#101820" stroke-width="1.75"/>
<rect x="1514.16" y="29" width="68.8319" height="28.0001" rx="8" fill="#183136" stroke="#101820" stroke-width="1.75"/>
<rect x="1514.16" y="1" width="68.8319" height="28.0001" rx="8" fill="#183136" stroke="#101820" stroke-width="1.75"/>
<rect x="1583" y="29" width="68.8319" height="28.0001" rx="8" fill="#183136" stroke="#101820" stroke-width="1.75"/>
<rect x="1583" y="1" width="68.8319" height="28.0001" rx="8" fill="#183136" stroke="#101820" stroke-width="1.75"/>
<rect x="2064.25" y="29" width="68.8318" height="28.0001" rx="8" fill="#183136" stroke="#101820" stroke-width="1.75"/>
<rect x="2064.25" y="1" width="68.8318" height="28.0001" rx="8" fill="#183136" stroke="#101820" stroke-width="1.75"/>
<rect x="2133.08" y="29" width="68.8315" height="28.0001" rx="8" fill="#183136" stroke="#101820" stroke-width="1.75"/>
<rect x="2133.08" y="1" width="68.8315" height="28.0001" rx="8" fill="#183136" stroke="#101820" stroke-width="1.75"/>
<rect x="2614.34" y="29" width="68.8318" height="28.0001" rx="8" fill="#183136" stroke="#101820" stroke-width="1.75"/>
<rect x="2614.34" y="1" width="68.8318" height="28.0001" rx="8" fill="#183136" stroke="#101820" stroke-width="1.75"/>
<rect x="2683.17" y="29" width="68.8318" height="28.0001" rx="8" fill="#183136" stroke="#101820" stroke-width="1.75"/>
<rect x="2683.17" y="1" width="68.8318" height="28.0001" rx="8" fill="#183136" stroke="#101820" stroke-width="1.75"/>
</svg>
