<svg width="6" height="6" viewBox="0 0 6 6" fill="none" xmlns="http://www.w3.org/2000/svg">
<path opacity="0.56" d="M5.78571 3C5.78571 2.18258 5.67308 1.61252 5.14286 1.07143C4.59835 0.515764 3.83944 0 3 0C1.34315 0 0 1.34315 0 3C0 3.81742 0.541206 4.38748 1.07143 4.92857C1.61594 5.48424 2.16056 6 3 6C4.65685 6 5.78571 4.65685 5.78571 3Z" fill="white"/>
<path opacity="0.56" d="M4.64258 3C4.64258 2.45506 4.58418 2.07501 4.30924 1.71429C4.02691 1.34384 3.6334 1 3.19813 1C2.33902 1 1.64258 1.89543 1.64258 3C1.64258 3.54494 1.9232 3.92499 2.19813 4.28571C2.48047 4.65616 2.76287 5 3.19813 5C4.05724 5 4.64258 4.10457 4.64258 3Z" fill="white"/>
</svg>
