<svg width="1440" height="57" viewBox="0 0 1440 57" fill="none" xmlns="http://www.w3.org/2000/svg">
<rect width="1442" height="56" transform="translate(0 1)" fill="#0D1C1F" fill-opacity="0.924"/>
<rect y="29" width="68.8319" height="28.0001" rx="8" fill="#183136" stroke="#101820" stroke-width="1.75"/>
<rect y="1" width="68.8319" height="28.0001" rx="8" fill="#183136" stroke="#101820" stroke-width="1.75"/>
<rect x="68.832" y="29" width="68.8319" height="28.0001" rx="8" fill="#183136" stroke="#101820" stroke-width="1.75"/>
<rect x="68.832" y="1" width="68.8319" height="28.0001" rx="8" fill="#183136" stroke="#101820" stroke-width="1.75"/>
<rect x="550.086" y="29" width="68.832" height="28.0001" rx="8" fill="#183136" stroke="#101820" stroke-width="1.75"/>
<rect x="550.086" y="1" width="68.832" height="28.0001" rx="8" fill="#183136" stroke="#101820" stroke-width="1.75"/>
<rect x="618.918" y="29" width="68.8319" height="28.0001" rx="8" fill="#183136" stroke="#101820" stroke-width="1.75"/>
<rect x="618.918" y="1" width="68.8319" height="28.0001" rx="8" fill="#183136" stroke="#101820" stroke-width="1.75"/>
<rect x="1100.17" y="29" width="68.832" height="28.0001" rx="8" fill="#183136" stroke="#101820" stroke-width="1.75"/>
<rect x="1100.17" y="1" width="68.832" height="28.0001" rx="8" fill="#183136" stroke="#101820" stroke-width="1.75"/>
<rect x="1169" y="29" width="68.8319" height="28.0001" rx="8" fill="#183136" stroke="#101820" stroke-width="1.75"/>
<rect x="1169" y="1" width="68.8319" height="28.0001" rx="8" fill="#183136" stroke="#101820" stroke-width="1.75"/>
<rect x="137.664" y="29" width="68.8319" height="28.0001" rx="8" fill="#183136" stroke="#101820" stroke-width="1.75"/>
<rect x="137.664" y="1" width="68.8319" height="28.0001" rx="8" fill="#183136" stroke="#101820" stroke-width="1.75"/>
<rect x="206.495" y="29" width="68.8319" height="28.0001" rx="8" fill="#183136" stroke="#101820" stroke-width="1.75"/>
<rect x="206.495" y="1" width="68.8319" height="28.0001" rx="8" fill="#183136" stroke="#101820" stroke-width="1.75"/>
<rect x="687.75" y="29" width="68.8319" height="28.0001" rx="8" fill="#183136" stroke="#101820" stroke-width="1.75"/>
<rect x="687.75" y="1" width="68.8319" height="28.0001" rx="8" fill="#183136" stroke="#101820" stroke-width="1.75"/>
<rect x="756.581" y="29" width="68.8319" height="28.0001" rx="8" fill="#183136" stroke="#101820" stroke-width="1.75"/>
<rect x="756.581" y="1" width="68.8319" height="28.0001" rx="8" fill="#183136" stroke="#101820" stroke-width="1.75"/>
<rect x="1237.84" y="29" width="68.8319" height="28.0001" rx="8" fill="#183136" stroke="#101820" stroke-width="1.75"/>
<rect x="1237.84" y="1" width="68.8319" height="28.0001" rx="8" fill="#183136" stroke="#101820" stroke-width="1.75"/>
<rect x="1306.67" y="29" width="68.8319" height="28.0001" rx="8" fill="#183136" stroke="#101820" stroke-width="1.75"/>
<rect x="1306.67" y="1" width="68.8319" height="28.0001" rx="8" fill="#183136" stroke="#101820" stroke-width="1.75"/>
<rect x="275.328" y="29" width="68.8319" height="28.0001" rx="8" fill="#183136" stroke="#101820" stroke-width="1.75"/>
<rect x="275.328" y="1" width="68.8319" height="28.0001" rx="8" fill="#183136" stroke="#101820" stroke-width="1.75"/>
<rect x="344.159" y="29" width="68.8319" height="28.0001" rx="8" fill="#183136" stroke="#101820" stroke-width="1.75"/>
<rect x="344.159" y="1" width="68.8319" height="28.0001" rx="8" fill="#183136" stroke="#101820" stroke-width="1.75"/>
<rect x="825.414" y="29" width="68.8319" height="28.0001" rx="8" fill="#183136" stroke="#101820" stroke-width="1.75"/>
<rect x="825.414" y="1" width="68.8319" height="28.0001" rx="8" fill="#183136" stroke="#101820" stroke-width="1.75"/>
<rect x="894.246" y="29" width="68.8319" height="28.0001" rx="8" fill="#183136" stroke="#101820" stroke-width="1.75"/>
<rect x="894.246" y="1" width="68.8319" height="28.0001" rx="8" fill="#183136" stroke="#101820" stroke-width="1.75"/>
<rect x="1375.5" y="29" width="68.8319" height="28.0001" rx="8" fill="#183136" stroke="#101820" stroke-width="1.75"/>
<rect x="1375.5" y="1" width="68.8319" height="28.0001" rx="8" fill="#183136" stroke="#101820" stroke-width="1.75"/>
<rect x="412.991" y="29" width="68.8319" height="28.0001" rx="8" fill="#183136" stroke="#101820" stroke-width="1.75"/>
<rect x="412.991" y="1" width="68.8319" height="28.0001" rx="8" fill="#183136" stroke="#101820" stroke-width="1.75"/>
<rect x="481.823" y="29" width="68.8319" height="28.0001" rx="8" fill="#183136" stroke="#101820" stroke-width="1.75"/>
<rect x="481.823" y="1" width="68.8319" height="28.0001" rx="8" fill="#183136" stroke="#101820" stroke-width="1.75"/>
<rect x="963.077" y="29" width="68.8319" height="28.0001" rx="8" fill="#183136" stroke="#101820" stroke-width="1.75"/>
<rect x="963.077" y="1" width="68.8319" height="28.0001" rx="8" fill="#183136" stroke="#101820" stroke-width="1.75"/>
<rect x="1031.91" y="29" width="68.8319" height="28.0001" rx="8" fill="#183136" stroke="#101820" stroke-width="1.75"/>
<rect x="1031.91" y="1" width="68.8319" height="28.0001" rx="8" fill="#183136" stroke="#101820" stroke-width="1.75"/>
</svg>
