<svg width="494" height="300" fill="none" xmlns="http://www.w3.org/2000/svg"><path d="M200.944 260c0-27.132 21.979-49.125 49.091-49.125 27.111 0 49.09 21.993 49.09 49.125s-21.979 49.125-49.09 49.125c-27.112 0-49.091-21.993-49.091-49.125Z" fill="#0B302B" stroke="#101820" stroke-width="1.75"/><path d="M212.937 260c0-20.504 16.61-37.125 37.098-37.125 20.489 0 37.099 16.621 37.099 37.125s-16.61 37.125-37.099 37.125c-20.488 0-37.098-16.621-37.098-37.125Z" fill="#425855" stroke="#101820" stroke-width="1.75"/><rect x="272.875" y="176.125" width="102.75" height="43.75" rx="21.875" transform="rotate(90 272.875 176.125)" fill="#73878B" stroke="#101820" stroke-width="1.75"/><rect x="268" y="142" width="130" height="34" rx="17" transform="rotate(90 268 142)" fill="#4899C6"/><rect x="264" y="181" width="87" height="26" rx="13" transform="rotate(90 264 181)" stroke="#fff" stroke-opacity=".24" stroke-width="8"/><mask id="a" style="mask-type:alpha" maskUnits="userSpaceOnUse" x="224" y="222" width="54" height="25"><path d="M277.544 222.855c0 13.335-10.81 24.145-24.145 24.145h-4.797c-13.335 0-24.145-10.81-24.145-24.145h53.087Z" fill="#466561"/></mask><g mask="url(#a)"><path d="M278.343 222.855v-.799h-54.685v.799c0 13.776 11.168 24.944 24.944 24.944h4.797c13.776 0 24.944-11.168 24.944-24.944Z" fill="#425855" stroke="#101820" stroke-width="1.598"/><path opacity=".13" d="M270.765 239.68c.755 1.496 1.218 2.63 1.04 4.198.285.879.533 1.743 1.12 2.469.479.593.428 1.504.778 2.127.503.896.104 2.824.104 3.827 0 1.359-.452 2.055-1.834 2.529-1.426.489-3.191 1.402-4.692 1.402h-7.791c-6.731 0-13.629-.028-20.17-1.781-3.465-.929-5.369-3.492-6.886-6.495-1.166-2.308-.803-4.814-.128-7.172.777-2.713 1.795-4.858 4.413-6.069 2.845-1.317 6.101-1.631 9.197-1.863 2.062-.154 4.109-.536 6.177-.609 3.062-.108 6.319-.305 9.185.92 2.017.862 3.988 1.934 6.003 2.747 1.404.566 2.824 2.464 3.484 3.77Z" fill="#fff"/></g><path d="M278.343 222.855v-.799h-54.685v.799c0 13.776 11.168 24.944 24.944 24.944h4.797c13.776 0 24.944-11.168 24.944-24.944Z" stroke="#101820" stroke-width="1.598"/><mask id="b" style="mask-type:alpha" maskUnits="userSpaceOnUse" x="185" y="198" width="132" height="25"><path d="M317 198c0 13.334-10.81 24.145-24.145 24.145h-83.71C195.81 222.145 185 211.334 185 198h132Z" fill="#466561"/></mask><g mask="url(#b)"><path d="M317.799 198v-.799H184.201V198c0 13.776 11.168 24.943 24.944 24.943h83.71c13.776 0 24.944-11.167 24.944-24.943Z" fill="#0B302B" stroke="#101820" stroke-width="1.598"/><path opacity=".04" d="M306.389 209.803c2.279 1.5 3.676 2.638 3.139 4.211.86.881 1.608 1.748 3.379 2.477 1.446.594 1.294 1.508 2.348 2.133 1.518.898.316 2.833.316 3.839 0 1.363-1.366 2.062-5.538 2.537-4.302.49-9.629 1.406-14.157 1.406h-23.515c-20.313 0-41.132-.028-60.873-1.787-10.457-.932-16.204-3.502-20.781-6.514-3.519-2.315-2.423-4.829-.386-7.195 2.344-2.721 5.418-4.872 13.317-6.088 8.587-1.32 18.415-1.635 27.756-1.867 6.225-.155 12.402-.538 18.643-.611 9.24-.109 19.072-.307 27.72.922 6.088.865 12.035 1.94 18.119 2.756 4.236.567 8.522 2.471 10.513 3.781Z" fill="#fff"/><circle cx="244.152" cy="208.957" r="4.223" transform="rotate(-90 244.152 208.957)" fill="#8DFF1F" stroke="#101820" stroke-width="1.598"/><path d="M244.954 206.542c.534.535-.678.678-1.515 1.514-.836.837-.98 2.05-1.515 1.515-.534-.535-.29-1.647.547-2.483.836-.836 1.948-1.081 2.483-.546Z" fill="#fff"/><circle cx="257.847" cy="208.957" r="4.223" transform="rotate(-90 257.847 208.957)" fill="#FA4B28" stroke="#101820" stroke-width="1.598"/><path d="M258.252 206.542c.535.535-.678.678-1.514 1.514-.837.837-.98 2.05-1.515 1.515-.535-.535-.29-1.647.546-2.483.837-.836 1.949-1.081 2.483-.546Z" fill="#fff"/></g><path d="M317.799 198v-.799H184.201V198c0 13.776 11.168 24.943 24.944 24.943h83.71c13.776 0 24.944-11.167 24.944-24.943Z" stroke="#101820" stroke-width="1.598"/><path d="M295.007 196.707c-9.49.039-18.994.439-28.451.472-4.827 0-19.942.301-19.942.301s-15.116-.288-19.936-.301c-9.438-.033-18.993-.426-28.451-.472-5.141 0-10.275.053-15.384.347-12.771.747-18.914-11.919-24.658-22.051-1.585-2.797-3.746-5.187-5.816-7.591l30.854.053c10.479 0 21.115 1.015 31.594 1.08 12.201.079 31.797.452 31.797.452s19.602-.373 31.797-.452c10.478-.065 21.114-1.054 31.6-1.08l30.847-.046c-2.076 2.403-4.231 4.787-5.816 7.584-5.737 10.132-11.88 22.798-24.651 22.051-5.109-.294-10.263-.373-15.384-.347Z" fill="#535867"/><path d="M348.363 79.186s-16.517.87-24.605.654c-8.934-.242-17.867-.91-26.813-.432-10.689.57-21.541-.32-32.282-.13-4.368.078-13.675.248-18.043.261-4.368.013-13.675-.183-18.05-.262-10.734-.19-21.613.701-32.281.131-8.947-.478-17.873.19-26.807.433-8.095.216-24.612-.655-24.612-.655s-21.174 11.821-30.088 15.502c-11.271 4.656-21.999 10.957-33.787 14.159-5.056 1.376-9.824 4.736-14.658 6.805-5.894 2.535-11.985 4.696-17.925 7.204-10.42 4.415-21.05 7.859-31.253 12.785a46.58 46.58 0 0 0-6.969 4.244l-.098.072c21.089 0 156.364-.197 204.574-.42 4.759-.026 9.518-.083 14.277-.17a1719.15 1719.15 0 0 1 17.684-.268s7.073.059 17.683.268c4.759.092 9.52.149 14.284.17 48.209.223 183.485.393 204.567.42l-.098-.072a46.345 46.345 0 0 0-6.968-4.244c-10.198-4.945-20.834-8.37-31.254-12.785-5.933-2.508-11.998-4.669-17.925-7.204-4.834-2.069-9.595-5.429-14.651-6.805-11.789-3.202-22.516-9.503-33.794-14.16-8.921-3.68-30.108-15.501-30.108-15.501Z" fill="#BDBDBC"/><path d="m340.858 167.418-30.847.046c-10.479 0-21.115 1.015-31.601 1.08-12.194.079-31.796.452-31.796.452s-19.596-.373-31.797-.452c-10.479-.065-21.109-1.054-31.594-1.08l-30.854-.053c-37.672-.052-97.978-.144-114.174-.144-23.276 0-37.81-9.477-37.154-14.71.733-5.894 4.663-9.437 9.05-12.6 21.083 0 156.359-.197 204.569-.42 4.759-.026 9.52-.083 14.284-.17 10.596-.209 17.683-.268 17.683-.268s7.079.059 17.683.268c4.755.092 9.514.149 14.277.17 48.21.223 183.486.393 204.574.42 4.382 3.163 8.318 6.693 9.052 12.6.655 5.24-13.878 14.71-37.155 14.71-16.216 0-76.528.085-114.2.151Z" fill="#9A9A99"/><path opacity=".92" d="M335.194 41.856c5.331 7.204 13.171 18.993 13.171 37.33 0 0-16.518.872-24.613.655-8.933-.242-17.86-.91-26.806-.432-10.688.57-21.547-.32-32.282-.13-4.374.078-13.674.248-18.049.261-4.375.013-13.675-.183-18.044-.262-10.741-.19-21.612.701-32.281.131-8.947-.478-17.88.19-26.813.432-8.089.217-24.606-.654-24.606-.654 0-18.338 7.859-30.127 13.171-37.331 14.015-18.993 32.609-30.297 54.569-36.284a128.753 128.753 0 0 1 68.008 0c21.966 5.987 40.553 17.31 54.575 36.284Z" fill="#fff"/><path d="M144.87 79.186s-21.174 11.821-30.087 15.502c-11.272 4.656-22 10.957-33.788 14.159-5.056 1.376-9.824 4.736-14.657 6.805-5.895 2.535-11.992 4.696-17.926 7.204-10.42 4.415-21.05 7.859-31.253 12.785a46.58 46.58 0 0 0-6.969 4.244c-4.42 3.182-8.409 6.719-9.169 12.672-.655 5.24 13.878 14.71 37.154 14.71 23.277 0 137.673.184 145.028.197 10.479 0 21.115 1.015 31.601 1.08 12.195.079 31.797.452 31.797.452" stroke="#101820" stroke-width="1.75" stroke-linecap="round" stroke-linejoin="round"/><path d="M10.092 139.957c21.089 0 156.364-.197 204.574-.42 4.759-.026 9.518-.083 14.277-.17a1719.15 1719.15 0 0 1 17.684-.268M144.871 79.186c0-18.338 7.859-30.127 13.171-37.33 14.015-18.994 32.609-30.298 54.575-36.284A126.084 126.084 0 0 1 246.621 1M144.871 79.186s16.517.87 24.612.654c8.927-.242 17.86-.91 26.807-.432 10.688.57 21.54-.32 32.281-.13 4.375.078 13.675.248 18.05.261M152.369 167.412c2.076 2.404 4.238 4.794 5.822 7.591 5.738 10.132 11.881 22.798 24.652 22.051 14.533-.845 29.275.072 43.835.125 4.826 0 19.942.301 19.942.301M19.498 153.207h3.93" stroke="#101820" stroke-width="1.75" stroke-linecap="round" stroke-linejoin="round"/><path d="M43.73 153.207h188.809" stroke="#101820" stroke-width="1.75" stroke-linecap="round" stroke-linejoin="round" stroke-dasharray="2.62 6.56"/><path d="M242.691 153.207h3.93M348.364 79.186s21.174 11.821 30.088 15.502c11.271 4.656 21.999 10.957 33.788 14.159 5.062 1.376 9.824 4.736 14.657 6.805 5.895 2.535 11.992 4.696 17.926 7.204 10.42 4.415 21.056 7.859 31.253 12.785a46.295 46.295 0 0 1 6.968 4.244c4.421 3.182 8.41 6.719 9.169 12.672.655 5.24-13.878 14.71-37.154 14.71-23.276 0-137.673.184-145.028.197-10.479 0-21.115 1.015-31.593 1.08-12.202.079-31.797.452-31.797.452" stroke="#101820" stroke-width="1.75" stroke-linecap="round" stroke-linejoin="round"/><path d="M483.142 139.957c-21.082 0-156.358-.197-204.567-.42-4.76-.026-9.521-.083-14.284-.17a1719.15 1719.15 0 0 0-17.684-.268M348.365 79.186c0-18.338-7.86-30.127-13.171-37.33-14.016-18.994-32.609-30.298-54.575-36.284A126.03 126.03 0 0 0 246.621 1M348.365 79.186s-16.518.87-24.606.654c-8.933-.242-17.867-.91-26.813-.432-10.688.57-21.541-.32-32.282-.13-4.368.078-13.675.248-18.043.261M340.866 167.412c-2.077 2.404-4.231 4.794-5.816 7.591-5.744 10.132-11.887 22.798-24.658 22.051-14.533-.845-29.276.072-43.835.125-4.82 0-19.936.301-19.936.301M473.738 153.207h-3.929" stroke="#101820" stroke-width="1.75" stroke-linecap="round" stroke-linejoin="round"/><path d="M449.506 153.207H260.702" stroke="#101820" stroke-width="1.75" stroke-linecap="round" stroke-linejoin="round" stroke-dasharray="2.62 6.56"/><path d="M250.551 153.207h-3.93" stroke="#101820" stroke-width="1.75" stroke-linecap="round" stroke-linejoin="round"/><path d="M169.444 60.186a63.87 63.87 0 0 1 4.401-6.654c10.597-14.35 24.966-23.833 43.933-29.007a109.124 109.124 0 0 1 57.634 0" stroke="#fff" stroke-width="1.75" stroke-linecap="round" stroke-linejoin="round"/><path d="m94.087 124.036 61.806-32.563M144.93 123.099l41.201-29.649M195.778 122.162l20.598-26.734M246.621 121.233V97.406M399.147 124.036l-61.799-32.563M348.306 123.099 307.104 93.45M297.464 122.162l-20.605-26.734" stroke="#101820" stroke-width="1.75" stroke-linecap="round" stroke-linejoin="round"/></svg>