<svg width="163" height="58" fill="none" xmlns="http://www.w3.org/2000/svg"><path d="M155.373 29.205c3.449 2.037 6.559 5.672 6.25 10.11-.242 3.43-3.693 7.005-6.068 9.078-6.753 5.868-11.906 5.013-24.722 6.612-3.52.44-17.028.91-20.383 1-4 .105-14.075.055-15.112.129-4.221.306-8.74-.792-13.015-.739-2.556.032-5.105.375-7.65.311-2.256-.055-4.486-.48-6.754-.472-3.446 0-7.124.528-10.553.28-.528-.037-3.868-.356-5.066-.354-8.244.027-16.47-.633-24.75-.374-4.096.129-20.269-.177-23.435-2.148-1.14-.71-2.783-3.74-2.936-4.11-1.084-2.607 4.9-7.364 6.86-8.179.738-.306 2.923-.804 3.292-.957.736-.306 5.675-.853 6.174-.927 3.329-.498 7.123-.319 10.553-.28 1.086 0 5.16.845 5.16.845s-3.11-5.699-3.203-6.986c.003-1.13.082-2.26.238-3.38.688-3.511 4.192-5.833 7.429-6.775 5.846-1.701 12.42-1.925 18.204-.593 1.477.34 4.115 1.358 5.442 2.248.412.263 3.055 2.419 3.055 2.419s.143-2.739.238-3.377c.235-1.583 2.725-7.62 3.678-8.907 5.086-6.91 12.848-11.305 21.4-12.582 1.753-.263 5.351.792 7.048 1.172 8.687 2.002 16.678 7.587 20.103 15.83.306.735.979 10.249.979 10.249s6.859-3.082 7.896-3.694c.765-.453 3.599-1.496 4.195-1.74 4.139-1.721 8.738-.37 13.299.682 4.118.958 8.58 3.496 12.154 5.61Z" fill="#3C476D"/><path d="M1.184 48.527c-.905-2.198 3.124-5.72 5.066-7.11 2.303-1.625 2.604-1.185 5.295-2.09 1.263-.322 7.186-1.023 7.957-1.076 2.846-.216 8.637-.082 9.178 0 1.517.195 3.02.493 4.52.791-1.035-1.91-2.457-4.614-3.148-6.685-.048-.314-.106-.156 0-1.942.13-1.91.316-3.567 2.374-5.572 2.412-2.374 5.54-3.105 8.427-3.693 5.894-1.124 12.95-1.01 18.388 1.34 2.013.881 2.298 1.214 5.121 3.498.19-3.535.193-3.508.72-5.084a54.027 54.027 0 0 1 2.48-5.949c1.9-3.693 7.44-9.015 14.822-11.898 2.044-.81 6.595-2.16 8.761-1.934 2.166.227 8.26 1.675 11.181 3.01 6.158 2.496 11.756 7.535 14.511 13.983.332 1.074.86 8.58.986 10.268 14.284-6.432 13.147-7.593 24.976-4.847 4.127.9 8.303 3.187 11.997 5.356 3.957 2.206 7.157 5.976 6.835 10.455a9.325 9.325 0 0 0-.86-3.108c-1.319-2.704-3.693-4.32-6.129-5.498-3.814-1.64-8.212-3.693-12.55-4.17-3.2-.43-7.352-1.272-10.173.039l-.496.248c-.82.39-1.997.926-2.902 1.406-.2.106-.733.401-.498.309l-.087.055-.552.325c-1.878 1.079-5.569 3.026-7.49 4.034a4.824 4.824 0 0 1-7.02-3.636c-1.113-8.817-1.335-9.587-1.319-9.56l-.037-.186-.045-.153c.048.282.13.557.245.818a19.86 19.86 0 0 0-2.081-3.33c-1.828-2.352-4.944-4.748-6.952-5.74-.528-.214-1.873-1.272-7.292-2.657l-1.947-.446a21.436 21.436 0 0 0-2.834-.506h-.195a.336.336 0 0 1-.07 0c.107.01.217.005.324-.016l-.892.169c-3.496.54-8.287 2.496-12.083 5.574a25.277 25.277 0 0 0-4.09 4.14l-.079.1a1.2 1.2 0 0 0 .114-.171c-1.385 2.305-2.768 6.347-2.76 6.331.02-.086.031-.175.032-.263 0 .026-.05.448-.048.422-.09.963-.163 2.01-.21 2.662-.368 5.152-6.433 7.595-10.29 4.337l-2.638-2.23c.026.02.053.038.119.077-.378-.364-2.67-1.35-3.43-1.54l-.768-.19a31.355 31.355 0 0 0-6.448-.792 34.565 34.565 0 0 0-8.178.834c-3.535.883-4.1 2.514-4.145 2.553 0 .027-.018-.28-.206 1.124 0 .027-.126 1.056-.121.995l-.013.13v.047c-.001-.21-.036-.419-.103-.618 0 0 0 .019-.016.037.042.122.032.499 1.105 3.098.636 1.551 1.293 2.991 1.422 3.284a3.83 3.83 0 0 1-4.519 5.242c-4.88-1.337-4.403-1.142-4.395-1.168-.016-.016-.544-.06-.528-.058l-3.43-.346c-4.458-.464-6.397-.32-6.381-.32l-2.451.051c-1.937.045-3.25.127-3.219.124.032-.003.021 0 .04-.037.018-.037-.23.071-.222.069l-.15.034c-1.367.24-1.976.288-2.937.47-1.609.313-6.582 3.305-7.474 5.685-.14.347-.173.728-.095 1.095Z" fill="#3C476D"/><path d="M161.624 39.31c-.32 4.382-6.195 9.761-9.904 11.806-3.203 1.794-6.504 2.316-10.15 2.74-25.248 2.903-40.457 1.974-47.556 2.322-3.536.032-7.023-.675-10.553-.775-3.475-.116-6.823.564-10.577.192-5.07-.44-3.43-.49-10.553-.116-5.844.306-7.345-.377-10.572-.324-7.054 0-13.858-.478-21.171-.43-.792 0-18.531.4-25.04-1.525-1.353-.388-1.704-.726-2.226-1.32a18.708 18.708 0 0 1-2.111-3.345c.264.36.57.694.865 1.027 1.847 2.11 2.327 2.137 2.417 2.213 1.738.879 13.32-.081 15.632-.295 13.658-1.153 4.157-.99 26.493-1.92a314.12 314.12 0 0 0 5.864-.241h.903c4.588.032 3.902.372 8.63-.069 4.426-.432 6.402-.411 6.376-.411 4.1.013 4.588.572 9.403.235 5.012-.33 5.41-.44 11.653.264 4.324.488 6.482.327 6.456.327 14.821.205 1.02.124 24.361.474 4.749.109 9.218.135 9.057.132 1.617 0 2.071-.068 3.878-.116 7.678-.264 12.606.465 17.304-1.271 2.42-.873 5.968-3.103 8.29-5.335 1.205-1.171 2.306-2.504 2.831-4.24Z" fill="#596386"/><path d="M27.557 54.786c8.278-.264 16.504.401 24.749.375 1.198 0 4.532.316 5.065.353 3.43.24 7.097-.263 10.553-.28 2.256 0 4.498.418 6.754.473 2.554.063 5.102-.28 7.651-.311 4.274-.058 8.783 1.055 13.014.738 1.037-.074 11.113-.023 15.112-.129 3.356-.09 16.864-.56 20.383-1 12.817-1.61 17.969-.744 24.723-6.611 2.375-2.074 5.823-5.643 6.068-9.078.309-4.438-2.802-8.073-6.25-10.11-3.575-2.11-8.036-4.651-12.167-5.604-4.562-1.055-9.16-2.403-13.3-.683-.596.245-3.43 1.287-4.195 1.741-1.026.61-7.896 3.694-7.896 3.694s-.683-9.516-.984-10.252c-3.43-8.245-11.416-13.83-20.103-15.83C95.037 1.88 91.439.837 89.7 1.098 81.147 2.375 73.385 6.77 68.275 13.685c-.952 1.288-3.443 7.321-3.678 8.907-.095.638-.237 3.377-.237 3.377s-2.638-2.145-3.055-2.42c-1.32-.889-3.958-1.907-5.443-2.247-5.778-1.32-12.352-1.108-18.204.593-3.237.942-6.74 3.264-7.429 6.775a25.023 25.023 0 0 0-.237 3.38c.092 1.287 3.202 6.986 3.202 6.986s-4.073-.834-5.16-.844c-3.409-.04-7.21-.22-10.54.28-.498.073-5.437.62-6.173.925-.37.153-2.554.652-3.293.958-1.95.81-7.933 5.567-6.86 8.179.154.369 1.798 3.4 2.937 4.11 3.182 1.968 19.354 2.272 23.452 2.142Z" stroke="#101820" stroke-width="2.111" stroke-linecap="round" stroke-linejoin="round"/></svg>