<svg width="142" height="50" fill="none" xmlns="http://www.w3.org/2000/svg"><path d="M6.443 25.398c-2.989 1.766-5.685 4.917-5.417 8.763.21 2.973 3.201 6.071 5.26 7.868 5.853 5.086 10.32 4.345 21.428 5.73 3.05.383 14.758.79 17.667.868 3.466.091 12.199.048 13.098.112 3.658.265 7.576-.686 11.28-.64 2.216.027 4.425.324 6.631.27 1.955-.049 3.888-.417 5.854-.41 2.987 0 6.174.457 9.147.242.457-.032 3.352-.308 4.39-.306 7.146.023 14.276-.549 21.452-.325 3.551.112 17.568-.153 20.312-1.861.988-.615 2.413-3.243 2.545-3.563.94-2.26-4.246-6.382-5.945-7.089-.64-.265-2.534-.697-2.854-.83-.638-.265-4.919-.738-5.351-.802-2.886-.432-6.174-.277-9.146-.243-.943 0-4.473.732-4.473.732s2.696-4.94 2.776-6.055a21.744 21.744 0 0 0-.206-2.93c-.597-3.043-3.634-5.055-6.439-5.871-5.068-1.475-10.766-1.67-15.778-.515-1.28.295-3.568 1.178-4.718 1.948-.356.229-2.648 2.097-2.648 2.097s-.123-2.373-.206-2.927c-.203-1.372-2.362-6.604-3.187-7.72-4.409-5.988-11.136-9.798-18.55-10.905-1.518-.228-4.637.686-6.107 1.016-7.53 1.735-14.457 6.576-17.425 13.72-.265.638-.848 8.883-.848 8.883s-5.946-2.67-6.844-3.201c-.663-.393-3.12-1.297-3.636-1.51-3.588-1.49-7.573-.32-11.527.593-3.57.83-7.436 3.03-10.535 4.861Z" fill="#3C476D"/><path d="M140.086 42.146c.784-1.905-2.707-4.957-4.39-6.163-1.997-1.408-2.257-1.026-4.59-1.81-1.095-.28-6.229-.888-6.896-.934-2.468-.187-7.487-.07-7.956 0-1.314.17-2.618.428-3.917.687.897-1.656 2.129-4 2.728-5.795.041-.272.092-.135 0-1.683-.112-1.655-.274-3.092-2.058-4.83-2.09-2.057-4.802-2.69-7.303-3.2-5.109-.975-11.226-.877-15.938 1.16-1.745.765-1.992 1.053-4.439 3.033-.165-3.064-.167-3.041-.624-4.406a46.813 46.813 0 0 0-2.15-5.157c-1.646-3.201-6.448-7.813-12.846-10.313-1.772-.702-5.717-1.873-7.594-1.676-1.878.197-7.16 1.452-9.691 2.61-5.337 2.162-10.19 6.53-12.577 12.119-.288.93-.745 7.436-.855 8.9-12.38-5.576-11.395-6.582-21.648-4.201-3.576.78-7.196 2.762-10.398 4.642C3.514 27.04.741 30.308 1.02 34.19c.09-.935.342-1.846.745-2.694 1.143-2.344 3.201-3.746 5.312-4.765 3.306-1.423 7.118-3.202 10.878-3.616 2.773-.372 6.373-1.102 8.817.035l.43.215c.711.338 1.731.802 2.515 1.218.174.092.636.348.433.268l.075.048.478.281c1.628.935 4.827 2.623 6.492 3.496a4.182 4.182 0 0 0 6.085-3.15c.965-7.643 1.157-8.31 1.143-8.287l.032-.16.039-.133a2.986 2.986 0 0 1-.213.709 17.217 17.217 0 0 1 1.804-2.886c1.585-2.04 4.286-4.116 6.026-4.976.457-.185 1.623-1.102 6.32-2.303l1.688-.386a18.583 18.583 0 0 1 2.456-.439h.169c.02.002.041.002.062 0a.996.996 0 0 1-.282-.014l.773.147c3.03.468 7.183 2.163 10.473 4.831a21.9 21.9 0 0 1 3.544 3.588l.07.087a1.051 1.051 0 0 1-.1-.149c1.201 1.999 2.4 5.502 2.393 5.488a.994.994 0 0 1-.028-.228c0 .023.044.389.041.366.078.834.142 1.742.183 2.307.318 4.466 5.575 6.583 8.918 3.76l2.287-1.933a1.451 1.451 0 0 1-.103.066c.327-.315 2.314-1.17 2.973-1.335l.665-.165a27.17 27.17 0 0 1 5.589-.686c2.383-.042 4.763.2 7.089.723 3.064.766 3.553 2.179 3.592 2.213 0 .023.016-.242.178.974 0 .023.11.915.105.863l.012.112v.04c.001-.181.031-.362.089-.534 0 0 0 .016.014.032-.037.105-.028.432-.958 2.684-.551 1.345-1.121 2.593-1.233 2.847a3.323 3.323 0 0 0 2.07 4.519 3.319 3.319 0 0 0 1.847.025c4.231-1.16 3.817-.99 3.81-1.013a5.52 5.52 0 0 1 .457-.05l2.973-.3c3.864-.403 5.545-.277 5.531-.277l2.125.044c1.678.038 2.817.11 2.789.107-.027-.002-.018 0-.034-.032-.016-.032.199.062.192.06l.131.03c1.184.207 1.712.248 2.545.406 1.394.272 5.705 2.866 6.478 4.928.121.301.15.632.082.95Z" fill="#3C476D"/><path d="M1.027 34.156c.276 3.798 5.369 8.461 8.584 10.233 2.776 1.555 5.636 2.008 8.797 2.376 21.883 2.515 35.066 1.71 41.22 2.012 3.063.028 6.086-.585 9.146-.672 3.012-.1 5.913.49 9.167.167 4.395-.382 2.973-.425 9.147-.1 5.065.265 6.366-.328 9.163-.282 6.114 0 12.012-.414 18.35-.373.686 0 16.062.348 21.703-1.321 1.173-.337 1.477-.63 1.93-1.144.711-.899 1.324-1.87 1.829-2.9-.228.312-.493.602-.75.89-1.6 1.83-2.016 1.852-2.094 1.919-1.507.761-11.546-.071-13.549-.256-11.838-1-3.604-.858-22.963-1.665a272.15 272.15 0 0 1-5.083-.208h-.782c-3.976.027-3.382.322-7.48-.06-3.837-.375-5.55-.356-5.526-.356-3.554.011-3.977.496-8.15.203-4.345-.286-4.69-.382-10.1.229-3.748.423-5.619.284-5.596.284-12.846.178-.885.107-21.115.411-4.116.094-7.99.117-7.85.114-1.402 0-1.795-.06-3.362-.1-6.654-.229-10.925.402-14.998-1.102-2.097-.757-5.172-2.69-7.185-4.624-1.045-1.015-1.998-2.17-2.453-3.675Z" fill="#596386"/><path d="M117.229 47.57c-7.176-.229-14.306.347-21.452.325-1.038 0-3.928.274-4.39.306-2.973.208-6.151-.229-9.147-.242-1.955 0-3.898.36-5.854.409-2.213.055-4.422-.242-6.631-.27-3.704-.05-7.612.915-11.28.64-.899-.064-9.632-.02-13.098-.112-2.909-.078-14.617-.484-17.667-.866-11.109-1.395-15.575-.645-21.429-5.73-2.058-1.798-5.046-4.892-5.259-7.87-.267-3.845 2.429-6.996 5.417-8.762 3.099-1.83 6.965-4.031 10.546-4.857 3.954-.914 7.94-2.083 11.527-.592.517.213 2.973 1.116 3.636 1.51.89.527 6.844 3.2 6.844 3.2s.593-8.247.853-8.885C42.818 8.628 49.74 3.787 57.27 2.054c1.47-.341 4.59-1.244 6.096-1.018 7.413 1.107 14.14 4.916 18.57 10.91.826 1.116 2.984 6.345 3.188 7.72.082.553.206 2.927.206 2.927s2.286-1.86 2.648-2.097c1.143-.771 3.43-1.654 4.717-1.949 5.008-1.143 10.706-.96 15.778.515 2.806.816 5.842 2.828 6.439 5.872.135.97.204 1.95.206 2.93-.08 1.115-2.776 6.054-2.776 6.054s3.531-.722 4.473-.731c2.954-.035 6.249-.19 9.135.242.432.064 4.713.537 5.351.803.32.132 2.213.565 2.854.83 1.69.702 6.876 4.825 5.945 7.088-.133.32-1.557 2.948-2.545 3.563-2.758 1.706-16.775 1.969-20.326 1.857Z" stroke="#101820" stroke-width="1.829" stroke-linecap="round" stroke-linejoin="round"/></svg>