<svg width="242" height="105" fill="none" xmlns="http://www.w3.org/2000/svg"><path d="M3.228 68.788c-.121-.14-2.925-3.37-3.649-4.58-2.667-4.487-3.897-8.673-3.853-13.685.077-7.976 6.915-13.67 12.263-18.362 2.821-2.475 5.874-5.78 9.748-6.874 6.391-1.796 17.397-1.144 23.45.937 1.66.572 3.355 2.11 4.947 2.892 3.586 1.758 7.315 3.557 10.89 5.632 2.762 1.616 10.427 9.767 10.427 9.767s4.758-13.386 7.277-17.699c6.666-11.402 17.731-21.65 30.646-24.85 7.277-1.806 16.154-.048 23.449.936 5.219.703 10.543 1.455 15.609 2.99 11.497 3.49 23.531 14.229 29.617 24.455 3.634 6.1 5.474 14.473 6.337 20.956l.794 5.978s7.28-2.783 8.703-3.186c3.604-1.014 7.707-1.186 11.391-2.022 8.655-1.962 24.442 7.606 30.154 13.226 1.532 1.509 5.928 7.544 6.74 8.738 1.992 2.94 2.964 14.171 2.552 15.378-2.522 7.327-7.929 12.716-15.911 13.777-2.502.332-26.253.916-34.977.089-3.767-.356-7.365.219-11.091.462-5.012.332-25.85-1.482-31.123-1.434-25.948.204-52.168-.122-78.178-.753-15.896-.388-32.042 1.153-47.923 1.814-21.025.874-41.907.447-62.839.249-3.557-.036-27.157.851-27.495-8.51-.154-4.277 6.921-7.464 9.035-8.3 4.552-1.802 9.707-3.032 14.82-2.984 2.371.023 8.667.367 8.667.367s-1.778-5.786-2.057-7.837c-.89-6.595 5.238-10.884 9.802-13.979 1.24-.841 4.743-2.154 5.282-2.225 6.572-.875 12.642.361 18.73 3.592 2.06 1.09 7.591 4.926 7.766 5.045Z" fill="#3C476D"/><path d="M-68.813 95.109c-.062-5.164 9.215-8.685 14.227-10.013 6.744-1.76 10.413-1.298 18.283-.907-2.004-6.55-2.478-8.643-1.924-11.068.798-3.663 3.854-6.52 6.844-8.762 2.991-2.24 3.723-2.623 6.56-3.708 2.107-.78 1.6-.418 2.75-.64l.946-.071c11.092-.658 18.081 4.55 24.347 8.848A90.5 90.5 0 0 1 .991 66.12a24.344 24.344 0 0 1-5.234-16.17C-3.8 41.38 4.23 35.656 9.53 30.756c5.02-4.603 7.291-6.177 15.526-6.48 7.217-.263 13.901 1.047 16.302 2.014 1.642.613 2.857 1.89 5.24 3.055 8.232 4.05 10.428 5.422 10.399 5.404.358.273.592.234 3.05 2.437 2.217 1.994 5.335 5.172 7.392 7.339 2.297-6.39 5.32-14.492 8.136-19.104 7.221-11.587 18.905-21.756 32.505-23.965 6.704-.853 13.886.501 20.683 1.432 6.483.89 14.248 1.947 20.177 4.722 8.699 3.987 18.181 11.856 24.827 22.278 5.658 8.626 6.93 24.228 7.41 27.388l7.155-2.667c4.399-1.572 7.977-1.5 12.467-2.443 8.531-2.181 23.529 6.684 29.736 12.292 2.028 1.779 3.824 4.402 6.423 7.876 1.186 1.639 1.93 2.395 2.626 5.715l.261 1.244c.46 2.398 1.186 7.707.872 10.114.044-1.482-.231-3.172-.569-5.04-1.411-7.833-3.047-9.727-3.006-9.665a42.821 42.821 0 0 0-.483-.593c-1.636-1.938-3.922-4.692-5.777-6.622-3.898-4.129-17.325-11.438-25.468-11.986-1.92-.077-2.424.062-3.479.326-11.629 2.54-7.778 1.005-19.077 5.845a4.579 4.579 0 0 1-5.994-2.434c-.524-1.239-1.087-6.562-2.193-11.328-2.318-10.395-5.291-14.169-5.475-14.575-3.88-6.459-13.377-15.65-22.98-19.758-2.914-1.186-5.481-1.832-8.564-2.422-4.529-.86-17.98-2.434-19.915-2.594-8.335-.758-11.56.673-11.519.664a34.43 34.43 0 0 0-8.747 4.028C86.21 20.491 80.796 31.127 80.814 31.096c-2.768 5.528-6.485 15.962-6.473 15.932a7.375 7.375 0 0 1-12.263 2.535c-6.865-7.168-8.4-8.261-8.37-8.235l-.282-.219-.068-.056c-.033-.027-1.127-.676-1.053-.632-3.556-2.075-9.568-5.009-9.538-4.994-1.805-1.02-3.975-2.505-4.005-2.529-.03-.023 0 0 .045.015h.044l-.438-.145c-4.242-1.598-14.794-2.345-19.338-.89-1.34.318-4.167 2.808-5.143 3.664-3.097 2.695-9.21 7.494-11.014 10.994-.015.03-.424.8-.397.753-.389 1.138-1.08 1.912-.866 5.555.323 5.17 2.647 8.26 2.626 8.563l.036.065.06.098c.808 1.254 3.141 4.132 3.108 4.09a5.243 5.243 0 0 1-7.214 7.485c-6.337-4.627-7.135-5.04-7.114-5.04a28.9 28.9 0 0 0-7.636-3.191c-5.584-1.36-9.375-.347-7.916-.715-.867.23-1.72.506-2.556.827-1.576.593-1.938.907-1.909.89-10.098 6.36-9.277 7.89-6.915 17.805a2.45 2.45 0 0 1-2.644 3.011c-8.66-.922-12.994-1.835-22.144.77-3.812 1.071-9.954 3.662-10.25 7.607Z" fill="#3C476D"/><path d="M240.72 89.415c-2.282 6.557-6.835 11.628-13.682 13.338-2.119.522-2.89.593-9.93.78-29.196.747-24.936-.963-34.908-.074-4.446.373-4.028.522-14.951-.083-35.838-2.173 7.411.018-99.777-1.853-27.27-.391-28.396 2.964-99.759 2.191-10.208-.098-35.987 1.405-36.524-8.596 1.518 8.581 21.982 5.878 31.568 5.273 129.32-6.69 52.038-7.398 184.512-4.594l1.416.047c3.332.098 13.282 1.207 26.215 2.422 6.841.477 6.633-.181 12.265.053 2.875.128 3.919.501 7.653.812 15.728 1.414 29.549 1.82 29.517 1.82.738-.016 1.475-.08 2.205-.189 6.082-.89 10.795-4.9 13.605-10.235l.575-1.112Z" fill="#596386"/><path d="M-41.316 103.619c20.932.198 41.814.625 62.839-.249 15.881-.661 32.027-2.202 47.923-1.814 26.019.631 52.23.957 78.178.753 5.27-.042 26.108 1.778 31.123 1.434 3.726-.243 7.324-.818 11.091-.462 8.721.827 32.472.243 34.977-.089 7.982-1.061 13.388-6.45 15.911-13.777.415-1.206-.56-12.45-2.552-15.378-.809-1.185-5.208-7.23-6.741-8.738-5.711-5.632-21.498-15.188-30.153-13.226-3.673.833-7.787 1.008-11.391 2.022-1.423.403-8.703 3.186-8.703 3.186l-.794-5.978c-.863-6.483-2.703-14.856-6.337-20.956-6.086-10.218-18.12-20.965-29.618-24.454-5.065-1.536-10.374-2.288-15.608-2.99-7.301-.985-16.178-2.743-23.455-.938-12.915 3.202-23.98 13.449-30.66 24.866-2.52 4.313-7.278 17.699-7.278 17.699s-7.665-8.151-10.427-9.767c-3.575-2.075-7.304-3.889-10.89-5.632-1.592-.782-3.288-2.32-4.947-2.893-6.053-2.075-17.059-2.732-23.45-.936-3.853 1.088-6.912 4.398-9.73 6.873C2.656 36.868-4.194 42.55-4.271 50.538c-.047 5.012 1.186 9.189 3.853 13.685.738 1.236 3.652 4.583 3.652 4.583s-5.676-3.94-7.769-5.04c-6.088-3.23-12.152-4.466-18.73-3.592-.527.071-4.043 1.384-5.282 2.226-4.564 3.095-10.67 7.384-9.802 13.979.273 2.051 2.057 7.837 2.057 7.837s-6.305-.344-8.667-.368c-5.107-.047-10.262 1.186-14.82 2.985-2.114.84-9.19 4.025-9.035 8.3.34 9.337 23.944 8.45 27.498 8.486Z" stroke="#101820" stroke-width="1.75" stroke-linecap="round" stroke-linejoin="round"/></svg>