<svg width="72" height="109" viewBox="0 0 72 109" fill="none" xmlns="http://www.w3.org/2000/svg">
<path d="M26.016 67.5996C28.5852 67.9739 30.4632 68.7957 32.5179 70.3407L34.5892 71.9754C35.5463 73.6681 39.0302 73.6823 40.6395 73.0647C41.7173 72.6511 42.6448 71.6441 42.8121 70.4958C43.0806 68.6528 43.0954 66.7402 43.2319 64.8833C43.3533 63.2313 43.6024 61.5964 43.7235 59.9492C43.9667 56.6399 44.2934 53.3637 44.7357 50.076C45.2301 46.4015 46.7119 42.9352 47.7974 39.4082C48.6457 36.6518 49.3746 33.9293 49.5866 31.046C49.9324 26.3418 50.4066 21.6451 50.7521 16.9444C50.9144 14.7362 50.7702 12.4235 49.7275 10.4235C49.3507 9.70071 48.9672 8.83143 48.4294 8.20824C48.2913 8.04821 47.7915 8.10406 47.6073 8.09051L45.9975 7.97217C45.6431 7.94612 45.2988 8.15939 44.9529 8.1532C43.098 8.12003 41.3523 10.0574 39.7335 10.7631C39.3381 10.9355 38.9006 11.4553 38.5656 11.7443C38.1999 12.06 37.9051 12.3979 37.5885 12.7611C36.9054 13.5449 36.1777 14.4257 35.3574 15.0535C33.5515 16.4357 31.5813 17.5775 29.5014 18.4331C27.6927 19.1771 25.9107 20.0759 23.9973 20.4348C21.7972 20.8474 19.4417 20.7158 17.1995 20.551C15.0129 20.3902 13.1079 19.393 12.1091 17.4124C11.3867 15.9798 11.3232 14.4557 10.7963 12.9615C10.5048 12.135 10.0154 11.3837 9.57826 10.6304C8.916 9.48913 8.40714 8.1654 7.93054 6.9356C7.90279 6.86399 7.46176 5.5101 7.46029 6.22067C7.45731 7.65934 7.50122 9.09883 7.52972 10.5371C7.58857 13.5079 7.61935 16.5338 7.88111 19.4936C8.20142 23.1154 8.93834 26.6818 9.22047 30.3059C9.7576 37.2056 10.0984 44.0762 10.0915 50.9956C10.0867 55.883 10.2571 60.8916 10.0407 65.7162C9.94555 67.8379 9.97907 70.0379 10.2772 72.1433C10.3337 72.5417 11.2826 71.4383 11.4982 71.3164C12.162 70.941 12.722 70.4093 13.4046 70.0313C14.1096 69.641 14.8637 69.3535 15.5979 69.0324C17.3139 68.282 18.7699 67.3666 20.6422 67.1473C22.3496 66.9473 24.3249 67.3532 26.016 67.5996Z" fill="white" stroke="#101820" stroke-width="1.75" stroke-linecap="round"/>
<path d="M47.0863 86.0523C44.1208 85.8343 41.6902 85.633 39.9155 83.3437C30.2212 70.8381 36.4662 8.40998 48.6043 3.71592C49.4838 3.37577 50.7896 3.28053 51.7068 3.34795C69.6969 4.67042 66.1986 60.6581 64.9192 78.0624L64.919 78.0648C64.7404 80.4953 64.5976 82.4371 63.5785 84.6704C62.6178 86.7759 60.6121 86.2506 58.7557 86.1142C54.8184 85.8247 51.0003 86.34 47.0863 86.0523Z" fill="white" stroke="#101820" stroke-width="1.75" stroke-linecap="round"/>
<path d="M43.0182 106.956C42.4899 107.036 41.9038 107.118 41.3782 107.065C40.7491 107.001 42.0946 100.918 42.3033 100.318C42.5444 99.625 43.4305 98.6646 43.9196 98.5331C48.1957 97.3834 53.9675 97.4936 58.2704 98.2975C60.532 98.72 60.7591 103.941 61.3846 106.198C61.414 106.304 61.7952 107.264 61.4787 107.151C56.3796 105.338 50.2073 105.971 44.9608 106.64C44.3102 106.723 43.6652 106.857 43.0182 106.956Z" fill="white" stroke="#101820" stroke-width="1.75" stroke-linecap="round"/>
<path d="M41.1357 99.4875C40.4784 99.5467 39.7489 99.6049 39.0916 99.5438C38.3047 99.4706 39.8284 94.0189 40.0736 93.4829C40.3567 92.8639 41.4381 92.0204 42.0452 91.9143C47.3529 90.9868 54.5596 91.2339 59.9506 92.069C62.7842 92.5079 63.2013 97.2223 64.0397 99.2741C64.0791 99.3705 64.5795 100.246 64.1816 100.136C57.7709 98.3706 50.0833 98.7837 43.5521 99.2522C42.7423 99.3103 41.9407 99.4151 41.1357 99.4875Z" fill="white" stroke="#101820" stroke-width="1.75" stroke-linecap="round"/>
<path d="M41.9732 92.6152C41.3728 92.6687 40.7064 92.7213 40.1059 92.6655C39.387 92.5987 40.7768 87.6478 41.0006 87.1611C41.259 86.599 42.2466 85.8333 42.8012 85.7372C47.6496 84.8969 54.2335 85.1242 59.1588 85.8848C61.7476 86.2845 62.1305 90.5665 62.8972 92.4304C62.9332 92.5179 63.3908 93.3132 63.0272 93.2135C57.17 91.6073 50.1471 91.9794 44.1807 92.4024C43.4409 92.4549 42.7086 92.5497 41.9732 92.6152Z" fill="white" stroke="#101820" stroke-width="1.75" stroke-linecap="round"/>
</svg>
