<svg width="250" height="238" viewBox="0 0 250 238" fill="none" xmlns="http://www.w3.org/2000/svg">
<mask id="mask0_224:4374" style="mask-type:alpha" maskUnits="userSpaceOnUse" x="46" y="12" width="120" height="108">
<path d="M47.8978 87.183C47.5265 86.7123 47.9305 86.6771 48.1948 86.3172C51.106 82.3542 57.1062 78.736 60.7746 75.5058C77.7085 60.5946 96.6615 45.7756 114.414 32.0494C122.398 25.8761 130.505 19.9566 138.496 13.7665C141.129 15.4995 166.591 42.5655 165.033 46.2182C164.823 46.7104 164.274 47.0965 163.82 47.3804C144.025 61.9911 125.786 77.3899 107.842 92.8382C97.6145 101.643 86.376 109.139 75.73 117.37C75.3885 117.635 74.2262 118.959 73.8142 118.908C66.0486 110.749 52.5073 93.0252 47.8978 87.183Z" fill="#315DF9" stroke="black" stroke-width="1.75" stroke-linecap="round"/>
</mask>
<g mask="url(#mask0_224:4374)">
<path d="M47.8978 87.183C47.5265 86.7123 47.9305 86.6771 48.1948 86.3172C51.106 82.3542 57.1062 78.736 60.7746 75.5058C77.7085 60.5946 96.6615 45.7756 114.414 32.0494C122.398 25.8761 130.505 19.9566 138.496 13.7665C141.129 15.4995 166.591 42.5655 165.033 46.2182C164.823 46.7104 164.274 47.0965 163.82 47.3804C144.025 61.9911 125.786 77.3899 107.842 92.8382C97.6145 101.643 86.376 109.139 75.73 117.37C75.3885 117.635 74.2262 118.959 73.8142 118.908C66.0486 110.749 52.5073 93.0252 47.8978 87.183Z" fill="#315DF9" stroke="#101820" stroke-width="1.75" stroke-linecap="round"/>
<path d="M147.337 32.2104C145.109 33.9965 142.49 35.3713 140.127 36.9692C128.092 45.109 117.888 55.5507 105.925 63.7809C105.189 64.2874 97.9772 52.6089 97.0041 51.5675C96.0358 50.5311 103.579 45.5106 104.611 44.6533C114.014 36.8394 124.665 30.2044 133.67 21.8934L139.307 17.824C140.47 19.0695 141.665 20.5439 142.615 21.96C143.054 22.6135 143.336 23.3519 143.822 23.9866C144.438 24.7912 149.123 29.8577 148.524 30.6901C148.147 31.2139 147.827 31.818 147.337 32.2104Z" fill="#567BFF" stroke="#101820" stroke-width="1.75" stroke-linecap="round"/>
<path d="M93.6469 53.6375C94.2696 54.3135 94.862 55.0491 95.3688 55.8457C96.1669 57.0999 103.211 65.3585 102.559 66.2741C97.4448 73.4601 88.23 77.0097 81.6485 82.7683C74.9132 88.6615 68.3925 93.8678 61.1429 98.9339C60.4273 99.434 53.4586 87.961 52.517 86.9387C51.1818 85.489 74.0342 69.002 77.142 66.6028C81.931 62.9057 85.1939 60.4388 88.168 57.6548L93.6469 53.6375Z" fill="#7B98FF" stroke="#101820" stroke-width="1.75" stroke-linecap="round"/>
<path d="M105.824 69.9407C106.461 70.6019 107.068 71.3207 107.589 72.0982C108.408 73.3223 115.619 81.3954 114.964 82.2804C109.822 89.226 100.491 92.61 93.8489 98.1587C87.0518 103.837 80.4677 108.85 73.1426 113.721C72.4195 114.201 65.2614 103.006 64.298 102.006C62.9318 100.588 86.0188 84.7306 89.1574 82.4215C93.9938 78.8631 97.2895 76.4893 100.29 73.8054L105.824 69.9407Z" fill="#567BFF" stroke="#101820" stroke-width="1.75" stroke-linecap="round"/>
<path d="M119.071 79.1223C118.419 78.4324 117.799 77.6822 117.268 76.8702C116.431 75.5919 109.058 67.1671 109.734 66.2388C115.033 58.9535 124.619 55.3818 131.452 49.5536C138.446 43.5892 145.218 38.3222 152.751 33.2008C153.494 32.6952 160.802 44.3878 161.787 45.4309C163.184 46.9102 139.442 63.5803 136.214 66.0071C131.24 69.7466 127.85 72.2415 124.763 75.0599L119.071 79.1223Z" fill="#7B98FF" stroke="#101820" stroke-width="1.75" stroke-linecap="round"/>
<path opacity="0.2" d="M130.494 28.2333C131.325 27.5837 132.088 26.8864 132.912 26.2297C133.504 25.7583 133.929 25.1409 134.552 24.718C134.954 24.4446 135.356 24.0621 135.808 23.8813C136.036 23.7899 136.551 23.3943 136.81 23.4665C137.053 23.5341 137.346 23.9792 137.518 24.1589C137.719 24.3693 137.868 24.617 138.081 24.8193C138.375 25.1005 138.719 25.3402 138.924 25.6984C139.2 26.1786 139.388 26.6962 139.734 27.1397" stroke="white" stroke-width="1.75" stroke-linecap="round"/>
<path opacity="0.2" d="M86.8024 61.9394C87.6336 61.2898 88.3966 60.5924 89.2207 59.9358C89.8124 59.4643 90.238 58.847 90.8604 58.424C91.2627 58.1507 91.6648 57.7681 92.1165 57.5873C92.3447 57.496 92.8595 57.1003 93.1191 57.1726C93.3619 57.2401 93.6548 57.6852 93.8265 57.8649C94.0274 58.0754 94.177 58.323 94.3892 58.5254C94.6841 58.8065 95.0273 59.0462 95.2328 59.4044C95.5084 59.8847 95.6966 60.4022 96.0428 60.8458" stroke="white" stroke-width="1.75" stroke-linecap="round"/>
<path opacity="0.2" d="M65.0408 92.6244C64.587 92.9293 64.1712 93.2578 63.7212 93.5661C63.3982 93.7875 63.1681 94.0807 62.8277 94.2784C62.6077 94.4062 62.3887 94.5865 62.1407 94.6692C62.0154 94.711 61.7342 94.8966 61.5903 94.8593C61.4556 94.8244 61.2903 94.6071 61.194 94.5189C61.0814 94.4155 60.9968 94.2948 60.8779 94.1952C60.7128 94.0569 60.5213 93.9381 60.405 93.7635C60.2489 93.5295 60.1408 93.2784 59.9461 93.0613" stroke="white" stroke-width="1.75" stroke-linecap="round"/>
<path opacity="0.2" d="M122.075 73.7074C121.621 74.0123 121.205 74.3408 120.755 74.6491C120.432 74.8705 120.202 75.1637 119.862 75.3614C119.642 75.4892 119.423 75.6695 119.175 75.7523C119.05 75.794 118.768 75.9796 118.624 75.9423C118.49 75.9074 118.324 75.6901 118.228 75.6019C118.116 75.4985 118.031 75.3778 117.912 75.2782C117.747 75.1399 117.556 75.0211 117.439 74.8465C117.283 74.6125 117.175 74.3614 116.98 74.1443" stroke="white" stroke-width="1.75" stroke-linecap="round"/>
<path opacity="0.2" d="M142.953 44.3534C143.784 43.7038 144.547 43.0065 145.371 42.3498C145.963 41.8784 146.388 41.261 147.011 40.8381C147.413 40.5647 147.815 40.1822 148.267 40.0014C148.495 39.91 149.01 39.5144 149.269 39.5866C149.512 39.6542 149.805 40.0993 149.977 40.279C150.178 40.4894 150.327 40.7371 150.54 40.9394C150.834 41.2206 151.178 41.4603 151.383 41.8185C151.659 42.2987 151.847 42.8163 152.193 43.2598" stroke="white" stroke-width="1.75" stroke-linecap="round"/>
<path opacity="0.2" d="M98.3504 79.2754C99.0031 78.6623 99.9182 78.4766 100.55 77.8415C100.869 77.5213 101.281 77.3024 101.608 76.9844C101.953 76.6495 102.285 76.3162 102.623 75.97C102.856 75.7304 103.132 75.5395 103.356 75.2881C103.566 75.0521 103.709 74.7646 103.956 74.5561C104.371 74.2047 104.644 73.6537 105.173 73.4317C105.333 73.3648 105.734 73.1295 105.895 73.1493C105.96 73.1572 106.07 73.561 106.103 73.622C106.224 73.8445 106.357 74.0661 106.56 74.2267C107.003 74.5791 107.468 75.0141 107.853 75.4363C108.139 75.7496 108.099 75.9684 108.276 76.3195" stroke="white" stroke-width="1.75" stroke-linecap="round"/>
<path opacity="0.2" d="M110.57 80.5248C110.773 80.7847 110.968 81.1046 111.213 81.3296C111.316 81.4243 111.457 81.4977 111.514 81.6282C111.543 81.6965 111.899 81.9945 111.896 82.017C111.878 82.1642 110.947 82.4826 110.813 82.563C110.539 82.7267 110.384 82.9015 110.157 83.132C109.704 83.5911 109.181 83.9592 108.658 84.3146C108.298 84.5591 107.648 85.2904 107.206 85.0474" stroke="white" stroke-width="1.75" stroke-linecap="round"/>
<path opacity="0.2" d="M71.7853 108.005C71.9967 108.284 72.1802 108.595 72.3591 108.894C72.4916 109.116 72.6901 109.245 72.7559 109.508C72.7937 109.66 72.9171 109.91 72.9947 110.036C73.1032 110.212 73.0924 110.24 73.252 110C73.7885 109.191 74.6707 108.861 75.3922 108.297" stroke="white" stroke-width="1.75" stroke-linecap="round"/>
</g>
<mask id="path-16-inside-1_224:4374" fill="white">
<path fill-rule="evenodd" clip-rule="evenodd" d="M156.288 46.8137C156.295 46.8082 156.302 46.8027 156.309 46.7973C160.412 43.5901 171.914 51.4645 181.999 64.385C192.084 77.3056 196.932 90.3797 192.829 93.5868C192.732 93.6626 192.631 93.7321 192.526 93.7956L178.904 105.226L168.413 112.628L158.318 119.72L151.77 125.636L141.874 132.573L130.283 141.632L118.684 151.496L82.1637 104.707L96.6391 94.0312L150.132 52.2209L156.262 46.7915L156.288 46.8137Z"/>
</mask>
<path fill-rule="evenodd" clip-rule="evenodd" d="M156.288 46.8137C156.295 46.8082 156.302 46.8027 156.309 46.7973C160.412 43.5901 171.914 51.4645 181.999 64.385C192.084 77.3056 196.932 90.3797 192.829 93.5868C192.732 93.6626 192.631 93.7321 192.526 93.7956L178.904 105.226L168.413 112.628L158.318 119.72L151.77 125.636L141.874 132.573L130.283 141.632L118.684 151.496L82.1637 104.707L96.6391 94.0312L150.132 52.2209L156.262 46.7915L156.288 46.8137Z" fill="#D3D9ED"/>
<path d="M156.288 46.8137L155.163 48.1539L156.257 49.0746L157.377 48.1841L156.288 46.8137ZM192.526 93.7956L191.622 92.2969L191.506 92.367L191.402 92.4542L192.526 93.7956ZM178.904 105.226L179.912 106.657L179.972 106.615L180.028 106.568L178.904 105.226ZM168.413 112.628L169.418 114.061L169.421 114.059L168.413 112.628ZM158.318 119.72L157.313 118.288L157.225 118.349L157.145 118.421L158.318 119.72ZM151.77 125.636L152.774 127.07L152.862 127.008L152.943 126.935L151.77 125.636ZM141.874 132.573L140.87 131.139L140.833 131.165L140.797 131.193L141.874 132.573ZM130.283 141.632L129.206 140.252L129.178 140.275L129.15 140.298L130.283 141.632ZM118.684 151.496L117.305 152.574L118.427 154.012L119.817 152.83L118.684 151.496ZM82.1637 104.707L81.1259 103.297L79.6777 104.365L80.785 105.784L82.1637 104.707ZM96.6391 94.0312L97.6769 95.4405L97.6966 95.4259L97.7159 95.4109L96.6391 94.0312ZM150.132 52.2209L151.209 53.6005L151.252 53.5674L151.292 53.5317L150.132 52.2209ZM156.262 46.7915L157.387 45.4514L156.232 44.4798L155.102 45.4807L156.262 46.7915ZM157.377 48.1841C157.38 48.1817 157.383 48.1793 157.386 48.1769L155.232 45.4176C155.221 45.4262 155.21 45.4348 155.2 45.4434L157.377 48.1841ZM157.386 48.1769C157.779 47.8694 158.596 47.638 160.181 48.0656C161.729 48.4835 163.683 49.4541 165.923 50.9881C170.387 54.044 175.657 59.104 180.62 65.4626L183.377 63.3075C178.256 56.7455 172.733 51.408 167.899 48.0984C165.49 46.4496 163.168 45.2455 161.091 44.6851C159.051 44.1346 156.891 44.1215 155.232 45.4176L157.386 48.1769ZM180.62 65.4626C185.583 71.8213 189.213 78.1637 191.094 83.2376C192.039 85.7845 192.507 87.9159 192.537 89.5208C192.568 91.1633 192.146 91.8997 191.752 92.2072L193.906 94.9665C195.564 93.6704 196.075 91.5699 196.035 89.4552C195.995 87.3029 195.39 84.7569 194.375 82.0194C192.337 76.5243 188.499 69.8694 183.377 63.3075L180.62 65.4626ZM191.752 92.2072C191.711 92.2395 191.668 92.2694 191.622 92.2969L193.43 95.2942C193.595 95.1949 193.754 95.0856 193.906 94.9665L191.752 92.2072ZM191.402 92.4542L177.78 103.885L180.028 106.568L193.65 95.137L191.402 92.4542ZM177.896 103.796L167.405 111.197L169.421 114.059L179.912 106.657L177.896 103.796ZM167.407 111.195L157.313 118.288L159.323 121.153L169.418 114.061L167.407 111.195ZM157.145 118.421L150.598 124.336L152.943 126.935L159.49 121.02L157.145 118.421ZM150.767 124.202L140.87 131.139L142.877 134.007L152.774 127.07L150.767 124.202ZM140.797 131.193L129.206 140.252L131.36 143.012L142.95 133.953L140.797 131.193ZM129.15 140.298L117.551 150.162L119.817 152.83L131.416 142.966L129.15 140.298ZM120.062 150.419L83.5424 103.629L80.785 105.784L117.305 152.574L120.062 150.419ZM83.2016 106.116L97.6769 95.4405L95.6012 92.622L81.1259 103.297L83.2016 106.116ZM97.7159 95.4109L151.209 53.6005L149.056 50.8412L95.5622 92.6516L97.7159 95.4109ZM151.292 53.5317L157.421 48.1023L155.102 45.4807L148.973 50.91L151.292 53.5317ZM155.136 48.1317L155.163 48.1539L157.414 45.4736L157.387 45.4514L155.136 48.1317Z" fill="#101820" mask="url(#path-16-inside-1_224:4374)"/>
<g opacity="0.3">
<path d="M144.599 85.0322C144.599 85.0322 144.982 85.5912 145.035 85.6772C145.715 86.8679 147.88 86.7194 147.88 86.7194" stroke="#101820" stroke-width="1.75" stroke-linecap="round" stroke-linejoin="round"/>
<path d="M147.408 89.0146C147.439 89.1113 147.48 89.2046 147.529 89.2934C147.737 89.5617 147.987 89.794 148.271 89.9811C148.566 90.2171 148.902 90.397 149.262 90.5118C149.482 90.5725 150.341 90.6355 150.341 90.6355" stroke="#101820" stroke-width="1.75" stroke-linecap="round" stroke-linejoin="round"/>
<path d="M141.876 88.1328C141.876 88.1328 142.067 89.2074 142.749 89.5259C143.105 89.7047 143.473 89.8584 143.85 89.9858C144.116 90.0399 144.386 90.0753 144.657 90.092" stroke="#101820" stroke-width="1.75" stroke-linecap="round" stroke-linejoin="round"/>
<path d="M150.396 92.9883C150.71 93.3683 151.053 93.7235 151.422 94.0508C151.724 94.2515 152.055 94.4059 152.403 94.5087L153.336 94.8191" stroke="#101820" stroke-width="1.75" stroke-linecap="round" stroke-linejoin="round"/>
<path d="M174.188 98.8512C174.188 98.8512 173.514 98.9164 173.414 98.9309C172.065 99.1736 170.788 97.418 170.788 97.418" stroke="#101820" stroke-width="1.75" stroke-linecap="round" stroke-linejoin="round"/>
<path d="M169.333 99.2534C169.239 99.2906 169.141 99.3194 169.042 99.3396C168.324 99.3364 167.62 99.1481 166.996 98.7929C166.808 98.6635 166.208 98.0451 166.208 98.0451" stroke="#101820" stroke-width="1.75" stroke-linecap="round" stroke-linejoin="round"/>
<path d="M173.561 102.933C173.561 102.933 172.613 103.475 171.934 103.158C171.567 102.999 171.212 102.815 170.871 102.607C170.66 102.438 170.461 102.254 170.274 102.058" stroke="#101820" stroke-width="1.75" stroke-linecap="round" stroke-linejoin="round"/>
<path d="M164.37 99.5161C163.877 99.5189 163.385 99.4837 162.897 99.4109C162.548 99.3076 162.217 99.1529 161.914 98.9517L161.077 98.4351" stroke="#101820" stroke-width="1.75" stroke-linecap="round" stroke-linejoin="round"/>
<path d="M155.964 96.0781C156.651 96.6986 157.508 97.0988 158.424 97.2273" stroke="#101820" stroke-width="1.75" stroke-linecap="round" stroke-linejoin="round"/>
<path d="M160.21 73.7266C160.197 73.7205 160.939 74.5922 161.416 74.8182C161.636 74.938 161.867 75.0342 162.106 75.1052C162.269 75.1425 163.037 75.1793 163.037 75.1793" stroke="#101820" stroke-width="1.75" stroke-linecap="round" stroke-linejoin="round"/>
<path d="M163.67 71.2842C163.67 71.2842 164.062 72.134 165.765 72.4014L165.728 72.3841" stroke="#101820" stroke-width="1.75" stroke-linecap="round" stroke-linejoin="round"/>
<path d="M166.885 69.1299C166.885 69.1299 167.198 69.4179 167.297 69.4962C167.587 69.6505 167.894 69.7732 168.211 69.8621" stroke="#101820" stroke-width="1.75" stroke-linecap="round" stroke-linejoin="round"/>
<path d="M165.933 74.7061C166.62 75.3265 167.477 75.7268 168.393 75.8552" stroke="#101820" stroke-width="1.75" stroke-linecap="round" stroke-linejoin="round"/>
<path d="M169.979 67.6387C170.323 67.9486 170.752 68.1489 171.21 68.2141" stroke="#101820" stroke-width="1.75" stroke-linecap="round" stroke-linejoin="round"/>
<path d="M172.813 79.6137C172.813 79.6137 171.682 79.6103 171.203 79.3895C170.97 79.2983 170.748 79.1827 170.54 79.0445C170.406 78.9436 169.885 78.378 169.885 78.378" stroke="#101820" stroke-width="1.75" stroke-linecap="round" stroke-linejoin="round"/>
<path d="M172.467 75.3942C172.467 75.3942 171.567 75.6404 170.265 74.5043L170.305 74.5229" stroke="#101820" stroke-width="1.75" stroke-linecap="round" stroke-linejoin="round"/>
<path d="M172.055 71.5449C172.055 71.5449 171.633 71.4897 171.51 71.4643C171.205 71.3403 170.914 71.1839 170.642 70.9979" stroke="#101820" stroke-width="1.75" stroke-linecap="round" stroke-linejoin="round"/>
<path d="M143.542 93.2671C143.135 93.077 142.743 92.8617 142.349 92.6452C141.014 91.9148 139.628 91.2816 138.202 90.7503C137.656 90.5404 135.719 89.8642 135.654 89.1256C135.594 88.4535 138.604 86.6031 138.947 86.3928C141.505 84.6891 143.971 82.9422 146.457 81.1465C148.192 79.8828 149.842 78.5731 151.651 77.4275C155.303 75.1172 158.751 72.4051 162.449 70.1484C165.164 68.4731 167.566 66.4511 170.22 64.6861C170.658 64.3948 172.127 63.1932 172.721 63.4644C173.498 63.8273 173.336 66.6793 173.379 67.4015C173.537 70.2096 173.84 73.0177 174.117 75.8174C174.313 77.8411 174.778 79.817 174.925 81.8342C175.22 85.8947 175.725 89.9377 175.959 94.005C176.063 95.8027 176.09 97.609 176.221 99.406C176.335 100.976 176.557 102.542 176.741 104.107C176.819 104.768 177.185 108.076 176.826 108.333C176.278 108.722 174.036 107.546 173.557 107.283C171.934 106.396 170.304 105.764 168.633 105.012C167.055 104.304 165.562 103.378 164.013 102.606C159.459 100.344 154.723 98.3735 150.11 96.2157C147.947 95.189 145.69 94.3347 143.542 93.2671Z" stroke="#101820" stroke-width="1.75" stroke-linecap="round" stroke-linejoin="round"/>
<path d="M175.562 91.2609C175.878 92.404 175.839 92.4821 174.735 92.9101C173.292 93.4699 169.197 94.7294 167.316 94.8206C162.11 95.0747 160.051 94.2581 157.497 92.8751C156.756 92.4613 156.047 91.9944 155.374 91.4778C152.344 89.0802 150.003 84.5696 148.785 80.867C148.377 79.6716 148.446 79.5653 149.623 79.1392C154.356 77.4304 158.212 76.3132 164.44 77.9952C166.514 78.5582 170.207 81.1495 172.138 84.3928C173.578 86.8269 174.812 88.5628 175.562 91.2609V91.2609Z" stroke="#101820" stroke-width="1.75" stroke-linecap="round" stroke-linejoin="round"/>
<path d="M164.434 81.0596C164.434 81.0596 163.738 82.7476 163.403 83.4027C162.978 84.2415 162.554 85.0803 162.152 85.9395C161.389 87.5732 159.9 90.8944 159.9 90.8944" stroke="#101820" stroke-width="1.75" stroke-linecap="round" stroke-linejoin="round"/>
<path d="M157.467 83.8464L154.546 82.6143" stroke="#101820" stroke-width="1.75" stroke-linecap="round" stroke-linejoin="round"/>
<path d="M158.663 81.7006L156.512 80.3994" stroke="#101820" stroke-width="1.75" stroke-linecap="round" stroke-linejoin="round"/>
<path d="M160.169 80.0273C159.825 79.7098 159.439 79.4407 159.022 79.2275" stroke="#101820" stroke-width="1.75" stroke-linecap="round" stroke-linejoin="round"/>
<path d="M156.775 86.0329C156.335 86.0109 155.896 85.9608 155.461 85.8829" stroke="#101820" stroke-width="1.75" stroke-linecap="round" stroke-linejoin="round"/>
<path d="M156.59 88.127C156.216 88.1538 155.841 88.1551 155.468 88.1311" stroke="#101820" stroke-width="1.75" stroke-linecap="round" stroke-linejoin="round"/>
<path d="M166.832 88.2207L169.651 89.6696" stroke="#101820" stroke-width="1.75" stroke-linecap="round" stroke-linejoin="round"/>
<path d="M167.705 85.923L170.086 86.7388" stroke="#101820" stroke-width="1.75" stroke-linecap="round" stroke-linejoin="round"/>
<path d="M168.02 83.6935C168.483 83.7531 168.936 83.8758 169.366 84.0581" stroke="#101820" stroke-width="1.75" stroke-linecap="round" stroke-linejoin="round"/>
<path d="M165.599 90.1543C165.9 90.4785 166.221 90.7835 166.56 91.0674" stroke="#101820" stroke-width="1.75" stroke-linecap="round" stroke-linejoin="round"/>
<path d="M164.114 91.6406C164.335 91.9444 164.576 92.2333 164.835 92.5054" stroke="#101820" stroke-width="1.75" stroke-linecap="round" stroke-linejoin="round"/>
</g>
<path d="M93.8328 133.356C88.8301 126.947 85.1487 120.526 83.2278 115.347C82.2656 112.752 81.7632 110.517 81.7307 108.776C81.6977 107.015 82.1419 105.938 82.8515 105.383C83.5611 104.828 84.7133 104.658 86.4123 105.116C88.0931 105.57 90.1384 106.599 92.421 108.162C96.9773 111.281 102.311 116.41 107.313 122.82C112.316 129.229 115.997 135.65 117.918 140.829C118.881 143.424 119.383 145.659 119.416 147.4C119.448 149.161 119.004 150.238 118.295 150.793C117.585 151.348 116.433 151.518 114.734 151.06C113.053 150.606 111.008 149.577 108.725 148.014C104.169 144.895 98.8355 139.766 93.8328 133.356Z" fill="white" stroke="#101820" stroke-width="1.75"/>
<path d="M97.3983 130.568C94.8251 127.271 92.8767 124.028 91.7977 121.467C91.2557 120.18 90.9534 119.113 90.8787 118.321C90.7994 117.481 90.9934 117.213 91.0769 117.148C91.1605 117.083 91.4668 116.959 92.2621 117.239C93.0118 117.504 93.9737 118.056 95.09 118.894C97.3121 120.562 99.9845 123.239 102.558 126.536C105.131 129.833 107.079 133.075 108.158 135.637C108.7 136.924 109.003 137.991 109.077 138.783C109.157 139.623 108.963 139.891 108.879 139.956C108.795 140.021 108.489 140.145 107.694 139.864C106.944 139.6 105.982 139.048 104.866 138.21C102.644 136.542 99.9715 133.865 97.3983 130.568Z" fill="#F3F3F3" stroke="#101820" stroke-width="1.75"/>
<path d="M179.742 90.7352C180.953 92.505 181.812 94.509 183.75 95.7375C185.545 95.9583 186.85 96.7651 187.82 98.0795C188.852 99.4786 188.531 101.084 188.342 102.62C188.014 105.289 187.77 108.046 186.269 110.402C183.593 114.601 179.613 117.883 175.838 121.247C173.235 123.566 170.463 126.025 167.553 128.035C164.226 130.333 160.589 132.296 157.081 134.366C154.108 136.12 151.179 137.966 148.322 139.868C146.809 140.876 145.425 141.964 143.817 142.858L143.771 142.883C141.328 144.24 138.085 146.042 135.063 145.864C133.618 145.779 130.333 145.316 129.869 143.728C129.689 143.108 129.233 142.504 129.313 141.851L129.607 139.456C129.702 138.684 129.112 137.513 128.784 136.769C128.245 135.548 127.604 134.499 126.857 133.373C125.151 130.799 122.769 128.701 121.207 126.016C120.488 124.781 119.562 123.247 119.448 121.855C119.287 119.898 119.444 117.923 119.81 116C120.397 112.914 122.542 110.936 125.119 109.001C126.899 107.664 128.26 105.906 130.066 104.568C131.243 103.697 132.262 102.642 133.416 101.74C134.168 101.152 134.959 100.584 135.692 99.9817C139.777 96.6218 144.328 93.6789 148.325 90.2176C150.285 88.5197 152.463 86.8525 154.83 85.6247C156.327 84.848 157.478 83.7533 159.006 83.004C159.827 82.6012 160.549 81.9475 161.424 81.6484C162.227 81.374 163.003 81.1635 163.821 80.9122C165.889 80.2771 168.262 80.8692 170.385 81.1304C173.022 81.4548 175.515 84.0365 177.056 85.8465C178.26 87.2609 178.7 89.2121 179.742 90.7352Z" fill="black" fill-opacity="0.04"/>
<mask id="mask1_224:4374" style="mask-type:alpha" maskUnits="userSpaceOnUse" x="123" y="55" width="120" height="109">
<path d="M124.644 130.482C124.273 130.011 124.677 129.976 124.941 129.616C127.852 125.653 133.852 122.035 137.521 118.805C154.455 103.893 173.408 89.0744 191.16 75.3482C199.145 69.175 207.251 63.2554 215.242 57.0653C217.875 58.7984 243.337 85.8644 241.779 89.517C241.569 90.0092 241.02 90.3954 240.566 90.6793C220.771 105.29 202.532 120.689 184.588 136.137C174.361 144.942 163.122 152.438 152.476 160.669C152.135 160.933 150.972 162.257 150.56 162.207C142.795 154.048 129.253 136.324 124.644 130.482Z" fill="#315DF9" stroke="black" stroke-width="1.75" stroke-linecap="round"/>
</mask>
<g mask="url(#mask1_224:4374)">
<path d="M124.644 130.482C124.273 130.011 124.677 129.976 124.941 129.616C127.852 125.653 133.852 122.035 137.521 118.805C154.455 103.893 173.408 89.0744 191.16 75.3482C199.145 69.175 207.251 63.2554 215.242 57.0653C217.875 58.7984 243.337 85.8644 241.779 89.517C241.569 90.0092 241.02 90.3954 240.566 90.6793C220.771 105.29 202.532 120.689 184.588 136.137C174.361 144.942 163.122 152.438 152.476 160.669C152.135 160.933 150.972 162.257 150.56 162.207C142.795 154.048 129.253 136.324 124.644 130.482Z" fill="#315DF9" stroke="#101820" stroke-width="1.75" stroke-linecap="round"/>
<path d="M224.083 75.5093C221.855 77.2953 219.236 78.6701 216.873 80.2681C204.838 88.4078 194.634 98.8496 182.671 107.08C181.935 107.586 174.723 95.9077 173.75 94.8663C172.782 93.83 180.325 88.8095 181.357 87.9521C190.76 80.1383 201.411 73.5032 210.417 65.1922L216.053 61.1228C217.216 62.3684 218.411 63.8428 219.361 65.2589C219.8 65.9123 220.082 66.6508 220.568 67.2854C221.184 68.09 225.87 73.1565 225.27 73.9889C224.893 74.5127 224.573 75.1168 224.083 75.5093Z" fill="#567BFF" stroke="#101820" stroke-width="1.75" stroke-linecap="round"/>
<path d="M170.393 96.9363C171.016 97.6124 171.608 98.348 172.115 99.1446C172.913 100.399 179.957 108.657 179.305 109.573C174.191 116.759 164.976 120.308 158.395 126.067C151.659 131.96 145.139 137.167 137.889 142.233C137.173 142.733 130.205 131.26 129.263 130.238C127.928 128.788 150.78 112.301 153.888 109.902C158.677 106.205 161.94 103.738 164.914 100.954L170.393 96.9363Z" fill="#7B98FF" stroke="#101820" stroke-width="1.75" stroke-linecap="round"/>
<path d="M182.57 113.24C183.207 113.901 183.814 114.62 184.335 115.397C185.154 116.621 192.365 124.694 191.71 125.579C186.568 132.525 177.237 135.909 170.595 141.458C163.798 147.136 157.214 152.148 149.889 157.019C149.166 157.5 142.007 146.305 141.044 145.305C139.678 143.887 162.765 128.029 165.904 125.72C170.74 122.162 174.036 119.788 177.036 117.104L182.57 113.24Z" fill="#567BFF" stroke="#101820" stroke-width="1.75" stroke-linecap="round"/>
<path d="M195.817 122.421C195.165 121.731 194.545 120.981 194.014 120.169C193.177 118.891 185.804 110.466 186.48 109.538C191.779 102.252 201.365 98.6806 208.198 92.8524C215.192 86.888 221.964 81.621 229.497 76.4996C230.24 75.994 237.548 87.6866 238.533 88.7297C239.93 90.209 216.188 106.879 212.96 109.306C207.986 113.045 204.596 115.54 201.509 118.359L195.817 122.421Z" fill="#7B98FF" stroke="#101820" stroke-width="1.75" stroke-linecap="round"/>

<path opacity="0.2" d="M207.239 71.5322C208.07 70.8825 208.833 70.1852 209.657 69.5285C210.249 69.0571 210.675 68.4398 211.297 68.0168C211.699 67.7435 212.101 67.3609 212.553 67.1801C212.781 67.0887 213.296 66.6931 213.556 66.7653C213.798 66.8329 214.091 67.278 214.263 67.4577C214.464 67.6681 214.614 67.9158 214.826 68.1181C215.121 68.3993 215.464 68.639 215.669 68.9972C215.945 69.4774 216.133 69.995 216.479 70.4386" stroke="white" stroke-width="1.75" stroke-linecap="round"/>
<path opacity="0.2" d="M163.548 105.238C164.379 104.589 165.142 103.891 165.966 103.235C166.558 102.763 166.983 102.146 167.606 101.723C168.008 101.45 168.41 101.067 168.862 100.886C169.09 100.795 169.605 100.399 169.864 100.471C170.107 100.539 170.4 100.984 170.572 101.164C170.773 101.374 170.922 101.622 171.134 101.824C171.429 102.105 171.772 102.345 171.978 102.703C172.253 103.183 172.442 103.701 172.788 104.145" stroke="white" stroke-width="1.75" stroke-linecap="round"/>
<path opacity="0.2" d="M141.786 135.923C141.332 136.228 140.916 136.557 140.466 136.865C140.143 137.086 139.913 137.38 139.573 137.577C139.353 137.705 139.134 137.885 138.886 137.968C138.76 138.01 138.479 138.195 138.335 138.158C138.201 138.123 138.035 137.906 137.939 137.818C137.826 137.714 137.742 137.594 137.623 137.494C137.458 137.356 137.266 137.237 137.15 137.062C136.994 136.828 136.886 136.577 136.691 136.36" stroke="white" stroke-width="1.75" stroke-linecap="round"/>
<path opacity="0.2" d="M198.82 117.006C198.366 117.311 197.95 117.64 197.501 117.948C197.178 118.169 196.947 118.463 196.607 118.66C196.387 118.788 196.168 118.968 195.92 119.051C195.795 119.093 195.514 119.278 195.37 119.241C195.235 119.206 195.07 118.989 194.973 118.901C194.861 118.797 194.776 118.677 194.657 118.577C194.492 118.439 194.301 118.32 194.184 118.145C194.028 117.911 193.92 117.66 193.725 117.443" stroke="white" stroke-width="1.75" stroke-linecap="round"/>
<path opacity="0.2" d="M219.698 87.6523C220.529 87.0027 221.292 86.3053 222.116 85.6487C222.708 85.1772 223.134 84.5599 223.756 84.1369C224.158 83.8636 224.56 83.481 225.012 83.3002C225.24 83.2089 225.755 82.8132 226.015 82.8854C226.257 82.953 226.55 83.3981 226.722 83.5778C226.923 83.7882 227.073 84.0359 227.285 84.2383C227.58 84.5194 227.923 84.7591 228.128 85.1173C228.404 85.5975 228.592 86.1151 228.938 86.5587" stroke="white" stroke-width="1.75" stroke-linecap="round"/>
<path opacity="0.2" d="M175.096 122.574C175.748 121.961 176.663 121.775 177.295 121.14C177.614 120.82 178.026 120.601 178.354 120.283C178.698 119.948 179.03 119.615 179.368 119.269C179.602 119.029 179.877 118.838 180.101 118.587C180.311 118.351 180.454 118.063 180.701 117.855C181.117 117.503 181.389 116.953 181.918 116.731C182.078 116.664 182.479 116.428 182.64 116.448C182.705 116.456 182.815 116.86 182.848 116.921C182.969 117.143 183.103 117.365 183.305 117.526C183.748 117.878 184.213 118.313 184.598 118.735C184.884 119.048 184.844 119.267 185.021 119.618" stroke="white" stroke-width="1.75" stroke-linecap="round"/>
<path opacity="0.2" d="M187.315 123.824C187.518 124.083 187.713 124.403 187.958 124.628C188.061 124.723 188.202 124.797 188.259 124.927C188.288 124.995 188.644 125.293 188.641 125.316C188.623 125.463 187.692 125.781 187.558 125.862C187.284 126.026 187.13 126.2 186.902 126.431C186.449 126.89 185.926 127.258 185.403 127.613C185.044 127.858 184.393 128.589 183.951 128.346" stroke="white" stroke-width="1.75" stroke-linecap="round"/>
<path opacity="0.2" d="M148.53 151.303C148.742 151.582 148.925 151.892 149.104 152.192C149.237 152.414 149.435 152.543 149.501 152.806C149.539 152.958 149.662 153.208 149.74 153.333C149.848 153.51 149.838 153.538 149.997 153.298C150.534 152.489 151.416 152.159 152.137 151.595" stroke="white" stroke-width="1.75" stroke-linecap="round"/>
</g>
<path opacity="0.4" d="M148.827 74.6412C150.983 72.9559 153.161 71.2989 155.398 69.7022C157.647 68.0964 162.237 67.1135 164.96 67.4484C169.012 67.9468 168.571 71.5105 166.945 74.4156C166.498 75.2142 165.855 76.0039 165.49 76.8358C165.074 77.7838 164.035 78.8676 163.171 79.4089C161.841 80.2414 160.58 81.4631 159.367 82.4701C158.506 83.185 157.454 83.7386 156.662 84.5232C156 85.1789 155.317 85.7889 154.618 86.406C153.209 87.6496 151.837 88.9429 150.368 90.1212L150.205 90.252C146.1 93.5452 141.879 96.9314 137.331 99.5776C135.808 100.464 134.183 101.282 132.517 101.874C131.329 102.297 129.978 102.909 128.706 102.884C127.312 102.857 124.564 102.795 123.503 101.589C123.186 101.228 122.688 101.093 122.531 100.577C122.354 99.9961 122.545 99.342 122.619 98.7434C122.852 96.8414 123.563 94.9873 124.715 93.4598C125.688 92.1703 127.002 91.3131 128.063 90.1442C128.879 89.2439 130.009 88.2627 131.045 87.6299C132.522 86.7273 134.045 85.8151 135.385 84.7261C136.713 83.6478 137.857 82.3738 139.243 81.3513C142.388 79.0313 145.757 77.0407 148.827 74.6412Z" fill="white"/>
<path d="M110.737 181.64C105.047 185.916 96.6973 185.816 87.6145 181.857C78.559 177.91 68.9642 170.194 61.0237 159.614C53.0832 149.033 48.3521 137.661 47.0887 127.859C45.8214 118.026 48.0528 109.974 53.7426 105.698C59.4324 101.421 67.7822 101.522 76.8651 105.48C85.9206 109.427 95.5154 117.144 103.456 127.724C111.396 138.304 116.127 149.676 117.391 159.479C118.658 169.311 116.427 177.364 110.737 181.64Z" fill="#91BCCE" stroke="#101820" stroke-width="1.75"/>
<path d="M97.4004 142.599C107.726 149.757 110.926 170.259 109.317 182.266" stroke="#101820" stroke-width="1.75" stroke-linecap="round"/>
<path d="M86.8054 129.464C74.663 121.889 61.6189 118.288 47.3613 116.374" stroke="#101820" stroke-width="1.75" stroke-linecap="round"/>
<path d="M70.2422 102.98C78.4135 106.572 88.3422 117.889 90.2497 127.899" stroke="#101820" stroke-width="1.75" stroke-linecap="round"/>
<path d="M98.8373 134.298C102.927 133.224 106.419 135.136 109.689 137.283C109.906 137.425 110.402 137.837 110.393 137.836" stroke="#101820" stroke-width="1.75" stroke-linecap="round"/>
<path d="M85.7358 135.014C82.5436 135.927 79.576 137.046 76.4661 138.131C68.4863 140.915 63.2448 144.081 54.4297 149.66" stroke="#101820" stroke-width="1.75" stroke-linecap="round"/>
<path d="M86.9368 119.442C78.6542 132.611 69.4172 142.772 61.8369 155.101C60.3838 157.465 59.2445 159.939 57.6314 162.212" stroke="#101820" stroke-width="1.75" stroke-linecap="round"/>
<path d="M60.732 166.31C62.4419 165.884 64.1469 165.48 65.8728 165.191C72.099 164.152 100.835 157.55 104.55 151.863" stroke="#101820" stroke-width="1.75" stroke-linecap="round"/>
<path d="M92.3049 128.332C93.8324 128.537 94.9022 129.169 96.1316 130.227C97.2827 131.218 99.3683 134.599 99.353 136.516C99.3357 138.682 98.7088 141.123 97.2552 142.85C95.9121 144.446 92.867 143.601 91.0733 143.361C88.7786 143.053 87.2905 140.643 86.5778 138.685C85.6949 136.258 85.4926 134.194 85.8383 131.615C85.9388 130.864 86.4487 129.946 86.9848 129.419C87.5123 128.9 88.3634 128.661 88.9872 128.234C89.8198 127.665 91.3319 128.201 92.3049 128.332Z" stroke="#101820" stroke-width="1.75" stroke-linecap="round"/>
<path d="M87.5102 135.319C88.6939 134.439 89.7194 133.295 91.0492 132.615L91.146 132.628C92.1738 132.766 92.8631 133.136 93.7547 133.685C94.403 134.084 95.2221 136.442 94.5552 137.097C93.6604 137.977 92.5516 138.738 91.7006 139.627C90.4991 140.88 89.0927 141.896 87.7208 142.944L87.7111 142.951C87.3509 143.227 86.6144 143.789 86.1423 143.811C85.624 143.836 85.0475 143.882 84.5468 143.698C83.988 143.493 83.3465 143.2 82.9708 142.707C82.5264 142.125 82.0313 141.211 82.1332 140.45C82.2349 139.691 82.9579 138.916 83.6119 138.53C84.1852 138.192 84.6774 137.619 85.1901 137.205C85.9622 136.582 86.7114 135.913 87.5102 135.319Z" fill="#8DFF1F" stroke="#101820" stroke-width="1.75" stroke-linecap="round"/>
<path d="M83.6478 138.467C84.2166 138.348 84.634 138.229 85.2186 138.377C85.6892 138.497 86.0772 138.642 86.4523 138.936C86.7307 139.154 87.2126 139.768 87.4677 140.29C87.8215 141.014 87.9449 142.794 86.4243 143.729" stroke="#101820" stroke-width="1.75" stroke-linecap="round"/>
<path d="M53.1034 165.96C53.2775 165.494 53.7551 165.349 54.0918 165.018C55.2951 163.836 58.2223 161.885 59.07 161.32L59.0771 161.315C60.0238 160.684 60.2642 160.5 60.9294 159.992C62.3517 158.905 64.5955 161.487 64.4219 162.783C64.3786 163.106 64.3035 163.295 64.1166 163.557C63.0048 165.114 60.4534 166.564 58.8339 167.683C57.9937 168.264 57.2287 168.941 56.2976 169.381C55.7431 169.642 54.9319 169.756 54.3595 169.483C54.0027 169.313 53.543 168.92 53.293 168.611C52.9745 168.218 52.7633 167.55 52.8321 167.037L52.8754 166.714C52.9116 166.444 53.0077 166.216 53.1034 165.96Z" fill="#8DFF1F" stroke="#101820" stroke-width="1.75" stroke-linecap="round"/>
<path d="M53.3389 165.506C55.9207 163.891 58.6025 167.828 56.1382 169.311C55.9708 169.412 55.6804 169.619 55.479 169.592" stroke="#101820" stroke-width="1.75" stroke-linecap="round"/>
<path d="M45.014 173.355C46.4375 175.121 47.9718 176.471 49.2743 177.239C49.9285 177.625 50.4827 177.839 50.9064 177.91C51.3313 177.981 51.5198 177.895 51.5986 177.832C51.6774 177.768 51.8013 177.602 51.8219 177.172C51.8425 176.743 51.7506 176.156 51.5124 175.434C51.038 173.999 50.0438 172.213 48.6203 170.448C47.1968 168.682 45.6625 167.332 44.36 166.564C43.7058 166.178 43.1516 165.964 42.7279 165.893C42.303 165.822 42.1145 165.908 42.0356 165.971C41.9568 166.035 41.8329 166.201 41.8123 166.631C41.7918 167.06 41.8836 167.647 42.1219 168.368C42.5963 169.804 43.5905 171.59 45.014 173.355Z" stroke="#385FF7" stroke-width="1.75"/>
<path d="M41.4776 176.922C44.5881 180.779 47.066 184.512 48.562 187.418C49.3134 188.877 49.7952 190.085 49.9992 190.974C50.1017 191.421 50.1223 191.738 50.0997 191.942C50.0896 192.034 50.0734 192.085 50.0626 192.11C50.0361 192.115 49.9831 192.12 49.8912 192.111C49.6865 192.089 49.3813 192.002 48.9665 191.807C48.1409 191.419 47.0619 190.692 45.7952 189.648C43.2733 187.57 40.1505 184.357 37.04 180.5C33.9295 176.642 31.4516 172.909 29.9556 170.004C29.2043 168.545 28.7225 167.336 28.5184 166.447C28.4159 166 28.3953 165.684 28.4179 165.479C28.428 165.387 28.4443 165.336 28.455 165.312C28.4815 165.306 28.5345 165.301 28.6264 165.311C28.8311 165.332 29.1364 165.419 29.5511 165.614C30.3768 166.002 31.4558 166.729 32.7224 167.773C35.2443 169.851 38.3671 173.064 41.4776 176.922ZM50.0516 192.13C50.0515 192.13 50.0524 192.128 50.0544 192.126C50.0527 192.129 50.0516 192.13 50.0516 192.13ZM50.0802 192.105C50.0829 192.104 50.0845 192.103 50.0846 192.103C50.0846 192.103 50.0833 192.104 50.0802 192.105ZM28.466 165.292C28.4661 165.292 28.4653 165.293 28.4632 165.295C28.465 165.293 28.466 165.291 28.466 165.292ZM28.4374 165.316C28.4347 165.318 28.4332 165.318 28.4331 165.318C28.433 165.318 28.4343 165.317 28.4374 165.316Z" stroke="#385FF7" stroke-width="1.75"/>
<path d="M30.4772 184.921C34.9322 190.446 38.4882 195.801 40.6403 199.98C41.7197 202.076 42.424 203.835 42.7257 205.15C42.877 205.809 42.9152 206.307 42.8765 206.658C42.8383 207.004 42.7373 207.118 42.6917 207.155C42.6461 207.191 42.5138 207.266 42.1669 207.23C41.8165 207.193 41.3375 207.05 40.7252 206.763C39.5044 206.189 37.935 205.128 36.1153 203.629C32.4874 200.639 28.0083 196.029 23.5533 190.504C19.0983 184.979 15.5424 179.624 13.3903 175.445C12.3109 173.348 11.6065 171.59 11.3048 170.275C11.1535 169.616 11.1154 169.117 11.154 168.767C11.1922 168.42 11.2932 168.307 11.3388 168.27C11.3844 168.233 11.5167 168.159 11.8636 168.195C12.2141 168.231 12.6931 168.374 13.3053 168.662C14.5261 169.236 16.0956 170.297 17.9152 171.796C21.5432 174.785 26.0223 179.396 30.4772 184.921Z" stroke="#385FF7" stroke-width="1.75"/>
</svg>
