<svg width="72" height="109" viewBox="0 0 72 109" fill="none" xmlns="http://www.w3.org/2000/svg">
<path d="M45.3209 67.5996C42.7517 67.9739 40.8737 68.7957 38.8191 70.3407L36.7478 71.9754C35.7906 73.6681 32.3067 73.6823 30.6974 73.0647C29.6197 72.6511 28.6921 71.6441 28.5248 70.4958C28.2563 68.6528 28.2416 66.7402 28.1051 64.8833C27.9836 63.2313 27.7345 61.5964 27.6134 59.9492C27.3702 56.6399 27.0435 53.3637 26.6012 50.076C26.1068 46.4015 24.6251 42.9352 23.5396 39.4082C22.6912 36.6518 21.9623 33.9293 21.7503 31.046C21.4045 26.3418 20.9303 21.6451 20.5848 16.9444C20.4225 14.7362 20.5667 12.4235 21.6094 10.4235C21.9862 9.70071 22.3697 8.83143 22.9075 8.20824C23.0456 8.04821 23.5454 8.10406 23.7296 8.09051L25.3395 7.97217C25.6938 7.94612 26.0381 8.15939 26.3841 8.1532C28.2389 8.12003 29.9846 10.0574 31.6034 10.7631C31.9988 10.9355 32.4363 11.4553 32.7713 11.7443C33.137 12.06 33.4319 12.3979 33.7484 12.7611C34.4316 13.5449 35.1592 14.4257 35.9795 15.0535C37.7854 16.4357 39.7556 17.5775 41.8355 18.4331C43.6442 19.1771 45.4262 20.0759 47.3396 20.4348C49.5397 20.8474 51.8953 20.7158 54.1374 20.551C56.3241 20.3902 58.2291 19.393 59.2278 17.4124C59.9502 15.9798 60.0137 14.4557 60.5407 12.9615C60.8321 12.135 61.3215 11.3837 61.7587 10.6304C62.4209 9.48913 62.9298 8.1654 63.4064 6.9356C63.4341 6.86399 63.8751 5.5101 63.8766 6.22067C63.8796 7.65934 63.8357 9.09883 63.8072 10.5371C63.7483 13.5079 63.7176 16.5338 63.4558 19.4936C63.1355 23.1154 62.3986 26.6818 62.1164 30.3059C61.5793 37.2056 61.2385 44.0762 61.2454 50.9956C61.2502 55.883 61.0799 60.8916 61.2962 65.7162C61.3914 67.8379 61.3578 70.0379 61.0597 72.1433C61.0033 72.5417 60.0543 71.4383 59.8387 71.3164C59.1749 70.941 58.615 70.4093 57.9323 70.0313C57.2273 69.641 56.4733 69.3535 55.739 69.0324C54.023 68.282 52.567 67.3666 50.6947 67.1473C48.9873 66.9473 47.012 67.3532 45.3209 67.5996Z" fill="white" stroke="#101820" stroke-width="1.75" stroke-linecap="round"/>
<path d="M24.2506 86.0523C27.2161 85.8343 29.6467 85.633 31.4214 83.3437C41.1157 70.8381 34.8707 8.40998 22.7326 3.71592C21.8531 3.37577 20.5473 3.28053 19.6301 3.34795C1.64002 4.67042 5.13829 60.6581 6.4177 78.0624L6.41787 78.0648C6.59655 80.4953 6.73929 82.4371 7.75837 84.6704C8.71912 86.7759 10.7248 86.2506 12.5812 86.1142C16.5185 85.8247 20.3366 86.34 24.2506 86.0523Z" fill="white" stroke="#101820" stroke-width="1.75" stroke-linecap="round"/>
<path d="M28.3187 106.956C28.847 107.036 29.4331 107.118 29.9587 107.065C30.5878 107.001 29.2423 100.918 29.0336 100.318C28.7925 99.625 27.9064 98.6646 27.4173 98.5331C23.1412 97.3834 17.3694 97.4936 13.0665 98.2975C10.8049 98.72 10.5778 103.941 9.95232 106.198C9.92295 106.304 9.54168 107.264 9.85818 107.151C14.9573 105.338 21.1296 105.971 26.3761 106.64C27.0267 106.723 27.6717 106.857 28.3187 106.956Z" fill="white" stroke="#101820" stroke-width="1.75" stroke-linecap="round"/>
<path d="M30.2013 99.4875C30.8585 99.5467 31.588 99.6049 32.2453 99.5438C33.0322 99.4706 31.5085 94.0189 31.2634 93.4829C30.9802 92.8639 29.8988 92.0204 29.2917 91.9143C23.9841 90.9868 16.7774 91.2339 11.3863 92.069C8.5527 92.5079 8.13563 97.2223 7.2972 99.2741C7.25784 99.3705 6.75741 100.246 7.15531 100.136C13.566 98.3706 21.2536 98.7837 27.7848 99.2522C28.5946 99.3103 29.3962 99.4151 30.2013 99.4875Z" fill="white" stroke="#101820" stroke-width="1.75" stroke-linecap="round"/>
<path d="M29.3637 92.6152C29.9641 92.6687 30.6306 92.7213 31.231 92.6655C31.9499 92.5987 30.5601 87.6478 30.3363 87.1611C30.0779 86.599 29.0903 85.8333 28.5357 85.7372C23.6873 84.8969 17.1035 85.1242 12.1781 85.8848C9.58928 86.2845 9.20642 90.5665 8.43967 92.4304C8.40367 92.5179 7.94616 93.3132 8.3097 93.2135C14.1669 91.6073 21.1898 91.9794 27.1562 92.4024C27.896 92.4549 28.6283 92.5497 29.3637 92.6152Z" fill="white" stroke="#101820" stroke-width="1.75" stroke-linecap="round"/>
</svg>
