<svg width="28" height="26" fill="none" xmlns="http://www.w3.org/2000/svg"><path opacity=".7" fill-rule="evenodd" clip-rule="evenodd" d="M25.564 13.61a.8.8 0 0 0-.036-.515c-1.889-4.73-5.261-7.943-6.03-8.635a.878.878 0 0 0-.367-.197c-2.727-.715-4.787-.075-5.209.075a.182.182 0 0 0-.109.111.199.199 0 0 0 .198.266c.191-.01.377-.017.558-.02.652-.013.597.513-.048.61a15.767 15.767 0 0 0-8.688 4.372c-.13.133-.283.019-.173-.13.53-.716 1.425-1.738 2.817-2.818a.146.146 0 0 0-.017-.243.137.137 0 0 0-.118-.008c-.371.15-2.368 1.043-3.94 3.435a.879.879 0 0 0-.141.392c-.11 1.029-.468 5.674 1.291 10.455a.8.8 0 0 0 .315.405c.637.406 2.63 1.43 5.527.595a.934.934 0 0 0 .621-.614l.163-.498c.14-.43-.205-.861-.655-.885a6.052 6.052 0 0 1-2.154-.502c-.162-.073-.087-.266.089-.238l.103.017c3.508.51 7.812-.534 10.904-3.496.426-.375.841-.121.479.315a6.72 6.72 0 0 1-.444.483c-.343.34-.312.932.108 1.173l.373.212a.906.906 0 0 0 .838.036c2.726-1.314 3.538-3.419 3.745-4.152Zm-15.192-.59c-.975.373-1.417 1.524-1.016 2.567.4 1.044 1.515 1.597 2.473 1.23.975-.374 1.417-1.525 1.016-2.568-.383-1.05-1.498-1.604-2.473-1.23Zm8.717-1.166c.4 1.043-.041 2.194-1.016 2.568-.958.367-2.073-.186-2.474-1.23-.4-1.043.042-2.194 1.017-2.568.975-.374 2.073.186 2.473 1.23Z" fill="#F2F4F8"/><path opacity=".56" d="M23.238 11.327c.273.093.443.217.53.554.088.347.125.8-.024 1.236-.294.86-.982 1.405-1.535 1.216-.273-.094-.367-.44-.454-.777-.088-.347-.164-.688-.015-1.125.295-.86.944-1.293 1.498-1.104ZM5.46 12.987c.273-.795.524-1.329.99-1.758.477-.44 1.056-.801 1.505-.647.887.305 1.158 1.86.603 3.47-.273.796-.754 1.25-1.219 1.679-.477.44-.941.841-1.39.687-.888-.306-1.043-1.82-.49-3.431Z" fill="#fff"/></svg>