<svg width="33" height="37" viewBox="0 0 33 37" fill="none" xmlns="http://www.w3.org/2000/svg">
<path d="M21.8715 17.2701C21.8715 18.379 21.0535 19.288 20.0173 19.288C18.9992 19.288 18.163 18.379 18.163 17.2701C18.163 16.1612 18.981 15.2522 20.0173 15.2522C21.0535 15.2522 21.8715 16.1612 21.8715 17.2701ZM13.3819 15.2522C12.3457 15.2522 11.5276 16.1612 11.5276 17.2701C11.5276 18.379 12.3639 19.288 13.3819 19.288C14.4181 19.288 15.2362 18.379 15.2362 17.2701C15.2543 16.1612 14.4181 15.2522 13.3819 15.2522ZM32.579 3.74489V36.3581C27.9991 32.3109 29.4638 33.6506 24.1439 28.7047L25.1074 32.0679H4.49233C2.4381 32.0679 0.765625 30.3954 0.765625 28.323V3.74489C0.765625 1.67247 2.4381 0 4.49233 0H28.8523C30.9065 0 32.579 1.67247 32.579 3.74489ZM27.398 20.9786C27.398 15.125 24.7802 10.3802 24.7802 10.3802C22.1624 8.41691 19.6718 8.47144 19.6718 8.47144L19.4173 8.76231C22.5078 9.70762 23.9439 11.071 23.9439 11.071C19.6256 8.70429 14.553 8.70386 10.3642 10.5439C9.69154 10.8529 9.2916 11.071 9.2916 11.071C9.2916 11.071 10.8005 9.6349 14.0727 8.68959L13.8909 8.47144C13.8909 8.47144 11.4004 8.41691 8.78259 10.3802C8.78259 10.3802 6.16481 15.125 6.16481 20.9786C6.16481 20.9786 7.69185 23.6146 11.7094 23.7419C11.7094 23.7419 12.382 22.9238 12.9274 22.233C10.6187 21.5422 9.74608 20.0879 9.74608 20.0879C10.0135 20.2751 10.4545 20.5177 10.4914 20.5423C13.5599 22.2607 17.9184 22.8237 21.8352 21.1786C22.4714 20.9423 23.1804 20.5969 23.9258 20.106C23.9258 20.106 23.0168 21.5967 20.6353 22.2694C21.1807 22.9602 21.8352 23.7419 21.8352 23.7419C25.8527 23.6146 27.398 20.9786 27.398 20.9786Z" fill="white"/>
</svg>
