<svg width="20" height="22" fill="none" xmlns="http://www.w3.org/2000/svg"><path opacity=".7" fill-rule="evenodd" clip-rule="evenodd" d="M11.037 21.955a.801.801 0 0 0 .509-.09c4.508-2.37 7.353-6.057 7.961-6.894a.879.879 0 0 0 .158-.386c.429-2.786-.422-4.768-.615-5.172a.182.182 0 0 0-.122-.097.199.199 0 0 0-.244.224c.03.19.056.373.078.553.08.648-.448.648-.612.016A15.767 15.767 0 0 0 12.9 1.92c-.146-.115-.049-.279.11-.185.768.453 1.878 1.237 3.097 2.51a.146.146 0 0 0 .239-.042.137.137 0 0 0-.004-.119c-.188-.354-1.284-2.247-3.826-3.562a.88.88 0 0 0-.404-.1C11.077.421 6.42.547 1.848 2.793a.8.8 0 0 0-.37.355c-.339.676-1.15 2.766-.018 5.56a.934.934 0 0 0 .674.554l.513.11c.442.094.835-.293.812-.744a6.052 6.052 0 0 1 .276-2.194c.056-.169.255-.114.246.064a3.14 3.14 0 0 1-.006.104c-.143 3.542 1.342 7.714 4.609 10.482.417.385.208.824-.264.509a6.737 6.737 0 0 1-.526-.39c-.374-.308-.96-.215-1.155.228a84.83 84.83 0 0 0-.172.393.905.905 0 0 0 .05.837c1.591 2.575 3.768 3.164 4.52 3.294Zm-.99-15.171c-.473-.931-1.663-1.251-2.66-.745-.996.507-1.43 1.673-.966 2.588.474.93 1.664 1.25 2.66.744 1.005-.49 1.44-1.657.966-2.587Zm2.064 8.548c-.996.507-2.186.187-2.66-.744-.464-.915-.03-2.081.967-2.587.996-.507 2.186-.187 2.66.744.473.93.03 2.08-.966 2.587Z" fill="#F2F4F8"/></svg>