<svg width="149" height="141" fill="none" xmlns="http://www.w3.org/2000/svg"><g clip-path="url(#a)"><path d="M77.477 139.924a89.658 89.658 0 0 1-4.843-.577c-16.586-2.382-29.53-6.574-41.861-18.282-1.741-1.66-3.666-3.161-5.376-4.874-1.71-1.713-2.994-3.829-4.376-5.79-3.886-5.504-7.837-11.339-9.783-17.856-.515-1.723-.968-3.481-1.42-5.222a47.21 47.21 0 0 1-1.456-11.89c0-3.955-.052-7.934.23-11.878.282-3.945 1.149-7.5 2.29-11.235 3.347-10.942 7.211-18.97 14.654-27.744 3.569-4.206 7.426-8.223 11.886-11.489C48.838 4.7 63.815.996 77.932.871c.857 0 1.707 0 2.556.017 12.847.279 24.851 5.198 35.577 12.008 2.204 1.392 4.645 2.663 6.685 4.292 2.663 2.124 5.09 4.627 7.607 6.922 9.309 8.463 13.839 21.407 16.067 33.456a63.716 63.716 0 0 1 1.197 12.673 46.033 46.033 0 0 1-.943 8.704c-.996 4.84-1.567 9.79-3.005 14.528-4.494 14.831-15.718 27.027-28.294 35.668-6.047 4.153-12.641 6.757-19.708 8.613-3.69.971-7.42 2.009-11.242 2.284a43.273 43.273 0 0 1-6.952-.112Z" fill="#EBEBEB"/><path d="M53.357 3.245C57.047 2.263 65.97.871 77.932.871 63.815.992 48.838 4.679 37.436 13.056c-4.46 3.28-8.317 7.31-11.886 11.489-7.44 8.804-11.308 16.833-14.654 27.775-1.141 3.736-2.015 7.311-2.29 11.235-.275 3.923-.244 7.923-.244 11.878a47.209 47.209 0 0 0 1.441 11.91c.453 1.741.905 3.482 1.42 5.223 1.947 6.517 5.898 12.352 9.784 17.856 1.392 1.953 2.673 4.095 4.376 5.79 1.702 1.696 3.624 3.2 5.375 4.874 12.332 11.708 25.276 15.9 41.862 18.281 1.605.23 3.22.436 4.842.578-20.029 0-33.794-5.016-44.517-11.837-2.204-1.392-4.648-2.663-6.688-4.292-2.66-2.124-5.09-4.627-7.607-6.922-9.306-8.463-13.84-21.407-16.067-33.457a63.687 63.687 0 0 1-1.184-12.676c.04-2.924.356-5.838.944-8.703.999-4.84 1.566-9.79 3.004-14.529C9.845 32.7 21.066 20.503 33.641 11.862 39.695 7.705 46.286 5.1 53.357 3.245Z" fill="#F2F4F8"/><path d="M29.64 14.765c1.574 0 3.134 0 4.711.129.23.02.46.038.696.052M24.03 19.458c.849-.063 1.698-.115 2.544-.101 1.146.02 2.284.163 3.423.289M18.313 25.24c2.088.133 4.177.325 6.266.499M14.435 29.955h1.883c1.643 0 3.28.08 4.92.184M10.59 35.71c2.34 0 4.659.142 6.981.271M7.742 41.176c2.437-.049 4.843-.108 7.26-.042M5.313 47.64c.47 0 .943.025 1.423.025 1.89 0 3.776.02 5.658.06M3.722 54.537c.46-.017.922-.042 1.392-.087a36.25 36.25 0 0 1 5.18-.052M2.854 59.404c.477.066.958.133 1.442.167 1.577.126 3.171.175 4.762.216M1.747 65.8c2.253-.056 4.502-.153 6.75-.188M1.4 71.134c2.325.038 4.644.15 6.962.198M1.629 76.572c.856.045 1.716.07 2.597.07 1.393 0 2.785.03 4.178.073M2.531 83.082h6.406M4.094 90.209c2.155 0 4.303 0 6.458-.077M6.05 96.65h6.689M8.676 103.028c2.437-.07 4.874-.168 7.31-.171M12.474 109.688c2.607-.077 5.222-.192 7.823-.3M17.307 115.592c1.308.124 2.624.157 3.937.098 1.17-.077 2.357-.105 3.54-.15M24.335 122.176c1.838-.188 3.676-.349 5.508-.575.442-.056.884-.111 1.326-.16M30.992 126.9c1.915-.185 3.83-.505 5.717-.801M39.751 131.144a28.06 28.06 0 0 1 3.649-.675" stroke="#152F60" stroke-width="1.393" stroke-linecap="round" stroke-linejoin="round"/><path d="M144.06 83.482c-.554 3.158-1.128 6.42-2.058 9.487-3.892 12.84-13.7 25.175-27.615 34.735-5.351 3.68-11.44 6.336-19.166 8.356l-.783.209c-3.318.873-6.747 1.779-10.138 2.022-.8.06-1.64.087-2.496.087-2.989-.044-5.97-.3-8.923-.766-15.667-2.249-28.611-6.141-40.911-17.821a83.147 83.147 0 0 0-2.465-2.211c-1.017-.884-1.977-1.72-2.883-2.622-1.19-1.183-2.22-2.698-3.217-4.177-.32-.47-.64-.94-.964-1.393-3.983-5.612-7.701-11.175-9.536-17.327" stroke="#F2F4F8" stroke-width="1.741" stroke-linecap="round" stroke-linejoin="round"/><path d="M10.34 63.676c.233-3.269.895-6.513 2.221-10.848 3.523-11.53 7.537-19.148 14.316-27.124 4.16-4.905 7.84-8.47 11.59-11.231C48.859 6.823 63.133 2.61 78.66 2.61h1.79c11.14.244 22.797 4.178 34.679 11.74.714.452 1.455.895 2.172 1.32a39.603 39.603 0 0 1 4.363 2.861c1.716 1.372 3.384 2.956 4.999 4.488.822.78 1.671 1.587 2.521 2.36 7.593 6.908 12.819 17.84 15.527 32.49" stroke="#152F60" stroke-width="1.741" stroke-linecap="round" stroke-linejoin="round"/><path d="M147.622 70.239a46.622 46.622 0 0 1-.944 8.704c-.999 4.835-1.57 9.79-3.004 14.528-4.499 14.831-15.723 27.027-28.294 35.668-6.048 4.153-12.642 6.757-19.713 8.613-3.69.971-7.415 2.009-11.238 2.284-3.934.282-7.9-.136-11.792-.697-16.589-2.384-29.533-6.573-41.864-18.281-1.741-1.661-3.663-3.161-5.372-4.874-1.71-1.713-2.998-3.83-4.377-5.79-3.885-5.504-7.84-11.342-9.783-17.856-.515-1.724-.967-3.482-1.423-5.222a47.178 47.178 0 0 1-1.456-11.883c0-3.955-.052-7.934.227-11.879.278-3.944 1.152-7.499 2.294-11.234 3.342-10.946 7.21-18.97 14.653-27.744 3.569-4.206 7.426-8.224 11.883-11.49C49.509 4.189 65.619.579 80.474.903c12.847.278 24.848 5.198 35.574 12.007 2.204 1.393 4.644 2.664 6.684 4.293 2.664 2.12 5.09 4.627 7.611 6.918 9.306 8.467 13.839 21.41 16.067 33.46a64.19 64.19 0 0 1 1.212 12.659v0Z" stroke="#152F60" stroke-width="1.741" stroke-linecap="round" stroke-linejoin="round"/><path d="M77.505 139.924c-20.043 0-33.823-5.013-44.563-11.837-2.204-1.392-4.644-2.663-6.685-4.292-2.663-2.124-5.09-4.631-7.61-6.921C9.34 108.41 4.81 95.466 2.58 83.417A64.232 64.232 0 0 1 1.4 70.76c.04-2.924.356-5.838.943-8.703 1-4.84 1.57-9.79 3.008-14.529C9.846 32.7 21.07 20.503 33.645 11.862c6.05-4.157 12.641-6.761 19.709-8.617C57.044 2.263 65.97.871 77.93.871" stroke="#152F60" stroke-width="1.741" stroke-linecap="round" stroke-linejoin="round"/><path d="M126.521 112.974c-3.913 4.613-7.405 7.99-10.991 10.629-9.919 7.311-23.462 11.322-38.133 11.322-.564 0-1.125 0-1.685-.018-10.629-.233-21.7-3.961-32.914-11.078a75.48 75.48 0 0 0-1.873-1.142 38.035 38.035 0 0 1-4.296-2.83c-1.657-1.323-3.21-2.785-4.714-4.227-.728-.696-1.48-1.392-2.218-2.088" stroke="#152F60" stroke-width="1.741" stroke-linecap="round" stroke-linejoin="round"/><path d="M74.553 133.978h-.042l-.348-.021a.874.874 0 0 1-.823-.917.871.871 0 0 1 .917-.824l.348.018a.869.869 0 0 1 .583 1.499.869.869 0 0 1-.621.241l-.014.004Zm6.942-.052a.87.87 0 0 1-.045-1.741l.348-.018a.873.873 0 0 1 .1 1.741l-.347.021-.056-.003Zm7.259-.759a.875.875 0 0 1-.46-1.65.892.892 0 0 1 .327-.091l.349-.052a.87.87 0 1 1 .275 1.719l-.349.053-.142.021Zm-21.44-.07a.938.938 0 0 1-.166-.017l-.349-.07a.874.874 0 0 1-.678-1.027.867.867 0 0 1 .687-.681.882.882 0 0 1 .34.002l.348.066a.874.874 0 0 1-.164 1.741l-.017-.014Zm28.58-1.414a.869.869 0 0 1-.875-.756.867.867 0 0 1 .656-.953l.327-.09a.879.879 0 0 1 1.069.612.873.873 0 0 1-.613 1.069l-.348.091a.79.79 0 0 1-.216.034v-.007Zm-35.63-.445a.857.857 0 0 1-.274-.045l-.348-.112a.856.856 0 0 1-.525-.435.873.873 0 0 1 .404-1.187.877.877 0 0 1 .681-.025l.324.108a.871.871 0 0 1-.275 1.696h.014Zm42.562-1.817a.869.869 0 0 1-.32-1.682l.316-.125a.872.872 0 0 1 1.111 1.148.871.871 0 0 1-.463.467l-.327.132a.845.845 0 0 1-.317.066v-.006Zm-49.34-.867a.91.91 0 0 1-.348-.08l-.32-.15a.872.872 0 0 1 .082-1.589.868.868 0 0 1 .653.012l.31.142a.873.873 0 0 1-.348 1.665h-.029Zm55.93-2.242a.875.875 0 0 1-.844-.653.872.872 0 0 1 .423-.98l.292-.167a.868.868 0 0 1 .966.07.87.87 0 0 1-.106 1.444l-.309.174a.847.847 0 0 1-.422.119v-.007Zm-62.409-1.111a.863.863 0 0 1-.435-.118l-.306-.174a.874.874 0 0 1-.312-1.193.873.873 0 0 1 1.192-.311l.297.17a.871.871 0 0 1-.436 1.626Zm68.481-2.9a.876.876 0 0 1-.823-.587.872.872 0 0 1 .287-.969l.268-.213a.876.876 0 0 1 .648-.2.876.876 0 0 1 .752.635.87.87 0 0 1-.321.93l-.275.216a.862.862 0 0 1-.529.188h-.007Zm-74.723-.881a.877.877 0 0 1-.45-.125l-.298-.185a.864.864 0 0 1-.418-.539.873.873 0 0 1 .656-1.071.868.868 0 0 1 .67.127l.293.181a.868.868 0 0 1 .382.977.868.868 0 0 1-.835.635Zm80.14-3.997a.873.873 0 0 1-.62-1.483l.241-.243a.847.847 0 0 1 .28-.197.892.892 0 0 1 .334-.074.886.886 0 0 1 .624.247.884.884 0 0 1 .262.618.863.863 0 0 1-.254.621l-.247.25a.869.869 0 0 1-.613.261h-.007Zm-85.909-.431a.877.877 0 0 1-.588-.23l-.258-.24a.881.881 0 0 1-.304-.612.868.868 0 0 1 .855-.921.87.87 0 0 1 .633.258l.254.234a.865.865 0 0 1 .221.958.873.873 0 0 1-.813.553Zm90.79-4.996a.866.866 0 0 1-.868-.788.868.868 0 0 1 .196-.636l.22-.265a.87.87 0 0 1 1.347 1.1l-.226.275a.86.86 0 0 1-.669.314Zm-96.089 0a.868.868 0 0 1-.616-.254l-.25-.255a.86.86 0 0 1-.255-.62.868.868 0 0 1 .55-.804.88.88 0 0 1 .67.013.87.87 0 0 1 .28.196l.238.241a.864.864 0 0 1 .185.946.872.872 0 0 1-.802.537Zm-4.588-5.651a.86.86 0 0 1-.728-.39l-.195-.296a.866.866 0 0 1 .011-.967.867.867 0 0 1 .898-.36.871.871 0 0 1 .55.377l.184.282a.871.871 0 0 1-.24 1.208.88.88 0 0 1-.49.139l.01.007Zm105.033-.195a.859.859 0 0 1-.769-.455.865.865 0 0 1 .041-.892l.188-.286a.862.862 0 0 1 .55-.404.873.873 0 0 1 .673.117.877.877 0 0 1 .382.567.873.873 0 0 1-.146.667l-.192.293a.866.866 0 0 1-.738.386l.011.007Zm-108.58-6.186a.867.867 0 0 1-.791-.505l-.146-.32a.87.87 0 1 1 1.587-.718l.14.31a.867.867 0 0 1-.411 1.153.856.856 0 0 1-.38.08Zm112.179-.15a.869.869 0 0 1-.779-1.253l.153-.31a.874.874 0 0 1 .497-.469.869.869 0 0 1 1.066 1.231l-.153.314a.87.87 0 0 1-.784.487Zm-114.808-6.65a.87.87 0 0 1-.822-.605l-.108-.349a.87.87 0 1 1 1.66-.525l.105.327a.873.873 0 0 1-.828 1.138l-.007.014Zm117.674-.059a.831.831 0 0 1-.3-.056.87.87 0 0 1-.515-1.117l.115-.32a.87.87 0 0 1 1.609-.075c.098.21.109.449.031.666l-.122.349a.873.873 0 0 1-.836.553h.018Zm2.238-6.938a.775.775 0 0 1-.236-.035.868.868 0 0 1-.603-1.073l.094-.33a.878.878 0 0 1 .402-.557.875.875 0 0 1 .993.068.865.865 0 0 1 .28.955l-.094.348a.873.873 0 0 1-.836.623Zm-121.81-.053a.867.867 0 0 1-.846-.696l-.076-.348a.87.87 0 0 1 1.702-.366l.073.349a.872.872 0 0 1-.853 1.065v-.004Zm123.276-7.081h-.098a.87.87 0 0 1-.769-.964l.035-.349a.873.873 0 0 1 .959-.781.872.872 0 0 1 .782.96l-.039.347a.866.866 0 0 1-.87.787Zm-124.55-.097a.87.87 0 0 1-.863-.76l-.042-.348a.876.876 0 1 1 1.74-.208l.042.348a.864.864 0 0 1-.752.971.617.617 0 0 1-.118-.003h-.007Zm124.898-7.186a.873.873 0 0 1-.799-.547.87.87 0 0 1-.061-.334v-.348a.872.872 0 0 1 1.203-.796.867.867 0 0 1 .531.806v.348a.873.873 0 0 1-.874.87Zm-125.333-.09a.868.868 0 0 1-.853-.885v-.407a.872.872 0 0 1 1.74.041v.397a.872.872 0 0 1-.887.853Zm125.25-7.204a.869.869 0 0 1-.867-.829l-.018-.348a.877.877 0 0 1 .493-.834.872.872 0 0 1 1.248.737v.348a.87.87 0 0 1-.825.912l-.031.014ZM16.06 64.36a.91.91 0 0 1-.483-.144.87.87 0 0 1-.38-.894l.066-.348a.873.873 0 0 1 1.71.348l-.067.348a.874.874 0 0 1-.839.69h-.007Zm123.555-7.123a.867.867 0 0 1-.846-.672l-.08-.349a.872.872 0 0 1 .646-1.031.87.87 0 0 1 1.046.624l.083.348a.874.874 0 0 1-.651 1.045.962.962 0 0 1-.198.035Zm-122.2-.053a.857.857 0 0 1-.16 0 .87.87 0 0 1-.697-1.013l.063-.348a.87.87 0 1 1 1.713.317l-.063.348a.874.874 0 0 1-.88.696h.024Zm120.264-6.963a.87.87 0 0 1-.85-.609l-.114-.32a.87.87 0 0 1 1.191-1.082.87.87 0 0 1 .448.493l.119.349a.874.874 0 0 1-.536 1.107.916.916 0 0 1-.282.052l.024.01Zm-118.58-.118a.873.873 0 0 1-.831-1.135l.111-.348a.87.87 0 0 1 1.654.54l-.105.323a.87.87 0 0 1-.853.61l.025.01Zm115.52-6.493a.872.872 0 0 1-.759-.439l-.171-.3a.873.873 0 0 1 .983-1.273c.223.06.413.207.528.407l.174.306a.868.868 0 0 1-.755 1.299Zm-112.8-.265a.878.878 0 0 1-.78-1.26l.16-.317a.87.87 0 0 1 1.605.126.872.872 0 0 1-.052.665l-.153.302a.868.868 0 0 1-.78.484Zm108.855-5.89a.875.875 0 0 1-.72-.376l-.195-.286a.853.853 0 0 1-.142-.651.88.88 0 0 1 .361-.56.873.873 0 0 1 1.211.219l.199.289a.871.871 0 0 1-.223 1.212.886.886 0 0 1-.491.15v.003Zm-105.165-.397a.867.867 0 0 1-.717-1.358l.198-.292a.87.87 0 0 1 1.581.674.87.87 0 0 1-.15.314l-.191.282a.866.866 0 0 1-.72.376v.004Zm100.963-5.57a.86.86 0 0 1-.696-.32l-.209-.259a.867.867 0 0 1 1.33-1.117c.08.09.156.184.233.279a.864.864 0 0 1-.21 1.284.864.864 0 0 1-.465.132h.017Zm-96.493-.21a.87.87 0 0 1-.658-1.44l.234-.265a.87.87 0 1 1 1.305 1.149l-.226.257a.863.863 0 0 1-.665.306l.01-.006Zm91.215-4.8a.874.874 0 0 1-.585-.223l-.261-.24a.871.871 0 0 1 1.18-1.282l.251.23a.869.869 0 0 1 .059 1.23.863.863 0 0 1-.675.292l.031-.007Zm-86.132-.44a.87.87 0 0 1-.591-1.507l.257-.24a.87.87 0 1 1 1.18 1.281l-.25.234a.87.87 0 0 1-.62.24l.024-.007Zm80.621-4.33a.865.865 0 0 1-.533-.181l-.268-.206a.87.87 0 0 1 1.045-1.392l.282.216a.874.874 0 0 1 .292.97.871.871 0 0 1-.825.59l.007.003Zm-75.082-.383a.865.865 0 0 1-.696-.348.874.874 0 0 1 .157-1.222l.278-.213a.871.871 0 0 1 1.045 1.393l-.272.209a.877.877 0 0 1-.512.181Zm69-3.659a.881.881 0 0 1-.435-.115l-.296-.17a.871.871 0 0 1 .856-1.515l.31.178a.873.873 0 0 1 .402.977.869.869 0 0 1-.837.645Zm-63.015-.512a.87.87 0 0 1-.453-1.615l.307-.181a.87.87 0 1 1 .891 1.493l-.292.178a.9.9 0 0 1-.456.125h.003Zm56.473-2.684a.913.913 0 0 1-.348-.063l-.317-.129a.884.884 0 0 1-.474-.471.871.871 0 0 1 .471-1.142.87.87 0 0 1 .668-.002l.327.132a.871.871 0 0 1-.33 1.675h.003Zm-49.976-.616a.87.87 0 0 1-.349-1.671l.328-.136a.87.87 0 1 1 .665 1.608l-.314.133a.898.898 0 0 1-.33.066Zm43.072-1.741a.946.946 0 0 1-.24-.031l-.327-.094a.87.87 0 1 1 .463-1.678l.348.097a.87.87 0 0 1-.237 1.706h-.007Zm-36.207-.696a.87.87 0 0 1-.244-1.706l.348-.098a.884.884 0 1 1 .48 1.703l-.33.094a.84.84 0 0 1-.244.02l-.01-.013Zm29.098-.982a.697.697 0 0 1-.167-.018l-.348-.062a.87.87 0 1 1 .324-1.71l.348.067a.875.875 0 0 1-.164 1.74l.007-.017Zm-22.041-.85a.87.87 0 0 1-.188-1.72l.348-.076a.877.877 0 1 1 .383 1.713l-.348.073a.724.724 0 0 1-.185.024l-.01-.014Zm14.842-.323h-.119l-.348-.05a.878.878 0 0 1 .23-1.74l.348.045a.873.873 0 0 1-.118 1.741l.007.004Zm-7.604-.557a.87.87 0 0 1 0-1.741h.348a.884.884 0 0 1 .884.87.86.86 0 0 1-.856.87h-.376Z" fill="#F2F4F8"/><path d="M128.335 28.19c-1.644 1.608-3.315 3.195-5.038 4.7-1.267 1.106-2.684 2.053-3.997 3.105-1.312 1.051-2.395 2.214-3.642 3.304-2.534 2.207-5.135 4.296-7.499 6.698-1.483 1.508-2.969 3.015-4.358 4.61-1.39 1.594-2.939 2.914-4.412 4.397-6.22 6.266-12.794 12.185-19.033 18.427-5.497 5.504-10.629 11.343-16.29 16.684-3.2 3.011-6.493 5.918-9.748 8.877-3.763 3.436-7.088 7.277-10.813 10.744-3.085 2.873-6.163 5.76-9.233 8.659a57.903 57.903 0 0 0 12.387 8.87c1.932-2.071 3.885-4.122 5.901-6.113a108.14 108.14 0 0 1 8.721-7.576c3.572-2.841 7.005-5.807 10.372-8.892 5.991-5.469 11.67-11.206 17.78-16.526 3.296-2.872 6.283-5.981 9.42-9.014 2.786-2.712 5.63-5.375 8.408-8.112 3.099-3.053 6.511-5.765 9.613-8.822 3.102-3.056 6.235-6.06 9.511-8.909 1.88-1.64 3.784-3.102 5.609-4.811 1.448-1.361 2.98-2.615 4.487-3.913.491-.425.975-.864 1.459-1.295-2.503-6.204-5.71-11.266-9.605-15.093ZM42.481 92.557c1.563-1.476 3.04-3.042 4.676-4.442 1.636-1.4 3.276-2.726 4.822-4.206 1.758-1.678 3.398-3.425 5.222-5.034 1.695-1.497 3.422-2.952 5.051-4.526 3.51-3.39 7.085-6.674 10.445-10.204 2.472-2.587 4.926-5.222 7.586-7.6 5.79-5.201 11.277-10.709 16.962-16.015 5.135-4.804 10.357-9.584 15.785-14.054a358.697 358.697 0 0 0 7.001-5.891 36.944 36.944 0 0 0-4.063-2.657 96.995 96.995 0 0 1-2.231-1.357 87.435 87.435 0 0 0-10.03-5.508c-.53.439-1.045.88-1.557 1.361-2.53 2.437-5.288 4.526-7.906 6.866-1.431 1.27-2.754 2.593-4.126 3.927-1.371 1.333-2.952 2.496-4.383 3.805-2.49 2.27-4.905 4.655-7.339 6.984-3.189 3.07-6.695 5.727-9.804 8.878-5.988 6.03-12.185 11.844-18.17 17.867a275.527 275.527 0 0 1-9.316 8.95c-3.43 3.134-7.067 6.003-10.413 9.23-3.83 3.7-7.85 7.203-11.719 10.87a193.405 193.405 0 0 0-3.084 2.993c1.855 5.222 5.16 10.131 8.675 15.11.216.306.425.62.641.929 1.904-1.974 3.847-3.913 5.88-5.761a219.465 219.465 0 0 0 5.146-4.847c2.023-1.963 4.188-3.735 6.25-5.668Z" fill="url(#b)"/><path d="m109.025 72.85-4.567 9.226-5.055 9.062-5.41 8.694-4.52 9.344-5.309 8.766-5.89 12.011-6.452-11.777-4.56-9.258-5.184-8.85-4.854-9.163-4.95-9.017-5.296-8.934 31.296 27.807 30.751-27.91ZM48.72 64.06l3.335-5.954 5.163-8.94 4.888-9.101 5.236-8.773 4.307-9.515 6.524-10.727 6.789 10.82 4.199 9.342 5.302 8.86 9.334 18.333 3.144 5.324-58.221.33Z" fill="#F2F4F8" stroke="#F2F4F8" stroke-width="1.741" stroke-linecap="round" stroke-linejoin="round"/><path d="m107.613 72.147-4.533 9.156-5.02 9.003-5.453 8.76-4.484 9.288-5.347 8.829-4.582 9.338.132-9.964-.654-9.874.522-14.518 7.38-5.25 7.542-4.734 7.415-4.902 7.082-5.132Z" fill="#EBEBEB"/><path d="m77.672 107.38.654 9.873-.132 9.964-4.985-9.101-4.554-9.253-5.215-8.899-4.819-9.1-4.964-9.038-5.32-8.983 7.527 5.132 7.54 4.735 7.333 5.027 7.457 5.125-.522 14.518ZM102.411 59.16l5.201 8.809-7.374-4.7-7.102-5.382-7.624-4.603-7.214-4.985-.132-5.007-.16-9.866-.147-9.867.335-9.511 5.326 8.467 4.234 9.428 5.305 8.85 4.68 9.177 4.672 9.19Z" fill="#EBEBEB"/><path d="m107.613 67.97-7.081 5.124-7.416 4.909-7.54 4.735-7.382 5.25-.431-5.222.759-9.867-.362-9.873.271-9.867-.132-4.86 7.213 4.985 7.625 4.603 7.102 5.382 7.374 4.7Z" fill="#EBEBEB"/><path d="m78.16 63.025.361 9.873-.759 9.867.432 5.222-7.457-5.125-7.332-5.034-7.541-4.735-7.527-5.124 7.617-4.993 7.507-4.762 7.241-5.188 7.492-4.804.105.076.132 4.86-.272 9.867Z" fill="#EBEBEB"/><path d="m78.299 48.299-.105-.077-7.492 4.804-7.241 5.188-7.507 4.763-7.617 4.992 5.097-9.094 5.152-8.926 4.875-9.073 5.284-8.857L73 22.6l5.194-8.551-.334 9.511.146 9.867.16 9.866.133 5.007Z" fill="#EBEBEB"/><path d="M60.47 75.987a60.55 60.55 0 0 0 1.769-1.636c3.509-3.391 7.084-6.674 10.444-10.205 2.472-2.587 4.926-5.222 7.586-7.6 4.794-4.306 9.4-8.818 14.048-13.26l-1.27-2.494-5.307-8.85-2.155-4.8c-2.437 2.235-4.815 4.57-7.203 6.858-3.175 3.078-6.68 5.734-9.79 8.885-4.484 4.526-9.093 8.937-13.65 13.4l-1.494 2.59-5.097 9.094 7.527 5.125 4.592 2.893Zm32.646 6.193-7.541 4.735-7.38 5.25-.025.68-7.433-5.108-2.493-1.713a136.112 136.112 0 0 1-4.178 4.09 240.383 240.383 0 0 1-3.927 3.614l3.304 6.236 4.637 7.917a247.89 247.89 0 0 0 3.576-3.196c5.988-5.47 11.666-11.207 17.776-16.527 3.297-2.872 6.284-5.981 9.421-9.014.912-.887 1.831-1.765 2.751-2.642l-1.073.776-7.415 4.902Zm-44.78-9.337 5.32 8.982.154.279c1.1-1.097 2.2-2.19 3.377-3.228l.045-.041-1.368-.86-7.527-5.132Zm22.735 10.25 7.123 4.894 7.38-5.25 7.542-4.734 7.415-4.91 7.082-5.124-5.202-8.808-2.416-4.749c-.202.199-.407.39-.606.592-6.221 6.267-12.794 12.185-19.033 18.427-3.158 3.165-6.194 6.438-9.285 9.662Z" fill="#CCC"/><path d="m107.831 69.758-6.371 4.617-7.474 4.944-7.531 4.731-8.244 5.863-8.37-5.752-7.332-5.027-7.485-4.7-7.35-5.006" stroke="#F2F4F8" stroke-width="1.741" stroke-linecap="round" stroke-linejoin="round"/><path d="m78.197 14.051 5.327 8.467 4.233 9.425 5.3 8.846 4.685 9.18 4.672 9.195 5.198 8.805M48.34 67.969l5.093-9.09 5.15-8.927 4.88-9.076 5.282-8.853 4.25-9.425 5.202-8.547M107.612 72.15l-4.533 9.157-5.017 8.996-5.452 8.766-4.487 9.289-5.348 8.825-4.578 9.341-4.989-9.107-4.554-9.251-5.215-8.895-4.822-9.104-4.957-9.038-5.32-8.979" stroke="#152F60" stroke-width="1.741" stroke-linecap="round" stroke-linejoin="round"/><path d="m78.197 87.987-7.46-5.128-7.336-5.027-7.534-4.735-7.527-5.128 7.614-4.99 7.51-4.765L70.7 53.03l7.496-4.808 7.318 5.065 7.621 4.6 7.106 5.382 7.37 4.7-7.081 5.128-7.416 4.905-7.54 4.735-7.378 5.25Z" stroke="#152F60" stroke-width="1.741" stroke-linecap="round" stroke-linejoin="round"/><path d="m107.612 72.15-7.081 5.129-7.416 4.905-7.54 4.735-7.378 5.25-7.46-5.128-7.336-5.028-7.534-4.734-7.527-5.129M78.198 92.169l-.526 14.514.658 9.874-.132 9.967" stroke="#152F60" stroke-width="1.741" stroke-linecap="round" stroke-linejoin="round"/><path d="m78.198 14.051-.335 9.505.14 9.87.163 9.866.268 9.867-.271 9.87.358 9.866-.762 9.867.439 5.225" stroke="#152F60" stroke-width="1.741" stroke-linecap="round" stroke-linejoin="round"/></g><defs><linearGradient id="b" x1="15.89" y1="69.163" x2="137.923" y2="69.163" gradientUnits="userSpaceOnUse"><stop stop-color="#B0B0B0" stop-opacity=".25"/><stop offset="1" stop-color="#AFAFAF"/></linearGradient><clipPath id="a"><path fill="#fff" transform="translate(.525)" d="M0 0h147.97v141H0z"/></clipPath></defs></svg>