<svg width="450" height="286" fill="none" xmlns="http://www.w3.org/2000/svg"><path d="M433.083.56c-4.282-.057-8.567.04-12.849.097-4.262.057-19.819-.882-22.595.675-2.705 1.516-2.392 6.46-2.251 9.213.172 3.398.156 6.732 0 10.171-.353 7.707-7.414 7.938-13.837 7.695-3.351-.126-6.635-.177-9.953-.065-3.058.107-6.182 1.44-9.247.524l-53.932 1.79c-5.961-1.669-14.28-.307-20.625-.441-12.9-.27-26.086-.193-38.936.407-16.605.778-33.617-1.275-50.301-1.255-5.032.007-10.03 11.094-15.106 11.094-5.076 0-9.673 1.296-12.12-2.39-.71-1.068-.987-2.35-1.123-3.606a60.053 60.053 0 0 1-.134-11.733c.341-3.83 1.334-11.648-1.05-15.112-1.585-2.298-5.833-1.917-8.214-1.974-8.895-.214-19.589-1.588-25.122 3.034a9.461 9.461 0 0 0-.918.787c-3.231 3.148-5.436 7.34-8.323 10.793-4.218 5.042-9.725 12.51-15.968 15.136-4.117 1.731-11.916 1.282-16.458.908-3.808-.314-3.804-1.728-4.936-4.994-1.336-3.847-3.257-4.916-7.136-5.042-7.122-.23-14.203-.332-21.226-.239-5.984.08-11.6.328-17.507.298-2.74-.014-5.73-.628-7.23 1.944-1.086 1.865-.875 5.465-1.175 7.639-.357 2.625-.192 6.827-2.572 8.442-2.203 1.496-31.811.651-31.811.651V284.5H449.29V.979S436.628.609 433.083.56Z" fill="#152F60" stroke="#101820" stroke-width="1.75" stroke-linecap="round" stroke-linejoin="round"/></svg>