<svg width="188" height="127" viewBox="0 0 188 127" fill="none" xmlns="http://www.w3.org/2000/svg">
<path d="M144.056 77C144.056 104.132 122.077 126.125 94.9653 126.125C67.854 126.125 45.875 104.132 45.875 77C45.875 49.8684 67.854 27.875 94.9653 27.875C122.077 27.875 144.056 49.8684 144.056 77Z" fill="#0B302B" stroke="#101820" stroke-width="1.75"/>
<path d="M132.063 77C132.063 97.5041 115.453 114.125 94.9648 114.125C74.4764 114.125 57.8662 97.5041 57.8662 77C57.8662 56.4959 74.4764 39.875 94.9648 39.875C115.453 39.875 132.063 56.4959 132.063 77Z" fill="#4E6F76" stroke="#101820" stroke-width="1.75"/>
<rect x="-0.875001" y="-0.875" width="58.75" height="43.7499" rx="21.875" transform="matrix(9.33821e-07 1 1 -8.96802e-08 73 39)" fill="#73878B" stroke="#101820" stroke-width="1.75"/>
<rect width="63" height="34" rx="17" transform="matrix(1.26562e-07 1 1 -1.36241e-07 77 27)" fill="#4899C6"/>
<rect x="4" y="4" width="34" height="26" rx="13" transform="matrix(6.97845e-07 1 1 -9.05529e-08 77 48)" stroke="white" stroke-opacity="0.24" stroke-width="8"/>
<mask id="mask0_118:27061" style="mask-type:alpha" maskUnits="userSpaceOnUse" x="57" y="37" width="74" height="34">
<path d="M131 37C131 55.7777 115.778 71 97 71L91 71C72.2223 71 57 55.7777 57 37L131 37Z" fill="#466561"/>
</mask>
<g mask="url(#mask0_118:27061)">
<path d="M131.875 37L131.875 36.125L131 36.125L57 36.125L56.125 36.125L56.125 37C56.125 56.2609 71.7391 71.875 91 71.875L97 71.875C116.261 71.875 131.875 56.2609 131.875 37Z" fill="#466561" stroke="#101820" stroke-width="1.75"/>
<path opacity="0.13" d="M66.4495 39.3082C65.3967 37.2026 64.7515 35.6049 64.9998 33.3975C64.6024 32.1599 64.257 30.9428 63.4389 29.9202C62.7711 29.0855 62.8414 27.8023 62.3544 26.9257C61.6534 25.6638 62.2087 22.9482 62.2087 21.5357C62.2087 19.6227 62.8394 18.6417 64.7662 17.9747C66.7535 17.2868 69.2138 16 71.3054 16L82.1664 16C91.5484 16 101.164 16.0394 110.282 18.5089C115.112 19.817 117.766 23.4255 119.88 27.6541C121.506 30.9043 120.999 34.4337 120.058 37.7543C118.976 41.5746 117.556 44.5948 113.908 46.3007C109.942 48.155 105.403 48.5973 101.088 48.9229C98.2129 49.1399 95.3597 49.6778 92.4771 49.7807C88.2095 49.9332 83.6684 50.2108 79.6737 48.4858C76.862 47.2717 74.1152 45.762 71.3054 44.6173C69.3488 43.8202 67.369 41.1471 66.4495 39.3082Z" fill="white"/>
</g>
<path d="M131.875 37L131.875 36.125L131 36.125L57 36.125L56.125 36.125L56.125 37C56.125 56.2609 71.7391 71.875 91 71.875L97 71.875C116.261 71.875 131.875 56.2609 131.875 37Z" stroke="#101820" stroke-width="1.75"/>
<mask id="mask1_118:27061" style="mask-type:alpha" maskUnits="userSpaceOnUse" x="2" y="2" width="184" height="34">
<path d="M186 2C186 20.7777 170.778 36 152 36L36 36C17.2223 36 2 20.7777 2 1.99998L186 2Z" fill="#466561"/>
</mask>
<g mask="url(#mask1_118:27061)">
<path d="M186.875 2L186.875 1.125L186 1.125L2 1.12498L1.125 1.12498L1.125 1.99998C1.125 21.2609 16.7391 36.875 36 36.875L152 36.875C171.261 36.875 186.875 21.2609 186.875 2Z" fill="#0B302B" stroke="#101820" stroke-width="1.75"/>
<path opacity="0.04" d="M12.4287 8.37967C9.25129 6.2676 7.30396 4.66495 8.05344 2.4508C6.8539 1.20941 5.81161 -0.0113687 3.34256 -1.03714C1.32732 -1.87438 1.53938 -3.16149 0.069616 -4.04078C-2.04616 -5.30654 -0.370034 -8.03051 -0.370034 -9.44733C-0.370034 -11.3662 1.53344 -12.3502 7.34826 -13.0192C13.3459 -13.7092 20.7712 -15 27.0836 -15L59.8619 -15C88.1766 -15 117.197 -14.9604 144.714 -12.4834C159.291 -11.1713 167.301 -7.55169 173.682 -3.31016C178.587 -0.0499923 177.059 3.49024 174.22 6.82103C170.953 10.653 166.668 13.6825 155.657 15.3936C143.687 17.2535 129.988 17.6972 116.968 18.0238C108.29 18.2415 99.6792 18.781 90.9794 18.8843C78.0998 19.0372 64.3951 19.3157 52.3391 17.5854C43.8534 16.3676 35.5634 14.8533 27.0836 13.705C21.1787 12.9055 15.2035 10.2242 12.4287 8.37967Z" fill="white"/>
</g>
<path d="M186.875 2L186.875 1.125L186 1.125L2 1.12498L1.125 1.12498L1.125 1.99998C1.125 21.2609 16.7391 36.875 36 36.875L152 36.875C171.261 36.875 186.875 21.2609 186.875 2Z" stroke="#101820" stroke-width="1.75"/>
</svg>
