<svg width="390" height="670" fill="none" xmlns="http://www.w3.org/2000/svg"><path d="M399.153 678.6H-14.153c2.155-7.044 17.217-57.97 22.09-76.362 1.892-7.138 3.782-14.273 5.835-21.366 1.954-6.742 4.446-13.335 6.34-20.084 1.533-5.452 2.502-11.102 3.71-16.631 1.317-6.026 2.505-12.029 4.395-17.907 9.136-28.404 16.434-57.363 25.644-85.746 3.899-12.016 7.75-23.948 10.16-36.369a261.905 261.905 0 0 1 9.413-35.195c4.126-12.037 8.28-24.071 11.828-36.295 13.003-44.823 27.793-89.189 37.849-134.815 2.963-13.418 6.189-26.724 10.124-39.892 7.695-25.741 16.995-51.012 23.195-77.194 6.321-26.67 13.625-53.096 20.424-79.645 3.067.014 6.139.141 9.195.152 1.558 0 6.444.097 6.444.097s4.885-.093 6.445-.097c3.052-.01 6.138-.14 9.195-.152 6.799 26.55 14.104 52.975 20.422 79.645 6.202 26.171 15.501 51.453 23.195 77.194 3.937 13.168 7.167 26.474 10.126 39.892 10.057 45.626 24.846 89.992 37.849 134.815 3.546 12.224 7.701 24.258 11.828 36.295a262.228 262.228 0 0 1 9.413 35.195c2.415 12.421 6.268 24.353 10.16 36.369 9.208 28.381 16.511 57.342 25.642 85.746 1.891 5.878 3.078 11.881 4.395 17.907 1.208 5.529 2.178 11.179 3.712 16.631 1.905 6.749 4.386 13.336 6.338 20.084 2.053 7.093 3.945 14.228 5.836 21.366 4.887 18.392 19.95 69.318 22.104 76.362Z" fill="#00FFD1" fill-opacity=".4"/><path d="M208.139 1.097c6.799 26.55 14.104 52.977 20.422 79.647 6.202 26.171 15.503 51.453 23.197 77.195 3.935 13.168 7.168 26.473 10.125 39.891 10.056 45.626 24.846 89.992 37.848 134.815 3.548 12.224 7.703 24.258 11.829 36.296a261.985 261.985 0 0 1 9.413 35.194c2.415 12.421 6.267 24.353 10.16 36.369 9.21 28.381 16.51 57.342 25.644 85.746 1.89 5.878 3.077 11.881 4.394 17.908 1.207 5.528 2.176 11.178 3.711 16.631 1.905 6.748 4.386 13.335 6.35 20.083 2.053 7.093 3.943 14.228 5.833 21.366 4.869 18.392 19.938 69.318 22.093 76.362H-14.153c2.155-7.044 17.217-57.97 22.092-76.362 1.89-7.138 3.78-14.273 5.835-21.366 1.952-6.742 4.446-13.335 6.338-20.083 1.535-5.453 2.504-11.103 3.713-16.631 1.316-6.027 2.504-12.03 4.394-17.908 9.136-28.404 16.432-57.363 25.642-85.746 3.899-12.016 7.751-23.948 10.16-36.369a262.23 262.23 0 0 1 9.413-35.194c4.128-12.038 8.283-24.072 11.828-36.296 13.003-44.823 27.793-89.189 37.849-134.815 2.963-13.418 6.189-26.723 10.126-39.891 7.695-25.742 16.993-51.013 23.195-77.195 6.319-26.67 13.623-53.097 20.422-79.647" stroke="#101820" stroke-width="1.693" stroke-linecap="round" stroke-linejoin="round"/></svg>