<svg width="838" height="870" viewBox="0 0 838 870" fill="none" xmlns="http://www.w3.org/2000/svg">
<path d="M37 243C103.768 302.142 164.413 368.776 236.837 420.914C272.344 446.476 311.872 466.214 344.665 495.425C401.625 546.165 464.07 583.683 527.012 624.983C562.405 648.207 599.061 671.039 636.512 689.763C656.076 699.543 676.188 710.127 694 722" stroke="#214952" stroke-width="3" stroke-linecap="round"/>
<path d="M21 252C95.2119 308.743 159.406 377.767 233.716 434.707C281.19 471.084 323.978 514.742 368.361 554.768C398.447 581.901 425.032 612.704 453.645 641.313C462.371 650.038 468.783 660.488 476.981 669.596C491.13 685.314 509.486 697.146 524.503 712.162C538.428 726.085 549.479 742.225 563.256 756C587.059 779.8 618.204 795.668 642.034 819.495C650.808 828.268 659.362 840.002 668.906 847.636C675.678 853.053 680.38 864.191 688 868" stroke="#214952" stroke-width="3" stroke-linecap="round"/>
<path d="M4 260C37.7035 274.125 76.3216 285.205 107.709 304.333C141.855 325.143 184.942 331.582 221.775 346.333C244.47 355.422 268.088 359.396 291.173 366.815C323.435 377.183 355.558 385.912 388.538 394.167C439.41 406.9 489.292 422.756 539.893 436.167C613.773 455.747 688.405 476.184 760.905 498.519C774.034 502.563 788.361 506.876 801.042 512.519C809.493 516.279 831.832 517.653 836 526" stroke="#214952" stroke-width="3" stroke-linecap="round"/>
<path d="M-31.849 268.514C-22.7085 265.962 -13.4571 263.752 -4.34999 261.203C0.293635 259.886 14.9179 256.051 14.9179 256.051C14.9179 256.051 29.3813 251.648 34.015 250.32C43.0854 247.713 52.1709 244.727 61.2566 242.102C66.2026 240.699 71.1567 239.348 76.1517 238.238C88.6418 235.471 91.0952 221.609 93.8559 210.294C94.6175 207.171 96.0443 204.282 97.3794 201.404L67.7111 209.875C57.63 212.735 47.6747 216.614 37.6114 219.537C25.8946 222.942 7.1448 228.649 7.1448 228.649C7.1448 228.649 -11.8151 233.639 -23.5684 236.891C-33.6674 239.688 -44.1697 241.639 -54.2642 244.476L-83.9531 252.85C-81.2998 254.596 -78.5764 256.301 -76.2884 258.559C-68.004 266.74 -58.6372 277.25 -46.5546 273.046C-41.7205 271.368 -36.7833 269.886 -31.849 268.514Z" fill="#535867"/>
<path d="M-115.253 170.014C-115.253 170.014 -99.1245 166.345 -91.4022 163.93C-82.8741 161.258 -74.4623 158.178 -65.7251 156.196C-55.2868 153.828 -45.0896 150.009 -34.7046 147.261C-30.4806 146.144 -21.4808 143.768 -17.2747 142.589C-13.0686 141.409 -4.16887 138.68 0.0185553 137.411C10.2936 134.299 21.0021 132.187 31.1105 128.727C39.5867 125.826 48.3569 124.032 57.0172 121.827C64.8638 119.826 80.5165 114.48 80.5165 114.48C80.5165 114.48 104.113 120.075 113.693 121.183C125.807 122.587 137.847 125.721 150.062 125.585C155.302 125.528 160.805 127.459 166.02 128.131C172.382 128.961 178.832 129.378 185.231 130.17C196.46 131.573 207.626 131.986 218.787 133.94C221.466 134.436 224.097 135.166 226.649 136.121L226.763 136.163C206.475 141.919 76.2804 178.647 29.8401 191.589C25.2545 192.863 20.6605 194.107 16.0581 195.322C5.8064 198.012 -1.02705 199.889 -1.02705 199.889C-1.02705 199.889 -7.81573 201.876 -17.9657 204.973C-22.5192 206.36 -27.0843 207.714 -31.661 209.035C-77.9798 222.406 -208.074 259.487 -228.349 265.265L-228.274 265.169C-226.605 263.015 -224.75 261.013 -222.729 259.185C-214.268 251.645 -204.97 245.447 -196.15 238.357C-191.127 234.324 -185.882 230.59 -180.871 226.534C-176.786 223.224 -173.123 218.692 -168.634 215.989C-158.167 209.691 -149.565 200.702 -139.986 193.145C-132.409 187.169 -115.253 170.014 -115.253 170.014Z" fill="#BDBDBC"/>
<path d="M-83.9531 252.85L-54.2642 244.475C-44.1831 241.616 -33.6737 239.69 -23.5684 236.891C-11.8151 233.639 7.14481 228.649 7.14481 228.649C7.14481 228.649 25.8946 222.942 37.6114 219.536C47.6747 216.614 57.6308 212.761 67.7111 209.875L97.3794 201.404C133.607 191.073 191.599 174.527 207.18 170.107C229.573 163.755 240.968 150.672 238.91 145.816C236.596 140.346 231.848 138.009 226.763 136.164C206.481 141.917 76.2868 178.645 29.8465 191.588C25.2609 192.861 20.6648 194.106 16.0582 195.322C5.80651 198.012 -1.02694 199.889 -1.02694 199.889C-1.02694 199.889 -7.82192 201.878 -17.9656 204.973C-22.5149 206.359 -27.0779 207.713 -31.6546 209.034C-77.9734 222.404 -208.068 259.485 -228.349 265.266C-231.701 269.505 -234.524 273.975 -233.618 279.858C-232.818 285.078 -216.252 290.223 -193.86 283.87C-178.259 279.445 -120.213 263.067 -83.9531 252.85Z" fill="#9A9A99"/>
<path opacity="0.92" d="M-112.77 130.507C-115.933 138.893 -120.258 152.373 -115.253 170.015C-115.253 170.015 -99.1253 166.346 -91.3966 163.929C-82.8686 161.258 -74.463 158.179 -65.7258 156.197C-55.2876 153.829 -45.084 150.008 -34.7054 147.262C-30.475 146.143 -21.4816 143.769 -17.2691 142.588C-13.0567 141.406 -4.1633 138.679 0.0178278 137.412C10.2991 134.298 21.0014 132.188 31.1097 128.728C39.586 125.827 48.3625 124.031 57.0228 121.826C64.8631 119.827 80.5158 114.481 80.5158 114.481C75.5113 96.8394 64.7333 87.643 57.6573 82.1617C38.9906 67.7145 18.018 61.9137 -4.74193 62.1478C-27.82 62.3586 -50.4172 68.7688 -70.1684 80.7074C-89.6674 92.4609 -104.459 108.427 -112.77 130.507Z" fill="white"/>
<path d="M80.5161 114.481C80.5161 114.481 104.112 120.075 113.692 121.183C125.806 122.587 137.846 125.721 150.062 125.585C155.301 125.528 160.805 127.459 166.02 128.131C172.382 128.961 178.838 129.376 185.231 130.17C196.46 131.573 207.626 131.986 218.787 133.94C221.466 134.436 224.097 135.166 226.649 136.121C231.77 137.977 236.573 140.29 238.928 145.81C240.988 150.672 229.591 163.749 207.199 170.101C184.806 176.454 74.8016 207.849 67.7295 209.869C57.6484 212.729 47.6931 216.608 37.6235 219.532C25.913 222.936 7.15687 228.645 7.15687 228.645" stroke="#101820" stroke-width="1.75" stroke-linecap="round" stroke-linejoin="round"/>
<path d="M226.763 136.164C206.475 141.919 76.2805 178.647 29.8402 191.589C25.2546 192.863 20.6606 194.107 16.0582 195.322C5.80651 198.012 -1.02694 199.889 -1.02694 199.889" stroke="#101820" stroke-width="1.75" stroke-linecap="round" stroke-linejoin="round"/>
<path d="M80.516 114.481C75.5114 96.8392 64.7334 87.6427 57.6575 82.1614C38.9907 67.7143 18.0181 61.9135 -4.7481 62.1493C-16.2379 62.2216 -27.664 63.8641 -38.7089 67.0312" stroke="#101820" stroke-width="1.75" stroke-linecap="round" stroke-linejoin="round"/>
<path d="M80.5156 114.481C80.5156 114.481 64.8629 119.826 57.0163 121.828C48.3623 124.031 39.5858 125.826 31.1095 128.727C20.9823 132.192 10.299 134.297 0.0176352 137.411C-4.16979 138.68 -13.0703 141.382 -17.2756 142.589" stroke="#101820" stroke-width="1.75" stroke-linecap="round" stroke-linejoin="round"/>
<path d="M97.3794 201.404C96.038 204.283 94.6112 207.173 93.8496 210.296C91.0951 221.609 88.6418 235.471 76.1517 238.238C61.9398 241.391 48.0072 246.296 34.015 250.32C29.3714 251.637 14.9116 256.052 14.9116 256.052" stroke="#101820" stroke-width="1.75" stroke-linecap="round" stroke-linejoin="round"/>
<path d="M221.33 151.477L217.55 152.55" stroke="#101820" stroke-width="1.75" stroke-linecap="round" stroke-linejoin="round"/>
<path d="M198.019 158.09L16.3755 209.617" stroke="#101820" stroke-width="1.75" stroke-linecap="round" stroke-linejoin="round" stroke-dasharray="2.62 6.56"/>
<path d="M6.60889 212.388L2.82846 213.46" stroke="#101820" stroke-width="1.75" stroke-linecap="round" stroke-linejoin="round"/>
<path d="M-115.254 170.015C-115.254 170.015 -132.398 187.166 -139.968 193.14C-149.541 200.695 -158.142 209.684 -168.61 215.982C-173.105 218.687 -176.768 223.219 -180.854 226.529C-185.833 230.576 -191.109 234.319 -196.133 238.352C-204.952 245.442 -214.245 251.659 -222.711 259.18C-224.732 261.008 -226.587 263.01 -228.256 265.164C-231.641 269.433 -234.513 273.924 -233.619 279.858C-232.819 285.078 -216.253 290.222 -193.861 283.87C-171.468 277.518 -61.3635 246.475 -54.2842 244.481C-44.2031 241.621 -33.6937 239.695 -23.5947 236.898C-11.8351 233.644 7.11849 228.656 7.11849 228.656" stroke="#101820" stroke-width="1.75" stroke-linecap="round" stroke-linejoin="round"/>
<path d="M-228.331 265.261C-208.049 259.507 -77.9615 222.401 -31.6427 209.03C-27.0714 207.706 -22.5063 206.352 -17.9474 204.968C-7.81006 201.875 -1.00879 199.884 -1.00879 199.884" stroke="#101820" stroke-width="1.75" stroke-linecap="round" stroke-linejoin="round"/>
<path d="M-83.962 252.846C-81.3088 254.591 -78.5835 256.303 -76.2955 258.561C-68.0048 266.741 -58.6381 277.25 -46.5555 273.046C-32.8048 268.267 -18.3716 265.126 -4.35087 261.203C0.286449 259.888 14.9107 256.053 14.9107 256.053" stroke="#101820" stroke-width="1.75" stroke-linecap="round" stroke-linejoin="round"/>
<path d="M-0.952298 214.532L2.82812 213.46" stroke="#101820" stroke-width="1.75" stroke-linecap="round" stroke-linejoin="round"/>
<path d="M51.6905 102.909C49.7845 101.05 47.7639 99.3134 45.6405 97.7081C31.5299 86.7951 15.1181 81.5931 -4.5407 81.7917C-24.0983 81.9709 -43.2483 87.4032 -59.9869 97.5201" stroke="white" stroke-width="1.75" stroke-linecap="round" stroke-linejoin="round"/>
<path d="M141.611 143.769L73.2649 129.309" stroke="#101820" stroke-width="1.75" stroke-linecap="round" stroke-linejoin="round"/>
<path d="M92.4433 156.744L44.7143 139.464" stroke="#101820" stroke-width="1.75" stroke-linecap="round" stroke-linejoin="round"/>
<path d="M43.269 169.719L16.1574 149.621" stroke="#101820" stroke-width="1.75" stroke-linecap="round" stroke-linejoin="round"/>
</svg>
