<svg width="892" height="857" viewBox="0 0 892 857" fill="none" xmlns="http://www.w3.org/2000/svg">
<path d="M934 244C884.381 279.055 826.311 288.051 772.603 313.497C686.807 354.146 591.169 374.454 505.551 415.84C439.307 447.86 370.007 472.741 304.27 506.282C269.073 524.24 232.222 541.074 195.117 554.597C161.6 566.812 125.879 587.175 90.1622 591.011C60.1073 594.24 31.7618 621 2 621" stroke="#214952" stroke-width="3" stroke-linecap="round"/>
<path d="M860 251C778.497 323.23 704.466 404.609 616.058 468.286C572.715 499.504 524.463 523.61 484.434 559.286C414.902 621.254 338.675 667.074 261.842 717.514C218.638 745.877 173.891 773.762 128.175 796.629C104.294 808.573 79.7437 821.499 58 836" stroke="#214952" stroke-width="3" stroke-linecap="round"/>
<path d="M881 256C808.791 311.177 746.329 378.296 674.025 433.665C627.831 469.038 586.198 511.491 543.014 550.412C513.739 576.797 487.871 606.75 460.031 634.569C451.54 643.053 445.301 653.215 437.324 662.071C423.557 677.356 405.697 688.861 391.085 703.462C377.536 717.001 366.783 732.696 353.378 746.091C330.217 769.234 299.913 784.664 276.725 807.834C268.188 816.364 259.866 827.774 250.578 835.198C243.99 840.465 239.414 851.296 232 855" stroke="#214952" stroke-width="3" stroke-linecap="round"/>
<path d="M922.057 268.514C912.917 265.962 903.666 263.752 894.558 261.203C889.915 259.886 875.291 256.05 875.291 256.05C875.291 256.05 860.827 251.648 856.193 250.32C847.123 247.713 838.038 244.727 828.952 242.102C824.006 240.699 819.052 239.348 814.057 238.238C801.567 235.471 799.113 221.609 796.353 210.294C795.591 207.171 794.164 204.281 792.829 201.404L822.497 209.875C832.579 212.735 842.534 216.614 852.597 219.536C864.314 222.942 883.064 228.649 883.064 228.649C883.064 228.649 902.024 233.639 913.777 236.891C923.876 239.688 934.378 241.639 944.473 244.476L974.162 252.85C971.508 254.596 968.785 256.301 966.497 258.559C958.212 266.74 948.846 277.249 936.763 273.046C931.929 271.368 926.992 269.886 922.057 268.514Z" fill="#535867"/>
<path d="M1005.46 170.014C1005.46 170.014 989.333 166.345 981.611 163.93C973.083 161.259 964.671 158.178 955.934 156.196C945.495 153.828 935.298 150.009 924.913 147.261C920.689 146.144 911.689 143.768 907.483 142.589C903.277 141.409 894.377 138.68 890.19 137.411C879.915 134.299 869.206 132.187 859.098 128.727C850.622 125.826 841.852 124.032 833.191 121.827C825.345 119.826 809.692 114.48 809.692 114.48C809.692 114.48 786.096 120.075 776.516 121.183C764.402 122.587 752.362 125.721 740.146 125.585C734.907 125.528 729.403 127.459 724.188 128.131C717.826 128.961 711.377 129.378 704.977 130.17C693.748 131.573 682.582 131.986 671.421 133.94C668.742 134.436 666.111 135.166 663.559 136.121L663.445 136.163C683.733 141.919 813.928 178.647 860.368 191.589C864.954 192.863 869.548 194.107 874.15 195.322C884.402 198.012 891.236 199.889 891.236 199.889C891.236 199.889 898.024 201.876 908.174 204.973C912.728 206.36 917.293 207.714 921.87 209.035C968.188 222.406 1098.28 259.487 1118.56 265.265L1118.48 265.169C1116.81 263.015 1114.96 261.013 1112.94 259.185C1104.48 251.645 1095.18 245.447 1086.36 238.357C1081.34 234.324 1076.09 230.59 1071.08 226.534C1066.99 223.224 1063.33 218.692 1058.84 215.989C1048.38 209.691 1039.77 200.702 1030.19 193.145C1022.62 187.169 1005.46 170.014 1005.46 170.014Z" fill="#BDBDBC"/>
<path d="M974.162 252.85L944.473 244.475C934.392 241.616 923.882 239.69 913.777 236.891C902.024 233.639 883.064 228.648 883.064 228.648C883.064 228.648 864.314 222.942 852.597 219.536C842.534 216.614 832.578 212.761 822.497 209.875L792.829 201.404C756.602 191.073 698.61 174.527 683.028 170.107C660.636 163.755 649.241 150.672 651.299 145.816C653.613 140.346 658.36 138.009 663.445 136.164C683.727 141.917 813.922 178.645 860.362 191.588C864.948 192.861 869.544 194.106 874.15 195.322C884.402 198.012 891.235 199.889 891.235 199.889C891.235 199.889 898.03 201.878 908.174 204.973C912.723 206.359 917.286 207.713 921.863 209.034C968.182 222.404 1098.28 259.485 1118.56 265.266C1121.91 269.505 1124.73 273.975 1123.83 279.858C1123.03 285.078 1106.46 290.222 1084.07 283.87C1068.47 279.445 1010.42 263.067 974.162 252.85Z" fill="#9A9A99"/>
<path opacity="0.92" d="M1002.98 130.507C1006.14 138.893 1010.47 152.373 1005.46 170.015C1005.46 170.015 989.334 166.346 981.605 163.929C973.077 161.258 964.672 158.179 955.934 156.197C945.496 153.829 935.293 150.008 924.914 147.262C920.684 146.143 911.69 143.769 907.478 142.588C903.265 141.406 894.372 138.679 890.191 137.412C879.909 134.298 869.207 132.188 859.099 128.728C850.622 125.827 841.846 124.031 833.186 121.826C825.345 119.827 809.693 114.481 809.693 114.481C814.697 96.8395 825.475 87.643 832.551 82.1617C851.218 67.7146 872.191 61.9138 894.95 62.1478C918.029 62.3587 940.626 68.7688 960.377 80.7074C979.876 92.461 994.667 108.427 1002.98 130.507Z" fill="white"/>
<path d="M809.692 114.48C809.692 114.48 786.096 120.075 776.516 121.183C764.402 122.587 752.362 125.721 740.147 125.585C734.907 125.528 729.403 127.459 724.189 128.131C717.826 128.961 711.371 129.376 704.978 130.17C693.749 131.573 682.582 131.986 671.422 133.94C668.742 134.436 666.112 135.166 663.56 136.121C658.438 137.977 653.636 140.29 651.28 145.81C649.22 150.672 660.617 163.749 683.01 170.101C705.403 176.453 815.407 207.849 822.479 209.869C832.56 212.729 842.515 216.608 852.585 219.532C864.295 222.936 883.052 228.645 883.052 228.645" stroke="#101820" stroke-width="1.75" stroke-linecap="round" stroke-linejoin="round"/>
<path d="M663.445 136.164C683.733 141.919 813.928 178.647 860.368 191.589C864.954 192.863 869.548 194.107 874.15 195.322C884.402 198.012 891.235 199.889 891.235 199.889" stroke="#101820" stroke-width="1.75" stroke-linecap="round" stroke-linejoin="round"/>
<path d="M809.693 114.481C814.697 96.8392 825.475 87.6427 832.551 82.1615C851.218 67.7143 872.19 61.9135 894.957 62.1494C906.446 62.2216 917.872 63.8641 928.917 67.0313" stroke="#101820" stroke-width="1.75" stroke-linecap="round" stroke-linejoin="round"/>
<path d="M809.693 114.481C809.693 114.481 825.346 119.826 833.192 121.828C841.846 124.031 850.623 125.826 859.099 128.727C869.226 132.192 879.91 134.297 890.191 137.411C894.378 138.68 903.279 141.382 907.484 142.589" stroke="#101820" stroke-width="1.75" stroke-linecap="round" stroke-linejoin="round"/>
<path d="M792.829 201.404C794.17 204.283 795.597 207.173 796.359 210.296C799.113 221.609 801.567 235.471 814.057 238.238C828.269 241.391 842.201 246.296 856.193 250.32C860.837 251.637 875.297 256.052 875.297 256.052" stroke="#101820" stroke-width="1.75" stroke-linecap="round" stroke-linejoin="round"/>
<path d="M668.878 151.477L672.659 152.55" stroke="#101820" stroke-width="1.75" stroke-linecap="round" stroke-linejoin="round"/>
<path d="M692.19 158.09L873.833 209.617" stroke="#101820" stroke-width="1.75" stroke-linecap="round" stroke-linejoin="round" stroke-dasharray="2.62 6.56"/>
<path d="M883.6 212.388L887.38 213.46" stroke="#101820" stroke-width="1.75" stroke-linecap="round" stroke-linejoin="round"/>
<path d="M1005.46 170.015C1005.46 170.015 1022.61 187.166 1030.18 193.14C1039.75 200.695 1048.35 209.684 1058.82 215.982C1063.31 218.687 1066.98 223.219 1071.06 226.529C1076.04 230.576 1081.32 234.319 1086.34 238.352C1095.16 245.442 1104.45 251.659 1112.92 259.18C1114.94 261.008 1116.8 263.01 1118.46 265.164C1121.85 269.433 1124.72 273.924 1123.83 279.858C1123.03 285.078 1106.46 290.222 1084.07 283.87C1061.68 277.518 951.572 246.475 944.493 244.481C934.412 241.621 923.902 239.695 913.803 236.898C902.044 233.644 883.09 228.656 883.09 228.656" stroke="#101820" stroke-width="1.75" stroke-linecap="round" stroke-linejoin="round"/>
<path d="M1118.54 265.261C1098.26 259.507 968.17 222.401 921.851 209.03C917.28 207.706 912.715 206.352 908.156 204.968C898.019 201.875 891.217 199.884 891.217 199.884" stroke="#101820" stroke-width="1.75" stroke-linecap="round" stroke-linejoin="round"/>
<path d="M974.171 252.846C971.517 254.591 968.792 256.303 966.504 258.561C958.213 266.741 948.847 277.25 936.764 273.046C923.013 268.267 908.58 265.126 894.559 261.203C889.922 259.888 875.298 256.053 875.298 256.053" stroke="#101820" stroke-width="1.75" stroke-linecap="round" stroke-linejoin="round"/>
<path d="M891.161 214.532L887.38 213.46" stroke="#101820" stroke-width="1.75" stroke-linecap="round" stroke-linejoin="round"/>
<path d="M838.518 102.909C840.424 101.05 842.445 99.3134 844.568 97.7081C858.679 86.7951 875.09 81.5931 894.749 81.7917C914.307 81.9709 933.457 87.4032 950.195 97.5201" stroke="white" stroke-width="1.75" stroke-linecap="round" stroke-linejoin="round"/>
<path d="M748.597 143.769L816.944 129.309" stroke="#101820" stroke-width="1.75" stroke-linecap="round" stroke-linejoin="round"/>
<path d="M797.765 156.744L845.494 139.464" stroke="#101820" stroke-width="1.75" stroke-linecap="round" stroke-linejoin="round"/>
<path d="M846.939 169.719L874.051 149.621" stroke="#101820" stroke-width="1.75" stroke-linecap="round" stroke-linejoin="round"/>
</svg>
