<svg width="161" height="66" fill="none" xmlns="http://www.w3.org/2000/svg"><path d="M55.558 28.976c.428-.746.903-1.464 1.422-2.15 3.425-4.639 8.069-7.704 14.199-9.376a35.268 35.268 0 0 1 18.627 0" stroke="#fff" stroke-width="4.233" stroke-linecap="round" stroke-linejoin="round"/><path d="M31.203 49.611 51.18 39.087M47.635 49.309l13.316-9.582M64.068 49.006l6.657-8.64M80.501 48.706v-7.701M129.797 49.611l-19.974-10.524M113.365 49.309l-13.316-9.582M96.933 49.006l-6.66-8.64" stroke="#101820" stroke-width="1.27" stroke-linecap="round" stroke-linejoin="round"/><path d="M96.139 64.098c-3.067.013-6.139.142-9.195.152-1.56 0-6.445.098-6.445.098s-4.886-.093-6.444-.098c-3.05-.01-6.138-.137-9.195-.152-1.661 0-3.32.017-4.972.112-4.127.241-6.113-3.852-7.97-7.127-.511-.904-1.21-1.676-1.879-2.453l9.972.017c3.387 0 6.824.328 10.21.35 3.944.025 10.278.145 10.278.145s6.335-.12 10.276-.146c3.387-.021 6.824-.34 10.213-.35l9.97-.014c-.671.777-1.367 1.547-1.88 2.451-1.854 3.275-3.839 7.368-7.967 7.127a79.548 79.548 0 0 0-4.972-.112Z" fill="#535867"/><path d="M113.384 26.116s-5.339.282-7.953.212c-2.887-.078-5.774-.294-8.666-.14-3.454.184-6.961-.104-10.433-.042-1.412.025-4.42.08-5.831.084-1.412.005-4.42-.059-5.834-.084-3.47-.062-6.985.226-10.433.042-2.892-.154-5.777.062-8.664.14-2.616.07-7.955-.212-7.955-.212s-6.843 3.82-9.724 5.01c-3.643 1.505-7.11 3.542-10.92 4.577-1.634.444-3.175 1.53-4.737 2.2-1.905.818-3.874 1.517-5.794 2.327-3.367 1.427-6.803 2.54-10.1 4.132-.79.39-1.543.85-2.253 1.372l-.031.023c6.815 0 50.536-.063 66.117-.135 1.538-.009 3.076-.027 4.615-.055 3.425-.068 5.715-.087 5.715-.087s2.286.019 5.715.087c1.538.03 3.077.048 4.616.055 15.582.072 59.302.127 66.116.135l-.032-.023a15.02 15.02 0 0 0-2.252-1.372c-3.296-1.598-6.733-2.705-10.101-4.132-1.918-.81-3.878-1.509-5.793-2.328-1.563-.669-3.101-1.755-4.736-2.2-3.81-1.034-7.277-3.07-10.922-4.575-2.883-1.19-9.73-5.01-9.73-5.01Z" fill="#BDBDBC"/><path d="m110.958 54.632-9.969.015c-3.387 0-6.825.328-10.213.35-3.942.025-10.277.145-10.277.145s-6.333-.12-10.277-.146c-3.386-.02-6.822-.34-10.21-.349l-9.972-.017c-12.176-.017-31.666-.047-36.901-.047-7.523 0-12.22-3.062-12.008-4.754.237-1.905 1.507-3.05 2.925-4.072 6.814 0 50.535-.064 66.116-.136 1.538-.008 3.077-.027 4.616-.055 3.425-.068 5.715-.087 5.715-.087s2.288.02 5.715.087c1.537.03 3.075.048 4.615.055 15.581.072 59.302.127 66.117.136 1.416 1.022 2.689 2.163 2.926 4.072.211 1.694-4.486 4.755-12.008 4.755-5.241 0-24.734.027-36.91.048Z" fill="#9A9A99"/><path d="M109.127 14.05c1.723 2.33 4.257 6.14 4.257 12.066 0 0-5.339.282-7.955.212-2.887-.079-5.772-.295-8.664-.14-3.454.184-6.964-.104-10.433-.042-1.414.025-4.42.08-5.834.084-1.414.005-4.42-.059-5.831-.084-3.472-.062-6.985.226-10.433.042-2.892-.155-5.78.061-8.666.14-2.614.07-7.953-.212-7.953-.212 0-5.927 2.54-9.737 4.257-12.065 4.53-6.139 10.539-9.792 17.636-11.727a41.612 41.612 0 0 1 21.98 0c7.1 1.935 13.107 5.595 17.639 11.727Z" fill="#fff"/><path d="M47.615 26.116s-6.843 3.82-9.724 5.01c-3.642 1.505-7.11 3.542-10.92 4.577-1.634.444-3.175 1.53-4.737 2.2-1.905.818-3.876 1.517-5.793 2.327-3.368 1.427-6.804 2.54-10.101 4.132-.79.39-1.543.85-2.253 1.372-1.428 1.029-2.717 2.172-2.963 4.096-.212 1.693 4.485 4.754 12.008 4.754 7.523 0 44.495.06 46.873.063 3.386 0 6.824.328 10.213.35 3.941.025 10.276.146 10.276.146" stroke="#101820" stroke-width="1.693" stroke-linecap="round" stroke-linejoin="round"/><path d="M4.056 45.757c6.815 0 50.536-.064 66.117-.136 1.538-.008 3.076-.027 4.615-.055 3.425-.068 5.715-.087 5.715-.087M47.615 26.116c0-5.927 2.54-9.737 4.257-12.065C56.402 7.912 62.41 4.259 69.51 2.324A40.749 40.749 0 0 1 80.5.847M47.615 26.116s5.339.282 7.955.212c2.885-.078 5.772-.294 8.664-.14 3.454.184 6.961-.104 10.433-.042 1.414.025 4.42.08 5.833.084M50.04 54.63c.67.777 1.369 1.55 1.88 2.453 1.855 3.275 3.84 7.368 7.968 7.127 4.697-.273 9.462.023 14.167.04 1.56 0 6.446.098 6.446.098M7.096 50.04h1.27" stroke="#101820" stroke-width="1.693" stroke-linecap="round" stroke-linejoin="round"/><path d="M14.927 50.04h61.022" stroke="#101820" stroke-width="1.693" stroke-linecap="round" stroke-linejoin="round" stroke-dasharray="2.62 6.56"/><path d="M79.23 50.04h1.27M113.385 26.116s6.843 3.82 9.724 5.01c3.643 1.505 7.11 3.542 10.92 4.577 1.636.444 3.175 1.53 4.737 2.2 1.905.818 3.876 1.517 5.793 2.327 3.368 1.427 6.806 2.54 10.101 4.132.79.39 1.544.85 2.253 1.372 1.428 1.029 2.717 2.172 2.963 4.096.212 1.693-4.485 4.754-12.008 4.754-7.523 0-44.495.06-46.873.063-3.386 0-6.824.328-10.21.35-3.944.025-10.277.146-10.277.146" stroke="#101820" stroke-width="1.693" stroke-linecap="round" stroke-linejoin="round"/><path d="M156.944 45.757c-6.814 0-50.534-.064-66.115-.136a360.996 360.996 0 0 1-4.617-.055c-3.425-.068-5.715-.087-5.715-.087M113.384 26.116c0-5.927-2.54-9.737-4.257-12.065-4.529-6.139-10.539-9.792-17.638-11.727A40.73 40.73 0 0 0 80.5.847M113.384 26.116s-5.338.282-7.952.212c-2.888-.078-5.775-.294-8.666-.14-3.455.184-6.962-.104-10.434-.042-1.411.025-4.42.08-5.831.084M110.96 54.63c-.671.777-1.367 1.55-1.879 2.453-1.857 3.275-3.842 7.368-7.97 7.127-4.697-.273-9.461.023-14.167.04-1.558 0-6.443.098-6.443.098M153.904 50.04h-1.27" stroke="#101820" stroke-width="1.693" stroke-linecap="round" stroke-linejoin="round"/><path d="M146.072 50.04h-61.02" stroke="#101820" stroke-width="1.693" stroke-linecap="round" stroke-linejoin="round" stroke-dasharray="2.62 6.56"/><path d="M81.771 50.04h-1.27" stroke="#101820" stroke-width="1.693" stroke-linecap="round" stroke-linejoin="round"/></svg>