<svg width="1440" height="128" viewBox="0 0 1440 128" fill="none" xmlns="http://www.w3.org/2000/svg">
<path d="M-0.264648 20.1953L1464 20.1952" stroke="#101820" stroke-width="40"/>
<path d="M-9 9.27612L1441.07 9.276" stroke="white" stroke-opacity="0.03" stroke-width="10" stroke-linecap="round"/>
<path opacity="0.1" d="M22.4872 23.0692H25.4443V23.919H23.5409L25.4443 26.185V31.0002H22.4872V30.1505H24.5946V26.4343L22.4872 23.919V23.0692ZM28.0237 27.0347V23.919H26.766V30.1505H27.8877V31.0002H25.9163V23.0692H28.8734V27.0347H28.0237ZM34.5005 31.0002V23.0692H35.3503V31.0002H34.5005ZM36.4946 29.3347C36.4946 29.2139 36.5324 29.1119 36.6079 29.0288C36.691 28.9457 36.793 28.9042 36.9138 28.9042C37.0347 28.9042 37.1366 28.9457 37.2197 29.0288C37.3028 29.1119 37.3444 29.2139 37.3444 29.3347C37.3444 29.4556 37.3028 29.5576 37.2197 29.6406C37.1366 29.7162 37.0347 29.7539 36.9138 29.7539C36.793 29.7539 36.691 29.7162 36.6079 29.6406C36.5324 29.5576 36.4946 29.4556 36.4946 29.3347ZM36.4946 24.7461C36.4946 24.6252 36.5324 24.5233 36.6079 24.4402C36.691 24.3571 36.793 24.3155 36.9138 24.3155C37.0347 24.3155 37.1366 24.3571 37.2197 24.4402C37.3028 24.5233 37.3444 24.6252 37.3444 24.7461C37.3444 24.8669 37.3028 24.9689 37.2197 25.052C37.1366 25.1275 37.0347 25.1653 36.9138 25.1653C36.793 25.1653 36.691 25.1275 36.6079 25.052C36.5324 24.9689 36.4946 24.8669 36.4946 24.7461ZM37.9296 23.0692H40.8868V31.0002H40.037V23.919H37.9296V23.0692ZM41.3587 31.0002V26.185H42.2085V30.1505H43.4661V26.185H44.3159V31.0002H41.3587ZM41.3587 23.0692H44.3159V23.919H41.3587V23.0692ZM47.7449 23.0692V31.0002H46.8952V23.919H45.6376V31.0002H44.7878V23.0692H47.7449ZM51.174 23.0692V31.0002H50.3243V27.0347H49.0667V31.0002H48.2169V26.185H50.3243V23.919H48.2169V23.0692H51.174ZM51.646 23.0692H54.6031V31.0002H53.7534V27.0347H51.646V26.185H53.7534V23.919H51.646V23.0692ZM54.8485 31.0002V23.0692H55.6983L56.548 25.1313L57.4091 23.0692H58.2588V27.0347H57.4091V24.6554L56.7519 26.0377H56.3554L55.6983 24.6554V31.0002H54.8485ZM58.5042 30.1505H59.5579V27.0347H60.4076V30.1505H61.4613V31.0002H58.5042V30.1505ZM58.5042 23.0692H61.4613V23.919H58.5042V23.0692ZM63.2136 23.0692L64.154 27.8165L64.2673 25.052H65.0037L64.7771 30.8869L64.0407 31.0002L62.9983 25.6978L62.5564 31.0002L61.82 30.8869L62.4771 23.0692H63.2136ZM68.3195 31.0002H65.3624V23.0692H66.2121V30.1505H68.3195V31.0002ZM67.4698 27.0347V23.0692H68.3195V27.0347H67.4698ZM76.9038 26.185V31.0002H76.054V27.0347H74.7964V31.0002H73.9466V26.185H76.9038ZM75.9407 23.4998C75.9407 23.3789 75.9785 23.277 76.054 23.1939C76.1371 23.1108 76.2391 23.0692 76.3599 23.0692C76.4808 23.0692 76.5827 23.1108 76.6658 23.1939C76.7489 23.277 76.7905 23.3789 76.7905 23.4998C76.7905 23.6206 76.7489 23.7226 76.6658 23.8057C76.5827 23.8812 76.4808 23.919 76.3599 23.919C76.2391 23.919 76.1371 23.8812 76.054 23.8057C75.9785 23.7226 75.9407 23.6206 75.9407 23.4998ZM74.0599 23.4998C74.0599 23.3789 74.0977 23.277 74.1732 23.1939C74.2563 23.1108 74.3583 23.0692 74.4791 23.0692C74.6 23.0692 74.702 23.1108 74.7851 23.1939C74.8681 23.277 74.9097 23.3789 74.9097 23.4998C74.9097 23.6206 74.8681 23.7226 74.7851 23.8057C74.702 23.8812 74.6 23.919 74.4791 23.919C74.3583 23.919 74.2563 23.8812 74.1732 23.8057C74.0977 23.7226 74.0599 23.6206 74.0599 23.4998ZM80.3329 23.0692V31.0002H79.4831V27.0347H78.2255V31.0002H77.3757V26.185H79.4831V23.919H77.3757V23.0692H80.3329ZM81.6546 23.0692V26.185H83.762V31.0002H82.9122V27.0347H81.6546V31.0002H80.8048V23.0692H81.6546ZM82.7989 23.6131C82.7989 23.4922 82.8367 23.3903 82.9122 23.3072C82.9953 23.2241 83.0973 23.1825 83.2181 23.1825C83.339 23.1825 83.4409 23.2241 83.524 23.3072C83.6071 23.3903 83.6487 23.4922 83.6487 23.6131C83.6487 23.7339 83.6071 23.8359 83.524 23.919C83.4409 23.9945 83.339 24.0323 83.2181 24.0323C83.0973 24.0323 82.9953 23.9945 82.9122 23.919C82.8367 23.8359 82.7989 23.7339 82.7989 23.6131ZM92.3462 23.0692V31.0002H91.4964V23.919H90.2388V31.0002H89.3891V23.0692H92.3462ZM92.8182 23.0692H95.7753V23.919H93.8719L95.7753 26.185V31.0002H92.8182V30.1505H94.9255V26.4343L92.8182 23.919V23.0692ZM99.2044 23.0692V31.0002H98.3546V23.919H97.097V31.0002H96.2473V23.0692H99.2044ZM105.681 23.0692V26.185H107.789V31.0002H106.939V27.0347H105.681V31.0002H104.832V23.0692H105.681ZM106.826 23.6131C106.826 23.4922 106.863 23.3903 106.939 23.3072C107.022 23.2241 107.124 23.1825 107.245 23.1825C107.366 23.1825 107.468 23.2241 107.551 23.3072C107.634 23.3903 107.675 23.4922 107.675 23.6131C107.675 23.7339 107.634 23.8359 107.551 23.919C107.468 23.9945 107.366 24.0323 107.245 24.0323C107.124 24.0323 107.022 23.9945 106.939 23.919C106.863 23.8359 106.826 23.7339 106.826 23.6131ZM108.261 31.0002V26.185H109.11V30.1505H110.368V26.185H111.218V31.0002H108.261ZM108.261 23.0692H111.218V23.919H108.261V23.0692ZM114.647 23.0692V31.0002H113.797V23.919H112.539V31.0002H111.69V23.0692H114.647ZM124.553 23.0692V26.185H126.66V31.0002H125.81V27.0347H124.553V31.0002H123.703V23.0692H124.553ZM125.697 23.6131C125.697 23.4922 125.735 23.3903 125.81 23.3072C125.893 23.2241 125.995 23.1825 126.116 23.1825C126.237 23.1825 126.339 23.2241 126.422 23.3072C126.505 23.3903 126.547 23.4922 126.547 23.6131C126.547 23.7339 126.505 23.8359 126.422 23.919C126.339 23.9945 126.237 24.0323 126.116 24.0323C125.995 24.0323 125.893 23.9945 125.81 23.919C125.735 23.8359 125.697 23.7339 125.697 23.6131ZM130.089 26.185V31.0002H129.24V27.0347H127.982V31.0002H127.132V26.185H130.089ZM129.126 23.4998C129.126 23.3789 129.164 23.277 129.24 23.1939C129.323 23.1108 129.425 23.0692 129.545 23.0692C129.666 23.0692 129.768 23.1108 129.851 23.1939C129.934 23.277 129.976 23.3789 129.976 23.4998C129.976 23.6206 129.934 23.7226 129.851 23.8057C129.768 23.8812 129.666 23.919 129.545 23.919C129.425 23.919 129.323 23.8812 129.24 23.8057C129.164 23.7226 129.126 23.6206 129.126 23.4998ZM127.245 23.4998C127.245 23.3789 127.283 23.277 127.359 23.1939C127.442 23.1108 127.544 23.0692 127.665 23.0692C127.785 23.0692 127.887 23.1108 127.971 23.1939C128.054 23.277 128.095 23.3789 128.095 23.4998C128.095 23.6206 128.054 23.7226 127.971 23.8057C127.887 23.8812 127.785 23.919 127.665 23.919C127.544 23.919 127.442 23.8812 127.359 23.8057C127.283 23.7226 127.245 23.6206 127.245 23.4998ZM133.518 23.0692V31.0002H132.669V27.0347H131.411V31.0002H130.561V26.185H132.669V23.919H130.561V23.0692H133.518ZM139.145 23.0692H142.103V23.919H140.199L142.103 26.185V31.0002H139.145V30.1505H141.253V26.4343L139.145 23.919V23.0692ZM145.532 28.0318L143.084 31.0002L142.575 30.547L144.682 28.0318L142.711 26.0377L145.022 23.0692L145.532 23.5224L143.56 26.0377L145.532 28.0318ZM148.961 23.8623L147.873 26.9328L148.961 30.6603L148.224 31.0002L147.409 28.2357L146.627 30.4337L146.004 30.2071L147.091 27.1367L146.004 23.4091L146.74 23.0692L147.545 25.8451L148.338 23.6357L148.961 23.8623ZM152.39 23.0692V31.0002H151.54V23.919H150.283V31.0002H149.433V23.0692H152.39ZM152.862 27.0347V23.0692H155.819V31.0002H152.862V30.1505H154.969V23.919H153.712V27.0347H152.862ZM159.248 23.0692V31.0002H158.398V23.919H157.141V31.0002H156.291V23.0692H159.248ZM162.677 23.0692V31.0002H161.827V27.0347H160.57V31.0002H159.72V26.185H161.827V23.919H159.72V23.0692H162.677ZM163.149 23.0692H166.106V31.0002H165.257V27.0347H163.149V26.185H165.257V23.919H163.149V23.0692ZM166.578 30.1505H167.632V27.0347H168.482V30.1505H169.535V31.0002H166.578V30.1505ZM166.578 23.0692H169.535V23.919H166.578V23.0692ZM171.288 23.0692L172.228 27.8165L172.341 25.052H173.078L172.851 30.8869L172.115 31.0002L171.072 25.6978L170.63 31.0002L169.894 30.8869L170.551 23.0692H171.288ZM178.592 31.0002V23.0692H179.441V31.0002H178.592ZM180.586 29.3347C180.586 29.2139 180.623 29.1119 180.699 29.0288C180.782 28.9457 180.884 28.9042 181.005 28.9042C181.126 28.9042 181.228 28.9457 181.311 29.0288C181.394 29.1119 181.435 29.2139 181.435 29.3347C181.435 29.4556 181.394 29.5576 181.311 29.6406C181.228 29.7162 181.126 29.7539 181.005 29.7539C180.884 29.7539 180.782 29.7162 180.699 29.6406C180.623 29.5576 180.586 29.4556 180.586 29.3347ZM180.586 24.7461C180.586 24.6252 180.623 24.5233 180.699 24.4402C180.782 24.3571 180.884 24.3155 181.005 24.3155C181.126 24.3155 181.228 24.3571 181.311 24.4402C181.394 24.5233 181.435 24.6252 181.435 24.7461C181.435 24.8669 181.394 24.9689 181.311 25.052C181.228 25.1275 181.126 25.1653 181.005 25.1653C180.884 25.1653 180.782 25.1275 180.699 25.052C180.623 24.9689 180.586 24.8669 180.586 24.7461ZM182.021 31.0002V26.185H182.87V30.1505H184.128V26.185H184.978V31.0002H182.021ZM182.021 23.0692H184.978V23.919H182.021V23.0692ZM188.407 23.8623L187.319 26.9328L188.407 30.6603L187.67 31.0002L186.855 28.2357L186.073 30.4337L185.45 30.2071L186.537 27.1367L185.45 23.4091L186.186 23.0692L186.991 25.8451L187.784 23.6357L188.407 23.8623ZM188.879 23.0692H191.836V23.919H190.782V26.185H191.836V31.0002H188.879V26.185H189.933V23.919H188.879V23.0692ZM189.729 27.0347V30.1505H190.986V27.0347H189.729ZM192.308 23.0692H195.265V31.0002H194.415V23.919H192.308V23.0692ZM198.694 23.0692V31.0002H197.844V23.919H196.587V31.0002H195.737V23.0692H198.694ZM202.123 26.185V31.0002H201.274V27.0347H200.016V31.0002H199.166V26.185H202.123ZM201.16 23.4998C201.16 23.3789 201.198 23.277 201.274 23.1939C201.357 23.1108 201.459 23.0692 201.579 23.0692C201.7 23.0692 201.802 23.1108 201.885 23.1939C201.968 23.277 202.01 23.3789 202.01 23.4998C202.01 23.6206 201.968 23.7226 201.885 23.8057C201.802 23.8812 201.7 23.919 201.579 23.919C201.459 23.919 201.357 23.8812 201.274 23.8057C201.198 23.7226 201.16 23.6206 201.16 23.4998ZM199.279 23.4998C199.279 23.3789 199.317 23.277 199.393 23.1939C199.476 23.1108 199.578 23.0692 199.699 23.0692C199.82 23.0692 199.921 23.1108 200.005 23.1939C200.088 23.277 200.129 23.3789 200.129 23.4998C200.129 23.6206 200.088 23.7226 200.005 23.8057C199.921 23.8812 199.82 23.919 199.699 23.919C199.578 23.919 199.476 23.8812 199.393 23.8057C199.317 23.7226 199.279 23.6206 199.279 23.4998ZM202.369 31.0002V23.0692H203.218L204.068 25.1313L204.929 23.0692H205.779V27.0347H204.929V24.6554L204.272 26.0377H203.876L203.218 24.6554V31.0002H202.369ZM214.609 31.0002V23.0692H215.458V31.0002H214.609ZM216.603 29.3347C216.603 29.2139 216.64 29.1119 216.716 29.0288C216.799 28.9457 216.901 28.9042 217.022 28.9042C217.143 28.9042 217.245 28.9457 217.328 29.0288C217.411 29.1119 217.452 29.2139 217.452 29.3347C217.452 29.4556 217.411 29.5576 217.328 29.6406C217.245 29.7162 217.143 29.7539 217.022 29.7539C216.901 29.7539 216.799 29.7162 216.716 29.6406C216.64 29.5576 216.603 29.4556 216.603 29.3347ZM216.603 24.7461C216.603 24.6252 216.64 24.5233 216.716 24.4402C216.799 24.3571 216.901 24.3155 217.022 24.3155C217.143 24.3155 217.245 24.3571 217.328 24.4402C217.411 24.5233 217.452 24.6252 217.452 24.7461C217.452 24.8669 217.411 24.9689 217.328 25.052C217.245 25.1275 217.143 25.1653 217.022 25.1653C216.901 25.1653 216.799 25.1275 216.716 25.052C216.64 24.9689 216.603 24.8669 216.603 24.7461ZM220.995 28.0318L218.548 31.0002L218.038 30.547L220.145 28.0318L218.174 26.0377L220.485 23.0692L220.995 23.5224L219.023 26.0377L220.995 28.0318ZM221.467 23.0692H224.424V31.0002H223.574V27.0347H221.467V26.185H223.574V23.919H221.467V23.0692ZM227.853 26.185V31.0002H227.003V27.0347H225.746V31.0002H224.896V26.185H227.853ZM226.89 23.4998C226.89 23.3789 226.928 23.277 227.003 23.1939C227.086 23.1108 227.188 23.0692 227.309 23.0692C227.43 23.0692 227.532 23.1108 227.615 23.1939C227.698 23.277 227.74 23.3789 227.74 23.4998C227.74 23.6206 227.698 23.7226 227.615 23.8057C227.532 23.8812 227.43 23.919 227.309 23.919C227.188 23.919 227.086 23.8812 227.003 23.8057C226.928 23.7226 226.89 23.6206 226.89 23.4998ZM225.009 23.4998C225.009 23.3789 225.047 23.277 225.122 23.1939C225.206 23.1108 225.308 23.0692 225.428 23.0692C225.549 23.0692 225.651 23.1108 225.734 23.1939C225.817 23.277 225.859 23.3789 225.859 23.4998C225.859 23.6206 225.817 23.7226 225.734 23.8057C225.651 23.8812 225.549 23.919 225.428 23.919C225.308 23.919 225.206 23.8812 225.122 23.8057C225.047 23.7226 225.009 23.6206 225.009 23.4998ZM228.325 23.0692H231.282V31.0002H230.432V23.919H228.325V23.0692ZM234.711 23.8623L233.624 26.9328L234.711 30.6603L233.975 31.0002L233.159 28.2357L232.377 30.4337L231.754 30.2071L232.842 27.1367L231.754 23.4091L232.491 23.0692L233.295 25.8451L234.088 23.6357L234.711 23.8623ZM235.183 31.0002V26.185H236.033V30.1505H237.291V26.185H238.14V31.0002H235.183ZM235.183 23.0692H238.14V23.919H235.183V23.0692ZM240.516 30.1505H241.569V31.0002H238.612V30.1505H239.666V27.0347L238.612 23.0692H239.462L240.085 25.7771L240.72 23.0692H241.569L240.516 27.0347V30.1505ZM241.815 31.0002V23.0692H242.664L243.514 25.1313L244.375 23.0692H245.225V27.0347H244.375V24.6554L243.718 26.0377H243.322L242.664 24.6554V31.0002H241.815ZM250.626 23.0692H253.583V31.0002H252.733V27.0347H250.626V26.185H252.733V23.919H250.626V23.0692ZM255.335 23.0692L256.275 27.8165L256.389 25.052H257.125L256.899 30.8869L256.162 31.0002L255.12 25.6978L254.678 31.0002L253.941 30.8869L254.599 23.0692H255.335ZM257.484 23.0692H260.441V23.919H259.387V26.185H260.441V31.0002H257.484V26.185H258.537V23.919H257.484V23.0692ZM258.334 27.0347V30.1505H259.591V27.0347H258.334ZM266.068 30.547L267.813 27.8845H266.068V23.0692H266.918V27.0347H268.175V23.0692H269.025V31.0002H268.175V28.5643L266.578 31.0002L266.068 30.547ZM269.497 23.0692H272.454V31.0002H271.605V27.0347H269.497V26.185H271.605V23.919H269.497V23.0692ZM275.883 28.0318L273.436 31.0002L272.926 30.547L275.034 28.0318L273.062 26.0377L275.373 23.0692L275.883 23.5224L273.912 26.0377L275.883 28.0318ZM279.312 28.0318L276.865 31.0002L276.355 30.547L278.463 28.0318L276.491 26.0377L278.803 23.0692L279.312 23.5224L277.341 26.0377L279.312 28.0318ZM280.634 23.0692V26.185H282.742V31.0002H281.892V27.0347H280.634V31.0002H279.784V23.0692H280.634ZM281.778 23.6131C281.778 23.4922 281.816 23.3903 281.892 23.3072C281.975 23.2241 282.077 23.1825 282.198 23.1825C282.319 23.1825 282.421 23.2241 282.504 23.3072C282.587 23.3903 282.628 23.4922 282.628 23.6131C282.628 23.7339 282.587 23.8359 282.504 23.919C282.421 23.9945 282.319 24.0323 282.198 24.0323C282.077 24.0323 281.975 23.9945 281.892 23.919C281.816 23.8359 281.778 23.7339 281.778 23.6131ZM286.171 26.185V31.0002H285.321V27.0347H284.063V31.0002H283.214V26.185H286.171ZM285.208 23.4998C285.208 23.3789 285.245 23.277 285.321 23.1939C285.404 23.1108 285.506 23.0692 285.627 23.0692C285.748 23.0692 285.85 23.1108 285.933 23.1939C286.016 23.277 286.057 23.3789 286.057 23.4998C286.057 23.6206 286.016 23.7226 285.933 23.8057C285.85 23.8812 285.748 23.919 285.627 23.919C285.506 23.919 285.404 23.8812 285.321 23.8057C285.245 23.7226 285.208 23.6206 285.208 23.4998ZM283.327 23.4998C283.327 23.3789 283.365 23.277 283.44 23.1939C283.523 23.1108 283.625 23.0692 283.746 23.0692C283.867 23.0692 283.969 23.1108 284.052 23.1939C284.135 23.277 284.177 23.3789 284.177 23.4998C284.177 23.6206 284.135 23.7226 284.052 23.8057C283.969 23.8812 283.867 23.919 283.746 23.919C283.625 23.919 283.523 23.8812 283.44 23.8057C283.365 23.7226 283.327 23.6206 283.327 23.4998ZM286.416 31.0002V23.0692H287.266L288.115 25.1313L288.977 23.0692H289.826V27.0347H288.977V24.6554L288.319 26.0377H287.923L287.266 24.6554V31.0002H286.416Z" fill="white"/>
<path opacity="0.1" d="M1135.44 27.185V32.0002H1134.59V28.0347H1133.34V32.0002H1132.49V27.185H1135.44ZM1134.48 24.4998C1134.48 24.3789 1134.52 24.277 1134.59 24.1939C1134.68 24.1108 1134.78 24.0692 1134.9 24.0692C1135.02 24.0692 1135.12 24.1108 1135.21 24.1939C1135.29 24.277 1135.33 24.3789 1135.33 24.4998C1135.33 24.6206 1135.29 24.7226 1135.21 24.8057C1135.12 24.8812 1135.02 24.919 1134.9 24.919C1134.78 24.919 1134.68 24.8812 1134.59 24.8057C1134.52 24.7226 1134.48 24.6206 1134.48 24.4998ZM1132.6 24.4998C1132.6 24.3789 1132.64 24.277 1132.71 24.1939C1132.8 24.1108 1132.9 24.0692 1133.02 24.0692C1133.14 24.0692 1133.24 24.1108 1133.33 24.1939C1133.41 24.277 1133.45 24.3789 1133.45 24.4998C1133.45 24.6206 1133.41 24.7226 1133.33 24.8057C1133.24 24.8812 1133.14 24.919 1133.02 24.919C1132.9 24.919 1132.8 24.8812 1132.71 24.8057C1132.64 24.7226 1132.6 24.6206 1132.6 24.4998ZM1141.07 24.0692H1144.03V32.0002H1143.18V28.0347H1141.07V27.185H1143.18V24.919H1141.07V24.0692ZM1147.46 29.0318L1145.01 32.0002L1144.5 31.547L1146.61 29.0318L1144.64 27.0377L1146.95 24.0692L1147.46 24.5224L1145.49 27.0377L1147.46 29.0318ZM1150.89 29.0318L1148.44 32.0002L1147.93 31.547L1150.04 29.0318L1148.07 27.0377L1150.38 24.0692L1150.89 24.5224L1148.92 27.0377L1150.89 29.0318ZM1157.36 24.0692V27.185H1159.47V32.0002H1158.62V28.0347H1157.36V32.0002H1156.51V24.0692H1157.36ZM1158.51 24.6131C1158.51 24.4922 1158.55 24.3903 1158.62 24.3072C1158.7 24.2241 1158.81 24.1825 1158.93 24.1825C1159.05 24.1825 1159.15 24.2241 1159.23 24.3072C1159.32 24.3903 1159.36 24.4922 1159.36 24.6131C1159.36 24.7339 1159.32 24.8359 1159.23 24.919C1159.15 24.9945 1159.05 25.0323 1158.93 25.0323C1158.81 25.0323 1158.7 24.9945 1158.62 24.919C1158.55 24.8359 1158.51 24.7339 1158.51 24.6131ZM1162.9 27.185V32.0002H1162.05V28.0347H1160.79V32.0002H1159.94V27.185H1162.9ZM1161.94 24.4998C1161.94 24.3789 1161.97 24.277 1162.05 24.1939C1162.13 24.1108 1162.24 24.0692 1162.36 24.0692C1162.48 24.0692 1162.58 24.1108 1162.66 24.1939C1162.75 24.277 1162.79 24.3789 1162.79 24.4998C1162.79 24.6206 1162.75 24.7226 1162.66 24.8057C1162.58 24.8812 1162.48 24.919 1162.36 24.919C1162.24 24.919 1162.13 24.8812 1162.05 24.8057C1161.97 24.7226 1161.94 24.6206 1161.94 24.4998ZM1160.06 24.4998C1160.06 24.3789 1160.09 24.277 1160.17 24.1939C1160.25 24.1108 1160.35 24.0692 1160.48 24.0692C1160.6 24.0692 1160.7 24.1108 1160.78 24.1939C1160.86 24.277 1160.91 24.3789 1160.91 24.4998C1160.91 24.6206 1160.86 24.7226 1160.78 24.8057C1160.7 24.8812 1160.6 24.919 1160.48 24.919C1160.35 24.919 1160.25 24.8812 1160.17 24.8057C1160.09 24.7226 1160.06 24.6206 1160.06 24.4998ZM1166.33 24.0692V32.0002H1165.48V28.0347H1164.22V32.0002H1163.37V27.185H1165.48V24.919H1163.37V24.0692H1166.33ZM1171.96 24.0692H1174.91V24.919H1173.01L1174.91 27.185V32.0002H1171.96V31.1505H1174.06V27.4343L1171.96 24.919V24.0692ZM1178.34 29.0318L1175.9 32.0002L1175.39 31.547L1177.49 29.0318L1175.52 27.0377L1177.83 24.0692L1178.34 24.5224L1176.37 27.0377L1178.34 29.0318ZM1181.77 24.8623L1180.68 27.9328L1181.77 31.6603L1181.04 32.0002L1180.22 29.2357L1179.44 31.4337L1178.81 31.2071L1179.9 28.1367L1178.81 24.4091L1179.55 24.0692L1180.36 26.8451L1181.15 24.6357L1181.77 24.8623ZM1185.2 24.0692V32.0002H1184.35V24.919H1183.09V32.0002H1182.24V24.0692H1185.2ZM1185.67 28.0347V24.0692H1188.63V32.0002H1185.67V31.1505H1187.78V24.919H1186.52V28.0347H1185.67ZM1192.06 24.0692V32.0002H1191.21V24.919H1189.95V32.0002H1189.1V24.0692H1192.06ZM1195.49 24.0692V32.0002H1194.64V28.0347H1193.38V32.0002H1192.53V27.185H1194.64V24.919H1192.53V24.0692H1195.49ZM1195.96 24.0692H1198.92V32.0002H1198.07V28.0347H1195.96V27.185H1198.07V24.919H1195.96V24.0692ZM1199.39 31.1505H1200.44V28.0347H1201.29V31.1505H1202.35V32.0002H1199.39V31.1505ZM1199.39 24.0692H1202.35V24.919H1199.39V24.0692ZM1204.1 24.0692L1205.04 28.8165L1205.15 26.052H1205.89L1205.66 31.8869L1204.93 32.0002L1203.88 26.6978L1203.44 32.0002L1202.7 31.8869L1203.36 24.0692H1204.1Z" fill="white"/>
<path d="M-0.264648 107.195L1464 107.195" stroke="#101820" stroke-width="40"/>
<path d="M-9 96.2761L1441.07 96.276" stroke="white" stroke-opacity="0.03" stroke-width="10" stroke-linecap="round"/>
<path opacity="0.1" d="M23.1522 91.069H26.1094V91.9188H24.2059L26.1094 94.1847V99H23.1522V98.1502H25.2596V94.434L23.1522 91.9188V91.069ZM28.6887 95.0345V91.9188H27.4311V98.1502H28.5527V99H26.5813V91.069H29.5385V95.0345H28.6887ZM35.1656 99V91.069H36.0153V99H35.1656ZM37.1596 97.3345C37.1596 97.2136 37.1974 97.1117 37.2729 97.0286C37.356 96.9455 37.458 96.9039 37.5789 96.9039C37.6997 96.9039 37.8017 96.9455 37.8848 97.0286C37.9679 97.1117 38.0094 97.2136 38.0094 97.3345C38.0094 97.4553 37.9679 97.5573 37.8848 97.6404C37.8017 97.7159 37.6997 97.7537 37.5789 97.7537C37.458 97.7537 37.356 97.7159 37.2729 97.6404C37.1974 97.5573 37.1596 97.4553 37.1596 97.3345ZM37.1596 92.7458C37.1596 92.625 37.1974 92.523 37.2729 92.4399C37.356 92.3568 37.458 92.3153 37.5789 92.3153C37.6997 92.3153 37.8017 92.3568 37.8848 92.4399C37.9679 92.523 38.0094 92.625 38.0094 92.7458C38.0094 92.8667 37.9679 92.9687 37.8848 93.0517C37.8017 93.1273 37.6997 93.165 37.5789 93.165C37.458 93.165 37.356 93.1273 37.2729 93.0517C37.1974 92.9687 37.1596 92.8667 37.1596 92.7458ZM38.5947 91.069H41.5518V99H40.702V91.9188H38.5947V91.069ZM42.0238 99V94.1847H42.8735V98.1502H44.1311V94.1847H44.9809V99H42.0238ZM42.0238 91.069H44.9809V91.9188H42.0238V91.069ZM48.41 91.069V99H47.5602V91.9188H46.3026V99H45.4529V91.069H48.41ZM51.8391 91.069V99H50.9893V95.0345H49.7317V99H48.882V94.1847H50.9893V91.9188H48.882V91.069H51.8391ZM52.311 91.069H55.2682V99H54.4184V95.0345H52.311V94.1847H54.4184V91.9188H52.311V91.069ZM55.5135 99V91.069H56.3633L57.213 93.1311L58.0741 91.069H58.9239V95.0345H58.0741V92.6552L57.417 94.0375H57.0204L56.3633 92.6552V99H55.5135ZM59.1692 98.1502H60.2229V95.0345H61.0727V98.1502H62.1264V99H59.1692V98.1502ZM59.1692 91.069H62.1264V91.9188H59.1692V91.069ZM63.8786 91.069L64.819 95.8163L64.9323 93.0517H65.6688L65.4422 98.8867L64.7057 99L63.6634 93.6976L63.2215 99L62.485 98.8867L63.1422 91.069H63.8786ZM68.9846 99H66.0274V91.069H66.8772V98.1502H68.9846V99ZM68.1348 95.0345V91.069H68.9846V95.0345H68.1348ZM77.5688 94.1847V99H76.7191V95.0345H75.4614V99H74.6117V94.1847H77.5688ZM76.6058 91.4995C76.6058 91.3787 76.6435 91.2767 76.7191 91.1936C76.8021 91.1105 76.9041 91.069 77.025 91.069C77.1458 91.069 77.2478 91.1105 77.3309 91.1936C77.414 91.2767 77.4555 91.3787 77.4555 91.4995C77.4555 91.6204 77.414 91.7224 77.3309 91.8054C77.2478 91.881 77.1458 91.9188 77.025 91.9188C76.9041 91.9188 76.8021 91.881 76.7191 91.8054C76.6435 91.7224 76.6058 91.6204 76.6058 91.4995ZM74.725 91.4995C74.725 91.3787 74.7627 91.2767 74.8383 91.1936C74.9214 91.1105 75.0233 91.069 75.1442 91.069C75.265 91.069 75.367 91.1105 75.4501 91.1936C75.5332 91.2767 75.5747 91.3787 75.5747 91.4995C75.5747 91.6204 75.5332 91.7224 75.4501 91.8054C75.367 91.881 75.265 91.9188 75.1442 91.9188C75.0233 91.9188 74.9214 91.881 74.8383 91.8054C74.7627 91.7224 74.725 91.6204 74.725 91.4995ZM80.9979 91.069V99H80.1481V95.0345H78.8905V99H78.0408V94.1847H80.1481V91.9188H78.0408V91.069H80.9979ZM82.3196 91.069V94.1847H84.427V99H83.5772V95.0345H82.3196V99H81.4699V91.069H82.3196ZM83.4639 91.6128C83.4639 91.492 83.5017 91.39 83.5772 91.3069C83.6603 91.2238 83.7623 91.1823 83.8832 91.1823C84.004 91.1823 84.106 91.2238 84.1891 91.3069C84.2722 91.39 84.3137 91.492 84.3137 91.6128C84.3137 91.7337 84.2722 91.8357 84.1891 91.9188C84.106 91.9943 84.004 92.032 83.8832 92.032C83.7623 92.032 83.6603 91.9943 83.5772 91.9188C83.5017 91.8357 83.4639 91.7337 83.4639 91.6128ZM93.0112 91.069V99H92.1615V91.9188H90.9039V99H90.0541V91.069H93.0112ZM93.4832 91.069H96.4403V91.9188H94.5369L96.4403 94.1847V99H93.4832V98.1502H95.5906V94.434L93.4832 91.9188V91.069ZM99.8694 91.069V99H99.0197V91.9188H97.762V99H96.9123V91.069H99.8694ZM106.346 91.069V94.1847H108.454V99H107.604V95.0345H106.346V99H105.497V91.069H106.346ZM107.491 91.6128C107.491 91.492 107.528 91.39 107.604 91.3069C107.687 91.2238 107.789 91.1823 107.91 91.1823C108.031 91.1823 108.133 91.2238 108.216 91.3069C108.299 91.39 108.34 91.492 108.34 91.6128C108.34 91.7337 108.299 91.8357 108.216 91.9188C108.133 91.9943 108.031 92.032 107.91 92.032C107.789 92.032 107.687 91.9943 107.604 91.9188C107.528 91.8357 107.491 91.7337 107.491 91.6128ZM108.926 99V94.1847H109.775V98.1502H111.033V94.1847H111.883V99H108.926ZM108.926 91.069H111.883V91.9188H108.926V91.069ZM115.312 91.069V99H114.462V91.9188H113.204V99H112.355V91.069H115.312ZM137.612 94.1847V99H136.763V95.0345H135.505V99H134.655V94.1847H137.612ZM136.649 91.4995C136.649 91.3787 136.687 91.2767 136.763 91.1936C136.846 91.1105 136.948 91.069 137.069 91.069C137.19 91.069 137.291 91.1105 137.375 91.1936C137.458 91.2767 137.499 91.3787 137.499 91.4995C137.499 91.6204 137.458 91.7224 137.375 91.8054C137.291 91.881 137.19 91.9188 137.069 91.9188C136.948 91.9188 136.846 91.881 136.763 91.8054C136.687 91.7224 136.649 91.6204 136.649 91.4995ZM134.769 91.4995C134.769 91.3787 134.806 91.2767 134.882 91.1936C134.965 91.1105 135.067 91.069 135.188 91.069C135.309 91.069 135.411 91.1105 135.494 91.1936C135.577 91.2767 135.618 91.3787 135.618 91.4995C135.618 91.6204 135.577 91.7224 135.494 91.8054C135.411 91.881 135.309 91.9188 135.188 91.9188C135.067 91.9188 134.965 91.881 134.882 91.8054C134.806 91.7224 134.769 91.6204 134.769 91.4995ZM141.042 91.8621L139.954 94.9325L141.042 98.6601L140.305 99L139.489 96.2355L138.708 98.4335L138.084 98.2069L139.172 95.1365L138.084 91.4089L138.821 91.069L139.625 93.8448L140.418 91.6355L141.042 91.8621ZM141.514 95.0345V91.069H144.471V99H141.514V98.1502H143.621V91.9188H142.363V95.0345H141.514ZM145.792 91.069V94.1847H147.9V99H147.05V95.0345H145.792V99H144.943V91.069H145.792ZM146.937 91.6128C146.937 91.492 146.974 91.39 147.05 91.3069C147.133 91.2238 147.235 91.1823 147.356 91.1823C147.477 91.1823 147.579 91.2238 147.662 91.3069C147.745 91.39 147.786 91.492 147.786 91.6128C147.786 91.7337 147.745 91.8357 147.662 91.9188C147.579 91.9943 147.477 92.032 147.356 92.032C147.235 92.032 147.133 91.9943 147.05 91.9188C146.974 91.8357 146.937 91.7337 146.937 91.6128ZM149.652 91.069L150.592 95.8163L150.706 93.0517H151.442L151.216 98.8867L150.479 99L149.437 93.6976L148.995 99L148.258 98.8867L148.916 91.069H149.652ZM156.956 91.069H159.913V99H159.063V95.0345H156.956V94.1847H159.063V91.9188H156.956V91.069ZM161.665 91.069L162.606 95.8163L162.719 93.0517H163.456L163.229 98.8867L162.492 99L161.45 93.6976L161.008 99L160.272 98.8867L160.929 91.069H161.665ZM163.814 91.069H166.771V91.9188H165.718V94.1847H166.771V99H163.814V94.1847H164.868V91.9188H163.814V91.069ZM164.664 95.0345V98.1502H165.922V95.0345H164.664ZM175.356 91.069V99H174.506V91.9188H173.248V99H172.398V91.069H175.356ZM178.785 91.8621L177.697 94.9325L178.785 98.6601L178.048 99L177.232 96.2355L176.451 98.4335L175.828 98.2069L176.915 95.1365L175.828 91.4089L176.564 91.069L177.368 93.8448L178.162 91.6355L178.785 91.8621ZM179.257 99V94.1847H180.106V98.1502H181.364V94.1847H182.214V99H179.257ZM179.257 91.069H182.214V91.9188H179.257V91.069ZM182.686 99V94.1847H183.535V98.1502H184.793V94.1847H185.643V99H182.686ZM182.686 91.069H185.643V91.9188H182.686V91.069ZM189.072 91.8621L187.984 94.9325L189.072 98.6601L188.335 99L187.52 96.2355L186.738 98.4335L186.115 98.2069L187.202 95.1365L186.115 91.4089L186.851 91.069L187.656 93.8448L188.449 91.6355L189.072 91.8621ZM192.501 96.0315L190.054 99L189.544 98.5468L191.651 96.0315L189.68 94.0375L191.991 91.069L192.501 91.5222L190.53 94.0375L192.501 96.0315ZM192.973 91.069H195.93V99H195.08V95.0345H192.973V94.1847H195.08V91.9188H192.973V91.069ZM199.359 94.1847V99H198.509V95.0345H197.252V99H196.402V94.1847H199.359ZM198.396 91.4995C198.396 91.3787 198.434 91.2767 198.509 91.1936C198.593 91.1105 198.695 91.069 198.815 91.069C198.936 91.069 199.038 91.1105 199.121 91.1936C199.204 91.2767 199.246 91.3787 199.246 91.4995C199.246 91.6204 199.204 91.7224 199.121 91.8054C199.038 91.881 198.936 91.9188 198.815 91.9188C198.695 91.9188 198.593 91.881 198.509 91.8054C198.434 91.7224 198.396 91.6204 198.396 91.4995ZM196.515 91.4995C196.515 91.3787 196.553 91.2767 196.629 91.1936C196.712 91.1105 196.814 91.069 196.935 91.069C197.055 91.069 197.157 91.1105 197.241 91.1936C197.324 91.2767 197.365 91.3787 197.365 91.4995C197.365 91.6204 197.324 91.7224 197.241 91.8054C197.157 91.881 197.055 91.9188 196.935 91.9188C196.814 91.9188 196.712 91.881 196.629 91.8054C196.553 91.7224 196.515 91.6204 196.515 91.4995ZM199.831 98.1502H200.885V95.0345H201.735V98.1502H202.788V99H199.831V98.1502ZM199.831 91.069H202.788V91.9188H199.831V91.069ZM204.541 91.069L205.481 95.8163L205.594 93.0517H206.331L206.104 98.8867L205.368 99L204.325 93.6976L203.883 99L203.147 98.8867L203.804 91.069H204.541ZM209.646 99H206.689V91.069H207.539V98.1502H209.646V99ZM208.797 95.0345V91.069H209.646V95.0345H208.797ZM215.274 99V94.1847H216.123V98.1502H217.381V94.1847H218.231V99H215.274ZM215.274 91.069H218.231V91.9188H215.274V91.069ZM219.552 91.069V94.1847H221.66V99H220.81V95.0345H219.552V99H218.703V91.069H219.552ZM220.697 91.6128C220.697 91.492 220.735 91.39 220.81 91.3069C220.893 91.2238 220.995 91.1823 221.116 91.1823C221.237 91.1823 221.339 91.2238 221.422 91.3069C221.505 91.39 221.547 91.492 221.547 91.6128C221.547 91.7337 221.505 91.8357 221.422 91.9188C221.339 91.9943 221.237 92.032 221.116 92.032C220.995 92.032 220.893 91.9943 220.81 91.9188C220.735 91.8357 220.697 91.7337 220.697 91.6128ZM222.132 99V91.069H222.982V99H222.132ZM224.126 97.3345C224.126 97.2136 224.164 97.1117 224.239 97.0286C224.322 96.9455 224.424 96.9039 224.545 96.9039C224.666 96.9039 224.768 96.9455 224.851 97.0286C224.934 97.1117 224.976 97.2136 224.976 97.3345C224.976 97.4553 224.934 97.5573 224.851 97.6404C224.768 97.7159 224.666 97.7537 224.545 97.7537C224.424 97.7537 224.322 97.7159 224.239 97.6404C224.164 97.5573 224.126 97.4553 224.126 97.3345ZM224.126 92.7458C224.126 92.625 224.164 92.523 224.239 92.4399C224.322 92.3568 224.424 92.3153 224.545 92.3153C224.666 92.3153 224.768 92.3568 224.851 92.4399C224.934 92.523 224.976 92.625 224.976 92.7458C224.976 92.8667 224.934 92.9687 224.851 93.0517C224.768 93.1273 224.666 93.165 224.545 93.165C224.424 93.165 224.322 93.1273 224.239 93.0517C224.164 92.9687 224.126 92.8667 224.126 92.7458ZM228.518 94.1847V99H227.668V95.0345H226.411V99H225.561V94.1847H228.518ZM227.555 91.4995C227.555 91.3787 227.593 91.2767 227.668 91.1936C227.751 91.1105 227.853 91.069 227.974 91.069C228.095 91.069 228.197 91.1105 228.28 91.1936C228.363 91.2767 228.405 91.3787 228.405 91.4995C228.405 91.6204 228.363 91.7224 228.28 91.8054C228.197 91.881 228.095 91.9188 227.974 91.9188C227.853 91.9188 227.751 91.881 227.668 91.8054C227.593 91.7224 227.555 91.6204 227.555 91.4995ZM225.674 91.4995C225.674 91.3787 225.712 91.2767 225.788 91.1936C225.871 91.1105 225.973 91.069 226.093 91.069C226.214 91.069 226.316 91.1105 226.399 91.1936C226.482 91.2767 226.524 91.3787 226.524 91.4995C226.524 91.6204 226.482 91.7224 226.399 91.8054C226.316 91.881 226.214 91.9188 226.093 91.9188C225.973 91.9188 225.871 91.881 225.788 91.8054C225.712 91.7224 225.674 91.6204 225.674 91.4995ZM228.99 98.1502H230.044V95.0345H230.893V98.1502H231.947V99H228.99V98.1502ZM228.99 91.069H231.947V91.9188H228.99V91.069ZM235.376 96.0315L232.929 99L232.419 98.5468L234.526 96.0315L232.555 94.0375L234.866 91.069L235.376 91.5222L233.405 94.0375L235.376 96.0315ZM236.698 91.069V94.1847H238.805V99H237.956V95.0345H236.698V99H235.848V91.069H236.698ZM237.842 91.6128C237.842 91.492 237.88 91.39 237.956 91.3069C238.039 91.2238 238.141 91.1823 238.261 91.1823C238.382 91.1823 238.484 91.2238 238.567 91.3069C238.65 91.39 238.692 91.492 238.692 91.6128C238.692 91.7337 238.65 91.8357 238.567 91.9188C238.484 91.9943 238.382 92.032 238.261 92.032C238.141 92.032 238.039 91.9943 237.956 91.9188C237.88 91.8357 237.842 91.7337 237.842 91.6128ZM244.432 91.069H247.39V99H246.54V95.0345H244.432V94.1847H246.54V91.9188H244.432V91.069ZM247.862 99V94.1847H248.711V98.1502H249.969V94.1847H250.819V99H247.862ZM247.862 91.069H250.819V91.9188H247.862V91.069ZM254.248 94.1847V99H253.398V95.0345H252.14V99H251.291V94.1847H254.248ZM253.285 91.4995C253.285 91.3787 253.322 91.2767 253.398 91.1936C253.481 91.1105 253.583 91.069 253.704 91.069C253.825 91.069 253.927 91.1105 254.01 91.1936C254.093 91.2767 254.134 91.3787 254.134 91.4995C254.134 91.6204 254.093 91.7224 254.01 91.8054C253.927 91.881 253.825 91.9188 253.704 91.9188C253.583 91.9188 253.481 91.881 253.398 91.8054C253.322 91.7224 253.285 91.6204 253.285 91.4995ZM251.404 91.4995C251.404 91.3787 251.442 91.2767 251.517 91.1936C251.6 91.1105 251.702 91.069 251.823 91.069C251.944 91.069 252.046 91.1105 252.129 91.1936C252.212 91.2767 252.254 91.3787 252.254 91.4995C252.254 91.6204 252.212 91.7224 252.129 91.8054C252.046 91.881 251.944 91.9188 251.823 91.9188C251.702 91.9188 251.6 91.881 251.517 91.8054C251.442 91.7224 251.404 91.6204 251.404 91.4995ZM265.411 95.0345V91.9188H264.154V98.1502H265.275V99H263.304V91.069H266.261V95.0345H265.411ZM269.69 91.8621L268.603 94.9325L269.69 98.6601L268.954 99L268.138 96.2355L267.356 98.4335L266.733 98.2069L267.821 95.1365L266.733 91.4089L267.47 91.069L268.274 93.8448L269.067 91.6355L269.69 91.8621ZM270.162 91.069H273.119V99H272.27V91.9188H270.162V91.069ZM281.704 91.069V99H280.854V95.0345H279.596V99H278.746V94.1847H280.854V91.9188H278.746V91.069H281.704ZM282.176 91.069H285.133V99H284.283V95.0345H282.176V94.1847H284.283V91.9188H282.176V91.069ZM285.605 91.069H288.562V99H285.605V98.1502H287.712V91.9188H285.605V91.069ZM289.883 91.069V94.1847H291.991V99H291.141V95.0345H289.883V99H289.034V91.069H289.883ZM291.028 91.6128C291.028 91.492 291.066 91.39 291.141 91.3069C291.224 91.2238 291.326 91.1823 291.447 91.1823C291.568 91.1823 291.67 91.2238 291.753 91.3069C291.836 91.39 291.878 91.492 291.878 91.6128C291.878 91.7337 291.836 91.8357 291.753 91.9188C291.67 91.9943 291.568 92.032 291.447 92.032C291.326 92.032 291.224 91.9943 291.141 91.9188C291.066 91.8357 291.028 91.7337 291.028 91.6128ZM297.618 91.069H300.575V99H299.725V91.9188H297.618V91.069ZM301.047 91.069H304.004V99H303.154V91.9188H301.047V91.069ZM307.433 96.0315L304.986 99L304.476 98.5468L306.583 96.0315L304.612 94.0375L306.923 91.069L307.433 91.5222L305.462 94.0375L307.433 96.0315ZM310.862 96.0315L308.415 99L307.905 98.5468L310.013 96.0315L308.041 94.0375L310.352 91.069L310.862 91.5222L308.891 94.0375L310.862 96.0315ZM319.447 91.069V99H318.597V91.9188H317.339V99H316.489V91.069H319.447ZM322.876 91.8621L321.788 94.9325L322.876 98.6601L322.139 99L321.323 96.2355L320.542 98.4335L319.919 98.2069L321.006 95.1365L319.919 91.4089L320.655 91.069L321.459 93.8448L322.253 91.6355L322.876 91.8621ZM325.251 98.1502H326.305V99H323.348V98.1502H324.401V95.0345L323.348 91.069H324.197L324.821 93.7769L325.455 91.069H326.305L325.251 95.0345V98.1502ZM328.68 98.1502H329.734V99H326.777V98.1502H327.83V95.0345L326.777 91.069H327.626L328.25 93.7769L328.884 91.069H329.734L328.68 95.0345V98.1502ZM331.056 91.069V94.1847H333.163V99H332.313V95.0345H331.056V99H330.206V91.069H331.056ZM332.2 91.6128C332.2 91.492 332.238 91.39 332.313 91.3069C332.396 91.2238 332.498 91.1823 332.619 91.1823C332.74 91.1823 332.842 91.2238 332.925 91.3069C333.008 91.39 333.05 91.492 333.05 91.6128C333.05 91.7337 333.008 91.8357 332.925 91.9188C332.842 91.9943 332.74 92.032 332.619 92.032C332.498 92.032 332.396 91.9943 332.313 91.9188C332.238 91.8357 332.2 91.7337 332.2 91.6128ZM333.635 99V94.1847H334.485V98.1502H335.742V94.1847H336.592V99H333.635ZM333.635 91.069H336.592V91.9188H333.635V91.069ZM340.021 91.069V99H339.171V91.9188H337.914V99H337.064V91.069H340.021ZM340.493 98.1502H341.547V95.0345H342.397V98.1502H343.45V99H340.493V98.1502ZM340.493 91.069H343.45V91.9188H340.493V91.069ZM343.922 91.069H346.879V99H346.03V95.0345H343.922V94.1847H346.03V91.9188H343.922V91.069ZM350.308 96.0315L347.861 99L347.351 98.5468L349.459 96.0315L347.487 94.0375L349.799 91.069L350.308 91.5222L348.337 94.0375L350.308 96.0315ZM355.936 99V94.1847H356.785V98.1502H358.043V94.1847H358.893V99H355.936ZM355.936 91.069H358.893V91.9188H355.936V91.069ZM359.365 98.1502H360.418V95.0345H361.268V98.1502H362.322V99H359.365V98.1502ZM359.365 91.069H362.322V91.9188H359.365V91.069ZM365.751 99H362.794V91.069H363.644V98.1502H365.751V99ZM364.901 95.0345V91.069H365.751V95.0345H364.901ZM369.18 91.069V99H368.33V95.0345H367.073V99H366.223V94.1847H368.33V91.9188H366.223V91.069H369.18ZM372.609 94.1847V99H371.759V95.0345H370.502V99H369.652V94.1847H372.609ZM371.646 91.4995C371.646 91.3787 371.684 91.2767 371.759 91.1936C371.842 91.1105 371.944 91.069 372.065 91.069C372.186 91.069 372.288 91.1105 372.371 91.1936C372.454 91.2767 372.496 91.3787 372.496 91.4995C372.496 91.6204 372.454 91.7224 372.371 91.8054C372.288 91.881 372.186 91.9188 372.065 91.9188C371.944 91.9188 371.842 91.881 371.759 91.8054C371.684 91.7224 371.646 91.6204 371.646 91.4995ZM369.765 91.4995C369.765 91.3787 369.803 91.2767 369.879 91.1936C369.962 91.1105 370.064 91.069 370.184 91.069C370.305 91.069 370.407 91.1105 370.49 91.1936C370.573 91.2767 370.615 91.3787 370.615 91.4995C370.615 91.6204 370.573 91.7224 370.49 91.8054C370.407 91.881 370.305 91.9188 370.184 91.9188C370.064 91.9188 369.962 91.881 369.879 91.8054C369.803 91.7224 369.765 91.6204 369.765 91.4995ZM372.854 99V91.069H373.704L374.554 93.1311L375.415 91.069H376.265V95.0345H375.415V92.6552L374.758 94.0375H374.361L373.704 92.6552V99H372.854ZM381.665 91.069H384.622V99H383.773V95.0345H381.665V94.1847H383.773V91.9188H381.665V91.069ZM386.375 91.069L387.315 95.8163L387.428 93.0517H388.165L387.938 98.8867L387.202 99L386.159 93.6976L385.718 99L384.981 98.8867L385.638 91.069H386.375ZM388.523 91.069H391.481V91.9188H390.427V94.1847H391.481V99H388.523V94.1847H389.577V91.9188H388.523V91.069ZM389.373 95.0345V98.1502H390.631V95.0345H389.373ZM400.065 91.8621L398.977 94.9325L400.065 98.6601L399.328 99L398.513 96.2355L397.731 98.4335L397.108 98.2069L398.195 95.1365L397.108 91.4089L397.844 91.069L398.649 93.8448L399.442 91.6355L400.065 91.8621ZM400.537 98.5468L402.282 95.8842H400.537V91.069H401.387V95.0345H402.644V91.069H403.494V99H402.644V96.564L401.047 99L400.537 98.5468ZM405.246 91.069L406.187 95.8163L406.3 93.0517H407.036L406.81 98.8867L406.073 99L405.031 93.6976L404.589 99L403.853 98.8867L404.51 91.069H405.246ZM408.245 91.069V94.1847H410.352V99H409.502V95.0345H408.245V99H407.395V91.069H408.245ZM409.389 91.6128C409.389 91.492 409.427 91.39 409.502 91.3069C409.585 91.2238 409.687 91.1823 409.808 91.1823C409.929 91.1823 410.031 91.2238 410.114 91.3069C410.197 91.39 410.239 91.492 410.239 91.6128C410.239 91.7337 410.197 91.8357 410.114 91.9188C410.031 91.9943 409.929 92.032 409.808 92.032C409.687 92.032 409.585 91.9943 409.502 91.9188C409.427 91.8357 409.389 91.7337 409.389 91.6128ZM410.824 99V94.1847H411.674V98.1502H412.931V94.1847H413.781V99H410.824ZM410.824 91.069H413.781V91.9188H410.824V91.069ZM414.027 99V91.069H414.876L415.726 93.1311L416.587 91.069H417.437V95.0345H416.587V92.6552L415.93 94.0375H415.534L414.876 92.6552V99H414.027ZM420.639 91.069V99H419.79V95.0345H418.532V99H417.682V94.1847H419.79V91.9188H417.682V91.069H420.639ZM421.111 98.1502H422.165V95.0345H423.015V98.1502H424.069V99H421.111V98.1502ZM421.111 91.069H424.069V91.9188H421.111V91.069ZM424.54 99V91.069H425.39V99H424.54ZM426.535 97.3345C426.535 97.2136 426.572 97.1117 426.648 97.0286C426.731 96.9455 426.833 96.9039 426.954 96.9039C427.075 96.9039 427.177 96.9455 427.26 97.0286C427.343 97.1117 427.384 97.2136 427.384 97.3345C427.384 97.4553 427.343 97.5573 427.26 97.6404C427.177 97.7159 427.075 97.7537 426.954 97.7537C426.833 97.7537 426.731 97.7159 426.648 97.6404C426.572 97.5573 426.535 97.4553 426.535 97.3345ZM426.535 92.7458C426.535 92.625 426.572 92.523 426.648 92.4399C426.731 92.3568 426.833 92.3153 426.954 92.3153C427.075 92.3153 427.177 92.3568 427.26 92.4399C427.343 92.523 427.384 92.625 427.384 92.7458C427.384 92.8667 427.343 92.9687 427.26 93.0517C427.177 93.1273 427.075 93.165 426.954 93.165C426.833 93.165 426.731 93.1273 426.648 93.0517C426.572 92.9687 426.535 92.8667 426.535 92.7458ZM436.082 91.8621L434.994 94.9325L436.082 98.6601L435.345 99L434.53 96.2355L433.748 98.4335L433.125 98.2069L434.212 95.1365L433.125 91.4089L433.861 91.069L434.666 93.8448L435.459 91.6355L436.082 91.8621ZM436.554 91.069H439.511V99H438.661V91.9188H436.554V91.069ZM448.095 94.1847V99H447.245V95.0345H445.988V99H445.138V94.1847H448.095ZM447.132 91.4995C447.132 91.3787 447.17 91.2767 447.245 91.1936C447.329 91.1105 447.431 91.069 447.551 91.069C447.672 91.069 447.774 91.1105 447.857 91.1936C447.94 91.2767 447.982 91.3787 447.982 91.4995C447.982 91.6204 447.94 91.7224 447.857 91.8054C447.774 91.881 447.672 91.9188 447.551 91.9188C447.431 91.9188 447.329 91.881 447.245 91.8054C447.17 91.7224 447.132 91.6204 447.132 91.4995ZM445.251 91.4995C445.251 91.3787 445.289 91.2767 445.365 91.1936C445.448 91.1105 445.55 91.069 445.671 91.069C445.791 91.069 445.893 91.1105 445.976 91.1936C446.06 91.2767 446.101 91.3787 446.101 91.4995C446.101 91.6204 446.06 91.7224 445.976 91.8054C445.893 91.881 445.791 91.9188 445.671 91.9188C445.55 91.9188 445.448 91.881 445.365 91.8054C445.289 91.7224 445.251 91.6204 445.251 91.4995ZM451.524 91.069V99H450.675V95.0345H449.417V99H448.567V94.1847H450.675V91.9188H448.567V91.069H451.524ZM452.846 91.069V94.1847H454.953V99H454.104V95.0345H452.846V99H451.996V91.069H452.846ZM453.99 91.6128C453.99 91.492 454.028 91.39 454.104 91.3069C454.187 91.2238 454.289 91.1823 454.41 91.1823C454.53 91.1823 454.632 91.2238 454.715 91.3069C454.799 91.39 454.84 91.492 454.84 91.6128C454.84 91.7337 454.799 91.8357 454.715 91.9188C454.632 91.9943 454.53 92.032 454.41 92.032C454.289 92.032 454.187 91.9943 454.104 91.9188C454.028 91.8357 453.99 91.7337 453.99 91.6128ZM463.538 91.069V99H462.688V91.9188H461.43V99H460.581V91.069H463.538ZM466.967 91.069V99H466.117V95.0345H464.859V99H464.01V94.1847H466.117V91.9188H464.01V91.069H466.967ZM467.439 91.069H470.396V99H469.546V95.0345H467.439V94.1847H469.546V91.9188H467.439V91.069ZM470.868 99V94.1847H471.718V98.1502H472.975V94.1847H473.825V99H470.868ZM470.868 91.069H473.825V91.9188H470.868V91.069ZM474.297 91.069H477.254V99H476.404V95.0345H474.297V94.1847H476.404V91.9188H474.297V91.069ZM480.683 91.069V99H479.833V91.9188H478.576V99H477.726V91.069H480.683ZM484.112 94.1847V99H483.262V95.0345H482.005V99H481.155V94.1847H484.112ZM483.149 91.4995C483.149 91.3787 483.187 91.2767 483.262 91.1936C483.346 91.1105 483.448 91.069 483.568 91.069C483.689 91.069 483.791 91.1105 483.874 91.1936C483.957 91.2767 483.999 91.3787 483.999 91.4995C483.999 91.6204 483.957 91.7224 483.874 91.8054C483.791 91.881 483.689 91.9188 483.568 91.9188C483.448 91.9188 483.346 91.881 483.262 91.8054C483.187 91.7224 483.149 91.6204 483.149 91.4995ZM481.268 91.4995C481.268 91.3787 481.306 91.2767 481.382 91.1936C481.465 91.1105 481.567 91.069 481.688 91.069C481.808 91.069 481.91 91.1105 481.993 91.1936C482.077 91.2767 482.118 91.3787 482.118 91.4995C482.118 91.6204 482.077 91.7224 481.993 91.8054C481.91 91.881 481.808 91.9188 481.688 91.9188C481.567 91.9188 481.465 91.881 481.382 91.8054C481.306 91.7224 481.268 91.6204 481.268 91.4995ZM485.434 91.069V94.1847H487.541V99H486.692V95.0345H485.434V99H484.584V91.069H485.434ZM486.578 91.6128C486.578 91.492 486.616 91.39 486.692 91.3069C486.775 91.2238 486.877 91.1823 486.997 91.1823C487.118 91.1823 487.22 91.2238 487.303 91.3069C487.386 91.39 487.428 91.492 487.428 91.6128C487.428 91.7337 487.386 91.8357 487.303 91.9188C487.22 91.9943 487.118 92.032 486.997 92.032C486.877 92.032 486.775 91.9943 486.692 91.9188C486.616 91.8357 486.578 91.7337 486.578 91.6128ZM488.013 99V94.1847H488.863V98.1502H490.121V94.1847H490.97V99H488.013ZM488.013 91.069H490.97V91.9188H488.013V91.069ZM502.984 94.1847V99H502.134V95.0345H500.876V99H500.027V94.1847H502.984ZM502.021 91.4995C502.021 91.3787 502.058 91.2767 502.134 91.1936C502.217 91.1105 502.319 91.069 502.44 91.069C502.561 91.069 502.663 91.1105 502.746 91.1936C502.829 91.2767 502.87 91.3787 502.87 91.4995C502.87 91.6204 502.829 91.7224 502.746 91.8054C502.663 91.881 502.561 91.9188 502.44 91.9188C502.319 91.9188 502.217 91.881 502.134 91.8054C502.058 91.7224 502.021 91.6204 502.021 91.4995ZM500.14 91.4995C500.14 91.3787 500.178 91.2767 500.253 91.1936C500.336 91.1105 500.438 91.069 500.559 91.069C500.68 91.069 500.782 91.1105 500.865 91.1936C500.948 91.2767 500.99 91.3787 500.99 91.4995C500.99 91.6204 500.948 91.7224 500.865 91.8054C500.782 91.881 500.68 91.9188 500.559 91.9188C500.438 91.9188 500.336 91.881 500.253 91.8054C500.178 91.7224 500.14 91.6204 500.14 91.4995ZM506.413 91.069V99H505.563V95.0345H504.305V99H503.456V94.1847H505.563V91.9188H503.456V91.069H506.413ZM507.735 91.069V94.1847H509.842V99H508.992V95.0345H507.735V99H506.885V91.069H507.735ZM508.879 91.6128C508.879 91.492 508.917 91.39 508.992 91.3069C509.075 91.2238 509.177 91.1823 509.298 91.1823C509.419 91.1823 509.521 91.2238 509.604 91.3069C509.687 91.39 509.729 91.492 509.729 91.6128C509.729 91.7337 509.687 91.8357 509.604 91.9188C509.521 91.9943 509.419 92.032 509.298 92.032C509.177 92.032 509.075 91.9943 508.992 91.9188C508.917 91.8357 508.879 91.7337 508.879 91.6128ZM518.426 91.069V99H517.576V91.9188H516.319V99H515.469V91.069H518.426ZM518.898 91.069H521.855V91.9188H519.952L521.855 94.1847V99H518.898V98.1502H521.006V94.434L518.898 91.9188V91.069ZM525.284 91.069V99H524.435V91.9188H523.177V99H522.327V91.069H525.284ZM533.869 94.1847V99H533.019V95.0345H531.761V99H530.911V94.1847H533.869ZM532.906 91.4995C532.906 91.3787 532.943 91.2767 533.019 91.1936C533.102 91.1105 533.204 91.069 533.325 91.069C533.446 91.069 533.548 91.1105 533.631 91.1936C533.714 91.2767 533.755 91.3787 533.755 91.4995C533.755 91.6204 533.714 91.7224 533.631 91.8054C533.548 91.881 533.446 91.9188 533.325 91.9188C533.204 91.9188 533.102 91.881 533.019 91.8054C532.943 91.7224 532.906 91.6204 532.906 91.4995ZM531.025 91.4995C531.025 91.3787 531.063 91.2767 531.138 91.1936C531.221 91.1105 531.323 91.069 531.444 91.069C531.565 91.069 531.667 91.1105 531.75 91.1936C531.833 91.2767 531.875 91.3787 531.875 91.4995C531.875 91.6204 531.833 91.7224 531.75 91.8054C531.667 91.881 531.565 91.9188 531.444 91.9188C531.323 91.9188 531.221 91.881 531.138 91.8054C531.063 91.7224 531.025 91.6204 531.025 91.4995ZM537.298 91.8621L536.21 94.9325L537.298 98.6601L536.561 99L535.746 96.2355L534.964 98.4335L534.341 98.2069L535.428 95.1365L534.341 91.4089L535.077 91.069L535.881 93.8448L536.675 91.6355L537.298 91.8621ZM537.77 95.0345V91.069H540.727V99H537.77V98.1502H539.877V91.9188H538.619V95.0345H537.77ZM542.049 91.069V94.1847H544.156V99H543.306V95.0345H542.049V99H541.199V91.069H542.049ZM543.193 91.6128C543.193 91.492 543.231 91.39 543.306 91.3069C543.389 91.2238 543.491 91.1823 543.612 91.1823C543.733 91.1823 543.835 91.2238 543.918 91.3069C544.001 91.39 544.043 91.492 544.043 91.6128C544.043 91.7337 544.001 91.8357 543.918 91.9188C543.835 91.9943 543.733 92.032 543.612 92.032C543.491 92.032 543.389 91.9943 543.306 91.9188C543.231 91.8357 543.193 91.7337 543.193 91.6128ZM545.908 91.069L546.849 95.8163L546.962 93.0517H547.698L547.472 98.8867L546.735 99L545.693 93.6976L545.251 99L544.515 98.8867L545.172 91.069H545.908ZM547.83 99V91.069H548.68L549.53 93.1311L550.391 91.069H551.241V95.0345H550.391V92.6552L549.734 94.0375H549.337L548.68 92.6552V99H547.83ZM556.641 91.069H559.598V99H558.749V95.0345H556.641V94.1847H558.749V91.9188H556.641V91.069ZM560.07 99V94.1847H560.92V98.1502H562.178V94.1847H563.027V99H560.07ZM560.07 91.069H563.027V91.9188H560.07V91.069ZM564.349 91.069V94.1847H566.457V99H565.607V95.0345H564.349V99H563.499V91.069H564.349ZM565.493 91.6128C565.493 91.492 565.531 91.39 565.607 91.3069C565.69 91.2238 565.792 91.1823 565.913 91.1823C566.034 91.1823 566.136 91.2238 566.219 91.3069C566.302 91.39 566.343 91.492 566.343 91.6128C566.343 91.7337 566.302 91.8357 566.219 91.9188C566.136 91.9943 566.034 92.032 565.913 92.032C565.792 92.032 565.69 91.9943 565.607 91.9188C565.531 91.8357 565.493 91.7337 565.493 91.6128ZM572.084 91.069H575.041V99H574.191V91.9188H572.084V91.069ZM575.513 91.069H578.47V99H577.62V91.9188H575.513V91.069ZM581.899 96.0315L579.452 99L578.942 98.5468L581.049 96.0315L579.078 94.0375L581.389 91.069L581.899 91.5222L579.928 94.0375L581.899 96.0315ZM585.328 96.0315L582.881 99L582.371 98.5468L584.478 96.0315L582.507 94.0375L584.818 91.069L585.328 91.5222L583.357 94.0375L585.328 96.0315ZM587.907 95.0345V91.9188H586.65V98.1502H587.771V99H585.8V91.069H588.757V95.0345H587.907ZM594.384 98.1502H595.438V95.0345H596.288V98.1502H597.341V99H594.384V98.1502ZM594.384 91.069H597.341V91.9188H594.384V91.069ZM599.094 91.069L600.034 95.8163L600.147 93.0517H600.884L600.657 98.8867L599.921 99L598.878 93.6976L598.437 99L597.7 98.8867L598.357 91.069H599.094ZM604.2 94.1847V99H603.35V95.0345H602.092V99H601.242V94.1847H604.2ZM603.237 91.4995C603.237 91.3787 603.274 91.2767 603.35 91.1936C603.433 91.1105 603.535 91.069 603.656 91.069C603.777 91.069 603.879 91.1105 603.962 91.1936C604.045 91.2767 604.086 91.3787 604.086 91.4995C604.086 91.6204 604.045 91.7224 603.962 91.8054C603.879 91.881 603.777 91.9188 603.656 91.9188C603.535 91.9188 603.433 91.881 603.35 91.8054C603.274 91.7224 603.237 91.6204 603.237 91.4995ZM601.356 91.4995C601.356 91.3787 601.394 91.2767 601.469 91.1936C601.552 91.1105 601.654 91.069 601.775 91.069C601.896 91.069 601.998 91.1105 602.081 91.1936C602.164 91.2767 602.205 91.3787 602.205 91.4995C602.205 91.6204 602.164 91.7224 602.081 91.8054C601.998 91.881 601.896 91.9188 601.775 91.9188C601.654 91.9188 601.552 91.881 601.469 91.8054C601.394 91.7224 601.356 91.6204 601.356 91.4995ZM604.672 99V94.1847H605.521V98.1502H606.779V94.1847H607.629V99H604.672ZM604.672 91.069H607.629V91.9188H604.672V91.069ZM611.058 91.8621L609.97 94.9325L611.058 98.6601L610.321 99L609.506 96.2355L608.724 98.4335L608.101 98.2069L609.188 95.1365L608.101 91.4089L608.837 91.069L609.642 93.8448L610.435 91.6355L611.058 91.8621ZM611.53 99V91.069H612.379V99H611.53ZM613.524 97.3345C613.524 97.2136 613.562 97.1117 613.637 97.0286C613.72 96.9455 613.822 96.9039 613.943 96.9039C614.064 96.9039 614.166 96.9455 614.249 97.0286C614.332 97.1117 614.374 97.2136 614.374 97.3345C614.374 97.4553 614.332 97.5573 614.249 97.6404C614.166 97.7159 614.064 97.7537 613.943 97.7537C613.822 97.7537 613.72 97.7159 613.637 97.6404C613.562 97.5573 613.524 97.4553 613.524 97.3345ZM613.524 92.7458C613.524 92.625 613.562 92.523 613.637 92.4399C613.72 92.3568 613.822 92.3153 613.943 92.3153C614.064 92.3153 614.166 92.3568 614.249 92.4399C614.332 92.523 614.374 92.625 614.374 92.7458C614.374 92.8667 614.332 92.9687 614.249 93.0517C614.166 93.1273 614.064 93.165 613.943 93.165C613.822 93.165 613.72 93.1273 613.637 93.0517C613.562 92.9687 613.524 92.8667 613.524 92.7458ZM614.959 91.069H617.916V99H617.066V95.0345H614.959V94.1847H617.066V91.9188H614.959V91.069ZM618.388 91.069H621.345V91.9188H619.442L621.345 94.1847V99H618.388V98.1502H620.495V94.434L618.388 91.9188V91.069ZM624.774 96.0315L622.327 99L621.817 98.5468L623.924 96.0315L621.953 94.0375L624.264 91.069L624.774 91.5222L622.803 94.0375L624.774 96.0315ZM626.096 91.069V94.1847H628.203V99H627.353V95.0345H626.096V99H625.246V91.069H626.096ZM627.24 91.6128C627.24 91.492 627.278 91.39 627.353 91.3069C627.437 91.2238 627.539 91.1823 627.659 91.1823C627.78 91.1823 627.882 91.2238 627.965 91.3069C628.048 91.39 628.09 91.492 628.09 91.6128C628.09 91.7337 628.048 91.8357 627.965 91.9188C627.882 91.9943 627.78 92.032 627.659 92.032C627.539 92.032 627.437 91.9943 627.353 91.9188C627.278 91.8357 627.24 91.7337 627.24 91.6128ZM633.83 91.069H636.788V99H635.938V95.0345H633.83V94.1847H635.938V91.9188H633.83V91.069ZM640.217 91.069V99H639.367V91.9188H638.109V99H637.259V91.069H640.217ZM640.689 99V94.1847H641.538V98.1502H642.796V94.1847H643.646V99H640.689ZM640.689 91.069H643.646V91.9188H640.689V91.069ZM647.075 91.8621L645.987 94.9325L647.075 98.6601L646.338 99L645.523 96.2355L644.741 98.4335L644.118 98.2069L645.205 95.1365L644.118 91.4089L644.854 91.069L645.659 93.8448L646.452 91.6355L647.075 91.8621ZM647.32 99V91.069H648.17L649.02 93.1311L649.881 91.069H650.73V95.0345H649.881V92.6552L649.224 94.0375H648.827L648.17 92.6552V99H647.32ZM650.749 99V91.069H651.599L652.449 93.1311L653.31 91.069H654.16V95.0345H653.31V92.6552L652.653 94.0375H652.256L651.599 92.6552V99H650.749ZM659.56 91.069H662.517V99H661.667V95.0345H659.56V94.1847H661.667V91.9188H659.56V91.069ZM665.946 96.0315L663.499 99L662.989 98.5468L665.097 96.0315L663.125 94.0375L665.436 91.069L665.946 91.5222L663.975 94.0375L665.946 96.0315ZM669.375 96.0315L666.928 99L666.418 98.5468L668.526 96.0315L666.554 94.0375L668.866 91.069L669.375 91.5222L667.404 94.0375L669.375 96.0315ZM675.852 91.069V94.1847H677.96V99H677.11V95.0345H675.852V99H675.003V91.069H675.852ZM676.997 91.6128C676.997 91.492 677.034 91.39 677.11 91.3069C677.193 91.2238 677.295 91.1823 677.416 91.1823C677.537 91.1823 677.639 91.2238 677.722 91.3069C677.805 91.39 677.846 91.492 677.846 91.6128C677.846 91.7337 677.805 91.8357 677.722 91.9188C677.639 91.9943 677.537 92.032 677.416 92.032C677.295 92.032 677.193 91.9943 677.11 91.9188C677.034 91.8357 676.997 91.7337 676.997 91.6128ZM681.389 94.1847V99H680.539V95.0345H679.281V99H678.432V94.1847H681.389ZM680.426 91.4995C680.426 91.3787 680.463 91.2767 680.539 91.1936C680.622 91.1105 680.724 91.069 680.845 91.069C680.966 91.069 681.068 91.1105 681.151 91.1936C681.234 91.2767 681.275 91.3787 681.275 91.4995C681.275 91.6204 681.234 91.7224 681.151 91.8054C681.068 91.881 680.966 91.9188 680.845 91.9188C680.724 91.9188 680.622 91.881 680.539 91.8054C680.463 91.7224 680.426 91.6204 680.426 91.4995ZM678.545 91.4995C678.545 91.3787 678.583 91.2767 678.658 91.1936C678.741 91.1105 678.843 91.069 678.964 91.069C679.085 91.069 679.187 91.1105 679.27 91.1936C679.353 91.2767 679.395 91.3787 679.395 91.4995C679.395 91.6204 679.353 91.7224 679.27 91.8054C679.187 91.881 679.085 91.9188 678.964 91.9188C678.843 91.9188 678.741 91.881 678.658 91.8054C678.583 91.7224 678.545 91.6204 678.545 91.4995ZM684.818 91.069V99H683.968V95.0345H682.71V99H681.861V94.1847H683.968V91.9188H681.861V91.069H684.818ZM690.445 91.069H693.402V91.9188H691.499L693.402 94.1847V99H690.445V98.1502H692.552V94.434L690.445 91.9188V91.069ZM696.831 96.0315L694.384 99L693.874 98.5468L695.981 96.0315L694.01 94.0375L696.321 91.069L696.831 91.5222L694.86 94.0375L696.831 96.0315ZM700.26 91.8621L699.173 94.9325L700.26 98.6601L699.524 99L698.708 96.2355L697.926 98.4335L697.303 98.2069L698.391 95.1365L697.303 91.4089L698.04 91.069L698.844 93.8448L699.637 91.6355L700.26 91.8621ZM703.689 91.069V99H702.84V91.9188H701.582V99H700.732V91.069H703.689ZM704.161 95.0345V91.069H707.118V99H704.161V98.1502H706.269V91.9188H705.011V95.0345H704.161ZM710.548 91.069V99H709.698V91.9188H708.44V99H707.59V91.069H710.548ZM713.977 91.069V99H713.127V95.0345H711.869V99H711.02V94.1847H713.127V91.9188H711.02V91.069H713.977ZM714.449 91.069H717.406V99H716.556V95.0345H714.449V94.1847H716.556V91.9188H714.449V91.069ZM717.878 98.1502H718.931V95.0345H719.781V98.1502H720.835V99H717.878V98.1502ZM717.878 91.069H720.835V91.9188H717.878V91.069ZM722.587 91.069L723.528 95.8163L723.641 93.0517H724.377L724.151 98.8867L723.414 99L722.372 93.6976L721.93 99L721.194 98.8867L721.851 91.069H722.587ZM729.891 99V91.069H730.741V99H729.891ZM731.885 97.3345C731.885 97.2136 731.923 97.1117 731.998 97.0286C732.082 96.9455 732.183 96.9039 732.304 96.9039C732.425 96.9039 732.527 96.9455 732.61 97.0286C732.693 97.1117 732.735 97.2136 732.735 97.3345C732.735 97.4553 732.693 97.5573 732.61 97.6404C732.527 97.7159 732.425 97.7537 732.304 97.7537C732.183 97.7537 732.082 97.7159 731.998 97.6404C731.923 97.5573 731.885 97.4553 731.885 97.3345ZM731.885 92.7458C731.885 92.625 731.923 92.523 731.998 92.4399C732.082 92.3568 732.183 92.3153 732.304 92.3153C732.425 92.3153 732.527 92.3568 732.61 92.4399C732.693 92.523 732.735 92.625 732.735 92.7458C732.735 92.8667 732.693 92.9687 732.61 93.0517C732.527 93.1273 732.425 93.165 732.304 93.165C732.183 93.165 732.082 93.1273 731.998 93.0517C731.923 92.9687 731.885 92.8667 731.885 92.7458ZM733.32 99V94.1847H734.17V98.1502H735.428V94.1847H736.277V99H733.32ZM733.32 91.069H736.277V91.9188H733.32V91.069ZM739.706 91.8621L738.619 94.9325L739.706 98.6601L738.97 99L738.154 96.2355L737.372 98.4335L736.749 98.2069L737.837 95.1365L736.749 91.4089L737.486 91.069L738.29 93.8448L739.083 91.6355L739.706 91.8621ZM740.178 91.069H743.135V91.9188H742.082V94.1847H743.135V99H740.178V94.1847H741.232V91.9188H740.178V91.069ZM741.028 95.0345V98.1502H742.286V95.0345H741.028ZM743.607 91.069H746.565V99H745.715V91.9188H743.607V91.069ZM749.994 91.069V99H749.144V91.9188H747.886V99H747.037V91.069H749.994ZM753.423 94.1847V99H752.573V95.0345H751.315V99H750.466V94.1847H753.423ZM752.46 91.4995C752.46 91.3787 752.497 91.2767 752.573 91.1936C752.656 91.1105 752.758 91.069 752.879 91.069C753 91.069 753.102 91.1105 753.185 91.1936C753.268 91.2767 753.309 91.3787 753.309 91.4995C753.309 91.6204 753.268 91.7224 753.185 91.8054C753.102 91.881 753 91.9188 752.879 91.9188C752.758 91.9188 752.656 91.881 752.573 91.8054C752.497 91.7224 752.46 91.6204 752.46 91.4995ZM750.579 91.4995C750.579 91.3787 750.617 91.2767 750.692 91.1936C750.775 91.1105 750.877 91.069 750.998 91.069C751.119 91.069 751.221 91.1105 751.304 91.1936C751.387 91.2767 751.429 91.3787 751.429 91.4995C751.429 91.6204 751.387 91.7224 751.304 91.8054C751.221 91.881 751.119 91.9188 750.998 91.9188C750.877 91.9188 750.775 91.881 750.692 91.8054C750.617 91.7224 750.579 91.6204 750.579 91.4995ZM753.668 99V91.069H754.518L755.368 93.1311L756.229 91.069H757.078V95.0345H756.229V92.6552L755.572 94.0375H755.175L754.518 92.6552V99H753.668ZM765.908 99V91.069H766.758V99H765.908ZM767.902 97.3345C767.902 97.2136 767.94 97.1117 768.015 97.0286C768.099 96.9455 768.201 96.9039 768.321 96.9039C768.442 96.9039 768.544 96.9455 768.627 97.0286C768.71 97.1117 768.752 97.2136 768.752 97.3345C768.752 97.4553 768.71 97.5573 768.627 97.6404C768.544 97.7159 768.442 97.7537 768.321 97.7537C768.201 97.7537 768.099 97.7159 768.015 97.6404C767.94 97.5573 767.902 97.4553 767.902 97.3345ZM767.902 92.7458C767.902 92.625 767.94 92.523 768.015 92.4399C768.099 92.3568 768.201 92.3153 768.321 92.3153C768.442 92.3153 768.544 92.3568 768.627 92.4399C768.71 92.523 768.752 92.625 768.752 92.7458C768.752 92.8667 768.71 92.9687 768.627 93.0517C768.544 93.1273 768.442 93.165 768.321 93.165C768.201 93.165 768.099 93.1273 768.015 93.0517C767.94 92.9687 767.902 92.8667 767.902 92.7458ZM772.294 96.0315L769.847 99L769.337 98.5468L771.445 96.0315L769.473 94.0375L771.784 91.069L772.294 91.5222L770.323 94.0375L772.294 96.0315ZM772.766 91.069H775.723V99H774.874V95.0345H772.766V94.1847H774.874V91.9188H772.766V91.069ZM779.153 94.1847V99H778.303V95.0345H777.045V99H776.195V94.1847H779.153ZM778.189 91.4995C778.189 91.3787 778.227 91.2767 778.303 91.1936C778.386 91.1105 778.488 91.069 778.609 91.069C778.73 91.069 778.831 91.1105 778.915 91.1936C778.998 91.2767 779.039 91.3787 779.039 91.4995C779.039 91.6204 778.998 91.7224 778.915 91.8054C778.831 91.881 778.73 91.9188 778.609 91.9188C778.488 91.9188 778.386 91.881 778.303 91.8054C778.227 91.7224 778.189 91.6204 778.189 91.4995ZM776.309 91.4995C776.309 91.3787 776.346 91.2767 776.422 91.1936C776.505 91.1105 776.607 91.069 776.728 91.069C776.849 91.069 776.951 91.1105 777.034 91.1936C777.117 91.2767 777.158 91.3787 777.158 91.4995C777.158 91.6204 777.117 91.7224 777.034 91.8054C776.951 91.881 776.849 91.9188 776.728 91.9188C776.607 91.9188 776.505 91.881 776.422 91.8054C776.346 91.7224 776.309 91.6204 776.309 91.4995ZM779.624 91.069H782.582V99H781.732V91.9188H779.624V91.069ZM786.011 91.8621L784.923 94.9325L786.011 98.6601L785.274 99L784.458 96.2355L783.677 98.4335L783.054 98.2069L784.141 95.1365L783.054 91.4089L783.79 91.069L784.594 93.8448L785.388 91.6355L786.011 91.8621ZM786.483 99V94.1847H787.332V98.1502H788.59V94.1847H789.44V99H786.483ZM786.483 91.069H789.44V91.9188H786.483V91.069ZM791.815 98.1502H792.869V99H789.912V98.1502H790.965V95.0345L789.912 91.069H790.762L791.385 93.7769L792.019 91.069H792.869L791.815 95.0345V98.1502ZM793.114 99V91.069H793.964L794.814 93.1311L795.675 91.069H796.525V95.0345H795.675V92.6552L795.018 94.0375H794.621L793.964 92.6552V99H793.114ZM801.925 91.069H804.882V99H804.032V95.0345H801.925V94.1847H804.032V91.9188H801.925V91.069ZM806.634 91.069L807.575 95.8163L807.688 93.0517H808.425L808.198 98.8867L807.462 99L806.419 93.6976L805.977 99L805.241 98.8867L805.898 91.069H806.634ZM808.783 91.069H811.74V91.9188H810.687V94.1847H811.74V99H808.783V94.1847H809.837V91.9188H808.783V91.069ZM809.633 95.0345V98.1502H810.891V95.0345H809.633ZM817.368 98.5468L819.112 95.8842H817.368V91.069H818.217V95.0345H819.475V91.069H820.325V99H819.475V96.564L817.877 99L817.368 98.5468ZM820.797 91.069H823.754V99H822.904V95.0345H820.797V94.1847H822.904V91.9188H820.797V91.069ZM827.183 96.0315L824.736 99L824.226 98.5468L826.333 96.0315L824.362 94.0375L826.673 91.069L827.183 91.5222L825.211 94.0375L827.183 96.0315ZM830.612 96.0315L828.165 99L827.655 98.5468L829.762 96.0315L827.791 94.0375L830.102 91.069L830.612 91.5222L828.641 94.0375L830.612 96.0315ZM831.934 91.069V94.1847H834.041V99H833.191V95.0345H831.934V99H831.084V91.069H831.934ZM833.078 91.6128C833.078 91.492 833.116 91.39 833.191 91.3069C833.274 91.2238 833.376 91.1823 833.497 91.1823C833.618 91.1823 833.72 91.2238 833.803 91.3069C833.886 91.39 833.928 91.492 833.928 91.6128C833.928 91.7337 833.886 91.8357 833.803 91.9188C833.72 91.9943 833.618 92.032 833.497 92.032C833.376 92.032 833.274 91.9943 833.191 91.9188C833.116 91.8357 833.078 91.7337 833.078 91.6128ZM837.47 94.1847V99H836.62V95.0345H835.363V99H834.513V94.1847H837.47ZM836.507 91.4995C836.507 91.3787 836.545 91.2767 836.62 91.1936C836.703 91.1105 836.805 91.069 836.926 91.069C837.047 91.069 837.149 91.1105 837.232 91.1936C837.315 91.2767 837.357 91.3787 837.357 91.4995C837.357 91.6204 837.315 91.7224 837.232 91.8054C837.149 91.881 837.047 91.9188 836.926 91.9188C836.805 91.9188 836.703 91.881 836.62 91.8054C836.545 91.7224 836.507 91.6204 836.507 91.4995ZM834.626 91.4995C834.626 91.3787 834.664 91.2767 834.74 91.1936C834.823 91.1105 834.925 91.069 835.046 91.069C835.166 91.069 835.268 91.1105 835.351 91.1936C835.435 91.2767 835.476 91.3787 835.476 91.4995C835.476 91.6204 835.435 91.7224 835.351 91.8054C835.268 91.881 835.166 91.9188 835.046 91.9188C834.925 91.9188 834.823 91.881 834.74 91.8054C834.664 91.7224 834.626 91.6204 834.626 91.4995ZM837.715 99V91.069H838.565L839.415 93.1311L840.276 91.069H841.126V95.0345H840.276V92.6552L839.619 94.0375H839.222L838.565 92.6552V99H837.715Z" fill="white"/>
<path opacity="0.1" d="M1162.44 94.1847V99H1161.59V95.0345H1160.34V99H1159.49V94.1847H1162.44ZM1161.48 91.4995C1161.48 91.3787 1161.52 91.2767 1161.59 91.1936C1161.68 91.1105 1161.78 91.069 1161.9 91.069C1162.02 91.069 1162.12 91.1105 1162.21 91.1936C1162.29 91.2767 1162.33 91.3787 1162.33 91.4995C1162.33 91.6204 1162.29 91.7224 1162.21 91.8054C1162.12 91.881 1162.02 91.9188 1161.9 91.9188C1161.78 91.9188 1161.68 91.881 1161.59 91.8054C1161.52 91.7224 1161.48 91.6204 1161.48 91.4995ZM1159.6 91.4995C1159.6 91.3787 1159.64 91.2767 1159.71 91.1936C1159.8 91.1105 1159.9 91.069 1160.02 91.069C1160.14 91.069 1160.24 91.1105 1160.33 91.1936C1160.41 91.2767 1160.45 91.3787 1160.45 91.4995C1160.45 91.6204 1160.41 91.7224 1160.33 91.8054C1160.24 91.881 1160.14 91.9188 1160.02 91.9188C1159.9 91.9188 1159.8 91.881 1159.71 91.8054C1159.64 91.7224 1159.6 91.6204 1159.6 91.4995ZM1168.07 91.069H1171.03V99H1170.18V95.0345H1168.07V94.1847H1170.18V91.9188H1168.07V91.069ZM1174.46 96.0315L1172.01 99L1171.5 98.5468L1173.61 96.0315L1171.64 94.0375L1173.95 91.069L1174.46 91.5222L1172.49 94.0375L1174.46 96.0315ZM1177.89 96.0315L1175.44 99L1174.93 98.5468L1177.04 96.0315L1175.07 94.0375L1177.38 91.069L1177.89 91.5222L1175.92 94.0375L1177.89 96.0315ZM1184.36 91.069V94.1847H1186.47V99H1185.62V95.0345H1184.36V99H1183.51V91.069H1184.36ZM1185.51 91.6128C1185.51 91.492 1185.55 91.39 1185.62 91.3069C1185.7 91.2238 1185.81 91.1823 1185.93 91.1823C1186.05 91.1823 1186.15 91.2238 1186.23 91.3069C1186.32 91.39 1186.36 91.492 1186.36 91.6128C1186.36 91.7337 1186.32 91.8357 1186.23 91.9188C1186.15 91.9943 1186.05 92.032 1185.93 92.032C1185.81 92.032 1185.7 91.9943 1185.62 91.9188C1185.55 91.8357 1185.51 91.7337 1185.51 91.6128ZM1189.9 94.1847V99H1189.05V95.0345H1187.79V99H1186.94V94.1847H1189.9ZM1188.94 91.4995C1188.94 91.3787 1188.97 91.2767 1189.05 91.1936C1189.13 91.1105 1189.24 91.069 1189.36 91.069C1189.48 91.069 1189.58 91.1105 1189.66 91.1936C1189.75 91.2767 1189.79 91.3787 1189.79 91.4995C1189.79 91.6204 1189.75 91.7224 1189.66 91.8054C1189.58 91.881 1189.48 91.9188 1189.36 91.9188C1189.24 91.9188 1189.13 91.881 1189.05 91.8054C1188.97 91.7224 1188.94 91.6204 1188.94 91.4995ZM1187.06 91.4995C1187.06 91.3787 1187.09 91.2767 1187.17 91.1936C1187.25 91.1105 1187.35 91.069 1187.48 91.069C1187.6 91.069 1187.7 91.1105 1187.78 91.1936C1187.86 91.2767 1187.91 91.3787 1187.91 91.4995C1187.91 91.6204 1187.86 91.7224 1187.78 91.8054C1187.7 91.881 1187.6 91.9188 1187.48 91.9188C1187.35 91.9188 1187.25 91.881 1187.17 91.8054C1187.09 91.7224 1187.06 91.6204 1187.06 91.4995ZM1193.33 91.069V99H1192.48V95.0345H1191.22V99H1190.37V94.1847H1192.48V91.9188H1190.37V91.069H1193.33ZM1198.96 91.069H1201.91V91.9188H1200.01L1201.91 94.1847V99H1198.96V98.1502H1201.06V94.434L1198.96 91.9188V91.069ZM1205.34 96.0315L1202.9 99L1202.39 98.5468L1204.49 96.0315L1202.52 94.0375L1204.83 91.069L1205.34 91.5222L1203.37 94.0375L1205.34 96.0315ZM1208.77 91.8621L1207.68 94.9325L1208.77 98.6601L1208.04 99L1207.22 96.2355L1206.44 98.4335L1205.81 98.2069L1206.9 95.1365L1205.81 91.4089L1206.55 91.069L1207.36 93.8448L1208.15 91.6355L1208.77 91.8621ZM1212.2 91.069V99H1211.35V91.9188H1210.09V99H1209.24V91.069H1212.2ZM1212.67 95.0345V91.069H1215.63V99H1212.67V98.1502H1214.78V91.9188H1213.52V95.0345H1212.67ZM1219.06 91.069V99H1218.21V91.9188H1216.95V99H1216.1V91.069H1219.06ZM1222.49 91.069V99H1221.64V95.0345H1220.38V99H1219.53V94.1847H1221.64V91.9188H1219.53V91.069H1222.49ZM1222.96 91.069H1225.92V99H1225.07V95.0345H1222.96V94.1847H1225.07V91.9188H1222.96V91.069ZM1226.39 98.1502H1227.44V95.0345H1228.29V98.1502H1229.35V99H1226.39V98.1502ZM1226.39 91.069H1229.35V91.9188H1226.39V91.069ZM1231.1 91.069L1232.04 95.8163L1232.15 93.0517H1232.89L1232.66 98.8867L1231.93 99L1230.88 93.6976L1230.44 99L1229.7 98.8867L1230.36 91.069H1231.1ZM1238.4 99V91.069H1239.25V99H1238.4ZM1240.4 97.3345C1240.4 97.2136 1240.43 97.1117 1240.51 97.0286C1240.59 96.9455 1240.69 96.9039 1240.82 96.9039C1240.94 96.9039 1241.04 96.9455 1241.12 97.0286C1241.2 97.1117 1241.25 97.2136 1241.25 97.3345C1241.25 97.4553 1241.2 97.5573 1241.12 97.6404C1241.04 97.7159 1240.94 97.7537 1240.82 97.7537C1240.69 97.7537 1240.59 97.7159 1240.51 97.6404C1240.43 97.5573 1240.4 97.4553 1240.4 97.3345ZM1240.4 92.7458C1240.4 92.625 1240.43 92.523 1240.51 92.4399C1240.59 92.3568 1240.69 92.3153 1240.82 92.3153C1240.94 92.3153 1241.04 92.3568 1241.12 92.4399C1241.2 92.523 1241.25 92.625 1241.25 92.7458C1241.25 92.8667 1241.2 92.9687 1241.12 93.0517C1241.04 93.1273 1240.94 93.165 1240.82 93.165C1240.69 93.165 1240.59 93.1273 1240.51 93.0517C1240.43 92.9687 1240.4 92.8667 1240.4 92.7458ZM1241.83 99V94.1847H1242.68V98.1502H1243.94V94.1847H1244.79V99H1241.83ZM1241.83 91.069H1244.79V91.9188H1241.83V91.069ZM1248.22 91.8621L1247.13 94.9325L1248.22 98.6601L1247.48 99L1246.67 96.2355L1245.88 98.4335L1245.26 98.2069L1246.35 95.1365L1245.26 91.4089L1246 91.069L1246.8 93.8448L1247.59 91.6355L1248.22 91.8621ZM1248.69 91.069H1251.65V91.9188H1250.59V94.1847H1251.65V99H1248.69V94.1847H1249.74V91.9188H1248.69V91.069ZM1249.54 95.0345V98.1502H1250.8V95.0345H1249.54ZM1252.12 91.069H1255.08V99H1254.23V91.9188H1252.12V91.069ZM1258.51 91.069V99H1257.66V91.9188H1256.4V99H1255.55V91.069H1258.51ZM1261.93 94.1847V99H1261.08V95.0345H1259.83V99H1258.98V94.1847H1261.93ZM1260.97 91.4995C1260.97 91.3787 1261.01 91.2767 1261.08 91.1936C1261.17 91.1105 1261.27 91.069 1261.39 91.069C1261.51 91.069 1261.61 91.1105 1261.7 91.1936C1261.78 91.2767 1261.82 91.3787 1261.82 91.4995C1261.82 91.6204 1261.78 91.7224 1261.7 91.8054C1261.61 91.881 1261.51 91.9188 1261.39 91.9188C1261.27 91.9188 1261.17 91.881 1261.08 91.8054C1261.01 91.7224 1260.97 91.6204 1260.97 91.4995ZM1259.09 91.4995C1259.09 91.3787 1259.13 91.2767 1259.2 91.1936C1259.29 91.1105 1259.39 91.069 1259.51 91.069C1259.63 91.069 1259.73 91.1105 1259.82 91.1936C1259.9 91.2767 1259.94 91.3787 1259.94 91.4995C1259.94 91.6204 1259.9 91.7224 1259.82 91.8054C1259.73 91.881 1259.63 91.9188 1259.51 91.9188C1259.39 91.9188 1259.29 91.881 1259.2 91.8054C1259.13 91.7224 1259.09 91.6204 1259.09 91.4995ZM1262.18 99V91.069H1263.03L1263.88 93.1311L1264.74 91.069H1265.59V95.0345H1264.74V92.6552L1264.08 94.0375H1263.69L1263.03 92.6552V99H1262.18ZM1274.42 99V91.069H1275.27V99H1274.42ZM1276.41 97.3345C1276.41 97.2136 1276.45 97.1117 1276.53 97.0286C1276.61 96.9455 1276.71 96.9039 1276.83 96.9039C1276.95 96.9039 1277.06 96.9455 1277.14 97.0286C1277.22 97.1117 1277.26 97.2136 1277.26 97.3345C1277.26 97.4553 1277.22 97.5573 1277.14 97.6404C1277.06 97.7159 1276.95 97.7537 1276.83 97.7537C1276.71 97.7537 1276.61 97.7159 1276.53 97.6404C1276.45 97.5573 1276.41 97.4553 1276.41 97.3345ZM1276.41 92.7458C1276.41 92.625 1276.45 92.523 1276.53 92.4399C1276.61 92.3568 1276.71 92.3153 1276.83 92.3153C1276.95 92.3153 1277.06 92.3568 1277.14 92.4399C1277.22 92.523 1277.26 92.625 1277.26 92.7458C1277.26 92.8667 1277.22 92.9687 1277.14 93.0517C1277.06 93.1273 1276.95 93.165 1276.83 93.165C1276.71 93.165 1276.61 93.1273 1276.53 93.0517C1276.45 92.9687 1276.41 92.8667 1276.41 92.7458ZM1280.81 96.0315L1278.36 99L1277.85 98.5468L1279.96 96.0315L1277.98 94.0375L1280.3 91.069L1280.81 91.5222L1278.83 94.0375L1280.81 96.0315ZM1281.28 91.069H1284.23V99H1283.38V95.0345H1281.28V94.1847H1283.38V91.9188H1281.28V91.069ZM1287.66 94.1847V99H1286.81V95.0345H1285.56V99H1284.71V94.1847H1287.66ZM1286.7 91.4995C1286.7 91.3787 1286.74 91.2767 1286.81 91.1936C1286.9 91.1105 1287 91.069 1287.12 91.069C1287.24 91.069 1287.34 91.1105 1287.43 91.1936C1287.51 91.2767 1287.55 91.3787 1287.55 91.4995C1287.55 91.6204 1287.51 91.7224 1287.43 91.8054C1287.34 91.881 1287.24 91.9188 1287.12 91.9188C1287 91.9188 1286.9 91.881 1286.81 91.8054C1286.74 91.7224 1286.7 91.6204 1286.7 91.4995ZM1284.82 91.4995C1284.82 91.3787 1284.86 91.2767 1284.93 91.1936C1285.02 91.1105 1285.12 91.069 1285.24 91.069C1285.36 91.069 1285.46 91.1105 1285.55 91.1936C1285.63 91.2767 1285.67 91.3787 1285.67 91.4995C1285.67 91.6204 1285.63 91.7224 1285.55 91.8054C1285.46 91.881 1285.36 91.9188 1285.24 91.9188C1285.12 91.9188 1285.02 91.881 1284.93 91.8054C1284.86 91.7224 1284.82 91.6204 1284.82 91.4995ZM1288.14 91.069H1291.09V99H1290.24V91.9188H1288.14V91.069ZM1294.52 91.8621L1293.43 94.9325L1294.52 98.6601L1293.79 99L1292.97 96.2355L1292.19 98.4335L1291.56 98.2069L1292.65 95.1365L1291.56 91.4089L1292.3 91.069L1293.11 93.8448L1293.9 91.6355L1294.52 91.8621ZM1294.99 99V94.1847H1295.84V98.1502H1297.1V94.1847H1297.95V99H1294.99ZM1294.99 91.069H1297.95V91.9188H1294.99V91.069ZM1300.33 98.1502H1301.38V99H1298.42V98.1502H1299.48V95.0345L1298.42 91.069H1299.27L1299.9 93.7769L1300.53 91.069H1301.38L1300.33 95.0345V98.1502ZM1301.63 99V91.069H1302.48L1303.33 93.1311L1304.19 91.069H1305.04V95.0345H1304.19V92.6552L1303.53 94.0375H1303.13L1302.48 92.6552V99H1301.63ZM1310.44 91.069H1313.39V99H1312.54V95.0345H1310.44V94.1847H1312.54V91.9188H1310.44V91.069ZM1315.15 91.069L1316.09 95.8163L1316.2 93.0517H1316.94L1316.71 98.8867L1315.97 99L1314.93 93.6976L1314.49 99L1313.75 98.8867L1314.41 91.069H1315.15ZM1317.29 91.069H1320.25V91.9188H1319.2V94.1847H1320.25V99H1317.29V94.1847H1318.35V91.9188H1317.29V91.069ZM1318.14 95.0345V98.1502H1319.4V95.0345H1318.14ZM1325.88 98.5468L1327.62 95.8842H1325.88V91.069H1326.73V95.0345H1327.99V91.069H1328.84V99H1327.99V96.564L1326.39 99L1325.88 98.5468ZM1329.31 91.069H1332.27V99H1331.42V95.0345H1329.31V94.1847H1331.42V91.9188H1329.31V91.069ZM1335.69 96.0315L1333.25 99L1332.74 98.5468L1334.84 96.0315L1332.87 94.0375L1335.18 91.069L1335.69 91.5222L1333.72 94.0375L1335.69 96.0315ZM1339.12 96.0315L1336.68 99L1336.17 98.5468L1338.27 96.0315L1336.3 94.0375L1338.61 91.069L1339.12 91.5222L1337.15 94.0375L1339.12 96.0315ZM1340.44 91.069V94.1847H1342.55V99H1341.7V95.0345H1340.44V99H1339.6V91.069H1340.44ZM1341.59 91.6128C1341.59 91.492 1341.63 91.39 1341.7 91.3069C1341.79 91.2238 1341.89 91.1823 1342.01 91.1823C1342.13 91.1823 1342.23 91.2238 1342.31 91.3069C1342.4 91.39 1342.44 91.492 1342.44 91.6128C1342.44 91.7337 1342.4 91.8357 1342.31 91.9188C1342.23 91.9943 1342.13 92.032 1342.01 92.032C1341.89 92.032 1341.79 91.9943 1341.7 91.9188C1341.63 91.8357 1341.59 91.7337 1341.59 91.6128ZM1345.98 94.1847V99H1345.13V95.0345H1343.87V99H1343.02V94.1847H1345.98ZM1345.02 91.4995C1345.02 91.3787 1345.06 91.2767 1345.13 91.1936C1345.21 91.1105 1345.32 91.069 1345.44 91.069C1345.56 91.069 1345.66 91.1105 1345.74 91.1936C1345.83 91.2767 1345.87 91.3787 1345.87 91.4995C1345.87 91.6204 1345.83 91.7224 1345.74 91.8054C1345.66 91.881 1345.56 91.9188 1345.44 91.9188C1345.32 91.9188 1345.21 91.881 1345.13 91.8054C1345.06 91.7224 1345.02 91.6204 1345.02 91.4995ZM1343.14 91.4995C1343.14 91.3787 1343.18 91.2767 1343.25 91.1936C1343.33 91.1105 1343.44 91.069 1343.56 91.069C1343.68 91.069 1343.78 91.1105 1343.86 91.1936C1343.95 91.2767 1343.99 91.3787 1343.99 91.4995C1343.99 91.6204 1343.95 91.7224 1343.86 91.8054C1343.78 91.881 1343.68 91.9188 1343.56 91.9188C1343.44 91.9188 1343.33 91.881 1343.25 91.8054C1343.18 91.7224 1343.14 91.6204 1343.14 91.4995ZM1346.23 99V91.069H1347.08L1347.93 93.1311L1348.79 91.069H1349.64V95.0345H1348.79V92.6552L1348.13 94.0375H1347.73L1347.08 92.6552V99H1346.23Z" fill="white"/>
<rect y="46" width="1440" height="35" fill="#0D2426"/>
</svg>
