<svg width="170" height="52" viewBox="0 0 170 52" fill="none" xmlns="http://www.w3.org/2000/svg">
<path d="M-0.281251 32L117.999 31.9999C135.672 31.9999 149.999 17.673 149.999 -0.000106963V-0.000106963" stroke="#101820" stroke-width="40"/>
<path opacity="0.04" d="M-7.93788e-07 22.9998L126 23C138.702 23 149 12.7025 149 -0.000106052V-0.000106052" stroke="#F2F4F8" stroke-width="10" stroke-linecap="round"/>
<path opacity="0.1" d="M76.9219 27.1848L76.9219 32L77.7716 32L77.7716 28.0345L79.0293 28.0345L79.0293 32L79.879 32L79.879 27.1847L76.9219 27.1848ZM77.8849 24.4995C77.8849 24.3787 77.8472 24.2767 77.7716 24.1936C77.6886 24.1105 77.5866 24.069 77.4657 24.069C77.3449 24.069 77.2429 24.1105 77.1598 24.1936C77.0767 24.2767 77.0352 24.3787 77.0352 24.4995C77.0352 24.6204 77.0767 24.7224 77.1598 24.8055C77.2429 24.881 77.3449 24.9188 77.4657 24.9188C77.5866 24.9188 77.6886 24.881 77.7716 24.8054C77.8472 24.7224 77.8849 24.6204 77.8849 24.4995ZM79.7657 24.4995C79.7657 24.3787 79.728 24.2767 79.6524 24.1936C79.5693 24.1105 79.4674 24.069 79.3465 24.069C79.2257 24.069 79.1237 24.1105 79.0406 24.1936C78.9575 24.2767 78.916 24.3787 78.916 24.4995C78.916 24.6204 78.9575 24.7224 79.0406 24.8054C79.1237 24.881 79.2257 24.9188 79.3465 24.9188C79.4674 24.9188 79.5693 24.881 79.6524 24.8054C79.728 24.7224 79.7657 24.6204 79.7657 24.4995ZM71.2948 24.069L68.3376 24.069L68.3376 32L69.1874 32L69.1874 28.0345L71.2948 28.0345L71.2948 27.1848L69.1874 27.1848L69.1874 24.9188L71.2948 24.9188L71.2948 24.069ZM64.9086 29.0315L67.3558 32L67.8657 31.5468L65.7583 29.0315L67.7297 27.0375L65.4184 24.069L64.9086 24.5222L66.88 27.0375L64.9086 29.0315ZM61.4795 29.0315L63.9267 32L64.4366 31.5468L62.3292 29.0315L64.3006 27.0375L61.9893 24.069L61.4795 24.5222L63.4509 27.0375L61.4795 29.0315ZM55.0026 24.069L55.0026 27.1848L52.8952 27.1848L52.8952 32L53.745 32L53.745 28.0345L55.0026 28.0345L55.0026 32L55.8523 32L55.8523 24.069L55.0026 24.069ZM53.8583 24.6128C53.8583 24.492 53.8205 24.39 53.745 24.3069C53.6619 24.2238 53.5599 24.1823 53.4391 24.1823C53.3182 24.1823 53.2162 24.2238 53.1331 24.3069C53.0501 24.39 53.0085 24.492 53.0085 24.6128C53.0085 24.7337 53.0501 24.8357 53.1331 24.9188C53.2162 24.9943 53.3182 25.0321 53.4391 25.0321C53.5599 25.0321 53.6619 24.9943 53.745 24.9188C53.8205 24.8357 53.8583 24.7337 53.8583 24.6128ZM49.4661 27.1848L49.4661 32L50.3159 32L50.3159 28.0345L51.5735 28.0345L51.5735 32L52.4232 32L52.4232 27.1848L49.4661 27.1848ZM50.4292 24.4995C50.4292 24.3787 50.3914 24.2767 50.3159 24.1936C50.2328 24.1105 50.1308 24.069 50.01 24.069C49.8891 24.069 49.7871 24.1105 49.704 24.1936C49.621 24.2767 49.5794 24.3787 49.5794 24.4995C49.5794 24.6204 49.621 24.7224 49.704 24.8055C49.7871 24.881 49.8891 24.9188 50.01 24.9188C50.1308 24.9188 50.2328 24.881 50.3159 24.8055C50.3914 24.7224 50.4292 24.6204 50.4292 24.4995ZM52.3099 24.4995C52.3099 24.3787 52.2722 24.2767 52.1966 24.1936C52.1136 24.1105 52.0116 24.069 51.8907 24.069C51.7699 24.069 51.6679 24.1105 51.5848 24.1936C51.5017 24.2767 51.4602 24.3787 51.4602 24.4995C51.4602 24.6204 51.5017 24.7224 51.5848 24.8055C51.6679 24.881 51.7699 24.9188 51.8907 24.9188C52.0116 24.9188 52.1136 24.881 52.1966 24.8055C52.2722 24.7224 52.3099 24.6204 52.3099 24.4995ZM46.037 24.069L46.037 32L46.8868 32L46.8868 28.0345L48.1444 28.0345L48.1444 32L48.9941 32L48.9941 27.1848L46.8868 27.1848L46.8868 24.9188L48.9941 24.9188L48.9941 24.069L46.037 24.069ZM40.4099 24.069L37.4528 24.069L37.4528 24.9188L39.3562 24.9188L37.4528 27.1848L37.4528 32L40.4099 32L40.4099 31.1503L38.3025 31.1503L38.3025 27.434L40.4099 24.9188L40.4099 24.069ZM34.0237 29.0315L36.471 32L36.9808 31.5468L34.8734 29.0315L36.8448 27.0375L34.5335 24.069L34.0237 24.5222L35.9951 27.0375L34.0237 29.0315ZM30.5946 24.8621L31.6823 27.9325L30.5946 31.6601L31.331 32L32.1468 29.2355L32.9286 31.4335L33.5517 31.2069L32.464 28.1365L33.5517 24.4089L32.8153 24.069L32.0108 26.8449L31.2177 24.6355L30.5946 24.8621ZM27.1655 24.069L27.1655 32L28.0152 32L28.0152 24.9188L29.2729 24.9188L29.2729 32L30.1226 32L30.1226 24.069L27.1655 24.069ZM26.6935 28.0345L26.6935 24.069L23.7364 24.069L23.7364 32L26.6935 32L26.6935 31.1503L24.5861 31.1503L24.5861 24.9188L25.8438 24.9188L25.8438 28.0345L26.6935 28.0345ZM20.3073 24.069L20.3073 32L21.157 32L21.157 24.9188L22.4147 24.9188L22.4147 32L23.2644 32L23.2644 24.069L20.3073 24.069ZM16.8782 24.069L16.8782 32L17.728 32L17.728 28.0345L18.9856 28.0345L18.9856 32L19.8353 32L19.8353 27.1848L17.728 27.1848L17.728 24.9188L19.8353 24.9188L19.8353 24.069L16.8782 24.069ZM16.4062 24.069L13.4491 24.069L13.4491 32L14.2989 32L14.2989 28.0345L16.4062 28.0345L16.4062 27.1848L14.2989 27.1848L14.2989 24.9188L16.4062 24.9188L16.4062 24.069ZM12.9771 31.1503L11.9235 31.1503L11.9235 28.0345L11.0737 28.0345L11.0737 31.1503L10.02 31.1503L10.02 32L12.9771 32L12.9771 31.1503ZM12.9771 24.069L10.02 24.069L10.02 24.9188L12.9771 24.9188L12.9771 24.069ZM8.26776 24.069L7.32737 28.8163L7.21407 26.0518L6.47762 26.0518L6.70422 31.8867L7.44067 32L8.48303 26.6976L8.9249 32L9.66135 31.8867L9.00421 24.069L8.26776 24.069Z" fill="white"/>
<path opacity="0.1" d="M45.0401 27.1845L45.0401 31.9998L45.8898 31.9998L45.8898 28.0343L47.1474 28.0343L47.1474 31.9998L47.9972 31.9998L47.9972 27.1845L45.0401 27.1845ZM46.0031 24.4993C46.0031 24.3784 45.9653 24.2765 45.8898 24.1934C45.8067 24.1103 45.7047 24.0688 45.5839 24.0688C45.463 24.0688 45.3611 24.1103 45.278 24.1934C45.1949 24.2765 45.1534 24.3784 45.1534 24.4993C45.1534 24.6201 45.1949 24.7221 45.278 24.8052C45.3611 24.8807 45.463 24.9185 45.5839 24.9185C45.7047 24.9185 45.8067 24.8807 45.8898 24.8052C45.9653 24.7221 46.0031 24.6201 46.0031 24.4993ZM47.8839 24.4993C47.8839 24.3784 47.8461 24.2765 47.7706 24.1934C47.6875 24.1103 47.5855 24.0688 47.4647 24.0688C47.3438 24.0688 47.2419 24.1103 47.1588 24.1934C47.0757 24.2765 47.0341 24.3784 47.0341 24.4993C47.0341 24.6201 47.0757 24.7221 47.1588 24.8052C47.2419 24.8807 47.3438 24.9185 47.4647 24.9185C47.5855 24.9185 47.6875 24.8807 47.7706 24.8052C47.8461 24.7221 47.8839 24.6201 47.8839 24.4993ZM39.4129 24.0688L36.4558 24.0688L36.4558 31.9998L37.3056 31.9998L37.3056 28.0343L39.4129 28.0343L39.4129 27.1845L37.3056 27.1845L37.3056 24.9185L39.4129 24.9185L39.4129 24.0688ZM33.0267 29.0313L35.474 31.9998L35.9838 31.5466L33.8765 29.0313L35.8479 27.0372L33.5366 24.0688L33.0267 24.522L34.9981 27.0372L33.0267 29.0313ZM29.5976 29.0313L32.0449 31.9998L32.5547 31.5466L30.4474 29.0313L32.4188 27.0372L30.1075 24.0688L29.5976 24.522L31.569 27.0372L29.5976 29.0313ZM23.1208 24.0688L23.1208 27.1845L21.0134 27.1845L21.0134 31.9998L21.8631 31.9998L21.8631 28.0343L23.1208 28.0343L23.1208 31.9998L23.9705 31.9998L23.9705 24.0688L23.1208 24.0688ZM21.9764 24.6126C21.9764 24.4917 21.9387 24.3898 21.8631 24.3067C21.78 24.2236 21.6781 24.1821 21.5572 24.1821C21.4364 24.1821 21.3344 24.2236 21.2513 24.3067C21.1682 24.3898 21.1267 24.4917 21.1267 24.6126C21.1267 24.7335 21.1682 24.8354 21.2513 24.9185C21.3344 24.994 21.4364 25.0318 21.5572 25.0318C21.6781 25.0318 21.78 24.994 21.8631 24.9185C21.9387 24.8354 21.9764 24.7335 21.9764 24.6126ZM17.5843 27.1845L17.5843 31.9998L18.434 31.9998L18.434 28.0343L19.6917 28.0343L19.6917 31.9998L20.5414 31.9998L20.5414 27.1845L17.5843 27.1845ZM18.5473 24.4993C18.5473 24.3784 18.5096 24.2765 18.434 24.1934C18.3509 24.1103 18.249 24.0688 18.1281 24.0688C18.0073 24.0688 17.9053 24.1103 17.8222 24.1934C17.7391 24.2765 17.6976 24.3784 17.6976 24.4993C17.6976 24.6202 17.7391 24.7221 17.8222 24.8052C17.9053 24.8807 18.0073 24.9185 18.1281 24.9185C18.249 24.9185 18.3509 24.8807 18.434 24.8052C18.5096 24.7221 18.5473 24.6202 18.5473 24.4993ZM20.4281 24.4993C20.4281 24.3784 20.3903 24.2765 20.3148 24.1934C20.2317 24.1103 20.1298 24.0688 20.0089 24.0688C19.888 24.0688 19.7861 24.1103 19.703 24.1934C19.6199 24.2765 19.5784 24.3784 19.5784 24.4993C19.5784 24.6202 19.6199 24.7221 19.703 24.8052C19.7861 24.8807 19.888 24.9185 20.0089 24.9185C20.1298 24.9185 20.2317 24.8807 20.3148 24.8052C20.3903 24.7221 20.4281 24.6202 20.4281 24.4993ZM14.1552 24.0688L14.1552 31.9998L15.0049 31.9998L15.0049 28.0343L16.2626 28.0343L16.2626 31.9998L17.1123 31.9998L17.1123 27.1845L15.0049 27.1845L15.0049 24.9185L17.1123 24.9185L17.1123 24.0688L14.1552 24.0688ZM8.52807 24.0688L5.57094 24.0688L5.57094 24.9185L7.47438 24.9185L5.57094 27.1845L5.57094 31.9998L8.52807 31.9998L8.52807 31.15L6.42069 31.15L6.42069 27.4338L8.52807 24.9185L8.52807 24.0688ZM2.14184 29.0313L4.58912 31.9998L5.09897 31.5466L2.99159 29.0313L4.96301 27.0372L2.65169 24.0688L2.14184 24.522L4.11326 27.0372L2.14184 29.0313ZM-1.28725 24.8619L-0.199574 27.9323L-1.28725 31.6599L-0.550804 31.9998L0.264956 29.2352L1.04673 31.4333L1.66988 31.2067L0.582196 28.1362L1.66988 24.4087L0.933426 24.0688L0.128996 26.8446L-0.664104 24.6353L-1.28725 24.8619ZM-4.71635 24.0688L-4.71635 31.9998L-3.8666 31.9998L-3.8666 24.9185L-2.60897 24.9185L-2.60897 31.9998L-1.75922 31.9998L-1.75922 24.0688L-4.71635 24.0688ZM-5.18831 28.0343L-5.18831 24.0688L-8.14544 24.0688L-8.14544 31.9998L-5.18831 31.9998L-5.18831 31.15L-7.29569 31.15L-7.29569 24.9185L-6.03806 24.9185L-6.03806 28.0343L-5.18831 28.0343ZM-11.5745 24.0688L-11.5745 31.9998L-10.7248 31.9998L-10.7248 24.9185L-9.46716 24.9185L-9.46716 31.9998L-8.61741 31.9998L-8.61741 24.0688L-11.5745 24.0688ZM-15.0036 24.0688L-15.0036 31.9998L-14.1539 31.9998L-14.1539 28.0343L-12.8963 28.0343L-12.8963 31.9998L-12.0465 31.9998L-12.0465 27.1845L-14.1539 27.1845L-14.1539 24.9185L-12.0465 24.9185L-12.0465 24.0688L-15.0036 24.0688ZM-15.4756 24.0688L-18.4327 24.0688L-18.4327 31.9998L-17.583 31.9998L-17.583 28.0343L-15.4756 28.0343L-15.4756 27.1845L-17.583 27.1845L-17.583 24.9185L-15.4756 24.9185L-15.4756 24.0688ZM-18.9047 31.15L-19.9584 31.15L-19.9584 28.0343L-20.8081 28.0343L-20.8081 31.15L-21.8618 31.15L-21.8618 31.9998L-18.9047 31.9998L-18.9047 31.15ZM-18.9047 24.0688L-21.8618 24.0688L-21.8618 24.9185L-18.9047 24.9185L-18.9047 24.0688ZM-23.6141 24.0688L-24.5545 28.816L-24.6678 26.0515L-25.4042 26.0515L-25.1776 31.8865L-24.4412 31.9998L-23.3988 26.6973L-22.9569 31.9998L-22.2205 31.8865L-22.8776 24.0688L-23.6141 24.0688ZM-30.918 31.9998L-30.918 24.0688L-31.7678 24.0688L-31.7678 31.9998L-30.918 31.9998ZM-32.9121 30.3343C-32.9121 30.2134 -32.9499 30.1114 -33.0254 30.0283C-33.1085 29.9453 -33.2105 29.9037 -33.3313 29.9037C-33.4522 29.9037 -33.5542 29.9453 -33.6372 30.0283C-33.7203 30.1114 -33.7619 30.2134 -33.7619 30.3343C-33.7619 30.4551 -33.7203 30.5571 -33.6372 30.6402C-33.5542 30.7157 -33.4522 30.7535 -33.3313 30.7535C-33.2105 30.7535 -33.1085 30.7157 -33.0254 30.6402C-32.9499 30.5571 -32.9121 30.4551 -32.9121 30.3343ZM-32.9121 25.7456C-32.9121 25.6248 -32.9499 25.5228 -33.0254 25.4397C-33.1085 25.3566 -33.2105 25.3151 -33.3313 25.3151C-33.4522 25.3151 -33.5542 25.3566 -33.6372 25.4397C-33.7203 25.5228 -33.7619 25.6248 -33.7619 25.7456C-33.7619 25.8665 -33.7203 25.9684 -33.6372 26.0515C-33.5542 26.1271 -33.4522 26.1648 -33.3313 26.1648C-33.2105 26.1648 -33.1085 26.1271 -33.0254 26.0515C-32.9499 25.9684 -32.9121 25.8665 -32.9121 25.7456ZM-34.3471 31.9998L-34.3471 27.1845L-35.1969 27.1845L-35.1969 31.15L-36.4545 31.15L-36.4545 27.1845L-37.3043 27.1845L-37.3043 31.9998L-34.3471 31.9998ZM-34.3471 24.0688L-37.3043 24.0688L-37.3043 24.9185L-34.3471 24.9185L-34.3471 24.0688ZM-40.7334 24.8619L-39.6457 27.9323L-40.7334 31.6599L-39.9969 31.9998L-39.1811 29.2353L-38.3994 31.4333L-37.7762 31.2067L-38.8639 28.1362L-37.7762 24.4087L-38.5127 24.0688L-39.3171 26.8446L-40.1102 24.6353L-40.7334 24.8619ZM-41.2053 24.0688L-44.1625 24.0688L-44.1625 24.9185L-43.1088 24.9185L-43.1088 27.1845L-44.1625 27.1845L-44.1625 31.9998L-41.2053 31.9998L-41.2053 27.1845L-42.259 27.1845L-42.259 24.9185L-41.2053 24.9185L-41.2053 24.0688ZM-42.0551 28.0343L-42.0551 31.15L-43.3127 31.15L-43.3127 28.0343L-42.0551 28.0343ZM-44.6344 24.0688L-47.5915 24.0688L-47.5915 31.9998L-46.7418 31.9998L-46.7418 24.9185L-44.6344 24.9185L-44.6344 24.0688ZM-51.0206 24.0688L-51.0206 31.9998L-50.1709 31.9998L-50.1709 24.9185L-48.9133 24.9185L-48.9133 31.9998L-48.0635 31.9998L-48.0635 24.0688L-51.0206 24.0688ZM-54.4497 27.1845L-54.4497 31.9998L-53.6 31.9998L-53.6 28.0343L-52.3424 28.0343L-52.3424 31.9998L-51.4926 31.9998L-51.4926 27.1845L-54.4497 27.1845ZM-53.4867 24.4993C-53.4867 24.3785 -53.5245 24.2765 -53.6 24.1934C-53.6831 24.1103 -53.785 24.0688 -53.9059 24.0688C-54.0268 24.0688 -54.1287 24.1103 -54.2118 24.1934C-54.2949 24.2765 -54.3364 24.3785 -54.3364 24.4993C-54.3364 24.6202 -54.2949 24.7221 -54.2118 24.8052C-54.1287 24.8808 -54.0268 24.9185 -53.9059 24.9185C-53.785 24.9185 -53.6831 24.8808 -53.6 24.8052C-53.5245 24.7221 -53.4867 24.6202 -53.4867 24.4993ZM-51.6059 24.4993C-51.6059 24.3785 -51.6437 24.2765 -51.7192 24.1934C-51.8023 24.1103 -51.9043 24.0688 -52.0251 24.0688C-52.146 24.0688 -52.2479 24.1103 -52.331 24.1934C-52.4141 24.2765 -52.4557 24.3785 -52.4557 24.4993C-52.4557 24.6202 -52.4141 24.7221 -52.331 24.8052C-52.2479 24.8808 -52.146 24.9185 -52.0251 24.9185C-51.9043 24.9185 -51.8023 24.8808 -51.7192 24.8052C-51.6437 24.7221 -51.6059 24.6202 -51.6059 24.4993ZM-54.6951 31.9998L-54.6951 24.0688L-55.5448 24.0688L-56.3946 26.1308L-57.2557 24.0688L-58.1054 24.0688L-58.1054 28.0343L-57.2557 28.0343L-57.2557 25.655L-56.5985 27.0372L-56.202 27.0372L-55.5448 25.655L-55.5448 31.9998L-54.6951 31.9998ZM-66.935 31.9998L-66.935 24.0688L-67.7848 24.0688L-67.7848 31.9998L-66.935 31.9998ZM-68.9291 30.3343C-68.9291 30.2134 -68.9669 30.1114 -69.0424 30.0284C-69.1255 29.9453 -69.2275 29.9037 -69.3483 29.9037C-69.4692 29.9037 -69.5712 29.9453 -69.6542 30.0284C-69.7373 30.1114 -69.7789 30.2134 -69.7789 30.3343C-69.7789 30.4551 -69.7373 30.5571 -69.6542 30.6402C-69.5712 30.7157 -69.4692 30.7535 -69.3483 30.7535C-69.2275 30.7535 -69.1255 30.7157 -69.0424 30.6402C-68.9669 30.5571 -68.9291 30.4551 -68.9291 30.3343ZM-68.9291 25.7456C-68.9291 25.6248 -68.9669 25.5228 -69.0424 25.4397C-69.1255 25.3566 -69.2275 25.3151 -69.3483 25.3151C-69.4692 25.3151 -69.5712 25.3566 -69.6542 25.4397C-69.7373 25.5228 -69.7789 25.6248 -69.7789 25.7456C-69.7789 25.8665 -69.7373 25.9684 -69.6542 26.0515C-69.5712 26.1271 -69.4692 26.1648 -69.3483 26.1648C-69.2275 26.1648 -69.1255 26.1271 -69.0424 26.0515C-68.9669 25.9684 -68.9291 25.8665 -68.9291 25.7456ZM-73.3213 29.0313L-70.874 31.9998L-70.3641 31.5466L-72.4715 29.0313L-70.5001 27.0372L-72.8114 24.0688L-73.3213 24.522L-71.3498 27.0372L-73.3213 29.0313ZM-73.7932 24.0688L-76.7504 24.0688L-76.7504 31.9998L-75.9006 31.9998L-75.9006 28.0343L-73.7932 28.0343L-73.7932 27.1845L-75.9006 27.1845L-75.9006 24.9185L-73.7932 24.9185L-73.7932 24.0688ZM-80.1795 27.1845L-80.1795 31.9998L-79.3297 31.9998L-79.3297 28.0343L-78.0721 28.0343L-78.0721 31.9998L-77.2223 31.9998L-77.2223 27.1845L-80.1795 27.1845ZM-79.2164 24.4993C-79.2164 24.3785 -79.2542 24.2765 -79.3297 24.1934C-79.4128 24.1103 -79.5148 24.0688 -79.6356 24.0688C-79.7565 24.0688 -79.8584 24.1103 -79.9415 24.1934C-80.0246 24.2765 -80.0662 24.3785 -80.0662 24.4993C-80.0662 24.6202 -80.0246 24.7221 -79.9415 24.8052C-79.8584 24.8808 -79.7565 24.9185 -79.6356 24.9185C-79.5148 24.9185 -79.4128 24.8808 -79.3297 24.8052C-79.2542 24.7221 -79.2164 24.6202 -79.2164 24.4993ZM-77.3356 24.4993C-77.3356 24.3785 -77.3734 24.2765 -77.4489 24.1934C-77.532 24.1103 -77.634 24.0688 -77.7548 24.0688C-77.8757 24.0688 -77.9777 24.1103 -78.0607 24.1934C-78.1438 24.2765 -78.1854 24.3785 -78.1854 24.4993C-78.1854 24.6202 -78.1438 24.7221 -78.0607 24.8052C-77.9777 24.8808 -77.8757 24.9185 -77.7548 24.9185C-77.634 24.9185 -77.532 24.8808 -77.4489 24.8052C-77.3734 24.7221 -77.3356 24.6202 -77.3356 24.4993ZM-80.6514 24.0688L-83.6086 24.0688L-83.6086 31.9998L-82.7588 31.9998L-82.7588 24.9185L-80.6514 24.9185L-80.6514 24.0688ZM-87.0376 24.8619L-85.95 27.9323L-87.0376 31.6599L-86.3012 31.9998L-85.4854 29.2353L-84.7037 31.4333L-84.0805 31.2067L-85.1682 28.1362L-84.0805 24.4087L-84.817 24.0688L-85.6214 26.8446L-86.4145 24.6353L-87.0376 24.8619ZM-87.5096 31.9998L-87.5096 27.1845L-88.3594 27.1845L-88.3594 31.15L-89.617 31.15L-89.617 27.1845L-90.4668 27.1845L-90.4668 31.9998L-87.5096 31.9998ZM-87.5096 24.0688L-90.4668 24.0688L-90.4668 24.9185L-87.5096 24.9185L-87.5096 24.0688ZM-92.8422 31.15L-93.8958 31.15L-93.8958 31.9998L-90.9387 31.9998L-90.9387 31.15L-91.9924 31.15L-91.9924 28.0343L-90.9387 24.0688L-91.7885 24.0688L-92.4116 26.7766L-93.0461 24.0688L-93.8958 24.0688L-92.8422 28.0343L-92.8422 31.15ZM-94.1412 31.9998L-94.1412 24.0688L-94.991 24.0688L-95.8407 26.1308L-96.7018 24.0688L-97.5515 24.0688L-97.5515 28.0343L-96.7018 28.0343L-96.7018 25.655L-96.0446 27.0372L-95.6481 27.0372L-94.991 25.655L-94.991 31.9998L-94.1412 31.9998ZM-102.952 24.0688L-105.909 24.0688L-105.909 31.9998L-105.059 31.9998L-105.059 28.0343L-102.952 28.0343L-102.952 27.1845L-105.059 27.1845L-105.059 24.9185L-102.952 24.9185L-102.952 24.0688ZM-107.661 24.0688L-108.602 28.8161L-108.715 26.0515L-109.452 26.0515L-109.225 31.8865L-108.489 31.9998L-107.446 26.6973L-107.004 31.9998L-106.268 31.8865L-106.925 24.0688L-107.661 24.0688ZM-109.81 24.0688L-112.767 24.0688L-112.767 24.9185L-111.714 24.9185L-111.714 27.1845L-112.767 27.1845L-112.767 31.9998L-109.81 31.9998L-109.81 27.1845L-110.864 27.1845L-110.864 24.9185L-109.81 24.9185L-109.81 24.0688ZM-110.66 28.0343L-110.66 31.15L-111.918 31.15L-111.918 28.0343L-110.66 28.0343ZM-118.394 31.5466L-120.139 28.884L-118.394 28.884L-118.394 24.0688L-119.244 24.0688L-119.244 28.0343L-120.502 28.0343L-120.502 24.0688L-121.352 24.0688L-121.352 31.9998L-120.502 31.9998L-120.502 29.5638L-118.904 31.9998L-118.394 31.5466ZM-121.824 24.0688L-124.781 24.0688L-124.781 31.9998L-123.931 31.9998L-123.931 28.0343L-121.824 28.0343L-121.824 27.1845L-123.931 27.1845L-123.931 24.9185L-121.824 24.9185L-121.824 24.0688ZM-128.21 29.0313L-125.763 31.9998L-125.253 31.5466L-127.36 29.0313L-125.389 27.0372L-127.7 24.0688L-128.21 24.522L-126.238 27.0372L-128.21 29.0313ZM-131.639 29.0313L-129.192 31.9998L-128.682 31.5466L-130.789 29.0313L-128.818 27.0372L-131.129 24.0688L-131.639 24.522L-129.667 27.0372L-131.639 29.0313ZM-132.961 24.0688L-132.961 27.1845L-135.068 27.1845L-135.068 31.9998L-134.218 31.9998L-134.218 28.0343L-132.961 28.0343L-132.961 31.9998L-132.111 31.9998L-132.111 24.0688L-132.961 24.0688ZM-134.105 24.6126C-134.105 24.4918 -134.143 24.3898 -134.218 24.3067C-134.301 24.2236 -134.403 24.1821 -134.524 24.1821C-134.645 24.1821 -134.747 24.2236 -134.83 24.3067C-134.913 24.3898 -134.955 24.4918 -134.955 24.6126C-134.955 24.7335 -134.913 24.8354 -134.83 24.9185C-134.747 24.9941 -134.645 25.0318 -134.524 25.0318C-134.403 25.0318 -134.301 24.9941 -134.218 24.9185C-134.143 24.8354 -134.105 24.7335 -134.105 24.6126ZM-138.497 27.1845L-138.497 31.9998L-137.647 31.9998L-137.647 28.0343L-136.39 28.0343L-136.39 31.9998L-135.54 31.9998L-135.54 27.1845L-138.497 27.1845ZM-137.534 24.4993C-137.534 24.3785 -137.572 24.2765 -137.647 24.1934C-137.73 24.1103 -137.832 24.0688 -137.953 24.0688C-138.074 24.0688 -138.176 24.1103 -138.259 24.1934C-138.342 24.2765 -138.384 24.3785 -138.384 24.4993C-138.384 24.6202 -138.342 24.7221 -138.259 24.8052C-138.176 24.8808 -138.074 24.9185 -137.953 24.9185C-137.832 24.9185 -137.73 24.8808 -137.647 24.8052C-137.572 24.7221 -137.534 24.6202 -137.534 24.4993ZM-135.653 24.4993C-135.653 24.3785 -135.691 24.2765 -135.767 24.1934C-135.85 24.1103 -135.952 24.0688 -136.072 24.0688C-136.193 24.0688 -136.295 24.1103 -136.378 24.1934C-136.461 24.2765 -136.503 24.3785 -136.503 24.4993C-136.503 24.6202 -136.461 24.7221 -136.378 24.8052C-136.295 24.8808 -136.193 24.9185 -136.072 24.9185C-135.952 24.9185 -135.85 24.8808 -135.767 24.8052C-135.691 24.7221 -135.653 24.6202 -135.653 24.4993ZM-138.742 31.9998L-138.742 24.0688L-139.592 24.0688L-140.442 26.1308L-141.303 24.0688L-142.153 24.0688L-142.153 28.0343L-141.303 28.0343L-141.303 25.655L-140.646 27.0372L-140.249 27.0372L-139.592 25.655L-139.592 31.9998L-138.742 31.9998Z" fill="white"/>
</svg>
