<svg width="40" height="779" viewBox="0 0 40 779" fill="none" xmlns="http://www.w3.org/2000/svg">
<path d="M20 0V723" stroke="#101820" stroke-width="40"/>
<path d="M30 35V723" stroke="white" stroke-opacity="0.03" stroke-width="10" stroke-linecap="round"/>
<path opacity="0.1" d="M34.931 21.4872L34.931 24.4443L34.0812 24.4443L34.0812 22.5409L31.8152 24.4443L27 24.4443L27 21.4872L27.8498 21.4872L27.8497 23.5946L31.566 23.5946L34.0812 21.4872L34.931 21.4872ZM30.9655 27.0237L34.0812 27.0237L34.0812 25.766L27.8497 25.766L27.8497 26.8877L27 26.8877L27 24.9163L34.931 24.9163L34.931 27.8734L30.9655 27.8734L30.9655 27.0237ZM27 33.5005L34.931 33.5005L34.931 34.3503L27 34.3503L27 33.5005ZM28.6655 35.4946C28.7864 35.4946 28.8883 35.5324 28.9714 35.6079C29.0545 35.691 29.096 35.793 29.096 35.9138C29.096 36.0347 29.0545 36.1366 28.9714 36.2197C28.8883 36.3028 28.7864 36.3444 28.6655 36.3444C28.5447 36.3444 28.4427 36.3028 28.3596 36.2197C28.2841 36.1366 28.2463 36.0347 28.2463 35.9138C28.2463 35.793 28.2841 35.691 28.3596 35.6079C28.4427 35.5324 28.5447 35.4946 28.6655 35.4946ZM33.2542 35.4946C33.375 35.4946 33.477 35.5324 33.5601 35.6079C33.6432 35.691 33.6847 35.793 33.6847 35.9138C33.6847 36.0347 33.6432 36.1366 33.5601 36.2197C33.477 36.3028 33.375 36.3444 33.2542 36.3444C33.1333 36.3444 33.0313 36.3028 32.9482 36.2197C32.8727 36.1366 32.8349 36.0347 32.8349 35.9138C32.8349 35.793 32.8727 35.691 32.9482 35.6079C33.0313 35.5324 33.1333 35.4946 33.2542 35.4946ZM34.931 36.9296L34.931 39.8868L27 39.8868L27 39.037L34.0812 39.037L34.0812 36.9296L34.931 36.9296ZM27 40.3587L31.8152 40.3587L31.8152 41.2085L27.8497 41.2085L27.8497 42.4661L31.8152 42.4661L31.8152 43.3159L27 43.3159L27 40.3587ZM34.931 40.3587L34.931 43.3159L34.0812 43.3159L34.0812 40.3587L34.931 40.3587ZM34.931 46.7449L27 46.7449L27 45.8952L34.0812 45.8952L34.0812 44.6376L27 44.6376L27 43.7878L34.931 43.7878L34.931 46.7449ZM34.931 50.174L27 50.174L27 49.3243L30.9655 49.3243L30.9655 48.0667L27 48.0667L27 47.2169L31.8152 47.2169L31.8152 49.3243L34.0812 49.3243L34.0812 47.2169L34.931 47.2169L34.931 50.174ZM34.931 50.646L34.931 53.6031L27 53.6031L27 52.7534L30.9655 52.7534L30.9655 50.646L31.8152 50.646L31.8152 52.7534L34.0812 52.7534L34.0812 50.646L34.931 50.646ZM27 53.8485L34.931 53.8485L34.931 54.6983L32.8689 55.548L34.931 56.4091L34.931 57.2588L30.9655 57.2588L30.9655 56.4091L33.3448 56.4091L31.9625 55.7519L31.9625 55.3554L33.3448 54.6983L27 54.6983L27 53.8485ZM27.8497 57.5042L27.8497 58.5579L30.9655 58.5579L30.9655 59.4076L27.8497 59.4076L27.8497 60.4613L27 60.4613L27 57.5042L27.8497 57.5042ZM34.931 57.5042L34.931 60.4613L34.0812 60.4613L34.0812 57.5042L34.931 57.5042ZM34.931 62.2136L30.1837 63.154L32.9482 63.2673L32.9482 64.0037L27.1133 63.7771L27 63.0407L32.3024 61.9983L27 61.5564L27.1133 60.82L34.931 61.4771L34.931 62.2136ZM27 67.3195L27 64.3624L34.931 64.3624L34.931 65.2121L27.8497 65.2121L27.8497 67.3195L27 67.3195ZM30.9655 66.4698L34.931 66.4698L34.931 67.3195L30.9655 67.3195L30.9655 66.4698ZM31.8152 75.9038L27 75.9038L27 75.054L30.9655 75.054L30.9655 73.7964L27 73.7964L27 72.9466L31.8152 72.9466L31.8152 75.9038ZM34.5005 74.9407C34.6213 74.9407 34.7233 74.9785 34.8064 75.054C34.8895 75.1371 34.931 75.2391 34.931 75.3599C34.931 75.4808 34.8895 75.5827 34.8064 75.6658C34.7233 75.7489 34.6213 75.7905 34.5005 75.7905C34.3796 75.7905 34.2776 75.7489 34.1945 75.6658C34.119 75.5827 34.0812 75.4808 34.0812 75.3599C34.0812 75.2391 34.119 75.1371 34.1945 75.054C34.2776 74.9785 34.3796 74.9407 34.5005 74.9407ZM34.5005 73.0599C34.6213 73.0599 34.7233 73.0977 34.8064 73.1732C34.8895 73.2563 34.931 73.3583 34.931 73.4791C34.931 73.6 34.8895 73.702 34.8064 73.7851C34.7233 73.8681 34.6213 73.9097 34.5005 73.9097C34.3796 73.9097 34.2776 73.8681 34.1945 73.7851C34.119 73.702 34.0812 73.6 34.0812 73.4791C34.0812 73.3583 34.119 73.2563 34.1945 73.1732C34.2776 73.0977 34.3796 73.0599 34.5005 73.0599ZM34.931 79.3329L27 79.3329L27 78.4831L30.9655 78.4831L30.9655 77.2255L27 77.2255L27 76.3757L31.8152 76.3757L31.8152 78.4831L34.0812 78.4831L34.0812 76.3757L34.931 76.3757L34.931 79.3329ZM34.931 80.6546L31.8152 80.6546L31.8152 82.762L27 82.762L27 81.9122L30.9655 81.9122L30.9655 80.6546L27 80.6546L27 79.8048L34.931 79.8048L34.931 80.6546ZM34.3872 81.7989C34.508 81.7989 34.61 81.8367 34.6931 81.9122C34.7762 81.9953 34.8177 82.0973 34.8177 82.2181C34.8177 82.339 34.7762 82.4409 34.6931 82.524C34.61 82.6071 34.508 82.6487 34.3872 82.6487C34.2663 82.6487 34.1643 82.6071 34.0812 82.524C34.0057 82.4409 33.9679 82.339 33.9679 82.2181C33.9679 82.0973 34.0057 81.9953 34.0812 81.9122C34.1643 81.8367 34.2663 81.7989 34.3872 81.7989ZM34.931 91.3462L27 91.3462L27 90.4964L34.0812 90.4964L34.0812 89.2388L27 89.2388L27 88.3891L34.931 88.3891L34.931 91.3462ZM34.931 91.8182L34.931 94.7753L34.0812 94.7753L34.0812 92.8719L31.8152 94.7753L27 94.7753L27 91.8182L27.8497 91.8182L27.8497 93.9255L31.566 93.9255L34.0812 91.8182L34.931 91.8182ZM34.931 98.2044L27 98.2044L27 97.3546L34.0812 97.3546L34.0812 96.097L27 96.097L27 95.2473L34.931 95.2473L34.931 98.2044ZM34.931 104.681L31.8152 104.681L31.8152 106.789L27 106.789L27 105.939L30.9655 105.939L30.9655 104.681L27 104.681L27 103.832L34.931 103.832L34.931 104.681ZM34.3872 105.826C34.508 105.826 34.61 105.863 34.6931 105.939C34.7762 106.022 34.8177 106.124 34.8177 106.245C34.8177 106.366 34.7762 106.468 34.6931 106.551C34.61 106.634 34.508 106.675 34.3872 106.675C34.2663 106.675 34.1643 106.634 34.0812 106.551C34.0057 106.468 33.9679 106.366 33.9679 106.245C33.9679 106.124 34.0057 106.022 34.0812 105.939C34.1643 105.863 34.2663 105.826 34.3872 105.826ZM27 107.261L31.8152 107.261L31.8152 108.11L27.8497 108.11L27.8497 109.368L31.8152 109.368L31.8152 110.218L27 110.218L27 107.261ZM34.931 107.261L34.931 110.218L34.0812 110.218L34.0812 107.261L34.931 107.261ZM34.931 113.647L27 113.647L27 112.797L34.0812 112.797L34.0812 111.539L27 111.539L27 110.69L34.931 110.69L34.931 113.647ZM31.8152 135.947L27 135.947L27 135.098L30.9655 135.098L30.9655 133.84L27 133.84L27 132.99L31.8152 132.99L31.8152 135.947ZM34.5005 134.984C34.6213 134.984 34.7233 135.022 34.8064 135.098C34.8895 135.181 34.931 135.283 34.931 135.404C34.931 135.524 34.8895 135.626 34.8064 135.71C34.7233 135.793 34.6213 135.834 34.5005 135.834C34.3796 135.834 34.2776 135.793 34.1945 135.71C34.119 135.626 34.0812 135.524 34.0812 135.404C34.0812 135.283 34.119 135.181 34.1945 135.098C34.2776 135.022 34.3796 134.984 34.5005 134.984ZM34.5005 133.104C34.6213 133.104 34.7233 133.141 34.8064 133.217C34.8895 133.3 34.931 133.402 34.931 133.523C34.931 133.644 34.8895 133.746 34.8064 133.829C34.7233 133.912 34.6213 133.953 34.5005 133.953C34.3796 133.953 34.2776 133.912 34.1945 133.829C34.119 133.746 34.0812 133.644 34.0812 133.523C34.0812 133.402 34.119 133.3 34.1945 133.217C34.2776 133.141 34.3796 133.104 34.5005 133.104ZM34.1379 139.377L31.0675 138.289L27.3399 139.377L27 138.64L29.7645 137.824L27.5665 137.043L27.7931 136.419L30.8635 137.507L34.5911 136.419L34.931 137.156L32.1551 137.96L34.3645 138.753L34.1379 139.377ZM30.9655 139.849L34.931 139.849L34.931 142.806L27 142.806L27 139.849L27.8497 139.849L27.8497 141.956L34.0812 141.956L34.0812 140.698L30.9655 140.698L30.9655 139.849ZM34.931 144.127L31.8152 144.127L31.8152 146.235L27 146.235L27 145.385L30.9655 145.385L30.9655 144.127L27 144.127L27 143.278L34.931 143.278L34.931 144.127ZM34.3872 145.272C34.508 145.272 34.61 145.309 34.6931 145.385C34.7762 145.468 34.8177 145.57 34.8177 145.691C34.8177 145.812 34.7762 145.914 34.6931 145.997C34.61 146.08 34.508 146.121 34.3872 146.121C34.2663 146.121 34.1643 146.08 34.0812 145.997C34.0057 145.914 33.9679 145.812 33.9679 145.691C33.9679 145.57 34.0057 145.468 34.0812 145.385C34.1643 145.309 34.2663 145.272 34.3872 145.272ZM34.931 147.987L30.1837 148.927L32.9482 149.041L32.9482 149.777L27.1133 149.551L27 148.814L32.3024 147.772L27 147.33L27.1133 146.593L34.931 147.251L34.931 147.987ZM34.931 155.291L34.931 158.248L27 158.248L27 157.398L30.9655 157.398L30.9655 155.291L31.8152 155.291L31.8152 157.398L34.0812 157.398L34.0812 155.291L34.931 155.291ZM34.931 160L30.1837 160.941L32.9482 161.054L32.9482 161.79L27.1133 161.564L27 160.827L32.3024 159.785L27 159.343L27.1133 158.607L34.931 159.264L34.931 160ZM34.931 162.149L34.931 165.106L34.0812 165.106L34.0812 164.053L31.8152 164.053L31.8152 165.106L27 165.106L27 162.149L31.8152 162.149L31.8152 163.203L34.0812 163.203L34.0812 162.149L34.931 162.149ZM30.9655 162.999L27.8497 162.999L27.8497 164.257L30.9655 164.257L30.9655 162.999ZM34.931 173.691L27 173.691L27 172.841L34.0812 172.841L34.0812 171.583L27 171.583L27 170.733L34.931 170.733L34.931 173.691ZM34.1379 177.12L31.0675 176.032L27.3399 177.12L27 176.383L29.7645 175.567L27.5665 174.786L27.7931 174.162L30.8635 175.25L34.5911 174.162L34.931 174.899L32.1551 175.703L34.3645 176.496L34.1379 177.12ZM27 177.592L31.8152 177.592L31.8152 178.441L27.8497 178.441L27.8497 179.699L31.8152 179.699L31.8152 180.549L27 180.549L27 177.592ZM34.931 177.592L34.931 180.549L34.0812 180.549L34.0812 177.592L34.931 177.592ZM27 181.021L31.8152 181.021L31.8152 181.87L27.8497 181.87L27.8497 183.128L31.8152 183.128L31.8152 183.978L27 183.978L27 181.021ZM34.931 181.021L34.931 183.978L34.0812 183.978L34.0812 181.021L34.931 181.021ZM34.1379 187.407L31.0675 186.319L27.3399 187.407L27 186.67L29.7645 185.855L27.5665 185.073L27.7931 184.45L30.8635 185.537L34.5911 184.45L34.931 185.186L32.1551 185.991L34.3645 186.784L34.1379 187.407ZM29.9685 190.836L27 188.389L27.4532 187.879L29.9685 189.986L31.9625 188.015L34.931 190.326L34.4778 190.836L31.9625 188.865L29.9685 190.836ZM34.931 191.308L34.931 194.265L27 194.265L27 193.415L30.9655 193.415L30.9655 191.308L31.8152 191.308L31.8152 193.415L34.0812 193.415L34.0812 191.308L34.931 191.308ZM31.8152 197.694L27 197.694L27 196.844L30.9655 196.844L30.9655 195.587L27 195.587L27 194.737L31.8152 194.737L31.8152 197.694ZM34.5005 196.731C34.6213 196.731 34.7233 196.769 34.8064 196.844C34.8894 196.928 34.931 197.029 34.931 197.15C34.931 197.271 34.8894 197.373 34.8064 197.456C34.7233 197.539 34.6213 197.581 34.5005 197.581C34.3796 197.581 34.2776 197.539 34.1945 197.456C34.119 197.373 34.0812 197.271 34.0812 197.15C34.0812 197.029 34.119 196.928 34.1945 196.844C34.2776 196.769 34.3796 196.731 34.5005 196.731ZM34.5005 194.85C34.6213 194.85 34.7233 194.888 34.8064 194.964C34.8894 195.047 34.931 195.149 34.931 195.27C34.931 195.39 34.8894 195.492 34.8064 195.575C34.7233 195.659 34.6213 195.7 34.5005 195.7C34.3796 195.7 34.2776 195.659 34.1945 195.575C34.119 195.492 34.0812 195.39 34.0812 195.27C34.0812 195.149 34.119 195.047 34.1945 194.964C34.2776 194.888 34.3796 194.85 34.5005 194.85ZM27.8497 198.166L27.8497 199.22L30.9655 199.22L30.9655 200.07L27.8497 200.07L27.8497 201.123L27 201.123L27 198.166L27.8497 198.166ZM34.931 198.166L34.931 201.123L34.0812 201.123L34.0812 198.166L34.931 198.166ZM34.931 202.876L30.1837 203.816L32.9482 203.929L32.9482 204.666L27.1133 204.439L27 203.703L32.3024 202.66L27 202.218L27.1133 201.482L34.931 202.139L34.931 202.876ZM27 207.981L27 205.024L34.931 205.024L34.931 205.874L27.8497 205.874L27.8497 207.981L27 207.981ZM30.9655 207.132L34.931 207.132L34.931 207.981L30.9655 207.981L30.9655 207.132ZM27 213.609L31.8152 213.609L31.8152 214.458L27.8497 214.458L27.8497 215.716L31.8152 215.716L31.8152 216.566L27 216.566L27 213.609ZM34.931 213.609L34.931 216.566L34.0812 216.566L34.0812 213.609L34.931 213.609ZM34.931 217.887L31.8152 217.887L31.8152 219.995L27 219.995L27 219.145L30.9655 219.145L30.9655 217.887L27 217.887L27 217.038L34.931 217.038L34.931 217.887ZM34.3872 219.032C34.508 219.032 34.61 219.07 34.6931 219.145C34.7761 219.228 34.8177 219.33 34.8177 219.451C34.8177 219.572 34.7761 219.674 34.6931 219.757C34.61 219.84 34.508 219.882 34.3872 219.882C34.2663 219.882 34.1643 219.84 34.0812 219.757C34.0057 219.674 33.9679 219.572 33.9679 219.451C33.9679 219.33 34.0057 219.228 34.0812 219.145C34.1643 219.07 34.2663 219.032 34.3872 219.032ZM27 220.467L34.931 220.467L34.931 221.317L27 221.317L27 220.467ZM28.6655 222.461C28.7864 222.461 28.8883 222.499 28.9714 222.574C29.0545 222.657 29.096 222.759 29.096 222.88C29.096 223.001 29.0545 223.103 28.9714 223.186C28.8883 223.269 28.7864 223.311 28.6655 223.311C28.5446 223.311 28.4427 223.269 28.3596 223.186C28.2841 223.103 28.2463 223.001 28.2463 222.88C28.2463 222.759 28.2841 222.657 28.3596 222.574C28.4427 222.499 28.5446 222.461 28.6655 222.461ZM33.2542 222.461C33.375 222.461 33.477 222.499 33.5601 222.574C33.6431 222.657 33.6847 222.759 33.6847 222.88C33.6847 223.001 33.6431 223.103 33.5601 223.186C33.477 223.269 33.375 223.311 33.2542 223.311C33.1333 223.311 33.0313 223.269 32.9482 223.186C32.8727 223.103 32.8349 223.001 32.8349 222.88C32.8349 222.759 32.8727 222.657 32.9482 222.574C33.0313 222.499 33.1333 222.461 33.2542 222.461ZM31.8152 226.853L27 226.853L27 226.003L30.9655 226.003L30.9655 224.746L27 224.746L27 223.896L31.8152 223.896L31.8152 226.853ZM34.5005 225.89C34.6213 225.89 34.7233 225.928 34.8064 226.003C34.8894 226.086 34.931 226.188 34.931 226.309C34.931 226.43 34.8894 226.532 34.8064 226.615C34.7233 226.698 34.6213 226.74 34.5005 226.74C34.3796 226.74 34.2776 226.698 34.1945 226.615C34.119 226.532 34.0812 226.43 34.0812 226.309C34.0812 226.188 34.119 226.086 34.1945 226.003C34.2776 225.928 34.3796 225.89 34.5005 225.89ZM34.5005 224.009C34.6213 224.009 34.7233 224.047 34.8064 224.122C34.8894 224.206 34.931 224.308 34.931 224.428C34.931 224.549 34.8894 224.651 34.8064 224.734C34.7233 224.817 34.6213 224.859 34.5005 224.859C34.3796 224.859 34.2776 224.817 34.1945 224.734C34.119 224.651 34.0812 224.549 34.0812 224.428C34.0812 224.308 34.119 224.206 34.1945 224.122C34.2776 224.047 34.3796 224.009 34.5005 224.009ZM27.8497 227.325L27.8497 228.379L30.9655 228.379L30.9655 229.228L27.8497 229.228L27.8497 230.282L27 230.282L27 227.325L27.8497 227.325ZM34.931 227.325L34.931 230.282L34.0812 230.282L34.0812 227.325L34.931 227.325ZM29.9685 233.711L27 231.264L27.4532 230.754L29.9685 232.861L31.9625 230.89L34.931 233.201L34.4778 233.711L31.9625 231.74L29.9685 233.711ZM34.931 235.033L31.8152 235.033L31.8152 237.14L27 237.14L27 236.291L30.9655 236.291L30.9655 235.033L27 235.033L27 234.183L34.931 234.183L34.931 235.033ZM34.3872 236.177C34.508 236.177 34.61 236.215 34.6931 236.291C34.7761 236.374 34.8177 236.476 34.8177 236.596C34.8177 236.717 34.7761 236.819 34.6931 236.902C34.61 236.985 34.508 237.027 34.3872 237.027C34.2663 237.027 34.1643 236.985 34.0812 236.902C34.0057 236.819 33.9679 236.717 33.9679 236.596C33.9679 236.476 34.0057 236.374 34.0812 236.291C34.1643 236.215 34.2663 236.177 34.3872 236.177ZM34.931 242.767L34.931 245.725L27 245.725L27 244.875L30.9655 244.875L30.9655 242.767L31.8152 242.767L31.8152 244.875L34.0812 244.875L34.0812 242.767L34.931 242.767ZM27 246.196L31.8152 246.196L31.8152 247.046L27.8497 247.046L27.8497 248.304L31.8152 248.304L31.8152 249.154L27 249.154L27 246.196ZM34.931 246.196L34.931 249.154L34.0812 249.154L34.0812 246.196L34.931 246.196ZM31.8152 252.583L27 252.583L27 251.733L30.9655 251.733L30.9655 250.475L27 250.475L27 249.626L31.8152 249.626L31.8152 252.583ZM34.5005 251.62C34.6213 251.62 34.7233 251.657 34.8064 251.733C34.8894 251.816 34.931 251.918 34.931 252.039C34.931 252.16 34.8894 252.262 34.8064 252.345C34.7233 252.428 34.6213 252.469 34.5005 252.469C34.3796 252.469 34.2776 252.428 34.1945 252.345C34.119 252.262 34.0812 252.16 34.0812 252.039C34.0812 251.918 34.119 251.816 34.1945 251.733C34.2776 251.657 34.3796 251.62 34.5005 251.62ZM34.5005 249.739C34.6213 249.739 34.7233 249.777 34.8064 249.852C34.8894 249.935 34.931 250.037 34.931 250.158C34.931 250.279 34.8894 250.381 34.8064 250.464C34.7233 250.547 34.6213 250.589 34.5005 250.589C34.3796 250.589 34.2776 250.547 34.1945 250.464C34.119 250.381 34.0812 250.279 34.0812 250.158C34.0812 250.037 34.119 249.935 34.1945 249.852C34.2776 249.777 34.3796 249.739 34.5005 249.739ZM30.9655 263.746L34.0812 263.746L34.0812 262.489L27.8497 262.489L27.8497 263.61L27 263.61L27 261.639L34.931 261.639L34.931 264.596L30.9655 264.596L30.9655 263.746ZM34.1379 268.025L31.0675 266.937L27.3399 268.025L27 267.289L29.7645 266.473L27.5665 265.691L27.7931 265.068L30.8635 266.156L34.5911 265.068L34.931 265.804L32.1551 266.609L34.3645 267.402L34.1379 268.025ZM34.931 268.497L34.931 271.454L27 271.454L27 270.605L34.0812 270.605L34.0812 268.497L34.931 268.497ZM34.931 280.038L27 280.038L27 279.189L30.9655 279.189L30.9655 277.931L27 277.931L27 277.081L31.8152 277.081L31.8152 279.189L34.0812 279.189L34.0812 277.081L34.931 277.081L34.931 280.038ZM34.931 280.51L34.931 283.468L27 283.468L27 282.618L30.9655 282.618L30.9655 280.51L31.8152 280.51L31.8152 282.618L34.0812 282.618L34.0812 280.51L34.931 280.51ZM34.931 283.94L34.931 286.897L27 286.897L27 283.94L27.8497 283.94L27.8497 286.047L34.0812 286.047L34.0812 283.94L34.931 283.94ZM34.931 288.218L31.8152 288.218L31.8152 290.326L27 290.326L27 289.476L30.9655 289.476L30.9655 288.218L27 288.218L27 287.369L34.931 287.369L34.931 288.218ZM34.3871 289.363C34.508 289.363 34.61 289.401 34.6931 289.476C34.7761 289.559 34.8177 289.661 34.8177 289.782C34.8177 289.903 34.7761 290.005 34.6931 290.088C34.61 290.171 34.508 290.212 34.3871 290.212C34.2663 290.212 34.1643 290.171 34.0812 290.088C34.0057 290.005 33.9679 289.903 33.9679 289.782C33.9679 289.661 34.0057 289.559 34.0812 289.476C34.1643 289.401 34.2663 289.363 34.3871 289.363ZM34.931 295.953L34.931 298.91L27 298.91L27 298.06L34.0812 298.06L34.0812 295.953L34.931 295.953ZM34.931 299.382L34.931 302.339L27 302.339L27 301.489L34.0812 301.489L34.0812 299.382L34.931 299.382ZM29.9684 305.768L27 303.321L27.4532 302.811L29.9684 304.918L31.9625 302.947L34.931 305.258L34.4778 305.768L31.9625 303.797L29.9684 305.768ZM29.9684 309.197L27 306.75L27.4532 306.24L29.9684 308.348L31.9625 306.376L34.931 308.687L34.4778 309.197L31.9625 307.226L29.9684 309.197ZM34.931 317.782L27 317.782L27 316.932L34.0812 316.932L34.0812 315.674L27 315.674L27 314.824L34.931 314.824L34.931 317.782ZM34.1379 321.211L31.0675 320.123L27.3399 321.211L27 320.474L29.7645 319.658L27.5665 318.877L27.7931 318.254L30.8635 319.341L34.5911 318.254L34.931 318.99L32.1551 319.794L34.3645 320.587L34.1379 321.211ZM27.8497 323.586L27.8497 324.64L27 324.64L27 321.683L27.8497 321.683L27.8497 322.736L30.9655 322.736L34.931 321.683L34.931 322.532L32.2231 323.156L34.931 323.79L34.931 324.64L30.9655 323.586L27.8497 323.586ZM27.8497 327.015L27.8497 328.069L27 328.069L27 325.112L27.8497 325.112L27.8497 326.165L30.9655 326.165L34.931 325.112L34.931 325.961L32.2231 326.585L34.931 327.219L34.931 328.069L30.9655 327.015L27.8497 327.015ZM34.931 329.391L31.8152 329.391L31.8152 331.498L27 331.498L27 330.648L30.9655 330.648L30.9655 329.391L27 329.391L27 328.541L34.931 328.541L34.931 329.391ZM34.3871 330.535C34.508 330.535 34.61 330.573 34.6931 330.648C34.7761 330.731 34.8177 330.833 34.8177 330.954C34.8177 331.075 34.7761 331.177 34.6931 331.26C34.61 331.343 34.508 331.385 34.3871 331.385C34.2663 331.385 34.1643 331.343 34.0812 331.26C34.0057 331.177 33.9679 331.075 33.9679 330.954C33.9679 330.833 34.0057 330.731 34.0812 330.648C34.1643 330.573 34.2663 330.535 34.3871 330.535ZM27 331.97L31.8152 331.97L31.8152 332.82L27.8497 332.82L27.8497 334.077L31.8152 334.077L31.8152 334.927L27 334.927L27 331.97ZM34.931 331.97L34.931 334.927L34.0812 334.927L34.0812 331.97L34.931 331.97ZM34.931 338.356L27 338.356L27 337.506L34.0812 337.506L34.0812 336.249L27 336.249L27 335.399L34.931 335.399L34.931 338.356ZM27.8497 338.828L27.8497 339.882L30.9655 339.882L30.9655 340.732L27.8497 340.732L27.8497 341.785L27 341.785L27 338.828L27.8497 338.828ZM34.931 338.828L34.931 341.785L34.0812 341.785L34.0812 338.828L34.931 338.828ZM34.931 342.257L34.931 345.214L27 345.214L27 344.365L30.9655 344.365L30.9655 342.257L31.8152 342.257L31.8152 344.365L34.0812 344.365L34.0812 342.257L34.931 342.257ZM29.9684 348.643L27 346.196L27.4532 345.686L29.9684 347.794L31.9625 345.822L34.931 348.134L34.4778 348.643L31.9625 346.672L29.9684 348.643ZM27 354.271L31.8152 354.271L31.8152 355.12L27.8497 355.12L27.8497 356.378L31.8152 356.378L31.8152 357.228L27 357.228L27 354.271ZM34.931 354.271L34.931 357.228L34.0812 357.228L34.0812 354.271L34.931 354.271ZM27.8497 357.7L27.8497 358.753L30.9655 358.753L30.9655 359.603L27.8497 359.603L27.8497 360.657L27 360.657L27 357.7L27.8497 357.7ZM34.931 357.7L34.931 360.657L34.0812 360.657L34.0812 357.7L34.931 357.7ZM27 364.086L27 361.129L34.931 361.129L34.931 361.978L27.8497 361.978L27.8497 364.086L27 364.086ZM30.9655 363.236L34.931 363.236L34.931 364.086L30.9655 364.086L30.9655 363.236ZM34.931 367.515L27 367.515L27 366.665L30.9655 366.665L30.9655 365.408L27 365.408L27 364.558L31.8152 364.558L31.8152 366.665L34.0812 366.665L34.0812 364.558L34.931 364.558L34.931 367.515ZM31.8152 370.944L27 370.944L27 370.094L30.9655 370.094L30.9655 368.837L27 368.837L27 367.987L31.8152 367.987L31.8152 370.944ZM34.5004 369.981C34.6213 369.981 34.7233 370.019 34.8064 370.094C34.8894 370.177 34.931 370.279 34.931 370.4C34.931 370.521 34.8894 370.623 34.8064 370.706C34.7233 370.789 34.6213 370.831 34.5004 370.831C34.3796 370.831 34.2776 370.789 34.1945 370.706C34.119 370.623 34.0812 370.521 34.0812 370.4C34.0812 370.279 34.119 370.177 34.1945 370.094C34.2776 370.019 34.3796 369.981 34.5004 369.981ZM34.5004 368.1C34.6213 368.1 34.7233 368.138 34.8064 368.214C34.8894 368.297 34.931 368.399 34.931 368.519C34.931 368.64 34.8894 368.742 34.8064 368.825C34.7233 368.908 34.6213 368.95 34.5004 368.95C34.3796 368.95 34.2776 368.908 34.1945 368.825C34.119 368.742 34.0812 368.64 34.0812 368.519C34.0812 368.399 34.119 368.297 34.1945 368.214C34.2776 368.138 34.3796 368.1 34.5004 368.1ZM27 371.189L34.931 371.189L34.931 372.039L32.8689 372.889L34.931 373.75L34.931 374.6L30.9655 374.6L30.9655 373.75L33.3448 373.75L31.9625 373.093L31.9625 372.696L33.3448 372.039L27 372.039L27 371.189ZM34.931 380L34.931 382.957L27 382.957L27 382.108L30.9655 382.108L30.9655 380L31.8152 380L31.8152 382.108L34.0812 382.108L34.0812 380L34.931 380ZM34.931 384.71L30.1837 385.65L32.9482 385.763L32.9482 386.5L27.1133 386.273L27 385.537L32.3024 384.494L27 384.053L27.1133 383.316L34.931 383.973L34.931 384.71ZM34.931 386.858L34.931 389.816L34.0812 389.816L34.0812 388.762L31.8152 388.762L31.8152 389.816L27 389.816L27 386.858L31.8152 386.858L31.8152 387.912L34.0812 387.912L34.0812 386.858L34.931 386.858ZM30.9655 387.708L27.8497 387.708L27.8497 388.966L30.9655 388.966L30.9655 387.708ZM34.1379 398.4L31.0675 397.312L27.3399 398.4L27 397.663L29.7645 396.848L27.5665 396.066L27.7931 395.443L30.8635 396.53L34.5911 395.443L34.931 396.179L32.1551 396.984L34.3645 397.777L34.1379 398.4ZM27.4532 398.872L30.1157 400.617L30.1157 398.872L34.931 398.872L34.931 399.722L30.9655 399.722L30.9655 400.979L34.931 400.979L34.931 401.829L27 401.829L27 400.979L29.4359 400.979L27 399.382L27.4532 398.872ZM34.931 403.581L30.1837 404.522L32.9482 404.635L32.9482 405.371L27.1133 405.145L27 404.408L32.3024 403.366L27 402.924L27.1133 402.188L34.931 402.845L34.931 403.581ZM34.931 406.58L31.8152 406.58L31.8152 408.687L27 408.687L27 407.837L30.9655 407.837L30.9655 406.58L27 406.58L27 405.73L34.931 405.73L34.931 406.58ZM34.3871 407.724C34.508 407.724 34.61 407.762 34.6931 407.837C34.7761 407.92 34.8177 408.022 34.8177 408.143C34.8177 408.264 34.7761 408.366 34.6931 408.449C34.61 408.532 34.508 408.574 34.3871 408.574C34.2663 408.574 34.1643 408.532 34.0812 408.449C34.0057 408.366 33.9679 408.264 33.9679 408.143C33.9679 408.022 34.0057 407.92 34.0812 407.837C34.1643 407.762 34.2663 407.724 34.3871 407.724ZM27 409.159L31.8152 409.159L31.8152 410.009L27.8497 410.009L27.8497 411.266L31.8152 411.266L31.8152 412.116L27 412.116L27 409.159ZM34.931 409.159L34.931 412.116L34.0812 412.116L34.0812 409.159L34.931 409.159ZM27 412.362L34.931 412.362L34.931 413.211L32.8689 414.061L34.931 414.922L34.931 415.772L30.9655 415.772L30.9655 414.922L33.3448 414.922L31.9625 414.265L31.9625 413.868L33.3448 413.211L27 413.211L27 412.362ZM34.931 418.974L27 418.974L27 418.125L30.9655 418.125L30.9655 416.867L27 416.867L27 416.017L31.8152 416.017L31.8152 418.125L34.0812 418.125L34.0812 416.017L34.931 416.017L34.931 418.974ZM27.8497 419.446L27.8497 420.5L30.9655 420.5L30.9655 421.35L27.8497 421.35L27.8497 422.403L27 422.403L27 419.446L27.8497 419.446ZM34.931 419.446L34.931 422.403L34.0812 422.403L34.0812 419.446L34.931 419.446ZM27 422.875L34.931 422.875L34.931 423.725L27 423.725L27 422.875ZM28.6655 424.87C28.7863 424.87 28.8883 424.907 28.9714 424.983C29.0545 425.066 29.096 425.168 29.096 425.289C29.096 425.41 29.0545 425.512 28.9714 425.595C28.8883 425.678 28.7863 425.719 28.6655 425.719C28.5446 425.719 28.4427 425.678 28.3596 425.595C28.284 425.512 28.2463 425.41 28.2463 425.289C28.2463 425.168 28.284 425.066 28.3596 424.983C28.4427 424.907 28.5446 424.87 28.6655 424.87ZM33.2541 424.87C33.375 424.87 33.477 424.907 33.5601 424.983C33.6431 425.066 33.6847 425.168 33.6847 425.289C33.6847 425.41 33.6431 425.512 33.5601 425.595C33.477 425.678 33.375 425.719 33.2541 425.719C33.1333 425.719 33.0313 425.678 32.9482 425.595C32.8727 425.512 32.8349 425.41 32.8349 425.289C32.8349 425.168 32.8727 425.066 32.9482 424.983C33.0313 424.907 33.1333 424.87 33.2541 424.87ZM34.1379 434.417L31.0675 433.329L27.3399 434.417L27 433.68L29.7645 432.865L27.5665 432.083L27.7931 431.46L30.8635 432.547L34.5911 431.46L34.931 432.196L32.1551 433.001L34.3645 433.794L34.1379 434.417ZM34.931 434.889L34.931 437.846L27 437.846L27 436.996L34.0812 436.996L34.0812 434.889L34.931 434.889ZM31.8152 446.43L27 446.43L27 445.58L30.9655 445.58L30.9655 444.323L27 444.323L27 443.473L31.8152 443.473L31.8152 446.43ZM34.5004 445.467C34.6213 445.467 34.7233 445.505 34.8064 445.58C34.8894 445.663 34.931 445.765 34.931 445.886C34.931 446.007 34.8894 446.109 34.8064 446.192C34.7233 446.275 34.6213 446.317 34.5004 446.317C34.3796 446.317 34.2776 446.275 34.1945 446.192C34.119 446.109 34.0812 446.007 34.0812 445.886C34.0812 445.765 34.119 445.663 34.1945 445.58C34.2776 445.505 34.3796 445.467 34.5004 445.467ZM34.5004 443.586C34.6213 443.586 34.7233 443.624 34.8064 443.7C34.8894 443.783 34.931 443.885 34.931 444.006C34.931 444.126 34.8894 444.228 34.8064 444.311C34.7233 444.395 34.6213 444.436 34.5004 444.436C34.3796 444.436 34.2776 444.395 34.1945 444.311C34.119 444.228 34.0812 444.126 34.0812 444.006C34.0812 443.885 34.119 443.783 34.1945 443.7C34.2776 443.624 34.3796 443.586 34.5004 443.586ZM34.931 449.859L27 449.859L27 449.01L30.9655 449.01L30.9655 447.752L27 447.752L27 446.902L31.8152 446.902L31.8152 449.01L34.0812 449.01L34.0812 446.902L34.931 446.902L34.931 449.859ZM34.931 451.181L31.8152 451.181L31.8152 453.288L27 453.288L27 452.439L30.9655 452.439L30.9655 451.181L27 451.181L27 450.331L34.931 450.331L34.931 451.181ZM34.3871 452.325C34.508 452.325 34.61 452.363 34.6931 452.439C34.7761 452.522 34.8177 452.624 34.8177 452.745C34.8177 452.865 34.7761 452.967 34.6931 453.05C34.61 453.134 34.508 453.175 34.3871 453.175C34.2663 453.175 34.1643 453.134 34.0812 453.05C34.0057 452.967 33.9679 452.865 33.9679 452.745C33.9679 452.624 34.0057 452.522 34.0812 452.439C34.1643 452.363 34.2663 452.325 34.3871 452.325ZM34.931 461.873L27 461.873L27 461.023L34.0812 461.023L34.0812 459.765L27 459.765L27 458.915L34.931 458.915L34.931 461.873ZM34.931 465.302L27 465.302L27 464.452L30.9655 464.452L30.9655 463.194L27 463.194L27 462.345L31.8152 462.345L31.8152 464.452L34.0812 464.452L34.0812 462.345L34.931 462.345L34.931 465.302ZM34.931 465.774L34.931 468.731L27 468.731L27 467.881L30.9655 467.881L30.9655 465.774L31.8152 465.774L31.8152 467.881L34.0812 467.881L34.0812 465.774L34.931 465.774ZM27 469.203L31.8152 469.203L31.8152 470.053L27.8497 470.053L27.8497 471.31L31.8152 471.31L31.8152 472.16L27 472.16L27 469.203ZM34.931 469.203L34.931 472.16L34.0812 472.16L34.0812 469.203L34.931 469.203ZM34.931 472.632L34.931 475.589L27 475.589L27 474.739L30.9655 474.739L30.9655 472.632L31.8152 472.632L31.8152 474.739L34.0812 474.739L34.0812 472.632L34.931 472.632ZM34.931 479.018L27 479.018L27 478.168L34.0812 478.168L34.0812 476.911L27 476.911L27 476.061L34.931 476.061L34.931 479.018ZM31.8152 482.447L27 482.447L27 481.597L30.9655 481.597L30.9655 480.34L27 480.34L27 479.49L31.8152 479.49L31.8152 482.447ZM34.5004 481.484C34.6213 481.484 34.7233 481.522 34.8063 481.597C34.8894 481.68 34.931 481.782 34.931 481.903C34.931 482.024 34.8894 482.126 34.8063 482.209C34.7233 482.292 34.6213 482.334 34.5004 482.334C34.3796 482.334 34.2776 482.292 34.1945 482.209C34.119 482.126 34.0812 482.024 34.0812 481.903C34.0812 481.782 34.119 481.68 34.1945 481.597C34.2776 481.522 34.3796 481.484 34.5004 481.484ZM34.5004 479.603C34.6213 479.603 34.7233 479.641 34.8064 479.717C34.8894 479.8 34.931 479.902 34.931 480.023C34.931 480.143 34.8894 480.245 34.8063 480.328C34.7233 480.412 34.6213 480.453 34.5004 480.453C34.3796 480.453 34.2776 480.412 34.1945 480.328C34.119 480.245 34.0812 480.143 34.0812 480.023C34.0812 479.902 34.119 479.8 34.1945 479.717C34.2776 479.641 34.3796 479.603 34.5004 479.603ZM34.931 483.769L31.8152 483.769L31.8152 485.876L27 485.876L27 485.027L30.9655 485.027L30.9655 483.769L27 483.769L27 482.919L34.931 482.919L34.931 483.769ZM34.3871 484.913C34.508 484.913 34.61 484.951 34.693 485.027C34.7761 485.11 34.8177 485.212 34.8177 485.332C34.8177 485.453 34.7761 485.555 34.693 485.638C34.61 485.721 34.508 485.763 34.3871 485.763C34.2663 485.763 34.1643 485.721 34.0812 485.638C34.0057 485.555 33.9679 485.453 33.9679 485.332C33.9679 485.212 34.0057 485.11 34.0812 485.027C34.1643 484.951 34.2663 484.913 34.3871 484.913ZM27 486.348L31.8152 486.348L31.8152 487.198L27.8497 487.198L27.8497 488.456L31.8152 488.456L31.8152 489.305L27 489.305L27 486.348ZM34.931 486.348L34.931 489.305L34.0812 489.305L34.0812 486.348L34.931 486.348ZM31.8152 501.319L27 501.319L27 500.469L30.9655 500.469L30.9655 499.211L27 499.211L27 498.362L31.8152 498.362L31.8152 501.319ZM34.5004 500.356C34.6213 500.356 34.7233 500.393 34.8063 500.469C34.8894 500.552 34.931 500.654 34.931 500.775C34.931 500.896 34.8894 500.998 34.8063 501.081C34.7233 501.164 34.6213 501.205 34.5004 501.205C34.3796 501.205 34.2776 501.164 34.1945 501.081C34.119 500.998 34.0812 500.896 34.0812 500.775C34.0812 500.654 34.119 500.552 34.1945 500.469C34.2776 500.393 34.3796 500.356 34.5004 500.356ZM34.5004 498.475C34.6213 498.475 34.7233 498.513 34.8063 498.588C34.8894 498.671 34.931 498.773 34.931 498.894C34.931 499.015 34.8894 499.117 34.8063 499.2C34.7233 499.283 34.6213 499.325 34.5004 499.325C34.3796 499.325 34.2776 499.283 34.1945 499.2C34.119 499.117 34.0812 499.015 34.0812 498.894C34.0812 498.773 34.119 498.671 34.1945 498.588C34.2776 498.513 34.3796 498.475 34.5004 498.475ZM34.931 504.748L27 504.748L27 503.898L30.9655 503.898L30.9655 502.64L27 502.64L27 501.791L31.8152 501.791L31.8152 503.898L34.0812 503.898L34.0812 501.791L34.931 501.791L34.931 504.748ZM34.931 506.07L31.8152 506.07L31.8152 508.177L27 508.177L27 507.327L30.9655 507.327L30.9655 506.07L27 506.07L27 505.22L34.931 505.22L34.931 506.07ZM34.3871 507.214C34.508 507.214 34.61 507.252 34.693 507.327C34.7761 507.41 34.8177 507.512 34.8177 507.633C34.8177 507.754 34.7761 507.856 34.693 507.939C34.61 508.022 34.508 508.064 34.3871 508.064C34.2663 508.064 34.1643 508.022 34.0812 507.939C34.0057 507.856 33.9679 507.754 33.9679 507.633C33.9679 507.512 34.0057 507.41 34.0812 507.327C34.1643 507.252 34.2663 507.214 34.3871 507.214ZM34.931 516.761L27 516.761L27 515.911L34.0812 515.911L34.0812 514.654L27 514.654L27 513.804L34.931 513.804L34.931 516.761ZM34.931 517.233L34.931 520.19L34.0812 520.19L34.0812 518.287L31.8152 520.19L27 520.19L27 517.233L27.8497 517.233L27.8497 519.34L31.566 519.34L34.0812 517.233L34.931 517.233ZM34.931 523.619L27 523.619L27 522.77L34.0812 522.77L34.0812 521.512L27 521.512L27 520.662L34.931 520.662L34.931 523.619ZM31.8152 532.204L27 532.204L27 531.354L30.9655 531.354L30.9655 530.096L27 530.096L27 529.246L31.8152 529.246L31.8152 532.204ZM34.5004 531.241C34.6213 531.241 34.7233 531.278 34.8063 531.354C34.8894 531.437 34.931 531.539 34.931 531.66C34.931 531.781 34.8894 531.883 34.8063 531.966C34.7233 532.049 34.6213 532.09 34.5004 532.09C34.3796 532.09 34.2776 532.049 34.1945 531.966C34.119 531.883 34.0812 531.781 34.0812 531.66C34.0812 531.539 34.119 531.437 34.1945 531.354C34.2776 531.278 34.3796 531.241 34.5004 531.241ZM34.5004 529.36C34.6213 529.36 34.7233 529.398 34.8063 529.473C34.8894 529.556 34.931 529.658 34.931 529.779C34.931 529.9 34.8894 530.002 34.8063 530.085C34.7233 530.168 34.6213 530.209 34.5004 530.209C34.3796 530.209 34.2776 530.168 34.1945 530.085C34.119 530.002 34.0812 529.9 34.0812 529.779C34.0812 529.658 34.119 529.556 34.1945 529.473C34.2776 529.398 34.3796 529.36 34.5004 529.36ZM34.1379 535.633L31.0674 534.545L27.3399 535.633L27 534.896L29.7645 534.08L27.5665 533.299L27.7931 532.676L30.8635 533.763L34.5911 532.676L34.931 533.412L32.1551 534.216L34.3645 535.01L34.1379 535.633ZM30.9655 536.105L34.931 536.105L34.931 539.062L27 539.062L27 536.105L27.8497 536.105L27.8497 538.212L34.0812 538.212L34.0812 536.954L30.9655 536.954L30.9655 536.105ZM34.931 540.384L31.8152 540.384L31.8152 542.491L27 542.491L27 541.641L30.9655 541.641L30.9655 540.384L27 540.384L27 539.534L34.931 539.534L34.931 540.384ZM34.3871 541.528C34.508 541.528 34.61 541.566 34.693 541.641C34.7761 541.724 34.8177 541.826 34.8177 541.947C34.8177 542.068 34.7761 542.17 34.693 542.253C34.61 542.336 34.508 542.378 34.3871 542.378C34.2663 542.378 34.1643 542.336 34.0812 542.253C34.0057 542.17 33.9679 542.068 33.9679 541.947C33.9679 541.826 34.0057 541.724 34.0812 541.641C34.1643 541.566 34.2663 541.528 34.3871 541.528ZM34.931 544.243L30.1837 545.184L32.9482 545.297L32.9482 546.033L27.1133 545.807L27 545.07L32.3024 544.028L27 543.586L27.1133 542.85L34.931 543.507L34.931 544.243ZM27 546.165L34.931 546.165L34.931 547.015L32.8689 547.865L34.931 548.726L34.931 549.576L30.9655 549.576L30.9655 548.726L33.3448 548.726L31.9625 548.069L31.9625 547.672L33.3448 547.015L27 547.015L27 546.165ZM34.931 554.976L34.931 557.933L27 557.933L27 557.084L30.9655 557.084L30.9655 554.976L31.8152 554.976L31.8152 557.084L34.0812 557.084L34.0812 554.976L34.931 554.976ZM27 558.405L31.8152 558.405L31.8152 559.255L27.8497 559.255L27.8497 560.513L31.8152 560.513L31.8152 561.362L27 561.362L27 558.405ZM34.931 558.405L34.931 561.362L34.0812 561.362L34.0812 558.405L34.931 558.405ZM34.931 562.684L31.8152 562.684L31.8152 564.791L27 564.791L27 563.942L30.9655 563.942L30.9655 562.684L27 562.684L27 561.834L34.931 561.834L34.931 562.684ZM34.3871 563.828C34.508 563.828 34.61 563.866 34.693 563.942C34.7761 564.025 34.8177 564.127 34.8177 564.248C34.8177 564.369 34.7761 564.47 34.693 564.554C34.61 564.637 34.508 564.678 34.3871 564.678C34.2663 564.678 34.1643 564.637 34.0812 564.554C34.0057 564.47 33.9679 564.369 33.9679 564.248C33.9679 564.127 34.0057 564.025 34.0812 563.942C34.1643 563.866 34.2663 563.828 34.3871 563.828ZM34.931 570.419L34.931 573.376L27 573.376L27 572.526L34.0812 572.526L34.0812 570.419L34.931 570.419ZM34.931 573.848L34.931 576.805L27 576.805L27 575.955L34.0812 575.955L34.0812 573.848L34.931 573.848ZM29.9684 580.234L27 577.787L27.4532 577.277L29.9684 579.384L31.9625 577.413L34.931 579.724L34.4778 580.234L31.9625 578.263L29.9684 580.234ZM29.9684 583.663L27 581.216L27.4532 580.706L29.9684 582.813L31.9625 580.842L34.931 583.153L34.4778 583.663L31.9625 581.692L29.9684 583.663ZM30.9655 586.242L34.0812 586.242L34.0812 584.985L27.8497 584.985L27.8497 586.106L27 586.106L27 584.135L34.931 584.135L34.931 587.092L30.9655 587.092L30.9655 586.242ZM27.8497 592.719L27.8497 593.773L30.9655 593.773L30.9655 594.623L27.8497 594.623L27.8497 595.676L27 595.676L27 592.719L27.8497 592.719ZM34.931 592.719L34.931 595.676L34.0812 595.676L34.0812 592.719L34.931 592.719ZM34.931 597.429L30.1837 598.369L32.9482 598.482L32.9482 599.219L27.1133 598.992L27 598.256L32.3024 597.213L27 596.771L27.1133 596.035L34.931 596.692L34.931 597.429ZM31.8152 602.535L27 602.535L27 601.685L30.9655 601.685L30.9655 600.427L27 600.427L27 599.577L31.8152 599.577L31.8152 602.535ZM34.5004 601.571C34.6213 601.571 34.7233 601.609 34.8063 601.685C34.8894 601.768 34.931 601.87 34.931 601.991C34.931 602.112 34.8894 602.214 34.8063 602.297C34.7233 602.38 34.6213 602.421 34.5004 602.421C34.3796 602.421 34.2776 602.38 34.1945 602.297C34.119 602.214 34.0812 602.112 34.0812 601.991C34.0812 601.87 34.119 601.768 34.1945 601.685C34.2776 601.609 34.3796 601.571 34.5004 601.571ZM34.5004 599.691C34.6213 599.691 34.7233 599.728 34.8063 599.804C34.8894 599.887 34.931 599.989 34.931 600.11C34.931 600.231 34.8894 600.333 34.8063 600.416C34.7233 600.499 34.6213 600.54 34.5004 600.54C34.3796 600.54 34.2776 600.499 34.1945 600.416C34.119 600.333 34.0812 600.231 34.0812 600.11C34.0812 599.989 34.119 599.887 34.1945 599.804C34.2776 599.728 34.3796 599.691 34.5004 599.691ZM27 603.007L31.8152 603.007L31.8152 603.856L27.8497 603.856L27.8497 605.114L31.8152 605.114L31.8152 605.964L27 605.964L27 603.007ZM34.931 603.007L34.931 605.964L34.0812 605.964L34.0812 603.007L34.931 603.007ZM34.1379 609.393L31.0674 608.305L27.3399 609.393L27 608.656L29.7645 607.841L27.5665 607.059L27.7931 606.436L30.8635 607.523L34.5911 606.436L34.931 607.172L32.1551 607.976L34.3645 608.77L34.1379 609.393ZM27 609.865L34.931 609.865L34.931 610.714L27 610.714L27 609.865ZM28.6655 611.859C28.7863 611.859 28.8883 611.897 28.9714 611.972C29.0545 612.055 29.096 612.157 29.096 612.278C29.096 612.399 29.0545 612.501 28.9714 612.584C28.8883 612.667 28.7863 612.709 28.6655 612.709C28.5446 612.709 28.4427 612.667 28.3596 612.584C28.284 612.501 28.2463 612.399 28.2463 612.278C28.2463 612.157 28.284 612.055 28.3596 611.972C28.4427 611.897 28.5446 611.859 28.6655 611.859ZM33.2541 611.859C33.375 611.859 33.477 611.897 33.56 611.972C33.6431 612.055 33.6847 612.157 33.6847 612.278C33.6847 612.399 33.6431 612.501 33.56 612.584C33.477 612.667 33.375 612.709 33.2541 612.709C33.1333 612.709 33.0313 612.667 32.9482 612.584C32.8727 612.501 32.8349 612.399 32.8349 612.278C32.8349 612.157 32.8727 612.055 32.9482 611.972C33.0313 611.897 33.1333 611.859 33.2541 611.859ZM34.931 613.294L34.931 616.251L27 616.251L27 615.401L30.9655 615.401L30.9655 613.294L31.8152 613.294L31.8152 615.401L34.0812 615.401L34.0812 613.294L34.931 613.294ZM34.931 616.723L34.931 619.68L34.0812 619.68L34.0812 617.777L31.8152 619.68L27 619.68L27 616.723L27.8497 616.723L27.8497 618.83L31.566 618.83L34.0812 616.723L34.931 616.723ZM29.9684 623.109L27 620.662L27.4532 620.152L29.9684 622.259L31.9625 620.288L34.931 622.599L34.4778 623.109L31.9625 621.138L29.9684 623.109ZM34.931 624.431L31.8152 624.431L31.8152 626.538L27 626.538L27 625.688L30.9655 625.688L30.9655 624.431L27 624.431L27 623.581L34.931 623.581L34.931 624.431ZM34.3871 625.575C34.508 625.575 34.61 625.613 34.693 625.688C34.7761 625.772 34.8177 625.873 34.8177 625.994C34.8177 626.115 34.7761 626.217 34.693 626.3C34.61 626.383 34.508 626.425 34.3871 626.425C34.2663 626.425 34.1643 626.383 34.0812 626.3C34.0057 626.217 33.9679 626.115 33.9679 625.994C33.9679 625.873 34.0057 625.772 34.0812 625.688C34.1643 625.613 34.2663 625.575 34.3871 625.575ZM34.931 632.165L34.931 635.122L27 635.122L27 634.273L30.9655 634.273L30.9655 632.165L31.8152 632.165L31.8152 634.273L34.0812 634.273L34.0812 632.165L34.931 632.165ZM34.931 638.552L27 638.552L27 637.702L34.0812 637.702L34.0812 636.444L27 636.444L27 635.594L34.931 635.594L34.931 638.552ZM27 639.024L31.8152 639.024L31.8152 639.873L27.8497 639.873L27.8497 641.131L31.8152 641.131L31.8152 641.981L27 641.981L27 639.024ZM34.931 639.024L34.931 641.981L34.0812 641.981L34.0812 639.024L34.931 639.024ZM34.1379 645.41L31.0674 644.322L27.3399 645.41L27 644.673L29.7645 643.858L27.5665 643.076L27.7931 642.453L30.8635 643.54L34.5911 642.453L34.931 643.189L32.1551 643.994L34.3645 644.787L34.1379 645.41ZM27 645.655L34.931 645.655L34.931 646.505L32.8689 647.355L34.931 648.216L34.931 649.065L30.9655 649.065L30.9655 648.216L33.3448 648.216L31.9625 647.559L31.9625 647.162L33.3448 646.505L27 646.505L27 645.655ZM27 649.084L34.931 649.084L34.931 649.934L32.8689 650.784L34.931 651.645L34.931 652.495L30.9655 652.495L30.9655 651.645L33.3448 651.645L31.9625 650.988L31.9625 650.591L33.3448 649.934L27 649.934L27 649.084ZM34.931 657.895L34.931 660.852L27 660.852L27 660.002L30.9655 660.002L30.9655 657.895L31.8152 657.895L31.8152 660.002L34.0812 660.002L34.0812 657.895L34.931 657.895ZM29.9684 664.281L27 661.834L27.4532 661.324L29.9684 663.432L31.9625 661.46L34.931 663.771L34.4778 664.281L31.9625 662.31L29.9684 664.281ZM29.9684 667.71L27 665.263L27.4532 664.753L29.9684 666.861L31.9625 664.889L34.931 667.201L34.4778 667.71L31.9625 665.739L29.9684 667.71ZM34.931 674.187L31.8152 674.187L31.8152 676.295L27 676.295L27 675.445L30.9655 675.445L30.9655 674.187L27 674.187L27 673.337L34.931 673.337L34.931 674.187ZM34.3871 675.332C34.508 675.332 34.61 675.369 34.693 675.445C34.7761 675.528 34.8177 675.63 34.8177 675.751C34.8177 675.872 34.7761 675.974 34.693 676.057C34.61 676.14 34.508 676.181 34.3871 676.181C34.2663 676.181 34.1643 676.14 34.0812 676.057C34.0057 675.974 33.9679 675.872 33.9679 675.751C33.9679 675.63 34.0057 675.528 34.0812 675.445C34.1643 675.369 34.2663 675.332 34.3871 675.332ZM31.8152 679.724L27 679.724L27 678.874L30.9655 678.874L30.9655 677.616L27 677.616L27 676.767L31.8152 676.767L31.8152 679.724ZM34.5004 678.761C34.6213 678.761 34.7233 678.798 34.8063 678.874C34.8894 678.957 34.931 679.059 34.931 679.18C34.931 679.301 34.8894 679.403 34.8063 679.486C34.7233 679.569 34.6213 679.61 34.5004 679.61C34.3796 679.61 34.2776 679.569 34.1945 679.486C34.119 679.403 34.0812 679.301 34.0812 679.18C34.0812 679.059 34.119 678.957 34.1945 678.874C34.2776 678.798 34.3796 678.761 34.5004 678.761ZM34.5004 676.88C34.6213 676.88 34.7233 676.918 34.8063 676.993C34.8894 677.076 34.931 677.178 34.931 677.299C34.931 677.42 34.8894 677.522 34.8063 677.605C34.7233 677.688 34.6213 677.73 34.5004 677.73C34.3796 677.73 34.2776 677.688 34.1945 677.605C34.119 677.522 34.0812 677.42 34.0812 677.299C34.0812 677.178 34.119 677.076 34.1945 676.993C34.2776 676.918 34.3796 676.88 34.5004 676.88ZM34.931 683.153L27 683.153L27 682.303L30.9655 682.303L30.9655 681.045L27 681.045L27 680.196L31.8152 680.196L31.8152 682.303L34.0812 682.303L34.0812 680.196L34.931 680.196L34.931 683.153ZM34.931 688.78L34.931 691.737L34.0812 691.737L34.0812 689.834L31.8152 691.737L27 691.737L27 688.78L27.8497 688.78L27.8497 690.887L31.566 690.887L34.0812 688.78L34.931 688.78ZM29.9684 695.166L27 692.719L27.4532 692.209L29.9684 694.316L31.9625 692.345L34.931 694.656L34.4778 695.166L31.9625 693.195L29.9684 695.166ZM34.1379 698.595L31.0674 697.508L27.3399 698.595L27 697.859L29.7645 697.043L27.5665 696.261L27.7931 695.638L30.8635 696.726L34.5911 695.638L34.931 696.375L32.1551 697.179L34.3645 697.972L34.1379 698.595ZM34.931 702.024L27 702.024L27 701.175L34.0812 701.175L34.0812 699.917L27 699.917L27 699.067L34.931 699.067L34.931 702.024ZM30.9655 702.496L34.931 702.496L34.931 705.453L27 705.453L27 702.496L27.8497 702.496L27.8497 704.604L34.0812 704.604L34.0812 703.346L30.9655 703.346L30.9655 702.496ZM34.931 708.883L27 708.883L27 708.033L34.0812 708.033L34.0812 706.775L27 706.775L27 705.925L34.931 705.925L34.931 708.883ZM34.931 712.312L27 712.312L27 711.462L30.9655 711.462L30.9655 710.204L27 710.204L27 709.354L31.8152 709.354L31.8152 711.462L34.0812 711.462L34.0812 709.354L34.931 709.354L34.931 712.312ZM34.931 712.784L34.931 715.741L27 715.741L27 714.891L30.9655 714.891L30.9655 712.784L31.8152 712.784L31.8152 714.891L34.0812 714.891L34.0812 712.784L34.931 712.784ZM27.8497 716.213L27.8497 717.266L30.9655 717.266L30.9655 718.116L27.8497 718.116L27.8497 719.17L27 719.17L27 716.213L27.8497 716.213ZM34.931 716.213L34.931 719.17L34.0812 719.17L34.0812 716.213L34.931 716.213ZM34.931 720.922L30.1837 721.862L32.9482 721.976L32.9482 722.712L27.1133 722.486L27 721.749L32.3024 720.707L27 720.265L27.1133 719.528L34.931 720.186L34.931 720.922ZM27 728.226L34.931 728.226L34.931 729.076L27 729.076L27 728.226ZM28.6655 730.22C28.7863 730.22 28.8883 730.258 28.9714 730.333C29.0545 730.416 29.096 730.518 29.096 730.639C29.096 730.76 29.0545 730.862 28.9714 730.945C28.8883 731.028 28.7863 731.07 28.6655 731.07C28.5446 731.07 28.4427 731.028 28.3596 730.945C28.284 730.862 28.2463 730.76 28.2463 730.639C28.2463 730.518 28.284 730.416 28.3596 730.333C28.4427 730.258 28.5446 730.22 28.6655 730.22ZM33.2541 730.22C33.375 730.22 33.477 730.258 33.56 730.333C33.6431 730.416 33.6847 730.518 33.6847 730.639C33.6847 730.76 33.6431 730.862 33.56 730.945C33.477 731.028 33.375 731.07 33.2541 731.07C33.1333 731.07 33.0313 731.028 32.9482 730.945C32.8727 730.862 32.8349 730.76 32.8349 730.639C32.8349 730.518 32.8727 730.416 32.9482 730.333C33.0313 730.258 33.1333 730.22 33.2541 730.22ZM27 731.655L31.8152 731.655L31.8152 732.505L27.8497 732.505L27.8497 733.762L31.8152 733.762L31.8152 734.612L27 734.612L27 731.655ZM34.931 731.655L34.931 734.612L34.0812 734.612L34.0812 731.655L34.931 731.655ZM34.1379 738.041L31.0674 736.954L27.3399 738.041L27 737.305L29.7645 736.489L27.5665 735.707L27.7931 735.084L30.8635 736.172L34.5911 735.084L34.931 735.821L32.1551 736.625L34.3645 737.418L34.1379 738.041ZM34.931 738.513L34.931 741.47L34.0812 741.47L34.0812 740.417L31.8152 740.417L31.8152 741.47L27 741.47L27 738.513L31.8152 738.513L31.8152 739.567L34.0812 739.567L34.0812 738.513L34.931 738.513ZM30.9655 739.363L27.8497 739.363L27.8497 740.621L30.9655 740.621L30.9655 739.363ZM34.931 741.942L34.931 744.9L27 744.9L27 744.05L34.0812 744.05L34.0812 741.942L34.931 741.942ZM34.931 748.329L27 748.329L27 747.479L34.0812 747.479L34.0812 746.221L27 746.221L27 745.372L34.931 745.372L34.931 748.329ZM31.8152 751.758L27 751.758L27 750.908L30.9655 750.908L30.9655 749.65L27 749.65L27 748.801L31.8152 748.801L31.8152 751.758ZM34.5004 750.795C34.6213 750.795 34.7233 750.832 34.8063 750.908C34.8894 750.991 34.931 751.093 34.931 751.214C34.931 751.335 34.8894 751.437 34.8063 751.52C34.7233 751.603 34.6213 751.644 34.5004 751.644C34.3796 751.644 34.2776 751.603 34.1945 751.52C34.119 751.437 34.0812 751.335 34.0812 751.214C34.0812 751.093 34.119 750.991 34.1945 750.908C34.2776 750.832 34.3796 750.795 34.5004 750.795ZM34.5004 748.914C34.6213 748.914 34.7233 748.952 34.8063 749.027C34.8894 749.11 34.931 749.212 34.931 749.333C34.931 749.454 34.8894 749.556 34.8063 749.639C34.7233 749.722 34.6213 749.764 34.5004 749.764C34.3796 749.764 34.2776 749.722 34.1945 749.639C34.119 749.556 34.0812 749.454 34.0812 749.333C34.0812 749.212 34.119 749.11 34.1945 749.027C34.2776 748.952 34.3796 748.914 34.5004 748.914ZM27 752.003L34.931 752.003L34.931 752.853L32.8689 753.703L34.931 754.564L34.931 755.413L30.9655 755.413L30.9655 754.564L33.3448 754.564L31.9625 753.907L31.9625 753.51L33.3448 752.853L27 752.853L27 752.003ZM27 764.243L34.931 764.243L34.931 765.093L27 765.093L27 764.243ZM28.6655 766.237C28.7863 766.237 28.8883 766.275 28.9714 766.35C29.0545 766.434 29.096 766.535 29.096 766.656C29.096 766.777 29.0545 766.879 28.9714 766.962C28.8883 767.045 28.7863 767.087 28.6655 767.087C28.5446 767.087 28.4427 767.045 28.3596 766.962C28.284 766.879 28.2463 766.777 28.2463 766.656C28.2463 766.535 28.284 766.434 28.3596 766.35C28.4427 766.275 28.5446 766.237 28.6655 766.237ZM33.2541 766.237C33.375 766.237 33.477 766.275 33.56 766.35C33.6431 766.434 33.6847 766.535 33.6847 766.656C33.6847 766.777 33.6431 766.879 33.56 766.962C33.477 767.045 33.375 767.087 33.2541 767.087C33.1333 767.087 33.0313 767.045 32.9482 766.962C32.8727 766.879 32.8349 766.777 32.8349 766.656C32.8349 766.535 32.8727 766.434 32.9482 766.35C33.0313 766.275 33.1333 766.237 33.2541 766.237ZM29.9684 770.629L27 768.182L27.4532 767.672L29.9684 769.78L31.9625 767.808L34.931 770.119L34.4778 770.629L31.9625 768.658L29.9684 770.629ZM34.931 771.101L34.931 774.058L27 774.058L27 773.209L30.9655 773.209L30.9655 771.101L31.8152 771.101L31.8152 773.209L34.0812 773.209L34.0812 771.101L34.931 771.101ZM31.8152 777.487L27 777.487L27 776.638L30.9655 776.638L30.9655 775.38L27 775.38L27 774.53L31.8152 774.53L31.8152 777.487ZM34.5004 776.524C34.6213 776.524 34.7233 776.562 34.8063 776.638C34.8894 776.721 34.931 776.823 34.931 776.944C34.931 777.064 34.8894 777.166 34.8063 777.25C34.7233 777.333 34.6213 777.374 34.5004 777.374C34.3796 777.374 34.2776 777.333 34.1945 777.25C34.119 777.166 34.0812 777.064 34.0812 776.944C34.0812 776.823 34.119 776.721 34.1945 776.638C34.2776 776.562 34.3796 776.524 34.5004 776.524ZM34.5004 774.644C34.6213 774.644 34.7233 774.681 34.8063 774.757C34.8894 774.84 34.931 774.942 34.931 775.063C34.931 775.184 34.8894 775.286 34.8063 775.369C34.7233 775.452 34.6213 775.493 34.5004 775.493C34.3796 775.493 34.2776 775.452 34.1945 775.369C34.119 775.286 34.0812 775.184 34.0812 775.063C34.0812 774.942 34.119 774.84 34.1945 774.757C34.2776 774.681 34.3796 774.644 34.5004 774.644ZM34.931 777.959L34.931 780.917L27 780.917L27 780.067L34.0812 780.067L34.0812 777.959L34.931 777.959ZM34.1379 784.346L31.0674 783.258L27.3399 784.346L27 783.609L29.7645 782.793L27.5665 782.012L27.7931 781.388L30.8635 782.476L34.5911 781.388L34.931 782.125L32.1551 782.929L34.3645 783.722L34.1379 784.346ZM27 784.818L31.8152 784.818L31.8152 785.667L27.8497 785.667L27.8497 786.925L31.8152 786.925L31.8152 787.775L27 787.775L27 784.818ZM34.931 784.818L34.931 787.775L34.0812 787.775L34.0812 784.818L34.931 784.818ZM27.8497 790.15L27.8497 791.204L27 791.204L27 788.247L27.8497 788.247L27.8497 789.3L30.9655 789.3L34.931 788.247L34.931 789.096L32.2231 789.72L34.931 790.354L34.931 791.204L30.9655 790.15L27.8497 790.15ZM27 791.449L34.931 791.449L34.931 792.299L32.8689 793.149L34.931 794.01L34.931 794.86L30.9655 794.86L30.9655 794.01L33.3448 794.01L31.9625 793.353L31.9625 792.956L33.3448 792.299L27 792.299L27 791.449ZM34.931 800.26L34.931 803.217L27 803.217L27 802.367L30.9655 802.367L30.9655 800.26L31.8152 800.26L31.8152 802.367L34.0812 802.367L34.0812 800.26L34.931 800.26ZM34.931 804.969L30.1837 805.91L32.9482 806.023L32.9482 806.76L27.1133 806.533L27 805.797L32.3024 804.754L27 804.312L27.1133 803.576L34.931 804.233L34.931 804.969ZM34.931 807.118L34.931 810.075L34.0812 810.075L34.0812 809.022L31.8152 809.022L31.8152 810.075L27 810.075L27 807.118L31.8152 807.118L31.8152 808.172L34.0812 808.172L34.0812 807.118L34.931 807.118ZM30.9655 807.968L27.8497 807.968L27.8497 809.226L30.9655 809.226L30.9655 807.968ZM27.4532 815.702L30.1157 817.447L30.1157 815.702L34.931 815.702L34.931 816.552L30.9655 816.552L30.9655 817.81L34.931 817.81L34.931 818.66L27 818.66L27 817.81L29.4359 817.81L27 816.212L27.4532 815.702ZM34.931 819.132L34.931 822.089L27 822.089L27 821.239L30.9655 821.239L30.9655 819.132L31.8152 819.132L31.8152 821.239L34.0812 821.239L34.0812 819.132L34.931 819.132ZM29.9684 825.518L27 823.071L27.4532 822.561L29.9684 824.668L31.9625 822.697L34.931 825.008L34.4778 825.518L31.9625 823.546L29.9684 825.518ZM29.9684 828.947L27 826.5L27.4532 825.99L29.9684 828.097L31.9625 826.126L34.931 828.437L34.4778 828.947L31.9625 826.975L29.9684 828.947ZM34.931 830.269L31.8152 830.269L31.8152 832.376L27 832.376L27 831.526L30.9655 831.526L30.9655 830.269L27 830.269L27 829.419L34.931 829.419L34.931 830.269ZM34.3871 831.413C34.508 831.413 34.6099 831.451 34.693 831.526C34.7761 831.609 34.8177 831.711 34.8177 831.832C34.8177 831.953 34.7761 832.055 34.693 832.138C34.6099 832.221 34.508 832.263 34.3871 832.263C34.2663 832.263 34.1643 832.221 34.0812 832.138C34.0057 832.055 33.9679 831.953 33.9679 831.832C33.9679 831.711 34.0057 831.609 34.0812 831.526C34.1643 831.451 34.2663 831.413 34.3871 831.413ZM31.8152 835.805L27 835.805L27 834.955L30.9655 834.955L30.9655 833.698L27 833.698L27 832.848L31.8152 832.848L31.8152 835.805ZM34.5004 834.842C34.6213 834.842 34.7232 834.88 34.8063 834.955C34.8894 835.038 34.931 835.14 34.931 835.261C34.931 835.382 34.8894 835.484 34.8063 835.567C34.7232 835.65 34.6213 835.692 34.5004 835.692C34.3796 835.692 34.2776 835.65 34.1945 835.567C34.119 835.484 34.0812 835.382 34.0812 835.261C34.0812 835.14 34.119 835.038 34.1945 834.955C34.2776 834.88 34.3796 834.842 34.5004 834.842ZM34.5004 832.961C34.6213 832.961 34.7232 832.999 34.8063 833.075C34.8894 833.158 34.931 833.26 34.931 833.38C34.931 833.501 34.8894 833.603 34.8063 833.686C34.7232 833.769 34.6213 833.811 34.5004 833.811C34.3796 833.811 34.2776 833.769 34.1945 833.686C34.119 833.603 34.0812 833.501 34.0812 833.38C34.0812 833.26 34.119 833.158 34.1945 833.075C34.2776 832.999 34.3796 832.961 34.5004 832.961ZM27 836.05L34.931 836.05L34.931 836.9L32.8689 837.75L34.931 838.611L34.931 839.461L30.9655 839.461L30.9655 838.611L33.3448 838.611L31.9625 837.954L31.9625 837.557L33.3448 836.9L27 836.9L27 836.05Z" fill="white"/>
</svg>
