<svg width="616" height="1903" viewBox="0 0 616 1903" fill="none" xmlns="http://www.w3.org/2000/svg">
<path d="M20 1906L20 1561.5C20 1542.17 35.67 1526.5 55 1526.5L560.5 1526.5C579.83 1526.5 595.5 1510.83 595.5 1491.5L595.5 0.499975" stroke="#101820" stroke-width="40"/>
<path opacity="0.04" d="M30 1903L30 1560.41C30 1546.09 41.5857 1534.46 55.9099 1534.41L581.09 1532.59C595.414 1532.54 607 1520.91 607 1506.59L607 144" stroke="#101820" stroke-width="10" stroke-linecap="round"/>
<path opacity="0.1" d="M35.931 1603.49L35.931 1606.44L35.0812 1606.44L35.0812 1604.54L32.8152 1606.44L28 1606.44L28 1603.49L28.8498 1603.49L28.8497 1605.59L32.566 1605.59L35.0812 1603.49L35.931 1603.49ZM31.9655 1609.02L35.0812 1609.02L35.0812 1607.77L28.8497 1607.77L28.8497 1608.89L28 1608.89L28 1606.92L35.931 1606.92L35.931 1609.87L31.9655 1609.87L31.9655 1609.02ZM28 1615.5L35.931 1615.5L35.931 1616.35L28 1616.35L28 1615.5ZM29.6655 1617.49C29.7864 1617.49 29.8883 1617.53 29.9714 1617.61C30.0545 1617.69 30.096 1617.79 30.096 1617.91C30.096 1618.03 30.0545 1618.14 29.9714 1618.22C29.8883 1618.3 29.7864 1618.34 29.6655 1618.34C29.5447 1618.34 29.4427 1618.3 29.3596 1618.22C29.2841 1618.14 29.2463 1618.03 29.2463 1617.91C29.2463 1617.79 29.2841 1617.69 29.3596 1617.61C29.4427 1617.53 29.5447 1617.49 29.6655 1617.49ZM34.2542 1617.49C34.375 1617.49 34.477 1617.53 34.5601 1617.61C34.6432 1617.69 34.6847 1617.79 34.6847 1617.91C34.6847 1618.03 34.6432 1618.14 34.5601 1618.22C34.477 1618.3 34.375 1618.34 34.2542 1618.34C34.1333 1618.34 34.0313 1618.3 33.9482 1618.22C33.8727 1618.14 33.8349 1618.03 33.8349 1617.91C33.8349 1617.79 33.8727 1617.69 33.9482 1617.61C34.0313 1617.53 34.1333 1617.49 34.2542 1617.49ZM35.931 1618.93L35.931 1621.89L28 1621.89L28 1621.04L35.0812 1621.04L35.0812 1618.93L35.931 1618.93ZM28 1622.36L32.8152 1622.36L32.8152 1623.21L28.8497 1623.21L28.8497 1624.47L32.8152 1624.47L32.8152 1625.32L28 1625.32L28 1622.36ZM35.931 1622.36L35.931 1625.32L35.0812 1625.32L35.0812 1622.36L35.931 1622.36ZM35.931 1628.74L28 1628.74L28 1627.9L35.0812 1627.9L35.0812 1626.64L28 1626.64L28 1625.79L35.931 1625.79L35.931 1628.74ZM35.931 1632.17L28 1632.17L28 1631.32L31.9655 1631.32L31.9655 1630.07L28 1630.07L28 1629.22L32.8152 1629.22L32.8152 1631.32L35.0812 1631.32L35.0812 1629.22L35.931 1629.22L35.931 1632.17ZM35.931 1632.65L35.931 1635.6L28 1635.6L28 1634.75L31.9655 1634.75L31.9655 1632.65L32.8152 1632.65L32.8152 1634.75L35.0812 1634.75L35.0812 1632.65L35.931 1632.65ZM28 1635.85L35.931 1635.85L35.931 1636.7L33.8689 1637.55L35.931 1638.41L35.931 1639.26L31.9655 1639.26L31.9655 1638.41L34.3448 1638.41L32.9625 1637.75L32.9625 1637.36L34.3448 1636.7L28 1636.7L28 1635.85ZM28.8497 1639.5L28.8497 1640.56L31.9655 1640.56L31.9655 1641.41L28.8497 1641.41L28.8497 1642.46L28 1642.46L28 1639.5L28.8497 1639.5ZM35.931 1639.5L35.931 1642.46L35.0812 1642.46L35.0812 1639.5L35.931 1639.5ZM35.931 1644.21L31.1837 1645.15L33.9482 1645.27L33.9482 1646L28.1133 1645.78L28 1645.04L33.3024 1644L28 1643.56L28.1133 1642.82L35.931 1643.48L35.931 1644.21ZM28 1649.32L28 1646.36L35.931 1646.36L35.931 1647.21L28.8497 1647.21L28.8497 1649.32L28 1649.32ZM31.9655 1648.47L35.931 1648.47L35.931 1649.32L31.9655 1649.32L31.9655 1648.47ZM32.8152 1657.9L28 1657.9L28 1657.05L31.9655 1657.05L31.9655 1655.8L28 1655.8L28 1654.95L32.8152 1654.95L32.8152 1657.9ZM35.5005 1656.94C35.6213 1656.94 35.7233 1656.98 35.8064 1657.05C35.8895 1657.14 35.931 1657.24 35.931 1657.36C35.931 1657.48 35.8895 1657.58 35.8064 1657.67C35.7233 1657.75 35.6213 1657.79 35.5005 1657.79C35.3796 1657.79 35.2776 1657.75 35.1945 1657.67C35.119 1657.58 35.0812 1657.48 35.0812 1657.36C35.0812 1657.24 35.119 1657.14 35.1945 1657.05C35.2776 1656.98 35.3796 1656.94 35.5005 1656.94ZM35.5005 1655.06C35.6213 1655.06 35.7233 1655.1 35.8064 1655.17C35.8895 1655.26 35.931 1655.36 35.931 1655.48C35.931 1655.6 35.8895 1655.7 35.8064 1655.79C35.7233 1655.87 35.6213 1655.91 35.5005 1655.91C35.3796 1655.91 35.2776 1655.87 35.1945 1655.79C35.119 1655.7 35.0812 1655.6 35.0812 1655.48C35.0812 1655.36 35.119 1655.26 35.1945 1655.17C35.2776 1655.1 35.3796 1655.06 35.5005 1655.06ZM35.931 1661.33L28 1661.33L28 1660.48L31.9655 1660.48L31.9655 1659.23L28 1659.23L28 1658.38L32.8152 1658.38L32.8152 1660.48L35.0812 1660.48L35.0812 1658.38L35.931 1658.38L35.931 1661.33ZM35.931 1662.65L32.8152 1662.65L32.8152 1664.76L28 1664.76L28 1663.91L31.9655 1663.91L31.9655 1662.65L28 1662.65L28 1661.8L35.931 1661.8L35.931 1662.65ZM35.3872 1663.8C35.508 1663.8 35.61 1663.84 35.6931 1663.91C35.7762 1664 35.8177 1664.1 35.8177 1664.22C35.8177 1664.34 35.7762 1664.44 35.6931 1664.52C35.61 1664.61 35.508 1664.65 35.3872 1664.65C35.2663 1664.65 35.1643 1664.61 35.0812 1664.52C35.0057 1664.44 34.9679 1664.34 34.9679 1664.22C34.9679 1664.1 35.0057 1664 35.0812 1663.91C35.1643 1663.84 35.2663 1663.8 35.3872 1663.8ZM35.931 1673.35L28 1673.35L28 1672.5L35.0812 1672.5L35.0812 1671.24L28 1671.24L28 1670.39L35.931 1670.39L35.931 1673.35ZM35.931 1673.82L35.931 1676.78L35.0812 1676.78L35.0812 1674.87L32.8152 1676.78L28 1676.78L28 1673.82L28.8497 1673.82L28.8497 1675.93L32.566 1675.93L35.0812 1673.82L35.931 1673.82ZM35.931 1680.2L28 1680.2L28 1679.35L35.0812 1679.35L35.0812 1678.1L28 1678.1L28 1677.25L35.931 1677.25L35.931 1680.2ZM35.931 1686.68L32.8152 1686.68L32.8152 1688.79L28 1688.79L28 1687.94L31.9655 1687.94L31.9655 1686.68L28 1686.68L28 1685.83L35.931 1685.83L35.931 1686.68ZM35.3872 1687.83C35.508 1687.83 35.61 1687.86 35.6931 1687.94C35.7762 1688.02 35.8177 1688.12 35.8177 1688.24C35.8177 1688.37 35.7762 1688.47 35.6931 1688.55C35.61 1688.63 35.508 1688.68 35.3872 1688.68C35.2663 1688.68 35.1643 1688.63 35.0812 1688.55C35.0057 1688.47 34.9679 1688.37 34.9679 1688.24C34.9679 1688.12 35.0057 1688.02 35.0812 1687.94C35.1643 1687.86 35.2663 1687.83 35.3872 1687.83ZM28 1689.26L32.8152 1689.26L32.8152 1690.11L28.8497 1690.11L28.8497 1691.37L32.8152 1691.37L32.8152 1692.22L28 1692.22L28 1689.26ZM35.931 1689.26L35.931 1692.22L35.0812 1692.22L35.0812 1689.26L35.931 1689.26ZM35.931 1695.65L28 1695.65L28 1694.8L35.0812 1694.8L35.0812 1693.54L28 1693.54L28 1692.69L35.931 1692.69L35.931 1695.65ZM32.8152 1717.95L28 1717.95L28 1717.1L31.9655 1717.1L31.9655 1715.84L28 1715.84L28 1714.99L32.8152 1714.99L32.8152 1717.95ZM35.5005 1716.98C35.6213 1716.98 35.7233 1717.02 35.8064 1717.1C35.8895 1717.18 35.931 1717.28 35.931 1717.4C35.931 1717.52 35.8895 1717.63 35.8064 1717.71C35.7233 1717.79 35.6213 1717.83 35.5005 1717.83C35.3796 1717.83 35.2776 1717.79 35.1945 1717.71C35.119 1717.63 35.0812 1717.52 35.0812 1717.4C35.0812 1717.28 35.119 1717.18 35.1945 1717.1C35.2776 1717.02 35.3796 1716.98 35.5005 1716.98ZM35.5005 1715.1C35.6213 1715.1 35.7233 1715.14 35.8064 1715.22C35.8895 1715.3 35.931 1715.4 35.931 1715.52C35.931 1715.64 35.8895 1715.75 35.8064 1715.83C35.7233 1715.91 35.6213 1715.95 35.5005 1715.95C35.3796 1715.95 35.2776 1715.91 35.1945 1715.83C35.119 1715.75 35.0812 1715.64 35.0812 1715.52C35.0812 1715.4 35.119 1715.3 35.1945 1715.22C35.2776 1715.14 35.3796 1715.1 35.5005 1715.1ZM35.1379 1721.38L32.0675 1720.29L28.3399 1721.38L28 1720.64L30.7645 1719.82L28.5665 1719.04L28.7931 1718.42L31.8635 1719.51L35.5911 1718.42L35.931 1719.16L33.1551 1719.96L35.3645 1720.75L35.1379 1721.38ZM31.9655 1721.85L35.931 1721.85L35.931 1724.81L28 1724.81L28 1721.85L28.8497 1721.85L28.8497 1723.96L35.0812 1723.96L35.0812 1722.7L31.9655 1722.7L31.9655 1721.85ZM35.931 1726.13L32.8152 1726.13L32.8152 1728.23L28 1728.23L28 1727.38L31.9655 1727.38L31.9655 1726.13L28 1726.13L28 1725.28L35.931 1725.28L35.931 1726.13ZM35.3872 1727.27C35.508 1727.27 35.61 1727.31 35.6931 1727.38C35.7762 1727.47 35.8177 1727.57 35.8177 1727.69C35.8177 1727.81 35.7762 1727.91 35.6931 1728C35.61 1728.08 35.508 1728.12 35.3872 1728.12C35.2663 1728.12 35.1643 1728.08 35.0812 1728C35.0057 1727.91 34.9679 1727.81 34.9679 1727.69C34.9679 1727.57 35.0057 1727.47 35.0812 1727.38C35.1643 1727.31 35.2663 1727.27 35.3872 1727.27ZM35.931 1729.99L31.1837 1730.93L33.9482 1731.04L33.9482 1731.78L28.1133 1731.55L28 1730.81L33.3024 1729.77L28 1729.33L28.1133 1728.59L35.931 1729.25L35.931 1729.99ZM35.931 1737.29L35.931 1740.25L28 1740.25L28 1739.4L31.9655 1739.4L31.9655 1737.29L32.8152 1737.29L32.8152 1739.4L35.0812 1739.4L35.0812 1737.29L35.931 1737.29ZM35.931 1742L31.1837 1742.94L33.9482 1743.05L33.9482 1743.79L28.1133 1743.56L28 1742.83L33.3024 1741.79L28 1741.34L28.1133 1740.61L35.931 1741.26L35.931 1742ZM35.931 1744.15L35.931 1747.11L35.0812 1747.11L35.0812 1746.05L32.8152 1746.05L32.8152 1747.11L28 1747.11L28 1744.15L32.8152 1744.15L32.8152 1745.2L35.0812 1745.2L35.0812 1744.15L35.931 1744.15ZM31.9655 1745L28.8497 1745L28.8497 1746.26L31.9655 1746.26L31.9655 1745ZM35.931 1755.69L28 1755.69L28 1754.84L35.0812 1754.84L35.0812 1753.58L28 1753.58L28 1752.73L35.931 1752.73L35.931 1755.69ZM35.1379 1759.12L32.0675 1758.03L28.3399 1759.12L28 1758.38L30.7645 1757.57L28.5665 1756.79L28.7931 1756.16L31.8635 1757.25L35.5911 1756.16L35.931 1756.9L33.1551 1757.7L35.3645 1758.5L35.1379 1759.12ZM28 1759.59L32.8152 1759.59L32.8152 1760.44L28.8497 1760.44L28.8497 1761.7L32.8152 1761.7L32.8152 1762.55L28 1762.55L28 1759.59ZM35.931 1759.59L35.931 1762.55L35.0812 1762.55L35.0812 1759.59L35.931 1759.59ZM28 1763.02L32.8152 1763.02L32.8152 1763.87L28.8497 1763.87L28.8497 1765.13L32.8152 1765.13L32.8152 1765.98L28 1765.98L28 1763.02ZM35.931 1763.02L35.931 1765.98L35.0812 1765.98L35.0812 1763.02L35.931 1763.02ZM35.1379 1769.41L32.0675 1768.32L28.3399 1769.41L28 1768.67L30.7645 1767.85L28.5665 1767.07L28.7931 1766.45L31.8635 1767.54L35.5911 1766.45L35.931 1767.19L33.1551 1767.99L35.3645 1768.78L35.1379 1769.41ZM30.9685 1772.84L28 1770.39L28.4532 1769.88L30.9685 1771.99L32.9625 1770.01L35.931 1772.33L35.4778 1772.84L32.9625 1770.86L30.9685 1772.84ZM35.931 1773.31L35.931 1776.27L28 1776.27L28 1775.42L31.9655 1775.42L31.9655 1773.31L32.8152 1773.31L32.8152 1775.42L35.0812 1775.42L35.0812 1773.31L35.931 1773.31ZM32.8152 1779.69L28 1779.69L28 1778.84L31.9655 1778.84L31.9655 1777.59L28 1777.59L28 1776.74L32.8152 1776.74L32.8152 1779.69ZM35.5005 1778.73C35.6213 1778.73 35.7233 1778.77 35.8064 1778.84C35.8894 1778.93 35.931 1779.03 35.931 1779.15C35.931 1779.27 35.8894 1779.37 35.8064 1779.46C35.7233 1779.54 35.6213 1779.58 35.5005 1779.58C35.3796 1779.58 35.2776 1779.54 35.1945 1779.46C35.119 1779.37 35.0812 1779.27 35.0812 1779.15C35.0812 1779.03 35.119 1778.93 35.1945 1778.84C35.2776 1778.77 35.3796 1778.73 35.5005 1778.73ZM35.5005 1776.85C35.6213 1776.85 35.7233 1776.89 35.8064 1776.96C35.8894 1777.05 35.931 1777.15 35.931 1777.27C35.931 1777.39 35.8894 1777.49 35.8064 1777.58C35.7233 1777.66 35.6213 1777.7 35.5005 1777.7C35.3796 1777.7 35.2776 1777.66 35.1945 1777.58C35.119 1777.49 35.0812 1777.39 35.0812 1777.27C35.0812 1777.15 35.119 1777.05 35.1945 1776.96C35.2776 1776.89 35.3796 1776.85 35.5005 1776.85ZM28.8497 1780.17L28.8497 1781.22L31.9655 1781.22L31.9655 1782.07L28.8497 1782.07L28.8497 1783.12L28 1783.12L28 1780.17L28.8497 1780.17ZM35.931 1780.17L35.931 1783.12L35.0812 1783.12L35.0812 1780.17L35.931 1780.17ZM35.931 1784.88L31.1837 1785.82L33.9482 1785.93L33.9482 1786.67L28.1133 1786.44L28 1785.7L33.3024 1784.66L28 1784.22L28.1133 1783.48L35.931 1784.14L35.931 1784.88ZM28 1789.98L28 1787.02L35.931 1787.02L35.931 1787.87L28.8497 1787.87L28.8497 1789.98L28 1789.98ZM31.9655 1789.13L35.931 1789.13L35.931 1789.98L31.9655 1789.98L31.9655 1789.13ZM28 1795.61L32.8152 1795.61L32.8152 1796.46L28.8497 1796.46L28.8497 1797.72L32.8152 1797.72L32.8152 1798.57L28 1798.57L28 1795.61ZM35.931 1795.61L35.931 1798.57L35.0812 1798.57L35.0812 1795.61L35.931 1795.61ZM35.931 1799.89L32.8152 1799.89L32.8152 1801.99L28 1801.99L28 1801.15L31.9655 1801.15L31.9655 1799.89L28 1799.89L28 1799.04L35.931 1799.04L35.931 1799.89ZM35.3872 1801.03C35.508 1801.03 35.61 1801.07 35.6931 1801.15C35.7761 1801.23 35.8177 1801.33 35.8177 1801.45C35.8177 1801.57 35.7761 1801.67 35.6931 1801.76C35.61 1801.84 35.508 1801.88 35.3872 1801.88C35.2663 1801.88 35.1643 1801.84 35.0812 1801.76C35.0057 1801.67 34.9679 1801.57 34.9679 1801.45C34.9679 1801.33 35.0057 1801.23 35.0812 1801.15C35.1643 1801.07 35.2663 1801.03 35.3872 1801.03ZM28 1802.47L35.931 1802.47L35.931 1803.32L28 1803.32L28 1802.47ZM29.6655 1804.46C29.7864 1804.46 29.8883 1804.5 29.9714 1804.57C30.0545 1804.66 30.096 1804.76 30.096 1804.88C30.096 1805 30.0545 1805.1 29.9714 1805.19C29.8883 1805.27 29.7864 1805.31 29.6655 1805.31C29.5446 1805.31 29.4427 1805.27 29.3596 1805.19C29.2841 1805.1 29.2463 1805 29.2463 1804.88C29.2463 1804.76 29.2841 1804.66 29.3596 1804.57C29.4427 1804.5 29.5446 1804.46 29.6655 1804.46ZM34.2542 1804.46C34.375 1804.46 34.477 1804.5 34.5601 1804.57C34.6431 1804.66 34.6847 1804.76 34.6847 1804.88C34.6847 1805 34.6431 1805.1 34.5601 1805.19C34.477 1805.27 34.375 1805.31 34.2542 1805.31C34.1333 1805.31 34.0313 1805.27 33.9482 1805.19C33.8727 1805.1 33.8349 1805 33.8349 1804.88C33.8349 1804.76 33.8727 1804.66 33.9482 1804.57C34.0313 1804.5 34.1333 1804.46 34.2542 1804.46ZM32.8152 1808.85L28 1808.85L28 1808L31.9655 1808L31.9655 1806.75L28 1806.75L28 1805.9L32.8152 1805.9L32.8152 1808.85ZM35.5005 1807.89C35.6213 1807.89 35.7233 1807.93 35.8064 1808C35.8894 1808.09 35.931 1808.19 35.931 1808.31C35.931 1808.43 35.8894 1808.53 35.8064 1808.62C35.7233 1808.7 35.6213 1808.74 35.5005 1808.74C35.3796 1808.74 35.2776 1808.7 35.1945 1808.62C35.119 1808.53 35.0812 1808.43 35.0812 1808.31C35.0812 1808.19 35.119 1808.09 35.1945 1808C35.2776 1807.93 35.3796 1807.89 35.5005 1807.89ZM35.5005 1806.01C35.6213 1806.01 35.7233 1806.05 35.8064 1806.12C35.8894 1806.21 35.931 1806.31 35.931 1806.43C35.931 1806.55 35.8894 1806.65 35.8064 1806.73C35.7233 1806.82 35.6213 1806.86 35.5005 1806.86C35.3796 1806.86 35.2776 1806.82 35.1945 1806.73C35.119 1806.65 35.0812 1806.55 35.0812 1806.43C35.0812 1806.31 35.119 1806.21 35.1945 1806.12C35.2776 1806.05 35.3796 1806.01 35.5005 1806.01ZM28.8497 1809.32L28.8497 1810.38L31.9655 1810.38L31.9655 1811.23L28.8497 1811.23L28.8497 1812.28L28 1812.28L28 1809.32L28.8497 1809.32ZM35.931 1809.32L35.931 1812.28L35.0812 1812.28L35.0812 1809.32L35.931 1809.32ZM30.9685 1815.71L28 1813.26L28.4532 1812.75L30.9685 1814.86L32.9625 1812.89L35.931 1815.2L35.4778 1815.71L32.9625 1813.74L30.9685 1815.71ZM35.931 1817.03L32.8152 1817.03L32.8152 1819.14L28 1819.14L28 1818.29L31.9655 1818.29L31.9655 1817.03L28 1817.03L28 1816.18L35.931 1816.18L35.931 1817.03ZM35.3872 1818.18C35.508 1818.18 35.61 1818.22 35.6931 1818.29C35.7761 1818.37 35.8177 1818.48 35.8177 1818.6C35.8177 1818.72 35.7761 1818.82 35.6931 1818.9C35.61 1818.99 35.508 1819.03 35.3872 1819.03C35.2663 1819.03 35.1643 1818.99 35.0812 1818.9C35.0057 1818.82 34.9679 1818.72 34.9679 1818.6C34.9679 1818.48 35.0057 1818.37 35.0812 1818.29C35.1643 1818.22 35.2663 1818.18 35.3872 1818.18ZM35.931 1824.77L35.931 1827.72L28 1827.72L28 1826.87L31.9655 1826.87L31.9655 1824.77L32.8152 1824.77L32.8152 1826.87L35.0812 1826.87L35.0812 1824.77L35.931 1824.77ZM28 1828.2L32.8152 1828.2L32.8152 1829.05L28.8497 1829.05L28.8497 1830.3L32.8152 1830.3L32.8152 1831.15L28 1831.15L28 1828.2ZM35.931 1828.2L35.931 1831.15L35.0812 1831.15L35.0812 1828.2L35.931 1828.2ZM32.8152 1834.58L28 1834.58L28 1833.73L31.9655 1833.73L31.9655 1832.48L28 1832.48L28 1831.63L32.8152 1831.63L32.8152 1834.58ZM35.5005 1833.62C35.6213 1833.62 35.7233 1833.66 35.8064 1833.73C35.8894 1833.82 35.931 1833.92 35.931 1834.04C35.931 1834.16 35.8894 1834.26 35.8064 1834.34C35.7233 1834.43 35.6213 1834.47 35.5005 1834.47C35.3796 1834.47 35.2776 1834.43 35.1945 1834.34C35.119 1834.26 35.0812 1834.16 35.0812 1834.04C35.0812 1833.92 35.119 1833.82 35.1945 1833.73C35.2776 1833.66 35.3796 1833.62 35.5005 1833.62ZM35.5005 1831.74C35.6213 1831.74 35.7233 1831.78 35.8064 1831.85C35.8894 1831.94 35.931 1832.04 35.931 1832.16C35.931 1832.28 35.8894 1832.38 35.8064 1832.46C35.7233 1832.55 35.6213 1832.59 35.5005 1832.59C35.3796 1832.59 35.2776 1832.55 35.1945 1832.46C35.119 1832.38 35.0812 1832.28 35.0812 1832.16C35.0812 1832.04 35.119 1831.94 35.1945 1831.85C35.2776 1831.78 35.3796 1831.74 35.5005 1831.74ZM31.9655 1845.75L35.0812 1845.75L35.0812 1844.49L28.8497 1844.49L28.8497 1845.61L28 1845.61L28 1843.64L35.931 1843.64L35.931 1846.6L31.9655 1846.6L31.9655 1845.75ZM35.1379 1850.03L32.0675 1848.94L28.3399 1850.03L28 1849.29L30.7645 1848.47L28.5665 1847.69L28.7931 1847.07L31.8635 1848.16L35.5911 1847.07L35.931 1847.8L33.1551 1848.61L35.3645 1849.4L35.1379 1850.03ZM35.931 1850.5L35.931 1853.45L28 1853.45L28 1852.6L35.0812 1852.6L35.0812 1850.5L35.931 1850.5ZM35.931 1862.04L28 1862.04L28 1861.19L31.9655 1861.19L31.9655 1859.93L28 1859.93L28 1859.08L32.8152 1859.08L32.8152 1861.19L35.0812 1861.19L35.0812 1859.08L35.931 1859.08L35.931 1862.04ZM35.931 1862.51L35.931 1865.47L28 1865.47L28 1864.62L31.9655 1864.62L31.9655 1862.51L32.8152 1862.51L32.8152 1864.62L35.0812 1864.62L35.0812 1862.51L35.931 1862.51ZM35.931 1865.94L35.931 1868.9L28 1868.9L28 1865.94L28.8497 1865.94L28.8497 1868.05L35.0812 1868.05L35.0812 1865.94L35.931 1865.94ZM35.931 1870.22L32.8152 1870.22L32.8152 1872.33L28 1872.33L28 1871.48L31.9655 1871.48L31.9655 1870.22L28 1870.22L28 1869.37L35.931 1869.37L35.931 1870.22ZM35.3871 1871.36C35.508 1871.36 35.61 1871.4 35.6931 1871.48C35.7761 1871.56 35.8177 1871.66 35.8177 1871.78C35.8177 1871.9 35.7761 1872 35.6931 1872.09C35.61 1872.17 35.508 1872.21 35.3871 1872.21C35.2663 1872.21 35.1643 1872.17 35.0812 1872.09C35.0057 1872 34.9679 1871.9 34.9679 1871.78C34.9679 1871.66 35.0057 1871.56 35.0812 1871.48C35.1643 1871.4 35.2663 1871.36 35.3871 1871.36ZM35.931 1877.95L35.931 1880.91L28 1880.91L28 1880.06L35.0812 1880.06L35.0812 1877.95L35.931 1877.95ZM35.931 1881.38L35.931 1884.34L28 1884.34L28 1883.49L35.0812 1883.49L35.0812 1881.38L35.931 1881.38ZM30.9684 1887.77L28 1885.32L28.4532 1884.81L30.9684 1886.92L32.9625 1884.95L35.931 1887.26L35.4778 1887.77L32.9625 1885.8L30.9684 1887.77ZM30.9684 1891.2L28 1888.75L28.4532 1888.24L30.9684 1890.35L32.9625 1888.38L35.931 1890.69L35.4778 1891.2L32.9625 1889.23L30.9684 1891.2Z" fill="white"/>
<path opacity="0.1" d="M608.931 197.487L608.931 200.444L608.081 200.444L608.081 198.541L605.815 200.444L601 200.444L601 197.487L601.85 197.487L601.85 199.595L605.566 199.595L608.081 197.487L608.931 197.487ZM604.965 203.024L608.081 203.024L608.081 201.766L601.85 201.766L601.85 202.888L601 202.888L601 200.916L608.931 200.916L608.931 203.873L604.965 203.873L604.965 203.024ZM601 209.501L608.931 209.501L608.931 210.35L601 210.35L601 209.501ZM602.666 211.495C602.786 211.495 602.888 211.532 602.971 211.608C603.055 211.691 603.096 211.793 603.096 211.914C603.096 212.035 603.055 212.137 602.971 212.22C602.888 212.303 602.786 212.344 602.666 212.344C602.545 212.344 602.443 212.303 602.36 212.22C602.284 212.137 602.246 212.035 602.246 211.914C602.246 211.793 602.284 211.691 602.36 211.608C602.443 211.532 602.545 211.495 602.666 211.495ZM607.254 211.495C607.375 211.495 607.477 211.532 607.56 211.608C607.643 211.691 607.685 211.793 607.685 211.914C607.685 212.035 607.643 212.137 607.56 212.22C607.477 212.303 607.375 212.344 607.254 212.344C607.133 212.344 607.031 212.303 606.948 212.22C606.873 212.137 606.835 212.035 606.835 211.914C606.835 211.793 606.873 211.691 606.948 211.608C607.031 211.532 607.133 211.495 607.254 211.495ZM608.931 212.93L608.931 215.887L601 215.887L601 215.037L608.081 215.037L608.081 212.93L608.931 212.93ZM601 216.359L605.815 216.359L605.815 217.208L601.85 217.208L601.85 218.466L605.815 218.466L605.815 219.316L601 219.316L601 216.359ZM608.931 216.359L608.931 219.316L608.081 219.316L608.081 216.359L608.931 216.359ZM608.931 222.745L601 222.745L601 221.895L608.081 221.895L608.081 220.638L601 220.638L601 219.788L608.931 219.788L608.931 222.745ZM608.931 226.174L601 226.174L601 225.324L604.965 225.324L604.965 224.067L601 224.067L601 223.217L605.815 223.217L605.815 225.324L608.081 225.324L608.081 223.217L608.931 223.217L608.931 226.174ZM608.931 226.646L608.931 229.603L601 229.603L601 228.753L604.965 228.753L604.965 226.646L605.815 226.646L605.815 228.753L608.081 228.753L608.081 226.646L608.931 226.646ZM601 229.849L608.931 229.849L608.931 230.698L606.869 231.548L608.931 232.409L608.931 233.259L604.965 233.259L604.965 232.409L607.345 232.409L605.963 231.752L605.963 231.355L607.345 230.698L601 230.698L601 229.849ZM601.85 233.504L601.85 234.558L604.965 234.558L604.965 235.408L601.85 235.408L601.85 236.461L601 236.461L601 233.504L601.85 233.504ZM608.931 233.504L608.931 236.461L608.081 236.461L608.081 233.504L608.931 233.504ZM608.931 238.214L604.184 239.154L606.948 239.267L606.948 240.004L601.113 239.777L601 239.041L606.302 237.998L601 237.556L601.113 236.82L608.931 237.477L608.931 238.214ZM601 243.32L601 240.362L608.931 240.362L608.931 241.212L601.85 241.212L601.85 243.32L601 243.32ZM604.965 242.47L608.931 242.47L608.931 243.32L604.965 243.32L604.965 242.47ZM605.815 251.904L601 251.904L601 251.054L604.965 251.054L604.965 249.796L601 249.796L601 248.947L605.815 248.947L605.815 251.904ZM608.5 250.941C608.621 250.941 608.723 250.978 608.806 251.054C608.889 251.137 608.931 251.239 608.931 251.36C608.931 251.481 608.889 251.583 608.806 251.666C608.723 251.749 608.621 251.79 608.5 251.79C608.38 251.79 608.278 251.749 608.195 251.666C608.119 251.583 608.081 251.481 608.081 251.36C608.081 251.239 608.119 251.137 608.195 251.054C608.278 250.978 608.38 250.941 608.5 250.941ZM608.5 249.06C608.621 249.06 608.723 249.098 608.806 249.173C608.889 249.256 608.931 249.358 608.931 249.479C608.931 249.6 608.889 249.702 608.806 249.785C608.723 249.868 608.621 249.91 608.5 249.91C608.38 249.91 608.278 249.868 608.195 249.785C608.119 249.702 608.081 249.6 608.081 249.479C608.081 249.358 608.119 249.256 608.195 249.173C608.278 249.098 608.38 249.06 608.5 249.06ZM608.931 255.333L601 255.333L601 254.483L604.965 254.483L604.965 253.225L601 253.225L601 252.376L605.815 252.376L605.815 254.483L608.081 254.483L608.081 252.376L608.931 252.376L608.931 255.333ZM608.931 256.655L605.815 256.655L605.815 258.762L601 258.762L601 257.912L604.965 257.912L604.965 256.655L601 256.655L601 255.805L608.931 255.805L608.931 256.655ZM608.387 257.799C608.508 257.799 608.61 257.837 608.693 257.912C608.776 257.995 608.818 258.097 608.818 258.218C608.818 258.339 608.776 258.441 608.693 258.524C608.61 258.607 608.508 258.649 608.387 258.649C608.266 258.649 608.164 258.607 608.081 258.524C608.006 258.441 607.968 258.339 607.968 258.218C607.968 258.097 608.006 257.995 608.081 257.912C608.164 257.837 608.266 257.799 608.387 257.799ZM608.931 267.346L601 267.346L601 266.496L608.081 266.496L608.081 265.239L601 265.239L601 264.389L608.931 264.389L608.931 267.346ZM608.931 267.818L608.931 270.775L608.081 270.775L608.081 268.872L605.815 270.775L601 270.775L601 267.818L601.85 267.818L601.85 269.926L605.566 269.926L608.081 267.818L608.931 267.818ZM608.931 274.204L601 274.204L601 273.355L608.081 273.355L608.081 272.097L601 272.097L601 271.247L608.931 271.247L608.931 274.204ZM608.931 280.681L605.815 280.681L605.815 282.789L601 282.789L601 281.939L604.965 281.939L604.965 280.681L601 280.681L601 279.832L608.931 279.832L608.931 280.681ZM608.387 281.826C608.508 281.826 608.61 281.863 608.693 281.939C608.776 282.022 608.818 282.124 608.818 282.245C608.818 282.366 608.776 282.468 608.693 282.551C608.61 282.634 608.508 282.675 608.387 282.675C608.266 282.675 608.164 282.634 608.081 282.551C608.006 282.468 607.968 282.366 607.968 282.245C607.968 282.124 608.006 282.022 608.081 281.939C608.164 281.863 608.266 281.826 608.387 281.826ZM601 283.261L605.815 283.261L605.815 284.11L601.85 284.11L601.85 285.368L605.815 285.368L605.815 286.218L601 286.218L601 283.261ZM608.931 283.261L608.931 286.218L608.081 286.218L608.081 283.261L608.931 283.261ZM608.931 289.647L601 289.647L601 288.797L608.081 288.797L608.081 287.539L601 287.539L601 286.69L608.931 286.69L608.931 289.647ZM605.815 311.947L601 311.947L601 311.098L604.965 311.098L604.965 309.84L601 309.84L601 308.99L605.815 308.99L605.815 311.947ZM608.5 310.984C608.621 310.984 608.723 311.022 608.806 311.098C608.889 311.181 608.931 311.283 608.931 311.404C608.931 311.524 608.889 311.626 608.806 311.71C608.723 311.793 608.621 311.834 608.5 311.834C608.38 311.834 608.278 311.793 608.195 311.71C608.119 311.626 608.081 311.524 608.081 311.404C608.081 311.283 608.119 311.181 608.195 311.098C608.278 311.022 608.38 310.984 608.5 310.984ZM608.5 309.104C608.621 309.104 608.723 309.141 608.806 309.217C608.889 309.3 608.931 309.402 608.931 309.523C608.931 309.644 608.889 309.746 608.806 309.829C608.723 309.912 608.621 309.953 608.5 309.953C608.38 309.953 608.278 309.912 608.195 309.829C608.119 309.746 608.081 309.644 608.081 309.523C608.081 309.402 608.119 309.3 608.195 309.217C608.278 309.141 608.38 309.104 608.5 309.104ZM608.138 315.377L605.067 314.289L601.34 315.377L601 314.64L603.765 313.824L601.566 313.043L601.793 312.419L604.864 313.507L608.591 312.419L608.931 313.156L606.155 313.96L608.364 314.753L608.138 315.377ZM604.965 315.849L608.931 315.849L608.931 318.806L601 318.806L601 315.849L601.85 315.849L601.85 317.956L608.081 317.956L608.081 316.698L604.965 316.698L604.965 315.849ZM608.931 320.127L605.815 320.127L605.815 322.235L601 322.235L601 321.385L604.965 321.385L604.965 320.127L601 320.127L601 319.278L608.931 319.278L608.931 320.127ZM608.387 321.272C608.508 321.272 608.61 321.309 608.693 321.385C608.776 321.468 608.818 321.57 608.818 321.691C608.818 321.812 608.776 321.914 608.693 321.997C608.61 322.08 608.508 322.121 608.387 322.121C608.266 322.121 608.164 322.08 608.081 321.997C608.006 321.914 607.968 321.812 607.968 321.691C607.968 321.57 608.006 321.468 608.081 321.385C608.164 321.309 608.266 321.272 608.387 321.272ZM608.931 323.987L604.184 324.927L606.948 325.041L606.948 325.777L601.113 325.551L601 324.814L606.302 323.772L601 323.33L601.113 322.593L608.931 323.251L608.931 323.987ZM608.931 331.291L608.931 334.248L601 334.248L601 333.398L604.965 333.398L604.965 331.291L605.815 331.291L605.815 333.398L608.081 333.398L608.081 331.291L608.931 331.291ZM608.931 336L604.184 336.941L606.948 337.054L606.948 337.79L601.113 337.564L601 336.827L606.302 335.785L601 335.343L601.113 334.607L608.931 335.264L608.931 336ZM608.931 338.149L608.931 341.106L608.081 341.106L608.081 340.053L605.815 340.053L605.815 341.106L601 341.106L601 338.149L605.815 338.149L605.815 339.203L608.081 339.203L608.081 338.149L608.931 338.149ZM604.965 338.999L601.85 338.999L601.85 340.257L604.965 340.257L604.965 338.999ZM608.931 349.691L601 349.691L601 348.841L608.081 348.841L608.081 347.583L601 347.583L601 346.733L608.931 346.733L608.931 349.691ZM608.138 353.12L605.067 352.032L601.34 353.12L601 352.383L603.765 351.567L601.566 350.786L601.793 350.162L604.864 351.25L608.591 350.162L608.931 350.899L606.155 351.703L608.364 352.496L608.138 353.12ZM601 353.592L605.815 353.592L605.815 354.441L601.85 354.441L601.85 355.699L605.815 355.699L605.815 356.549L601 356.549L601 353.592ZM608.931 353.592L608.931 356.549L608.081 356.549L608.081 353.592L608.931 353.592ZM601 357.021L605.815 357.021L605.815 357.87L601.85 357.87L601.85 359.128L605.815 359.128L605.815 359.978L601 359.978L601 357.021ZM608.931 357.021L608.931 359.978L608.081 359.978L608.081 357.021L608.931 357.021ZM608.138 363.407L605.067 362.319L601.34 363.407L601 362.67L603.765 361.855L601.566 361.073L601.793 360.45L604.864 361.537L608.591 360.45L608.931 361.186L606.155 361.991L608.364 362.784L608.138 363.407ZM603.968 366.836L601 364.389L601.453 363.879L603.968 365.986L605.963 364.015L608.931 366.326L608.478 366.836L605.963 364.865L603.968 366.836ZM608.931 367.308L608.931 370.265L601 370.265L601 369.415L604.965 369.415L604.965 367.308L605.815 367.308L605.815 369.415L608.081 369.415L608.081 367.308L608.931 367.308ZM605.815 373.694L601 373.694L601 372.844L604.965 372.844L604.965 371.587L601 371.587L601 370.737L605.815 370.737L605.815 373.694ZM608.5 372.731C608.621 372.731 608.723 372.769 608.806 372.844C608.889 372.928 608.931 373.029 608.931 373.15C608.931 373.271 608.889 373.373 608.806 373.456C608.723 373.539 608.621 373.581 608.5 373.581C608.38 373.581 608.278 373.539 608.195 373.456C608.119 373.373 608.081 373.271 608.081 373.15C608.081 373.029 608.119 372.928 608.195 372.844C608.278 372.769 608.38 372.731 608.5 372.731ZM608.5 370.85C608.621 370.85 608.723 370.888 608.806 370.964C608.889 371.047 608.931 371.149 608.931 371.27C608.931 371.39 608.889 371.492 608.806 371.575C608.723 371.659 608.621 371.7 608.5 371.7C608.38 371.7 608.278 371.659 608.195 371.575C608.119 371.492 608.081 371.39 608.081 371.27C608.081 371.149 608.119 371.047 608.195 370.964C608.278 370.888 608.38 370.85 608.5 370.85ZM601.85 374.166L601.85 375.22L604.965 375.22L604.965 376.07L601.85 376.07L601.85 377.123L601 377.123L601 374.166L601.85 374.166ZM608.931 374.166L608.931 377.123L608.081 377.123L608.081 374.166L608.931 374.166ZM608.931 378.876L604.184 379.816L606.948 379.929L606.948 380.666L601.113 380.439L601 379.703L606.302 378.66L601 378.218L601.113 377.482L608.931 378.139L608.931 378.876ZM601 383.981L601 381.024L608.931 381.024L608.931 381.874L601.85 381.874L601.85 383.981L601 383.981ZM604.965 383.132L608.931 383.132L608.931 383.981L604.965 383.981L604.965 383.132ZM601 389.609L605.815 389.609L605.815 390.458L601.85 390.458L601.85 391.716L605.815 391.716L605.815 392.566L601 392.566L601 389.609ZM608.931 389.609L608.931 392.566L608.081 392.566L608.081 389.609L608.931 389.609ZM608.931 393.887L605.815 393.887L605.815 395.995L601 395.995L601 395.145L604.965 395.145L604.965 393.887L601 393.887L601 393.038L608.931 393.038L608.931 393.887ZM608.387 395.032C608.508 395.032 608.61 395.07 608.693 395.145C608.776 395.228 608.818 395.33 608.818 395.451C608.818 395.572 608.776 395.674 608.693 395.757C608.61 395.84 608.508 395.882 608.387 395.882C608.266 395.882 608.164 395.84 608.081 395.757C608.006 395.674 607.968 395.572 607.968 395.451C607.968 395.33 608.006 395.228 608.081 395.145C608.164 395.07 608.266 395.032 608.387 395.032ZM601 396.467L608.931 396.467L608.931 397.317L601 397.317L601 396.467ZM602.666 398.461C602.786 398.461 602.888 398.499 602.971 398.574C603.054 398.657 603.096 398.759 603.096 398.88C603.096 399.001 603.054 399.103 602.971 399.186C602.888 399.269 602.786 399.311 602.666 399.311C602.545 399.311 602.443 399.269 602.36 399.186C602.284 399.103 602.246 399.001 602.246 398.88C602.246 398.759 602.284 398.657 602.36 398.574C602.443 398.499 602.545 398.461 602.666 398.461ZM607.254 398.461C607.375 398.461 607.477 398.499 607.56 398.574C607.643 398.657 607.685 398.759 607.685 398.88C607.685 399.001 607.643 399.103 607.56 399.186C607.477 399.269 607.375 399.311 607.254 399.311C607.133 399.311 607.031 399.269 606.948 399.186C606.873 399.103 606.835 399.001 606.835 398.88C606.835 398.759 606.873 398.657 606.948 398.574C607.031 398.499 607.133 398.461 607.254 398.461ZM605.815 402.853L601 402.853L601 402.003L604.965 402.003L604.965 400.746L601 400.746L601 399.896L605.815 399.896L605.815 402.853ZM608.5 401.89C608.621 401.89 608.723 401.928 608.806 402.003C608.889 402.086 608.931 402.188 608.931 402.309C608.931 402.43 608.889 402.532 608.806 402.615C608.723 402.698 608.621 402.74 608.5 402.74C608.38 402.74 608.278 402.698 608.195 402.615C608.119 402.532 608.081 402.43 608.081 402.309C608.081 402.188 608.119 402.086 608.195 402.003C608.278 401.928 608.38 401.89 608.5 401.89ZM608.5 400.009C608.621 400.009 608.723 400.047 608.806 400.122C608.889 400.206 608.931 400.308 608.931 400.428C608.931 400.549 608.889 400.651 608.806 400.734C608.723 400.817 608.621 400.859 608.5 400.859C608.38 400.859 608.278 400.817 608.195 400.734C608.119 400.651 608.081 400.549 608.081 400.428C608.081 400.308 608.119 400.206 608.195 400.122C608.278 400.047 608.38 400.009 608.5 400.009ZM601.85 403.325L601.85 404.379L604.965 404.379L604.965 405.228L601.85 405.228L601.85 406.282L601 406.282L601 403.325L601.85 403.325ZM608.931 403.325L608.931 406.282L608.081 406.282L608.081 403.325L608.931 403.325ZM603.968 409.711L601 407.264L601.453 406.754L603.968 408.861L605.963 406.89L608.931 409.201L608.478 409.711L605.963 407.74L603.968 409.711ZM608.931 411.033L605.815 411.033L605.815 413.14L601 413.14L601 412.291L604.965 412.291L604.965 411.033L601 411.033L601 410.183L608.931 410.183L608.931 411.033ZM608.387 412.177C608.508 412.177 608.61 412.215 608.693 412.291C608.776 412.374 608.818 412.476 608.818 412.596C608.818 412.717 608.776 412.819 608.693 412.902C608.61 412.985 608.508 413.027 608.387 413.027C608.266 413.027 608.164 412.985 608.081 412.902C608.006 412.819 607.968 412.717 607.968 412.596C607.968 412.476 608.006 412.374 608.081 412.291C608.164 412.215 608.266 412.177 608.387 412.177ZM608.931 418.767L608.931 421.725L601 421.725L601 420.875L604.965 420.875L604.965 418.767L605.815 418.767L605.815 420.875L608.081 420.875L608.081 418.767L608.931 418.767ZM601 422.196L605.815 422.196L605.815 423.046L601.85 423.046L601.85 424.304L605.815 424.304L605.815 425.154L601 425.154L601 422.196ZM608.931 422.196L608.931 425.154L608.081 425.154L608.081 422.196L608.931 422.196ZM605.815 428.583L601 428.583L601 427.733L604.965 427.733L604.965 426.475L601 426.475L601 425.626L605.815 425.626L605.815 428.583ZM608.5 427.62C608.621 427.62 608.723 427.657 608.806 427.733C608.889 427.816 608.931 427.918 608.931 428.039C608.931 428.16 608.889 428.262 608.806 428.345C608.723 428.428 608.621 428.469 608.5 428.469C608.38 428.469 608.278 428.428 608.195 428.345C608.119 428.262 608.081 428.16 608.081 428.039C608.081 427.918 608.119 427.816 608.195 427.733C608.278 427.657 608.38 427.62 608.5 427.62ZM608.5 425.739C608.621 425.739 608.723 425.777 608.806 425.852C608.889 425.935 608.931 426.037 608.931 426.158C608.931 426.279 608.889 426.381 608.806 426.464C608.723 426.547 608.621 426.589 608.5 426.589C608.38 426.589 608.278 426.547 608.195 426.464C608.119 426.381 608.081 426.279 608.081 426.158C608.081 426.037 608.119 425.935 608.195 425.852C608.278 425.777 608.38 425.739 608.5 425.739ZM604.965 439.746L608.081 439.746L608.081 438.489L601.85 438.489L601.85 439.61L601 439.61L601 437.639L608.931 437.639L608.931 440.596L604.965 440.596L604.965 439.746ZM608.138 444.025L605.067 442.937L601.34 444.025L601 443.289L603.765 442.473L601.566 441.691L601.793 441.068L604.864 442.156L608.591 441.068L608.931 441.804L606.155 442.609L608.364 443.402L608.138 444.025ZM608.931 444.497L608.931 447.454L601 447.454L601 446.605L608.081 446.605L608.081 444.497L608.931 444.497ZM608.931 456.038L601 456.038L601 455.189L604.965 455.189L604.965 453.931L601 453.931L601 453.081L605.815 453.081L605.815 455.189L608.081 455.189L608.081 453.081L608.931 453.081L608.931 456.038ZM608.931 456.51L608.931 459.468L601 459.468L601 458.618L604.965 458.618L604.965 456.51L605.815 456.51L605.815 458.618L608.081 458.618L608.081 456.51L608.931 456.51ZM608.931 459.94L608.931 462.897L601 462.897L601 459.94L601.85 459.94L601.85 462.047L608.081 462.047L608.081 459.94L608.931 459.94ZM608.931 464.218L605.815 464.218L605.815 466.326L601 466.326L601 465.476L604.965 465.476L604.965 464.218L601 464.218L601 463.369L608.931 463.369L608.931 464.218ZM608.387 465.363C608.508 465.363 608.61 465.401 608.693 465.476C608.776 465.559 608.818 465.661 608.818 465.782C608.818 465.903 608.776 466.005 608.693 466.088C608.61 466.171 608.508 466.212 608.387 466.212C608.266 466.212 608.164 466.171 608.081 466.088C608.006 466.005 607.968 465.903 607.968 465.782C607.968 465.661 608.006 465.559 608.081 465.476C608.164 465.401 608.266 465.363 608.387 465.363ZM608.931 471.953L608.931 474.91L601 474.91L601 474.06L608.081 474.06L608.081 471.953L608.931 471.953ZM608.931 475.382L608.931 478.339L601 478.339L601 477.489L608.081 477.489L608.081 475.382L608.931 475.382ZM603.968 481.768L601 479.321L601.453 478.811L603.968 480.918L605.963 478.947L608.931 481.258L608.478 481.768L605.963 479.797L603.968 481.768ZM603.968 485.197L601 482.75L601.453 482.24L603.968 484.348L605.963 482.376L608.931 484.687L608.478 485.197L605.963 483.226L603.968 485.197Z" fill="white"/>
</svg>
