<svg width="114" height="136" viewBox="0 0 114 136" fill="none" xmlns="http://www.w3.org/2000/svg">
<path d="M50 17.9444C77.1316 17.9444 99.125 39.9234 99.125 67.0347C99.125 94.1459 77.1316 116.125 50 116.125C22.8684 116.125 0.874999 94.146 0.874998 67.0347C0.874997 39.9234 22.8684 17.9444 50 17.9444Z" fill="#0B302B" stroke="#101820" stroke-width="1.75"/>
<path d="M50 29.936C70.5041 29.936 87.125 46.5462 87.125 67.0347C87.125 87.5231 70.5041 104.133 50 104.133C29.4959 104.133 12.875 87.5231 12.875 67.0347C12.875 46.5462 29.4959 29.936 50 29.936Z" fill="#425855" stroke="#101820" stroke-width="1.75"/>
<rect x="100.875" y="89.875" width="69.75" height="43.7499" rx="21.875" transform="rotate(-180 100.875 89.875)" fill="#718280" stroke="#101820" stroke-width="1.75"/>
<rect x="100" y="85" width="62" height="34" rx="17" transform="rotate(-180 100 85)" fill="#4899C6"/>
<rect x="92" y="81" width="50" height="26" rx="13" transform="rotate(-180 92 81)" stroke="white" stroke-opacity="0.24" stroke-width="8"/>
<mask id="mask0_118:24774" style="mask-type:alpha" maskUnits="userSpaceOnUse" x="63" y="41" width="25" height="54">
<path d="M87.1449 94.5435C73.8101 94.5435 63 83.7334 63 70.3985L63 65.6014C63 52.2666 73.8101 41.4565 87.1449 41.4565L87.1449 94.5435Z" fill="#466561"/>
</mask>
<g mask="url(#mask0_118:24774)">
<path d="M87.1449 95.3424L87.9438 95.3424L87.9438 94.5435L87.9438 41.4565L87.9438 40.6576L87.1449 40.6576C73.3688 40.6576 62.2011 51.8253 62.2011 65.6014L62.2011 70.3985C62.2011 84.1746 73.3688 95.3424 87.1449 95.3424Z" fill="#425855" stroke="#101820" stroke-width="1.59783"/>
<path opacity="0.13" d="M70.3198 87.7645C68.8245 88.5198 67.6899 88.9826 66.1223 88.8045C65.2434 89.0896 64.3791 89.3374 63.6529 89.9243C63.0602 90.4033 62.1489 90.3529 61.5264 90.7023C60.6303 91.2052 58.7018 90.8068 57.6987 90.8068C56.3402 90.8068 55.6435 90.3543 55.1699 88.9721C54.6814 87.5465 53.7676 85.7814 53.7676 84.2809L53.7676 76.4893C53.7676 69.7588 53.7956 62.8606 55.5492 56.3195C56.4782 52.8544 59.0408 50.9504 62.0437 49.4336C64.3518 48.2678 66.8582 48.631 69.2163 49.3059C71.9292 50.0824 74.0741 51.1009 75.2855 53.7184C76.6023 56.5637 76.9163 59.8199 77.1476 62.915C77.3017 64.9777 77.6837 67.0246 77.7568 69.0926C77.865 72.1541 78.0622 75.4118 76.8372 78.2776C75.975 80.2946 74.9029 82.2652 74.09 84.2809C73.5239 85.6845 71.6257 87.1049 70.3198 87.7645Z" fill="#F2F4F8"/>
</g>
<path d="M87.1449 95.3424L87.9438 95.3424L87.9438 94.5435L87.9438 41.4565L87.9438 40.6576L87.1449 40.6576C73.3688 40.6576 62.2011 51.8253 62.2011 65.6014L62.2011 70.3985C62.2011 84.1746 73.3688 95.3424 87.1449 95.3424Z" stroke="#101820" stroke-width="1.59783"/>
<mask id="mask1_118:24774" style="mask-type:alpha" maskUnits="userSpaceOnUse" x="87" y="2" width="25" height="132">
<path d="M112 134C98.6655 134 87.8555 123.19 87.8555 109.855L87.8555 26.1449C87.8555 12.81 98.6655 2 112 2L112 134Z" fill="#466561"/>
</mask>
<g mask="url(#mask1_118:24774)">
<path d="M112 134.799L112.799 134.799L112.799 134L112.799 2L112.799 1.20108L112 1.20108C98.2243 1.20108 87.0566 12.3688 87.0566 26.1449L87.0566 109.855C87.0566 123.631 98.2243 134.799 112 134.799Z" fill="#0B302B" stroke="#101820" stroke-width="1.59783"/>
<path opacity="0.04" d="M100.197 123.389C98.6968 125.668 97.5587 127.065 95.9863 126.528C95.1048 127.388 94.2378 128.136 93.5094 129.907C92.9148 131.353 92.0008 131.201 91.3764 132.255C90.4775 133.773 88.5431 132.571 87.537 132.571C86.1743 132.571 85.4755 131.205 85.0004 127.033C84.5104 122.731 83.5937 117.404 83.5937 112.876L83.5937 89.3606C83.5937 69.048 83.6218 48.2292 85.3809 28.4883C86.3127 18.0308 88.8831 12.2845 91.8952 7.70691C94.2104 4.18843 96.7245 5.28442 99.0898 7.32141C101.811 9.66488 103.962 12.7388 105.178 20.6383C106.498 29.2253 106.813 39.0526 107.045 48.3936C107.2 54.6187 107.583 60.7961 107.656 67.0373C107.765 76.2769 107.963 86.1086 106.734 94.7575C105.869 100.845 104.794 106.792 103.978 112.876C103.411 117.112 101.507 121.398 100.197 123.389Z" fill="#F2F4F8"/>
<circle cx="101.043" cy="61.1521" r="4.22283" fill="#8DFF1F" stroke="#101820" stroke-width="1.59783"/>
<path d="M103.458 61.9541C102.923 62.4889 102.78 61.276 101.944 60.4395C101.107 59.6031 99.8942 59.4598 100.429 58.925C100.964 58.3901 102.076 58.6346 102.912 59.4711C103.748 60.3076 103.993 61.4192 103.458 61.9541Z" fill="white"/>
<circle cx="101.043" cy="74.8477" r="4.22283" fill="#FA4B28" stroke="#101820" stroke-width="1.59783"/>
<path d="M103.458 75.2536C102.923 75.7885 102.78 74.5756 101.944 73.7391C101.107 72.9026 99.8942 72.7594 100.429 72.2245C100.964 71.6897 102.076 71.9342 102.912 72.7707C103.748 73.6071 103.993 74.7188 103.458 75.2536Z" fill="white"/>
</g>
<path d="M112 134.799L112.799 134.799L112.799 134L112.799 2L112.799 1.20108L112 1.20108C98.2243 1.20108 87.0566 12.3688 87.0566 26.1449L87.0566 109.855C87.0566 123.631 98.2243 134.799 112 134.799Z" stroke="#101820" stroke-width="1.59783"/>
</svg>
