<svg width="194" height="185" viewBox="0 0 194 185" fill="none" xmlns="http://www.w3.org/2000/svg">
<g clip-path="url(#clip0_275:17585)">
<path d="M50.7915 140.791C41.1852 139.889 29.3475 131.721 24.797 127.499C24.5754 127.293 24.3713 127.098 24.1847 126.916C19.2222 121.951 12.9534 115.447 9.71889 108.972C9.00746 107.547 8.34138 106.106 7.72065 104.649C4.26463 96.5601 2.23829 87.9326 1.73178 79.1505C1.07867 67.4236 3.2499 55.5644 8.65757 44.7452C10.6325 40.7895 13.383 31.3562 27.0518 18.8148C32.8055 13.5334 39.5894 9.88686 46.1128 7.29576C53.5692 4.33729 60.6913 2.76863 65.5275 1.73064C69.9604 0.758543 74.4724 0.190568 79.0079 0.0336955C84.3028 -0.131528 89.5355 0.315548 95.3086 1.2719C100.765 2.19762 106.092 3.76348 111.182 5.93704C128.779 13.3721 144.018 27.558 153.572 43.5828C158.36 51.6048 160.44 57.7181 160.764 71.7349C161.056 84.8615 157.46 92.3645 155.265 98.4409C155.114 98.8569 154.972 99.2651 154.836 99.6674C149.689 114.952 138.965 127.446 125.315 135.702C122.883 137.175 119.781 139.022 116.968 139.657C113.081 140.536 108.981 142.379 100.11 142.668C99.1049 142.701 98.0377 142.715 96.9025 142.703C94.6361 142.649 92.8478 142.61 91.8623 142.596C90.6312 142.58 89.4001 142.557 88.169 142.528C85.1872 133.115 83.9471 122.702 83.3561 113.954C83.2084 111.735 83.1618 108.545 83.1423 105.726C85.4749 105.738 87.8755 105.755 90.3636 105.785C95.884 105.855 113.58 105.234 113.58 105.234C113.58 105.234 110.676 97.3582 109.815 95.807C106.989 90.6832 105.022 85.5632 102.751 80.2566C97.9153 68.9689 92.6689 57.7939 87.961 46.4654C87.0513 44.265 80.2752 28.8312 80.2752 28.8312C80.2752 28.8312 73.6527 41.7011 70.9313 47.1069C64.5297 59.7909 57.6616 72.1528 50.327 84.1928C46.5832 90.3391 39.3075 104.875 39.3075 104.875C39.3075 104.875 52.541 104.89 56.6443 105.143C62.0656 105.483 67.3353 105.606 72.811 105.66C72.4689 113.538 72.3484 121.599 73.1278 129.468C73.5458 133.665 73.9053 137.869 74.4049 142.023C70.4415 141.829 66.4819 141.623 62.5185 141.409C58.6192 141.197 54.7141 140.983 50.7915 140.791Z" fill="#8DFF1F"/>
<path d="M83.1449 105.722C83.1566 108.541 83.211 111.731 83.3587 113.95C83.9419 122.698 85.1898 133.114 88.1716 142.524C90.1154 148.694 92.8231 154.436 96.5785 159.006C97.5213 160.153 98.5068 161.309 99.5448 162.423C102.099 165.168 104.966 167.662 108.263 169.162C110.809 170.353 113.63 170.834 116.427 170.554C117.83 170.408 119.22 170.159 120.587 169.81C125.782 168.499 130.984 165.866 135.565 163.107C136.763 162.386 137.919 161.655 139.022 160.938C142.252 158.837 145.353 156.164 148.809 154.524C153.736 152.191 158.819 150.37 164.256 149.567C171.328 148.517 185.055 151.816 189.1 158.034C190.75 160.561 191.745 164.281 192.435 167.29C192.64 168.208 193.147 171.372 193.147 171.372L186.266 166.451C186.266 166.451 184.254 169.798 183.933 170.595C183.214 172.379 181.434 174.677 181.434 174.677C181.434 174.677 179.295 167.358 176.858 164.404C173.165 159.914 163.984 160.612 159.189 162.445C155.544 163.84 153.048 167.02 149.827 169.122C146.937 171.003 144.173 172.914 141.381 174.706C136.407 177.904 131.344 180.732 125.306 182.339C124.408 182.58 123.477 182.886 122.532 183.164C121.257 183.541 119.957 183.869 118.678 183.926C110.21 184.293 101.15 183.109 93.6842 179.237C90.9979 177.841 87.8975 176.403 85.9362 174.014C84.4358 172.186 83.0905 170.235 81.9145 168.183C77.2882 160.159 75.4999 151.203 74.3958 141.99C73.8963 137.836 73.5367 133.631 73.1187 129.435C72.3412 121.568 72.4598 113.505 72.8019 105.627C72.8991 103.372 73.0157 101.135 73.1343 98.9209C76.444 99.4785 79.8052 99.6682 83.1566 99.4866C83.1566 99.4866 83.1274 102.348 83.1449 105.722Z" fill="#FF4040"/>
<path d="M72.373 98.9529C72.2544 101.167 72.1378 103.404 72.0406 105.659C66.5668 105.605 61.2952 105.482 55.8739 105.142C51.7706 104.889 38.5371 104.874 38.5371 104.874C38.5371 104.874 45.8128 90.336 49.5566 84.1897C56.8886 72.1381 63.7567 59.7761 70.1609 47.1038C72.8822 41.7039 79.5165 28.8223 79.5165 28.8223C79.5165 28.8223 86.2926 44.2561 87.2023 46.4565C91.9102 57.785 97.1565 68.9599 101.993 80.2476C104.263 85.5562 106.23 90.6762 109.056 95.7981C109.918 97.3531 112.822 105.226 112.822 105.226C112.822 105.226 95.133 105.846 89.6048 105.776C87.1168 105.746 84.7181 105.729 82.3836 105.717C82.3661 102.351 82.405 99.5166 82.405 99.5166C79.0504 99.6996 75.6859 99.5105 72.373 98.9529ZM95.8503 84.2033C95.8503 84.2033 93.2553 81.4528 91.6614 80.3818C83.8706 75.151 75.001 74.6359 66.1819 76.9121C63.9757 77.4777 55.9089 84.802 55.9089 84.802C55.9089 84.802 63.447 89.2999 64.3139 89.6168C71.5818 92.2973 81.7557 95.4968 88.9537 90.8375C90.5262 89.8228 95.8503 84.2033 95.8503 84.2033Z" fill="#008600"/>
<path d="M91.6626 80.3801C93.2565 81.4511 95.8515 84.2016 95.8515 84.2016C95.8515 84.2016 90.5274 89.8192 88.9549 90.8358C81.7628 95.501 71.5831 92.2956 64.3152 89.6151C63.4483 89.2983 55.9102 84.8003 55.9102 84.8003C55.9102 84.8003 63.977 77.476 66.1832 76.9104C75.0022 74.6361 83.8718 75.1512 91.6626 80.3801Z" fill="#33CC33"/>
<path d="M79.5067 28.8223C79.5067 28.8223 72.8822 41.698 70.1609 47.1038C63.7658 59.7878 56.8977 72.1491 49.5566 84.1877C45.8128 90.336 38.5371 104.872 38.5371 104.872" stroke="#101820" stroke-width="1.74943" stroke-linecap="round" stroke-linejoin="round"/>
<path d="M79.5078 28.8223C79.5078 28.8223 86.2839 44.2561 87.1936 46.4545C91.9015 57.785 97.1479 68.9599 101.984 80.2476C104.254 85.5562 106.222 90.6742 109.048 95.7981C109.909 97.3531 112.813 105.226 112.813 105.226" stroke="#101820" stroke-width="1.74943" stroke-linecap="round" stroke-linejoin="round"/>
<path d="M82.373 105.719C84.7056 105.731 87.1082 105.747 89.5962 105.778C95.1167 105.848 112.813 105.228 112.813 105.228" stroke="#101820" stroke-width="1.74943" stroke-linecap="round" stroke-linejoin="round"/>
<path d="M38.5371 104.872C38.5371 104.872 51.7705 104.888 55.8739 105.14C61.2952 105.48 66.5649 105.603 72.0406 105.657" stroke="#101820" stroke-width="1.74943" stroke-linecap="round" stroke-linejoin="round"/>
<path d="M73.6191 142C73.2191 142.4 58.6436 141.41 51.4059 140.866C41.1192 140.675 27.604 131.088 23.415 126.907C18.4525 121.943 12.1837 115.443 8.94924 108.964C-1.00694 89.0612 -2.26848 65.0688 7.88986 44.7424C9.86477 40.7867 12.625 31.3534 26.2802 18.812C38.6059 7.49514 55.6745 3.67944 64.754 1.73564C75.3225 -0.521124 84.0385 -0.472529 94.5351 1.2769C118.667 5.27531 140.454 22.894 152.799 43.58C157.594 51.6021 159.68 57.7056 159.991 71.7302C160.302 85.7548 156.177 93.3609 154.062 99.6646C148.915 114.949 138.191 127.442 124.542 135.699C122.11 137.172 119.008 139.019 116.195 139.655C111.699 140.669 106.919 142.975 94.813 142.679H87.6191" stroke="#101820" stroke-width="1.74943" stroke-linecap="round" stroke-linejoin="round"/>
<path d="M78.2392 0.0371094L78.0273 18.5869" stroke="#101820" stroke-width="1.74943" stroke-linecap="round" stroke-linejoin="round"/>
<path d="M37.903 78.415C21.0521 78.8252 0.960938 79.1479 0.960938 79.1479" stroke="#101820" stroke-width="1.74943" stroke-linecap="round" stroke-linejoin="round"/>
<path d="M159.987 71.7305C159.987 71.7305 139.747 72.7529 129.382 72.7529C125.907 72.7529 115.387 73.3458 115.387 73.3458" stroke="#101820" stroke-width="1.74943" stroke-linecap="round" stroke-linejoin="round"/>
<path d="M51.0872 53.5983C51.0872 53.5983 37.3892 39.8206 30.5431 33.1301C28.4574 31.0929 20.7891 24.3032 20.7891 24.3032" stroke="#101820" stroke-width="1.74943" stroke-linecap="round" stroke-linejoin="round"/>
<path d="M139.801 123.354C139.801 123.354 135.719 119.737 134.322 118.553C130.741 115.507 123.242 109.028 123.242 109.028" stroke="#101820" stroke-width="1.74943" stroke-linecap="round" stroke-linejoin="round"/>
<path d="M22.8867 128.649C22.8867 128.649 32.2578 119.159 37.1173 114.42" stroke="#101820" stroke-width="1.74943" stroke-linecap="round" stroke-linejoin="round"/>
<path d="M104.926 48.762C104.926 48.762 118.004 36.4732 123.897 29.7612C125.977 27.3917 132.491 19.6787 132.491 19.6787" stroke="#101820" stroke-width="1.74943" stroke-linecap="round" stroke-linejoin="round"/>
<path d="M122.543 88.9482C129.824 90.9776 136.96 93.4812 144.244 95.5125C146.739 96.2025 154.487 98.4282 154.487 98.4282" stroke="#101820" stroke-width="1.74943" stroke-linecap="round" stroke-linejoin="round"/>
<path d="M5.50781 50.1016C5.50781 50.1016 11.5569 52.6285 12.8107 53.2117C18.2261 55.7386 23.7524 57.8088 29.3331 59.8731C31.0825 60.5223 36.9139 62.849 36.9139 62.849" stroke="#101820" stroke-width="1.74943" stroke-linecap="round" stroke-linejoin="round"/>
<path d="M57.2219 118.129C54.6949 123.377 51.8142 128.472 49.2834 133.724C48.4786 135.402 46.0586 140.055 46.0586 140.055" stroke="#101820" stroke-width="1.74943" stroke-linecap="round" stroke-linejoin="round"/>
<path d="M110.691 5.37451L98.834 29.1123" stroke="#101820" stroke-width="1.74943" stroke-linecap="round" stroke-linejoin="round"/>
<path d="M31.9952 96.6826C31.9952 96.6826 21.0884 99.6644 15.949 101.497C14.1665 102.131 6.94531 104.643 6.94531 104.643" stroke="#101820" stroke-width="1.74943" stroke-linecap="round" stroke-linejoin="round"/>
<path d="M152.803 43.5801C152.803 43.5801 145.957 46.5191 143.49 47.2733C138.217 48.9022 133.287 51.2076 127.992 52.681C123.642 53.8939 114.541 57.0526 114.541 57.0526" stroke="#101820" stroke-width="1.74943" stroke-linecap="round" stroke-linejoin="round"/>
<path d="M59.5763 32.6655C59.5763 32.6655 58.3012 30.7897 54.7401 24.4451C51.179 18.1005 45.3418 7.29297 45.3418 7.29297" stroke="#101820" stroke-width="1.74943" stroke-linecap="round" stroke-linejoin="round"/>
<path d="M116.19 139.654C112.559 134.33 110.359 128.203 107.095 122.669C106.376 121.443 103.281 115.225 103.281 115.225" stroke="#101820" stroke-width="1.74943" stroke-linecap="round" stroke-linejoin="round"/>
<path d="M95.8515 84.2034C95.8515 84.2034 93.2565 81.453 91.6626 80.3819C83.8718 75.1511 75.0022 74.636 66.1832 76.9122C63.977 77.4779 55.9102 84.8021 55.9102 84.8021C55.9102 84.8021 63.4483 89.3001 64.3152 89.6169C71.5831 92.2975 81.757 95.497 88.9549 90.8377C90.5274 89.823 95.8515 84.2034 95.8515 84.2034" stroke="#101820" stroke-width="1.74943" stroke-linecap="round" stroke-linejoin="round"/>
<path d="M88.0174 69.8837C82.6175 67.0282 74.9317 67.2459 71.2734 68.7407" stroke="#101820" stroke-width="1.74943" stroke-linecap="round" stroke-linejoin="round"/>
<path d="M94.1309 97.2251C94.1309 97.2251 92.4514 97.746 91.7536 97.9365C89.5616 98.5079 87.3371 98.9461 85.0922 99.2486C78.9089 100.137 71.4 99.2486 65.5064 97.2815C63.9202 96.7527 60.3164 95.6953 60.3164 95.6953" stroke="#101820" stroke-width="1.74943" stroke-linecap="round" stroke-linejoin="round"/>
<path d="M40.032 54.7338C34.321 50.1367 27.5663 46.5698 21.8418 41.9785" stroke="#101820" stroke-width="1.74943" stroke-linecap="round" stroke-linejoin="round"/>
<path d="M32.5796 69.8975C25.9707 68.4746 19.1149 68.0723 12.5156 66.6475" stroke="#101820" stroke-width="1.74943" stroke-linecap="round" stroke-linejoin="round"/>
<path d="M53.851 41.1676C53.851 41.1676 50.3054 36.5919 49.3802 35.0835C46.7425 30.7683 40.2773 22.2544 40.2773 22.2544" stroke="#101820" stroke-width="1.74943" stroke-linecap="round" stroke-linejoin="round"/>
<path d="M69.0523 29.4642C67.4739 23.7883 65.6331 18.2893 64.0605 12.6348" stroke="#101820" stroke-width="1.74943" stroke-linecap="round" stroke-linejoin="round"/>
<path d="M88.9062 23.9298C90.1678 21.2863 94.3975 9.29297 94.3975 9.29297" stroke="#101820" stroke-width="1.74943" stroke-linecap="round" stroke-linejoin="round"/>
<path d="M103.57 37.488C103.57 37.488 112.102 26.8496 115.309 22.6393C116.24 21.4205 118.602 18.7983 118.602 18.7983" stroke="#101820" stroke-width="1.74943" stroke-linecap="round" stroke-linejoin="round"/>
<path d="M116.629 47.9499C116.629 47.9499 126.259 42.7541 130.694 39.8637C132.35 38.7848 136.497 36.4795 136.497 36.4795" stroke="#101820" stroke-width="1.74943" stroke-linecap="round" stroke-linejoin="round"/>
<path d="M121.605 64.2641C121.605 64.2641 133.776 61.9179 139.803 61.049C141.854 60.7613 145.901 59.6611 145.901 59.6611" stroke="#101820" stroke-width="1.74943" stroke-linecap="round" stroke-linejoin="round"/>
<path d="M125.754 80.8818C131.739 82.2425 145.318 84.5906 145.318 84.5906" stroke="#101820" stroke-width="1.74943" stroke-linecap="round" stroke-linejoin="round"/>
<path d="M124.377 99.2837C124.377 99.2837 130.961 103.317 133.837 104.705C134.809 105.177 137.702 106.954 137.702 106.954" stroke="#101820" stroke-width="1.74943" stroke-linecap="round" stroke-linejoin="round"/>
<path d="M115.5 114.548L122.853 125.144" stroke="#101820" stroke-width="1.74943" stroke-linecap="round" stroke-linejoin="round"/>
<path d="M90.6523 118.883C90.6523 118.883 92.67 127.682 93.4378 132.101" stroke="#101820" stroke-width="1.74943" stroke-linecap="round" stroke-linejoin="round"/>
<path d="M67.7616 120.512C66.9841 122.844 66.4515 125.278 65.8878 127.64C65.6759 128.501 64.4844 132.653 64.4844 132.653" stroke="#101820" stroke-width="1.74943" stroke-linecap="round" stroke-linejoin="round"/>
<path d="M47.0826 117.184C44.7073 120.378 42.6546 123.812 40.2793 126.998" stroke="#101820" stroke-width="1.74943" stroke-linecap="round" stroke-linejoin="round"/>
<path d="M30.0364 107.251C30.0364 107.251 27.9993 107.997 27.4764 108.236C26.1313 108.837 20.5117 111.164 20.5117 111.164" stroke="#101820" stroke-width="1.74943" stroke-linecap="round" stroke-linejoin="round"/>
<path d="M31.2142 87.9316C31.2142 87.9316 22.3932 88.7791 18.7349 89.5547C17.3743 89.8424 15.9786 89.9435 14.6024 90.1243C14.2933 90.167 10.293 90.8765 10.293 90.8765" stroke="#101820" stroke-width="1.74943" stroke-linecap="round" stroke-linejoin="round"/>
<path d="M72.3737 98.9531C71.8411 108.905 71.3551 119.351 72.3581 129.471C73.9384 145.299 74.679 161.262 85.1756 174.044C87.1369 176.433 90.2295 177.872 92.9236 179.267C100.39 183.139 109.446 184.321 117.917 183.956C120.145 183.859 122.436 182.933 124.545 182.37C133.971 179.852 141.021 174.383 149.067 169.152C152.287 167.051 154.783 163.87 158.428 162.475C163.223 160.642 172.41 159.948 176.097 164.434C178.529 167.389 180.673 174.707 180.673 174.707" stroke="#101820" stroke-width="1.74943" stroke-linecap="round" stroke-linejoin="round"/>
<path d="M82.3956 99.5186C82.3956 99.5186 82.2634 109.076 82.59 113.947C83.5619 128.442 86.326 147.465 95.8079 159.007C100.805 165.091 107.031 171.414 115.662 170.555C123.536 169.766 131.813 165.134 138.257 160.939C141.487 158.838 144.588 156.165 148.044 154.524C152.971 152.192 158.054 150.37 163.491 149.568C170.563 148.516 184.29 151.817 188.335 158.035C189.985 160.562 190.981 164.28 191.671 167.291C191.875 168.209 192.382 171.373 192.382 171.373" stroke="#101820" stroke-width="1.74943" stroke-linecap="round" stroke-linejoin="round"/>
<path d="M180.674 174.701C180.674 174.701 182.454 172.392 183.174 170.619C183.49 169.822 185.506 166.475 185.506 166.475L192.387 171.397" stroke="#101820" stroke-width="1.74943" stroke-linecap="round" stroke-linejoin="round"/>
<path d="M76.5859 80.9243V87.9104" stroke="#101820" stroke-width="1.74943" stroke-linecap="round" stroke-linejoin="round"/>
</g>
<defs>
<clipPath id="clip0_275:17585">
<rect width="192.295" height="184.019" fill="white" transform="translate(0.851562)"/>
</clipPath>
</defs>
</svg>
