<svg width="114" height="136" viewBox="0 0 114 136" fill="none" xmlns="http://www.w3.org/2000/svg">
<path d="M64 118.056C36.8684 118.056 14.875 96.0766 14.875 68.9653C14.875 41.854 36.8684 19.875 64 19.875C91.1316 19.875 113.125 41.854 113.125 68.9653C113.125 96.0766 91.1316 118.056 64 118.056Z" fill="#0B302B" stroke="#101820" stroke-width="1.75"/>
<path d="M64 106.064C43.4959 106.064 26.875 89.4538 26.875 68.9653C26.875 48.4769 43.4959 31.8667 64 31.8667C84.5041 31.8667 101.125 48.4769 101.125 68.9653C101.125 89.4538 84.5041 106.064 64 106.064Z" fill="#425855" stroke="#101820" stroke-width="1.75"/>
<rect x="18.125" y="46.125" width="64.75" height="43.7499" rx="21.875" fill="#73878B" stroke="#101820" stroke-width="1.75"/>
<rect x="27" y="51" width="49" height="34" rx="17" fill="#AEBA20"/>
<rect x="18" y="55" width="54" height="26" rx="13" stroke="white" stroke-opacity="0.24" stroke-width="8"/>
<mask id="mask0_118:26220" style="mask-type:alpha" maskUnits="userSpaceOnUse" x="26" y="41" width="25" height="54">
<path d="M26.8551 41.4565C40.1899 41.4565 51 52.2666 51 65.6015L51 70.3986C51 83.7334 40.1899 94.5435 26.8551 94.5435L26.8551 41.4565Z" fill="#466561"/>
</mask>
<g mask="url(#mask0_118:26220)">
<path d="M26.8551 40.6576L26.0562 40.6576L26.0562 41.4565L26.0562 94.5435L26.0562 95.3424L26.8551 95.3424C40.6312 95.3424 51.7989 84.1747 51.7989 70.3986L51.7989 65.6015C51.7989 51.8254 40.6312 40.6576 26.8551 40.6576Z" fill="#425855" stroke="#101820" stroke-width="1.59783"/>
<path opacity="0.13" d="M43.6802 48.2355C45.1755 47.4802 46.3101 47.0174 47.8777 47.1955C48.7566 46.9104 49.6209 46.6626 50.3471 46.0757C50.9398 45.5967 51.8511 45.6471 52.4736 45.2977C53.3697 44.7948 55.2982 45.1932 56.3013 45.1932C57.6598 45.1932 58.3565 45.6457 58.8301 47.0279C59.3186 48.4535 60.2324 50.2186 60.2324 51.7191L60.2324 59.5107C60.2324 66.2412 60.2044 73.1394 58.4508 79.6805C57.5218 83.1456 54.9592 85.0496 51.9563 86.5664C49.6482 87.7322 47.1418 87.369 44.7837 86.6941C42.0708 85.9176 39.9259 84.8991 38.7145 82.2816C37.3977 79.4363 37.0837 76.1801 36.8524 73.085C36.6983 71.0223 36.3163 68.9754 36.2432 66.9074C36.135 63.8459 35.9378 60.5882 37.1628 57.7224C38.025 55.7054 39.0971 53.7348 39.91 51.7191C40.4761 50.3154 42.3743 48.8951 43.6802 48.2355Z" fill="white"/>
</g>
<path d="M26.8551 40.6576L26.0562 40.6576L26.0562 41.4565L26.0562 94.5435L26.0562 95.3424L26.8551 95.3424C40.6312 95.3424 51.7989 84.1747 51.7989 70.3986L51.7989 65.6015C51.7989 51.8254 40.6312 40.6576 26.8551 40.6576Z" stroke="#101820" stroke-width="1.59783"/>
<mask id="mask1_118:26220" style="mask-type:alpha" maskUnits="userSpaceOnUse" x="2" y="2" width="25" height="132">
<path d="M1.99961 2C15.3345 2 26.1445 12.81 26.1445 26.1449L26.1445 109.855C26.1445 123.19 15.3345 134 1.99961 134L1.99961 2Z" fill="#466561"/>
</mask>
<g mask="url(#mask1_118:26220)">
<path d="M1.99961 1.20109L1.2007 1.20109L1.2007 2L1.20069 134L1.20069 134.799L1.99961 134.799C15.7757 134.799 26.9434 123.631 26.9434 109.855L26.9434 26.1449C26.9434 12.3688 15.7757 1.20109 1.99961 1.20109Z" fill="#0B302B" stroke="#101820" stroke-width="1.59783"/>
<path opacity="0.04" d="M13.8033 12.6111C15.3032 10.3317 16.4413 8.93472 18.0137 9.4724C18.8952 8.61186 19.7622 7.86412 20.4906 6.09285C21.0852 4.64713 21.9992 4.79927 22.6236 3.74487C23.5225 2.22704 25.4569 3.42947 26.463 3.42947C27.8257 3.42947 28.5245 4.79501 28.9996 8.96651C29.4896 13.2691 30.4062 18.596 30.4062 23.1245L30.4062 46.6394C30.4062 66.952 30.3781 87.7708 28.6191 107.512C27.6873 117.969 25.1169 123.716 22.1048 128.293C19.7896 131.812 17.2755 130.716 14.9102 128.679C12.1889 126.335 10.0375 123.261 8.82241 115.362C7.50156 106.775 7.18652 96.9474 6.95458 87.6064C6.8 81.3813 6.41683 75.2039 6.3435 68.9627C6.23493 59.7231 6.03714 49.8914 7.26588 41.2425C8.13074 35.155 9.20611 29.2078 10.0215 23.1245C10.5893 18.8883 12.4934 14.6018 13.8033 12.6111Z" fill="white"/>
<circle cx="12.9568" cy="74.8479" r="4.22283" transform="rotate(-180 12.9568 74.8479)" fill="#8DFF1F" stroke="#101820" stroke-width="1.59783"/>
<path d="M10.5419 74.0459C11.0767 73.5111 11.22 74.724 12.0564 75.5605C12.8929 76.3969 14.1058 76.5402 13.571 77.075C13.0361 77.6099 11.9245 77.3654 11.088 76.5289C10.2515 75.6924 10.007 74.5808 10.5419 74.0459Z" fill="white"/>
<circle cx="12.9568" cy="61.1521" r="4.22283" transform="rotate(-180 12.9568 61.1521)" fill="#FA4B28" stroke="#101820" stroke-width="1.59783"/>
<path d="M10.5419 60.7461C11.0767 60.2113 11.22 61.4242 12.0564 62.2607C12.8929 63.0971 14.1058 63.2404 13.571 63.7752C13.0361 64.3101 11.9245 64.0656 11.088 63.2291C10.2515 62.3926 10.007 61.281 10.5419 60.7461Z" fill="white"/>
</g>
<path d="M1.99961 1.20109L1.2007 1.20109L1.2007 2L1.20069 134L1.20069 134.799L1.99961 134.799C15.7757 134.799 26.9434 123.631 26.9434 109.855L26.9434 26.1449C26.9434 12.3688 15.7757 1.20109 1.99961 1.20109Z" stroke="#101820" stroke-width="1.59783"/>
</svg>
