<svg width="33" height="33" viewBox="0 0 33 33" fill="none" xmlns="http://www.w3.org/2000/svg">
<path fill-rule="evenodd" clip-rule="evenodd" d="M2.57998 0.0982272C1.37478 0.360495 0.357933 1.3885 0.10003 2.60533C-0.0333435 3.23482 -0.0333435 29.3574 0.10003 29.9869C0.361179 31.219 1.37777 32.2357 2.6097 32.4969C3.23909 32.6303 29.3578 32.6303 29.9872 32.4969C31.2192 32.2357 32.2358 31.219 32.4969 29.9869C32.6303 29.3574 32.6303 3.23482 32.4969 2.60533C32.2358 1.37323 31.2192 0.356486 29.9872 0.0952997C29.3789 -0.0336387 3.17317 -0.0308385 2.57998 0.0982272ZM21.9735 7.67422C22.64 7.81308 23.2631 8.129 23.738 8.56877C24.0543 8.86165 24.1796 8.93916 24.3092 8.92242C24.5977 8.88507 25.4392 8.59963 26.1266 8.30599C26.4913 8.15013 26.8059 8.02266 26.8256 8.02266C26.9121 8.02266 26.8435 8.23477 26.5985 8.72431C26.395 9.13104 26.2094 9.37721 25.7777 9.8136C25.4708 10.1237 25.2488 10.3774 25.2843 10.3774C25.4467 10.3774 26.7343 10.0332 27.0066 9.91708C27.1739 9.84568 27.3259 9.8024 27.3444 9.82092C27.4027 9.87928 27.1864 10.3228 26.9455 10.6388C26.8179 10.8061 26.4635 11.1609 26.1578 11.4272L25.6021 11.9114L25.5603 12.5604C25.1492 18.9495 21.4341 23.5154 15.7154 24.66C12.5839 25.2868 9.98071 24.8936 7.23083 23.3784C6.88085 23.1855 6.58839 23.0225 6.58095 23.0161C6.5735 23.0097 6.97439 23.0043 7.4718 23.004C8.05429 23.0037 8.59142 22.9642 8.98072 22.893C10.2114 22.6679 11.7234 22.0541 12.4929 21.4672C12.8098 21.2255 12.8053 21.1358 12.4762 21.1338C12.2043 21.1322 11.4558 20.9096 11.017 20.6997C10.1071 20.2647 9.25644 19.2973 8.85492 18.241L8.79994 18.0963L9.38345 18.1241C9.70441 18.1395 10.0805 18.1271 10.2193 18.0967L10.4716 18.0415L10.0921 17.9024C8.45041 17.3007 7.40295 15.9234 7.22669 14.1348L7.18259 13.6874L7.60931 13.8808C7.87345 14.0006 8.19422 14.0891 8.4513 14.1131L8.86656 14.1519L8.50399 13.809C7.25399 12.6265 6.77229 10.0558 7.52449 8.58105L7.6494 8.33628L8.45823 9.09973C10.8826 11.388 13.1725 12.4826 16.2597 12.8288C16.6071 12.8678 16.6311 12.8622 16.586 12.7538C16.5592 12.6894 16.5236 12.3503 16.5069 12.0003C16.4717 11.2603 16.5779 10.7032 16.87 10.0974C17.7192 8.33622 19.9859 7.25991 21.9735 7.67422Z" fill="white"/>
</svg>
