<svg width="38" height="38" viewBox="0 0 38 38" fill="none" xmlns="http://www.w3.org/2000/svg">
<g clip-path="url(#clip0_485:20702)">
<path fill-rule="evenodd" clip-rule="evenodd" d="M19.0515 37.1694C29.1602 37.1694 37.3559 28.9737 37.3559 18.865C37.3559 8.7563 29.1623 0.560547 19.0515 0.560547C8.94282 0.560547 0.74707 8.7563 0.74707 18.865C0.74707 28.9737 8.94282 37.1694 19.0515 37.1694ZM31.0023 20.8647V22.0438C31.0023 22.1115 30.9609 22.1717 30.9007 22.198C30.5321 22.356 29.2702 22.9352 28.7455 23.6649C28.4537 24.0712 28.1768 24.5155 27.8986 24.962C26.9005 26.5637 25.885 28.1934 24.0967 28.1934H14.5563C11.175 28.1934 8.43494 25.444 8.43494 22.0513V21.9422C8.43494 21.852 8.50828 21.7786 8.59858 21.7786H13.9169C14.0222 21.7786 14.0993 21.8764 14.0899 21.9799C14.0523 22.3259 14.1163 22.6795 14.2799 23.0011C14.5958 23.6423 15.2503 24.0429 15.9574 24.0429H18.5902V21.9874H15.9875C15.854 21.9874 15.775 21.8332 15.8521 21.7241C15.8678 21.7 15.8847 21.6753 15.9024 21.6494C15.9165 21.6288 15.9311 21.6074 15.9461 21.5849C16.1925 21.2352 16.5441 20.6916 16.8939 20.0729C17.1328 19.6555 17.3641 19.2097 17.5503 18.7622C17.5852 18.6871 17.6136 18.6105 17.6415 18.5353L17.6416 18.5351L17.648 18.5176C17.6611 18.4808 17.6744 18.4446 17.6874 18.4088L17.6876 18.4083L17.6877 18.4082C17.7252 18.3055 17.7612 18.2066 17.7891 18.1077C17.8198 18.0155 17.8455 17.9196 17.8703 17.827L17.8869 17.7654C17.9753 17.3855 18.0129 16.9831 18.0129 16.5656C18.0129 16.402 18.0054 16.2309 17.9903 16.0672C17.9828 15.8886 17.9602 15.7099 17.9377 15.5313L17.9377 15.5313C17.9226 15.3733 17.8944 15.2172 17.8643 15.0536C17.8267 14.8147 17.7741 14.5778 17.7139 14.3389L17.6932 14.2487C17.6798 14.2 17.667 14.1519 17.6543 14.1041L17.6542 14.1038L17.6541 14.1035C17.6242 13.9911 17.5947 13.88 17.5578 13.7654C17.4092 13.252 17.2381 12.7517 17.0575 12.2834C16.9919 12.0979 16.917 11.9198 16.842 11.7417L16.842 11.7417L16.8413 11.74C16.7541 11.5287 16.6658 11.3325 16.5818 11.1459L16.5141 10.9952C16.4614 10.8899 16.4162 10.794 16.3711 10.6962C16.3204 10.5852 16.2677 10.4743 16.2151 10.369C16.2003 10.3373 16.1847 10.3065 16.1694 10.2762L16.1694 10.2762L16.1693 10.2761C16.1455 10.2291 16.1224 10.1834 16.1041 10.1377L15.7825 9.54339C15.7373 9.46253 15.8126 9.36661 15.9009 9.39106L17.9132 9.93645H17.9189C17.9211 9.93645 17.9226 9.93709 17.9239 9.93762C17.9248 9.938 17.9256 9.93832 17.9264 9.93832L18.1916 10.0117L18.4831 10.0944L18.5902 10.1245V8.92844C18.5902 8.35108 19.0529 7.88281 19.6246 7.88281C19.9104 7.88281 20.1699 7.99939 20.3561 8.18935C20.5423 8.37931 20.6589 8.63883 20.6589 8.92844V10.7037L20.8733 10.7639C20.8902 10.7695 20.9072 10.7771 20.9222 10.7883C20.9421 10.8033 20.9652 10.8209 20.9915 10.8409L20.9915 10.8409C21.0347 10.8738 21.0863 10.9132 21.146 10.9576C21.1763 10.9819 21.2076 11.0083 21.2405 11.0361C21.2892 11.0772 21.3415 11.1215 21.3999 11.1663C21.5936 11.3225 21.8249 11.5237 22.0788 11.755C22.1465 11.8133 22.2123 11.8735 22.2725 11.9337C22.5997 12.2383 22.9664 12.5956 23.3162 12.9906C23.414 13.1015 23.5099 13.2143 23.6077 13.3328C23.6423 13.3754 23.6776 13.4177 23.7127 13.4598L23.7128 13.4599C23.777 13.537 23.8409 13.6136 23.8992 13.6902L23.9653 13.7777L23.9653 13.7778C24.0641 13.9085 24.1659 14.0431 24.2565 14.1829C24.2794 14.218 24.3037 14.2534 24.328 14.289L24.328 14.289C24.3597 14.3353 24.3914 14.3816 24.4202 14.4273C24.5631 14.6436 24.6891 14.8674 24.8094 15.0912C24.8602 15.1946 24.9129 15.3075 24.958 15.4184C25.0915 15.7174 25.1968 16.0221 25.2645 16.3268C25.2852 16.3926 25.3003 16.4641 25.3078 16.528V16.543C25.3303 16.6333 25.3379 16.7292 25.3454 16.827C25.3755 17.1392 25.3604 17.4514 25.2928 17.7654C25.2645 17.899 25.2269 18.0249 25.1818 18.1585L25.1665 18.202C25.1263 18.3164 25.0849 18.4341 25.0332 18.5459C24.9204 18.8073 24.7869 19.0687 24.6289 19.3132C24.5781 19.4034 24.5179 19.4993 24.4577 19.5896C24.4254 19.6367 24.3927 19.6824 24.3606 19.7272C24.3273 19.7737 24.2947 19.8192 24.264 19.8642C24.1813 19.977 24.0929 20.0955 24.0027 20.2008C23.9218 20.3118 23.839 20.4227 23.7487 20.5205C23.6228 20.6691 23.5024 20.8101 23.3764 20.9455C23.3012 21.0339 23.2203 21.1242 23.1375 21.2051C23.0681 21.2826 22.9972 21.3532 22.931 21.4192L22.931 21.4193L22.8987 21.4514C22.7727 21.5774 22.6674 21.6752 22.579 21.7561L22.3721 21.946C22.3421 21.9723 22.3026 21.9874 22.2612 21.9874H20.6589V24.0429H22.6749C23.1263 24.0429 23.555 23.883 23.9011 23.5897L23.9103 23.5816L23.9103 23.5816C24.0445 23.4646 24.5514 23.0224 25.1479 22.3635C25.1686 22.341 25.195 22.324 25.225 22.3165L30.7935 20.7067C30.897 20.6766 31.0023 20.7556 31.0023 20.8647ZM9.7776 19.4797L9.8566 19.3556L14.6183 11.9065C14.6879 11.7974 14.8515 11.8087 14.9041 11.9271C15.6997 13.71 16.3861 15.9272 16.0645 17.3076C15.9272 17.8755 15.5511 18.6447 15.1279 19.3556C15.0734 19.459 15.0132 19.5606 14.9493 19.6584C14.9192 19.7035 14.8684 19.7298 14.8139 19.7298H9.91676C9.78513 19.7298 9.70804 19.5869 9.7776 19.4797Z" fill="white"/>
</g>
<defs>
<clipPath id="clip0_485:20702">
<rect width="36.6089" height="36.6089" fill="white" transform="translate(0.74707 0.560547)"/>
</clipPath>
</defs>
</svg>
