<svg width="734" height="52" fill="none" xmlns="http://www.w3.org/2000/svg"><path d="M736.5 32H52C34.327 32 20 17.673 20 0" stroke="#101820" stroke-width="40"/><path opacity=".04" d="M759 23H48C35.297 23 25 12.703 25 0v0" stroke="#F2F4F8" stroke-width="10" stroke-linecap="round"/><path opacity=".1" d="M355.444 27.185V32h-.849v-3.965h-1.258V32h-.85v-4.815h2.957Zm-.963-2.685c0-.121.038-.223.114-.306a.415.415 0 0 1 .305-.125c.121 0 .223.041.306.125a.417.417 0 0 1 .125.306c0 .12-.042.222-.125.305a.438.438 0 0 1-.306.114.437.437 0 0 1-.305-.114.436.436 0 0 1-.114-.305Zm-1.881 0c0-.121.038-.223.114-.306a.416.416 0 0 1 .306-.125c.121 0 .223.041.306.125a.416.416 0 0 1 .124.306c0 .12-.041.222-.124.305a.438.438 0 0 1-.306.114.438.438 0 0 1-.306-.114.436.436 0 0 1-.114-.305Zm8.471-.431h2.958V32h-.85v-3.965h-2.108v-.85h2.108v-2.266h-2.108v-.85Zm6.387 4.963L365.01 32l-.509-.453 2.107-2.515-1.972-1.994 2.312-2.969.51.453-1.972 2.516 1.972 1.994Zm3.429 0L368.439 32l-.509-.453 2.107-2.515-1.971-1.994 2.311-2.969.51.453-1.972 2.516 1.972 1.994Zm6.477-4.963v3.116h2.107V32h-.85v-3.965h-1.257V32h-.85v-7.931h.85Zm1.144.544a.44.44 0 0 1 .113-.306.416.416 0 0 1 .306-.125c.121 0 .223.042.306.125a.417.417 0 0 1 .125.306c0 .12-.042.223-.125.306a.438.438 0 0 1-.306.113.438.438 0 0 1-.306-.113.44.44 0 0 1-.113-.306Zm4.392 2.572V32h-.85v-3.965h-1.257V32h-.85v-4.815h2.957Zm-.963-2.685a.44.44 0 0 1 .113-.306.416.416 0 0 1 .306-.125c.121 0 .223.041.306.125a.417.417 0 0 1 .125.306c0 .12-.042.222-.125.305a.438.438 0 0 1-.306.114.438.438 0 0 1-.306-.114.44.44 0 0 1-.113-.305Zm-1.881 0c0-.121.038-.223.114-.306a.415.415 0 0 1 .305-.125c.121 0 .223.041.306.125a.417.417 0 0 1 .125.306c0 .12-.042.222-.125.305a.438.438 0 0 1-.306.114.437.437 0 0 1-.305-.114.436.436 0 0 1-.114-.305Zm6.273-.431V32h-.85v-3.965h-1.257V32h-.85v-4.815h2.107v-2.266h-2.107v-.85h2.957Zm5.627 0h2.957v.85h-1.903l1.903 2.266V32h-2.957v-.85h2.108v-3.716l-2.108-2.515v-.85Zm6.387 4.963L395.895 32l-.51-.453 2.108-2.515-1.972-1.994 2.312-2.969.51.453-1.972 2.516 1.972 1.994Zm3.429-4.17-1.088 3.07 1.088 3.728-.737.34-.816-2.765-.781 2.198-.624-.226 1.088-3.07-1.088-3.728.737-.34.804 2.776.793-2.21.624.227Zm3.429-.793V32h-.85v-7.081h-1.258V32h-.849v-7.931h2.957Zm.472 3.966v-3.966h2.957V32h-2.957v-.85h2.107V24.92h-1.258v3.116h-.849Zm6.386-3.966V32h-.85v-7.081h-1.257V32h-.85v-7.931h2.957Zm3.429 0V32h-.85v-3.965h-1.257V32h-.85v-4.815h2.107v-2.266h-2.107v-.85h2.957Zm.472 0h2.957V32h-.85v-3.965h-2.107v-.85h2.107v-2.266h-2.107v-.85Zm3.429 7.081h1.054v-3.115h.85v3.115h1.053V32h-2.957v-.85Zm0-7.081h2.957v.85h-2.957v-.85Zm4.709 0 .941 4.747.113-2.764h.737l-.227 5.835-.736.113-1.043-5.302-.442 5.302-.736-.113.657-7.818h.736ZM507.444 27.184V32h-.849v-3.966h-1.258V32h-.85v-4.816h2.957Zm-.963-2.685c0-.12.038-.223.114-.306a.415.415 0 0 1 .305-.125c.121 0 .223.042.306.125a.417.417 0 0 1 .125.306c0 .12-.042.223-.125.306a.438.438 0 0 1-.306.113.437.437 0 0 1-.305-.113.437.437 0 0 1-.114-.306Zm-1.881 0c0-.12.038-.223.114-.306a.416.416 0 0 1 .306-.125c.121 0 .223.042.306.125a.416.416 0 0 1 .124.306c0 .12-.041.223-.124.306a.438.438 0 0 1-.306.113.438.438 0 0 1-.306-.113.437.437 0 0 1-.114-.306Zm8.471-.43h2.958v7.93h-.85v-3.965h-2.108v-.85h2.108v-2.266h-2.108v-.85Zm6.387 4.962L517.01 32l-.509-.454 2.107-2.515-1.972-1.994 2.312-2.968.51.453-1.972 2.515 1.972 1.994Zm3.429 0L520.439 32l-.509-.454 2.107-2.515-1.971-1.994 2.311-2.968.51.453-1.972 2.515 1.972 1.994Zm6.477-4.962v3.115h2.107V32h-.85v-3.966h-1.257V32h-.85v-7.931h.85Zm1.144.543a.44.44 0 0 1 .113-.306.416.416 0 0 1 .306-.124c.121 0 .223.041.306.124a.417.417 0 0 1 .125.306c0 .121-.042.223-.125.306a.438.438 0 0 1-.306.114.438.438 0 0 1-.306-.114.44.44 0 0 1-.113-.306Zm4.392 2.572V32h-.85v-3.966h-1.257V32h-.85v-4.816h2.957Zm-.963-2.685a.44.44 0 0 1 .113-.306.416.416 0 0 1 .306-.125c.121 0 .223.042.306.125a.417.417 0 0 1 .125.306c0 .12-.042.223-.125.306a.438.438 0 0 1-.306.113.438.438 0 0 1-.306-.113.44.44 0 0 1-.113-.306Zm-1.881 0c0-.12.038-.223.114-.306a.415.415 0 0 1 .305-.125c.121 0 .223.042.306.125a.417.417 0 0 1 .125.306c0 .12-.042.223-.125.306a.438.438 0 0 1-.306.113.437.437 0 0 1-.305-.113.437.437 0 0 1-.114-.306Zm6.273-.43v7.93h-.85v-3.965h-1.257V32h-.85v-4.816h2.107v-2.266h-2.107v-.85h2.957Zm5.627 0h2.957v.85h-1.903l1.903 2.265V32h-2.957v-.85h2.108v-3.716l-2.108-2.516v-.85Zm6.387 4.962L547.895 32l-.51-.454 2.108-2.515-1.972-1.994 2.312-2.968.51.453-1.972 2.515 1.972 1.994Zm3.429-4.17-1.088 3.071 1.088 3.728-.737.34-.816-2.765-.781 2.198-.624-.227 1.088-3.07-1.088-3.728.737-.34.804 2.776.793-2.209.624.227Zm3.429-.793V32h-.85v-7.08h-1.258v7.08h-.849v-7.93h2.957Zm.472 3.966v-3.965h2.957v7.93h-2.957v-.85h2.107v-6.23h-1.258v3.115h-.849Zm6.386-3.965v7.93h-.85v-7.08h-1.257v7.08h-.85v-7.93h2.957Zm3.429 0v7.93h-.85v-3.965h-1.257V32h-.85v-4.816h2.107v-2.266h-2.107v-.85h2.957Zm.472 0h2.957v7.93h-.85v-3.965h-2.107v-.85h2.107v-2.266h-2.107v-.85Zm3.429 7.08h1.054v-3.115h.85v3.116h1.053V32h-2.957v-.85Zm0-7.08h2.957v.85h-2.957v-.85Zm4.709 0 .941 4.747.113-2.765h.737l-.227 5.835-.736.114-1.043-5.303-.442 5.303-.736-.114.657-7.817h.736Zm7.304 7.93v-7.93h.85v7.93h-.85Zm1.994-1.665c0-.12.038-.223.114-.306a.416.416 0 0 1 .306-.124c.121 0 .223.041.306.124a.416.416 0 0 1 .124.306c0 .12-.041.223-.124.306a.438.438 0 0 1-.306.113.438.438 0 0 1-.306-.113.436.436 0 0 1-.114-.306Zm0-4.589c0-.12.038-.223.114-.306a.416.416 0 0 1 .306-.124c.121 0 .223.041.306.124a.416.416 0 0 1 .124.306c0 .121-.041.223-.124.306a.438.438 0 0 1-.306.114.438.438 0 0 1-.306-.114.437.437 0 0 1-.114-.306ZM586.832 32v-4.816h.849v3.966h1.258v-3.966h.85V32h-2.957Zm0-7.931h2.957v.85h-2.957v-.85Zm6.386.793-1.088 3.07 1.088 3.728-.737.34-.815-2.765-.782 2.198-.623-.227 1.087-3.07-1.087-3.728.736-.34.804 2.776.794-2.209.623.227Zm.472-.793h2.957v.85h-1.054v2.265h1.054V32h-2.957v-4.816h1.053v-2.266h-1.053v-.85Zm.849 3.965v3.116h1.258v-3.116h-1.258Zm2.58-3.965h2.957v7.93h-.85v-7.08h-2.107v-.85Zm6.386 0v7.93h-.85v-7.08h-1.257v7.08h-.85v-7.93h2.957Zm3.429 3.115V32h-.85v-3.966h-1.257V32h-.85v-4.816h2.957Zm-.963-2.685a.44.44 0 0 1 .113-.306.416.416 0 0 1 .306-.125c.121 0 .223.042.306.125a.417.417 0 0 1 .125.306c0 .12-.042.223-.125.306a.438.438 0 0 1-.306.113.438.438 0 0 1-.306-.113.44.44 0 0 1-.113-.306Zm-1.881 0c0-.12.038-.223.114-.306a.415.415 0 0 1 .305-.125c.121 0 .223.042.306.125a.417.417 0 0 1 .125.306c0 .12-.042.223-.125.306a.438.438 0 0 1-.306.113.437.437 0 0 1-.305-.113.437.437 0 0 1-.114-.306Zm3.089 7.5v-7.93h.85l.85 2.062.861-2.063h.85v3.966h-.85v-2.38l-.657 1.383h-.397l-.657-1.382V32h-.85Zm12.24 0v-7.93h.85v7.93h-.85Zm1.994-1.665c0-.12.038-.223.114-.306a.416.416 0 0 1 .306-.124c.121 0 .223.041.306.124a.416.416 0 0 1 .124.306c0 .12-.041.223-.124.306a.438.438 0 0 1-.306.113.438.438 0 0 1-.306-.113.436.436 0 0 1-.114-.306Zm0-4.589c0-.12.038-.223.114-.306a.416.416 0 0 1 .306-.124c.121 0 .223.041.306.124a.416.416 0 0 1 .124.306c0 .121-.041.223-.124.306a.438.438 0 0 1-.306.114.438.438 0 0 1-.306-.114.437.437 0 0 1-.114-.306Zm4.393 3.286L623.358 32l-.509-.454 2.107-2.515-1.972-1.994 2.312-2.968.51.453-1.972 2.515 1.972 1.994Zm.472-4.962h2.957v7.93h-.85v-3.965h-2.107v-.85h2.107v-2.266h-2.107v-.85Zm6.386 3.115V32h-.85v-3.966h-1.258V32h-.849v-4.816h2.957Zm-.963-2.685a.44.44 0 0 1 .113-.306.416.416 0 0 1 .306-.125c.121 0 .223.042.306.125a.417.417 0 0 1 .125.306c0 .12-.042.223-.125.306a.438.438 0 0 1-.306.113.438.438 0 0 1-.306-.113.44.44 0 0 1-.113-.306Zm-1.881 0a.44.44 0 0 1 .113-.306.416.416 0 0 1 .306-.125c.121 0 .223.042.306.125a.417.417 0 0 1 .125.306c0 .12-.042.223-.125.306a.438.438 0 0 1-.306.113.438.438 0 0 1-.306-.113.44.44 0 0 1-.113-.306Zm3.316-.43h2.957v7.93h-.85v-7.08h-2.107v-.85Zm6.386.793-1.088 3.07 1.088 3.728-.736.34-.816-2.765-.782 2.198-.623-.227 1.088-3.07-1.088-3.728.736-.34.805 2.776.793-2.209.623.227Zm.472 7.138v-4.816h.85v3.966h1.257v-3.966h.85V32h-2.957Zm0-7.931h2.957v.85h-2.957v-.85Zm5.333 7.08h1.053V32h-2.957v-.85h1.054v-3.115l-1.054-3.965h.85l.623 2.707.634-2.707h.85l-1.053 3.965v3.116Zm1.299.85v-7.93h.849l.85 2.062.861-2.063h.85v3.966h-.85v-2.38l-.657 1.383h-.397l-.657-1.382V32h-.849Zm8.81-7.93h2.958v7.93h-.85v-3.965h-2.108v-.85h2.108v-2.266h-2.108v-.85Zm4.71 0 .94 4.747.113-2.765h.737l-.227 5.835-.736.114-1.042-5.303-.442 5.303-.737-.114.657-7.817h.737Zm2.149 0h2.957v.85h-1.054v2.265h1.054V32h-2.957v-4.816h1.053v-2.266h-1.053v-.85Zm.849 3.965v3.116h1.258v-3.116h-1.258Zm7.735 3.512 1.745-2.662h-1.745v-4.816h.85v3.966h1.257v-3.965h.85v7.93h-.85v-2.435L671.389 32l-.51-.454Zm3.429-7.477h2.957v7.93h-.85v-3.965h-2.107v-.85h2.107v-2.266h-2.107v-.85Zm6.386 4.962L678.247 32l-.51-.454 2.107-2.515-1.971-1.994 2.311-2.968.51.453-1.971 2.515 1.971 1.994Zm3.429 0L681.676 32l-.51-.454 2.108-2.515-1.972-1.994 2.311-2.968.51.453-1.971 2.515 1.971 1.994Zm1.322-4.962v3.115h2.107V32h-.849v-3.966h-1.258V32h-.85v-7.931h.85Zm1.144.543c0-.12.038-.222.114-.306a.416.416 0 0 1 .306-.124c.12 0 .222.041.305.124a.413.413 0 0 1 .125.306c0 .121-.041.223-.125.306a.437.437 0 0 1-.305.114.438.438 0 0 1-.306-.114.437.437 0 0 1-.114-.306Zm4.392 2.572V32h-.849v-3.966h-1.258V32h-.85v-4.816h2.957Zm-.963-2.685c0-.12.038-.223.114-.306a.416.416 0 0 1 .306-.125.42.42 0 0 1 .306.125.416.416 0 0 1 .124.306c0 .12-.041.223-.124.306a.442.442 0 0 1-.306.113.438.438 0 0 1-.306-.113.437.437 0 0 1-.114-.306Zm-1.88 0c0-.12.037-.223.113-.306a.416.416 0 0 1 .306-.125c.121 0 .223.042.306.125a.416.416 0 0 1 .124.306c0 .12-.041.223-.124.306a.438.438 0 0 1-.306.113.438.438 0 0 1-.306-.113.436.436 0 0 1-.113-.306Zm3.089 7.5v-7.93h.85l.849 2.062.861-2.063h.85v3.966h-.85v-2.38l-.657 1.383h-.396l-.657-1.382V32h-.85Z" fill="#fff"/></svg>