<svg width="188" height="73" viewBox="0 0 188 73" fill="none" xmlns="http://www.w3.org/2000/svg">
<mask id="mask0_485:3102" style="mask-type:alpha" maskUnits="userSpaceOnUse" x="57" y="2" width="74" height="34">
<path d="M57 36C57 17.2223 72.2223 2 91 2H97C115.778 2 131 17.2223 131 36V36H57V36Z" fill="#466561"/>
</mask>
<g mask="url(#mask0_485:3102)">
<path d="M56.125 36H57V36.875H131V36H131.875C131.875 16.7391 116.261 1.125 97 1.125H91C71.7391 1.125 56.125 16.7391 56.125 36Z" fill="#425855" stroke="#101820" stroke-width="1.75"/>
<path opacity="0.13" d="M70.1526 17.128C69.1701 15.7613 68.568 14.7243 68.7997 13.2916C68.4288 12.4884 68.1065 11.6985 67.343 11.0347C67.1756 10.8892 66.9325 10.7787 66.6722 10.7039C65.9905 10.9548 65.4479 11.065 65.3484 10.9087C65.1283 10.5629 65.9637 10.5006 66.6722 10.7039C68.0516 10.1964 70.0004 9.11349 70.0004 8.49995C70.0004 7.25832 72.8862 6.02572 74.6842 5.59285C76.5388 5.14637 77.5483 3.62831 79.5002 3.62831C82.8743 3.62831 81.5991 1.5 85 1.5C93.7555 1.5 102.729 1.5256 111.238 3.12836C115.746 3.97741 118.042 6.81944 120.016 9.56396C121.532 11.6735 121.06 13.9642 120.182 16.1194C119.172 18.5989 117.847 20.5592 114.442 21.6664C110.74 22.8699 106.504 23.1569 102.478 23.3683C99.7949 23.5091 97.1323 23.8583 94.4421 23.9251C90.4595 24.024 86.2217 24.2042 82.4937 23.0846C79.8698 22.2966 77.3063 21.3168 74.6842 20.5738C72.8583 20.0564 71.0107 18.3215 70.1526 17.128Z" fill="white"/>
</g>
<path d="M56.125 36H57V36.875H131V36H131.875C131.875 16.7391 116.261 1.125 97 1.125H91C71.7391 1.125 56.125 16.7391 56.125 36Z" stroke="#101820" stroke-width="1.75"/>
<mask id="mask1_485:3102" style="mask-type:alpha" maskUnits="userSpaceOnUse" x="2" y="37" width="184" height="34">
<path d="M2 71C2 52.2223 17.2223 37 36 37H152C170.778 37 186 52.2223 186 71V71H2V71Z" fill="#466561"/>
</mask>
<g mask="url(#mask1_485:3102)">
<path d="M1.125 71H2V71.875H186V71H186.875C186.875 51.7391 171.261 36.125 152 36.125H36C16.7391 36.125 1.125 51.7391 1.125 71Z" fill="#0B302B" stroke="#101820" stroke-width="1.75"/>
<path opacity="0.04" d="M16.7914 54.3797C13.6141 52.2676 11.6667 50.665 12.4162 48.4508C11.2167 47.2094 10.1744 45.9886 7.70535 44.9629C5.69011 44.1256 5.90217 42.8385 4.43241 41.9592C2.31664 40.6935 3.99276 37.9695 3.99276 36.5527C3.99276 34.6338 5.89624 33.6498 11.7111 32.9808C17.7086 32.2908 25.1339 31 31.4464 31H64.2247C92.5394 31 121.559 31.0396 149.077 33.5166C163.654 34.8287 171.664 38.4483 178.045 42.6898C182.95 45.95 181.422 49.4902 178.582 52.821C175.316 56.653 171.031 59.6825 160.019 61.3936C148.05 63.2535 134.351 63.6972 121.33 64.0238C112.653 64.2415 104.042 64.781 95.3421 64.8843C82.4626 65.0372 68.7579 65.3157 56.7018 63.5854C48.2162 62.3676 39.9262 60.8533 31.4464 59.705C25.5415 58.9055 19.5663 56.2242 16.7914 54.3797Z" fill="white"/>
<circle cx="101.5" cy="54" r="4.625" transform="rotate(90 101.5 54)" fill="#8DFF1F" stroke="#101820" stroke-width="1.75"/>
<path d="M100.622 56.6446C100.036 56.0588 101.364 55.902 102.281 54.9858C103.197 54.0697 103.354 52.7412 103.939 53.327C104.525 53.9128 104.257 55.1304 103.341 56.0465C102.425 56.9626 101.208 57.2304 100.622 56.6446Z" fill="white"/>
<circle cx="86.5" cy="54" r="4.625" transform="rotate(90 86.5 54)" fill="#FA4B28" stroke="#101820" stroke-width="1.75"/>
<path d="M86.0553 56.6446C85.4696 56.0588 86.798 55.902 87.7141 54.9858C88.6303 54.0697 88.7871 52.7412 89.3729 53.327C89.9587 53.9128 89.6909 55.1304 88.7748 56.0465C87.8587 56.9626 86.6411 57.2304 86.0553 56.6446Z" fill="white"/>
</g>
<path d="M1.125 71H2V71.875H186V71H186.875C186.875 51.7391 171.261 36.125 152 36.125H36C16.7391 36.125 1.125 51.7391 1.125 71Z" stroke="#101820" stroke-width="1.75"/>
</svg>
